<svg width="62" height="60" viewBox="0 0 62 60" fill="none" xmlns="http://www.w3.org/2000/svg">
<g clip-path="url(#clip0)">
<path d="M9.51074 60C7.16241 60 5.16632 58.1213 5.16632 55.6556V36.5166C5.16632 36.047 5.51857 35.6947 5.87082 35.5773C6.34049 35.4599 6.81016 35.6947 6.92757 36.047L7.16241 36.5166L13.6203 49.9022C13.7377 50.0196 13.7377 50.137 13.7377 50.3718V55.6556C13.8552 58.0039 11.8591 60 9.51074 60ZM7.16241 40.8611V55.6556C7.16241 56.9472 8.21916 58.0039 9.51074 58.0039C10.8023 58.0039 11.8591 56.9472 11.8591 55.6556V50.6066L7.16241 40.8611Z" fill="#713ADA"/>
<path d="M19.0215 60C18.5518 60 18.1996 59.8826 17.7299 59.7652C16.5557 59.413 15.6164 58.591 15.1467 57.5343L5.51856 37.3386C5.16631 36.6341 4.93147 36.1644 4.81406 35.6947C4.57922 35.1077 4.46181 34.5206 4.46181 33.8161V15.9687C4.46181 14.5597 5.04889 13.2681 5.98823 12.3288C7.04498 11.3895 8.33656 10.8024 9.74556 10.9198C12.4462 11.0372 14.6771 13.3855 14.6771 16.2036V19.9609C14.6771 20.4306 14.4422 20.7828 13.9726 20.9002C13.6203 21.0176 13.1507 20.9002 12.9158 20.548L10.9197 17.9648C10.6849 17.73 10.4501 17.6126 10.0978 17.6126C9.74556 17.6126 9.39331 17.73 9.15848 17.9648C8.68881 18.4345 8.68881 19.2564 9.15848 19.7261L14.4422 25.9492C14.5597 26.184 14.6771 26.3014 14.6771 26.5362V33.9335C14.6771 35.3425 15.1467 37.5734 15.7338 38.7476L22.8962 53.7769C23.8356 55.773 23.1311 58.3562 21.2524 59.4129C20.5479 59.7652 19.726 60 19.0215 60ZM9.51073 12.7985C8.68881 12.7985 7.98431 13.1507 7.39723 13.7378C6.81014 14.3249 6.45789 15.1468 6.45789 15.9687V33.9335C6.45789 34.4032 6.57531 34.638 6.69273 35.1077C6.81014 35.4599 7.04498 35.9296 7.27981 36.3992L7.39723 36.5167L17.0254 56.7124C17.2602 57.2994 17.8473 57.7691 18.4344 57.8865C19.0215 58.1214 19.726 58.0039 20.3131 57.6517C21.3698 57.0646 21.7221 55.6556 21.135 54.5989L13.9726 39.5695C13.2681 38.0431 12.681 35.5773 12.681 33.9335V26.8885L7.63206 20.9002C6.45789 19.4912 6.57531 17.4951 7.74948 16.4384C8.45398 15.8513 9.2759 15.4991 10.0978 15.6165C10.9197 15.6165 11.8591 16.0861 12.3287 16.7906L12.5636 17.0255V16.2036C12.681 14.3249 11.272 12.7985 9.51073 12.7985C9.62815 12.7985 9.51073 12.7985 9.51073 12.7985Z" fill="#713ADA"/>
<path d="M9.51078 10.6849C6.57536 10.6849 4.22702 8.33659 4.22702 5.40117C4.22702 2.46575 6.57536 0 9.51078 0C12.4462 0 14.7945 2.34834 14.7945 5.28376C14.7945 8.21918 12.4462 10.6849 9.51078 10.6849ZM9.51078 1.99609C7.63211 1.99609 6.22311 3.5225 6.22311 5.28376C6.22311 7.16243 7.74953 8.57143 9.51078 8.57143C11.3894 8.57143 12.7984 7.04501 12.7984 5.28376C12.7984 3.5225 11.3894 1.99609 9.51078 1.99609Z" fill="#713ADA"/>
<path d="M23.366 29.9412H17.0255C16.6732 29.9412 15.0294 29.9412 14.2075 28.7671L7.5147 20.9001C6.34053 19.4911 6.45795 17.495 7.63211 16.4383C8.33662 15.8512 9.15853 15.499 9.98045 15.6164C10.8024 15.6164 11.7417 16.086 12.2114 16.7905L17.3777 23.4833C17.6125 23.7181 17.8474 23.953 18.1996 24.0704H23.1311C24.775 24.0704 26.0666 25.362 26.0666 27.0058C26.4188 28.6496 25.0098 29.9412 23.366 29.9412ZM9.98045 17.495C9.6282 17.495 9.39337 17.6125 9.15853 17.8473C8.68887 18.317 8.68887 19.1389 9.15853 19.6085L15.8513 27.4755C16.0861 27.8277 16.7906 27.9451 17.1429 27.9451H23.4834C24.0705 27.9451 24.5401 27.4755 24.5401 26.8884C24.5401 26.3013 24.0705 25.8316 23.4834 25.8316H18.317C18.1996 25.8316 18.0822 25.8316 17.9648 25.8316C17.2603 25.5968 16.5558 25.1271 16.0861 24.4226L10.9198 17.7299C10.685 17.7299 10.3327 17.495 9.98045 17.495Z" fill="#713ADA"/>
<path d="M34.9902 59.9999C32.9942 59.9999 31.3503 58.3561 31.3503 56.36C31.3503 54.3639 32.9942 52.7201 34.9902 52.7201C36.9863 52.7201 38.6302 54.3639 38.6302 56.36C38.6302 58.3561 36.9863 59.9999 34.9902 59.9999ZM34.9902 54.7162C34.0509 54.7162 33.3464 55.4207 33.3464 56.36C33.3464 57.2993 34.0509 58.0038 34.9902 58.0038C35.9296 58.0038 36.6341 57.2993 36.6341 56.36C36.6341 55.4207 35.9296 54.7162 34.9902 54.7162Z" fill="#713ADA"/>
<path d="M51.7808 59.9999C49.7847 59.9999 48.1409 58.3561 48.1409 56.36C48.1409 54.3639 49.7847 52.7201 51.7808 52.7201C53.7769 52.7201 55.4207 54.3639 55.4207 56.36C55.4207 58.3561 53.7769 59.9999 51.7808 59.9999ZM51.7808 54.7162C50.8415 54.7162 50.137 55.4207 50.137 56.36C50.137 57.2993 50.8415 58.0038 51.7808 58.0038C52.7202 58.0038 53.4247 57.2993 53.4247 56.36C53.4247 55.4207 52.6027 54.7162 51.7808 54.7162Z" fill="#713ADA"/>
<path d="M53.4247 55.3033C52.8376 55.3033 52.4854 54.8336 52.4854 54.3639V46.9667C52.4854 46.3796 52.955 46.0273 53.4247 46.0273C54.0118 46.0273 54.364 46.497 54.364 46.9667V54.3639C54.364 54.8336 53.8944 55.3033 53.4247 55.3033Z" fill="#713ADA"/>
<path d="M49.0802 57.2994H37.6908C37.1037 57.2994 36.7514 56.8298 36.7514 56.3601C36.7514 55.773 37.2211 55.4208 37.6908 55.4208H49.0802C49.6673 55.4208 50.0195 55.8904 50.0195 56.3601C50.137 56.9472 49.6673 57.2994 49.0802 57.2994Z" fill="#713ADA"/>
<path d="M56.3601 47.7886H29.1194C28.6497 47.7886 28.18 47.4364 28.18 46.8493L26.8884 31.2328C26.8884 30.998 27.0059 30.6457 27.1233 30.5283C27.3581 30.2935 27.5929 30.1761 27.8278 30.1761L57.5342 28.6497C57.7691 28.6497 58.1213 28.7671 58.2387 29.0019C58.4736 29.2367 58.591 29.4716 58.4736 29.7064L57.2994 46.7319C57.2994 47.4364 56.8297 47.7886 56.3601 47.7886ZM30.0587 45.7925H55.4207L56.4775 30.7632L28.8845 32.1722L30.0587 45.7925Z" fill="#713ADA"/>
<path d="M27.8278 32.1723C27.593 32.1723 27.4756 32.1723 27.2407 31.9375L23.7182 29.4717C23.2486 29.1194 23.1311 28.5324 23.4834 28.0627C23.8356 27.593 24.4227 27.4756 24.8924 27.8279L28.4149 30.2936C28.8846 30.6459 29.002 31.2329 28.6497 31.7026C28.4149 32.0549 28.1801 32.1723 27.8278 32.1723Z" fill="#713ADA"/>
<path d="M40.9785 57.2995C40.3914 57.2995 40.0392 56.8298 40.0392 56.3601V46.8494C40.0392 46.2623 40.5088 45.91 40.9785 45.91C41.5656 45.91 41.9178 46.3797 41.9178 46.8494V56.3601C41.9178 56.9472 41.4482 57.2995 40.9785 57.2995Z" fill="#713ADA"/>
<path d="M56.595 42.3875H28.7672C28.1801 42.3875 27.8278 41.9178 27.8278 41.4481C27.8278 40.861 28.2975 40.5088 28.7672 40.5088H56.595C57.182 40.5088 57.5343 40.9785 57.5343 41.4481C57.6517 41.9178 57.182 42.3875 56.595 42.3875Z" fill="#713ADA"/>
<path d="M28.2974 36.7515C27.7103 36.7515 27.3581 36.2818 27.3581 35.8121C27.3581 35.2251 27.8278 34.7554 28.2974 34.7554L57.0645 33.9335C57.5342 33.9335 58.1213 34.4031 58.1213 34.8728C58.1213 35.4599 57.6516 35.9296 57.182 35.9296L28.2974 36.7515Z" fill="#713ADA"/>
<path d="M37.6908 47.7886C37.1037 47.7886 36.7514 47.319 36.7514 46.8493V30.7632C36.7514 30.1761 37.2211 29.8239 37.6908 29.8239C38.2779 29.8239 38.6301 30.2935 38.6301 30.7632V46.8493C38.6301 47.319 38.2779 47.7886 37.6908 47.7886Z" fill="#713ADA"/>
<path d="M47.5538 47.7887C46.9667 47.7887 46.4971 47.319 46.6145 46.7319L47.4364 30.0587C47.4364 29.4716 47.9061 29.1194 48.4932 29.1194C49.0802 29.1194 49.4325 29.5891 49.4325 30.1761L48.6106 46.8493C48.4932 47.4364 48.0235 47.7887 47.5538 47.7887Z" fill="#713ADA"/>
<path d="M60.4697 60H0.939335C0.352251 60 0 59.5303 0 59.0607C0 58.4736 0.469667 58.1213 0.939335 58.1213H60.3523C60.9393 58.1213 61.2916 58.591 61.2916 59.0607C61.409 59.5303 61.0568 60 60.4697 60Z" fill="#713ADA"/>
</g>
<defs>
<clipPath id="clip0">
<rect width="61.409" height="60" fill="white"/>
</clipPath>
</defs>
</svg>
