<svg width="56" height="60" viewBox="0 0 56 60" fill="none" xmlns="http://www.w3.org/2000/svg">
<g clip-path="url(#clip0)">
<path d="M30.7059 45.8823H4.47056C3.88233 45.8823 3.52939 45.4118 3.52939 44.9412V11.8823C3.52939 11.2941 3.99998 10.9412 4.47056 10.9412H30.8235C31.4117 10.9412 31.7647 11.4118 31.7647 11.8823V44.9412C31.7647 45.5294 31.2941 45.8823 30.7059 45.8823ZM5.41174 43.8823H29.7647V12.8235H5.41174V43.8823Z" fill="#713ADA"/>
<path d="M22.7058 16.7059C22.1176 16.7059 21.7647 16.2353 21.7647 15.7647V9.76471C21.7647 7.41177 19.8823 5.64707 17.647 5.64707C15.2941 5.64707 13.5294 7.52942 13.5294 9.76471V15.7647C13.5294 16.353 13.0588 16.7059 12.5882 16.7059C12 16.7059 11.647 16.2353 11.647 15.7647V9.76471C11.4117 6.35295 14.1176 3.52942 17.5294 3.52942C20.9411 3.52942 23.647 6.2353 23.647 9.64707V15.6471C23.7647 16.2353 23.2941 16.7059 22.7058 16.7059Z" fill="#713ADA"/>
<path d="M14 15.7647C14 16.5882 13.2941 17.2941 12.4705 17.2941C11.647 17.2941 10.9411 16.5882 10.9411 15.7647C10.9411 14.9411 11.647 14.2352 12.4705 14.2352C13.2941 14.1176 14 14.8235 14 15.7647Z" fill="#713ADA"/>
<path d="M24.2353 15.7647C24.2353 16.5882 23.5294 17.2941 22.7059 17.2941C21.8823 17.2941 21.1765 16.5882 21.1765 15.7647C21.1765 14.9411 21.8823 14.2352 22.7059 14.2352C23.647 14.1176 24.2353 14.8235 24.2353 15.7647Z" fill="#713ADA"/>
<path d="M46.3529 25.7646C45.7647 25.7646 45.4117 25.2941 45.4117 24.8235V19.7646C45.4117 17.5294 43.647 15.7646 41.4117 15.7646C39.1765 15.7646 37.4117 17.5294 37.4117 19.7646V24.8235C37.4117 25.4117 36.9412 25.7646 36.4706 25.7646C36 25.7646 35.2941 25.2941 35.2941 24.8235V19.7646C35.2941 16.4705 38 13.7646 41.2941 13.7646C44.5882 13.7646 47.2941 16.4705 47.2941 19.7646V24.8235C47.2941 25.2941 46.9412 25.7646 46.3529 25.7646Z" fill="#713ADA"/>
<path d="M37.8824 24.8235C37.8824 25.647 37.1765 26.3529 36.353 26.3529C35.5294 26.3529 34.8235 25.647 34.8235 24.8235C34.8235 24 35.5294 23.2941 36.353 23.2941C37.1765 23.2941 37.8824 24 37.8824 24.8235Z" fill="#713ADA"/>
<path d="M46.353 26.3529C47.1976 26.3529 47.8824 25.6682 47.8824 24.8235C47.8824 23.9788 47.1976 23.2941 46.353 23.2941C45.5083 23.2941 44.8235 23.9788 44.8235 24.8235C44.8235 25.6682 45.5083 26.3529 46.353 26.3529Z" fill="#713ADA"/>
<path d="M54.1176 51.7647H27.7647C27.1764 51.7647 26.8235 51.2941 26.8235 50.8235V45.0588C26.8235 44.4706 27.2941 44.1176 27.7647 44.1176H29.7647V21.8823C29.7647 21.2941 30.2353 20.9412 30.7058 20.9412H54.1176C54.7058 20.9412 55.0588 21.4118 55.0588 21.8823V50.7059C55.0588 51.2941 54.5882 51.7647 54.1176 51.7647ZM28.7058 49.7647H53.0588V22.9412H31.7647V44.9412C31.7647 45.5294 31.2941 45.8823 30.8235 45.8823H28.8235V49.7647H28.7058Z" fill="#713ADA"/>
<path d="M19.647 41.4117H8.94112C8.35288 41.4117 7.99994 40.9412 7.99994 40.4706V24.3529C7.99994 23.7647 8.47053 23.4117 8.94112 23.4117C9.52935 23.4117 9.88229 23.8823 9.88229 24.3529V39.5294H19.647C20.2352 39.5294 20.5882 40 20.5882 40.4706C20.5882 40.9412 20.2352 41.4117 19.647 41.4117Z" fill="#713ADA"/>
<path d="M49.6471 47.647H43.2941C42.7059 47.647 42.3529 47.1764 42.3529 46.7058C42.3529 46.1176 42.8235 45.7647 43.2941 45.7647H48.5882V39.2941C48.5882 38.7058 49.0588 38.3529 49.5294 38.3529C50.1176 38.3529 50.4706 38.8235 50.4706 39.2941V46.7058C50.5882 47.1764 50.1176 47.647 49.6471 47.647Z" fill="#713ADA"/>
<path d="M43.4117 11.1765C43.1765 11.1765 43.0588 11.0588 42.8235 10.9412C42.4706 10.7059 42.3529 10.2353 42.4706 9.88235C43.0588 8.23529 42.4706 6.35294 40.9412 5.29412C40.5882 5.05882 40.4706 4.58824 40.5882 4.23529C40.7059 3.76471 41.0588 3.52941 41.5294 3.52941C43.2941 3.52941 44.8235 2.35294 45.4117 0.705882C45.5294 0.235294 45.8823 0 46.3529 0C46.8235 0 47.1765 0.235294 47.2941 0.705882C47.8823 2.35294 49.4117 3.52941 51.1765 3.52941C51.647 3.52941 52 3.76471 52.1176 4.23529C52.2353 4.58824 52.1176 5.05882 51.7647 5.29412C50.3529 6.35294 49.7647 8.11765 50.2353 9.88235C50.3529 10.2353 50.2353 10.7059 49.8823 10.9412C49.5294 11.1765 49.0588 11.1765 48.7059 10.9412C47.2941 9.88235 45.4117 9.88235 43.8823 10.9412C43.7647 11.0588 43.5294 11.1765 43.4117 11.1765ZM43.5294 5.17647C44.2353 6.11765 44.5882 7.29412 44.5882 8.47059C45.7647 8.11765 46.9412 8.11765 48 8.47059C48 7.29412 48.3529 6.11765 49.0588 5.17647C48 4.70588 47.0588 4 46.3529 3.05882C45.647 4 44.7059 4.70588 43.5294 5.17647Z" fill="#713ADA"/>
<path d="M9.5294 60C9.29411 60 9.17646 59.8823 8.94116 59.7647L8.23528 59.1764C7.05881 58.3529 5.5294 58.3529 4.35293 59.1764L3.64705 59.7647C3.29411 60 2.82352 60 2.47058 59.7647C2.11763 59.5294 1.99999 59.0588 2.11763 58.7059L2.35293 57.7647C2.82352 56.4706 2.35293 54.9411 1.17646 54.1176L0.470576 53.5294C0.117634 53.2941 -1.25691e-05 52.8235 0.117634 52.4706C0.235282 52 0.588223 51.7647 0.941164 51.7647H1.88234C3.29411 51.7647 4.58822 50.8235 5.05881 49.5294L5.29411 48.5882C5.5294 48.2353 5.88234 47.8823 6.23528 47.8823C6.70587 47.8823 7.05881 48.1176 7.17646 48.5882L7.41175 49.5294C7.99999 50.8235 9.17646 51.7647 10.5882 51.7647H11.5294C12 51.7647 12.3529 52 12.4706 52.4706C12.5882 52.8235 12.4706 53.2941 12.1176 53.5294L11.4118 54.1176C10.2353 54.9411 9.76469 56.4706 10.2353 57.7647L10.4706 58.7059C10.5882 59.0588 10.4706 59.5294 10.1176 59.7647C9.99999 59.8823 9.76469 60 9.5294 60ZM3.41175 53.5294C4.11763 54.4706 4.58822 55.647 4.47058 56.9412C5.64705 56.4706 6.82352 56.4706 7.99999 56.9412C7.99999 55.7647 8.35293 54.4706 9.05881 53.5294C7.88234 53.1764 6.82352 52.4706 6.23528 51.4117C5.64705 52.4706 4.58822 53.1764 3.41175 53.5294Z" fill="#713ADA"/>
</g>
<defs>
<clipPath id="clip0">
<rect width="55.0588" height="60" fill="white"/>
</clipPath>
</defs>
</svg>
