<svg width="98" height="56" viewBox="0 0 98 56" fill="none" xmlns="http://www.w3.org/2000/svg">
<line x1="56" y1="10" x2="2" y2="10" stroke="#E3D8F8" stroke-width="4" stroke-linecap="round"/>
<path d="M72.7777 12H77.5172V11.193H74.0249V11.1343L75.7123 9.32946C77.0036 7.9465 77.3851 7.30088 77.3851 6.46817C77.3851 5.30898 76.446 4.38456 75.1254 4.38456C73.8085 4.38456 72.807 5.27963 72.807 6.60023H73.6728C73.6728 5.74551 74.2267 5.17692 75.0961 5.17692C75.9104 5.17692 76.534 5.67581 76.534 6.46817C76.534 7.16148 76.1269 7.67505 75.2575 8.62514L72.7777 11.3397V12ZM81.4826 12.1027C83.1407 12.1027 84.0945 10.6977 84.0945 8.24364C84.0945 5.80787 83.126 4.38456 81.4826 4.38456C79.8392 4.38456 78.8708 5.80787 78.8708 8.24364C78.8708 10.6977 79.8245 12.1027 81.4826 12.1027ZM81.4826 11.2957C80.3895 11.2957 79.7512 10.1989 79.7512 8.24364C79.7512 6.29209 80.3968 5.17692 81.4826 5.17692C82.5684 5.17692 83.2141 6.29209 83.2141 8.24364C83.2141 10.1989 82.5758 11.2957 81.4826 11.2957ZM88.1296 4.48727H87.2199L85.3417 5.7345V6.65892L87.1759 5.44104H87.2199V12H88.1296V4.48727ZM92.682 4.38456C91.156 4.36622 90.1729 5.5144 90.1729 6.89369C90.1729 8.34635 91.244 9.38815 92.5353 9.38815C93.313 9.38815 93.9733 9.00665 94.3841 8.39037H94.4428C94.4428 10.2392 93.7238 11.2957 92.5646 11.2957C91.7723 11.2957 91.288 10.7968 91.1266 10.1071H90.2316C90.4076 11.2957 91.3027 12.1027 92.5646 12.1027C94.2521 12.1027 95.2939 10.606 95.2939 7.9355C95.2939 5.17692 93.9146 4.39923 92.682 4.38456ZM92.682 5.19159C93.6211 5.19159 94.3107 5.99862 94.3107 6.87902C94.3107 7.77409 93.5771 8.58112 92.6527 8.58112C91.7282 8.58112 91.0533 7.83278 91.0533 6.89369C91.0533 5.9546 91.7576 5.19159 92.682 5.19159Z" fill="black"/>
<line x1="56" y1="30" x2="2" y2="30" stroke="#FFDB30" stroke-width="4" stroke-linecap="round"/>
<path d="M72.7777 32H77.5172V31.193H74.0249V31.1343L75.7123 29.3295C77.0036 27.9465 77.3851 27.3009 77.3851 26.4682C77.3851 25.309 76.446 24.3846 75.1254 24.3846C73.8085 24.3846 72.807 25.2796 72.807 26.6002H73.6728C73.6728 25.7455 74.2267 25.1769 75.0961 25.1769C75.9104 25.1769 76.534 25.6758 76.534 26.4682C76.534 27.1615 76.1269 27.675 75.2575 28.6251L72.7777 31.3397V32ZM81.4826 32.1027C83.1407 32.1027 84.0945 30.6977 84.0945 28.2436C84.0945 25.8079 83.126 24.3846 81.4826 24.3846C79.8392 24.3846 78.8708 25.8079 78.8708 28.2436C78.8708 30.6977 79.8245 32.1027 81.4826 32.1027ZM81.4826 31.2957C80.3895 31.2957 79.7512 30.1989 79.7512 28.2436C79.7512 26.2921 80.3968 25.1769 81.4826 25.1769C82.5684 25.1769 83.2141 26.2921 83.2141 28.2436C83.2141 30.1989 82.5758 31.2957 81.4826 31.2957ZM85.4884 32H90.2279V31.193H86.7357V31.1343L88.4231 29.3295C89.7143 27.9465 90.0958 27.3009 90.0958 26.4682C90.0958 25.309 89.1568 24.3846 87.8362 24.3846C86.5192 24.3846 85.5178 25.2796 85.5178 26.6002H86.3835C86.3835 25.7455 86.9374 25.1769 87.8068 25.1769C88.6212 25.1769 89.2448 25.6758 89.2448 26.4682C89.2448 27.1615 88.8376 27.675 87.9682 28.6251L85.4884 31.3397V32ZM94.1934 32.1027C95.8514 32.1027 96.8052 30.6977 96.8052 28.2436C96.8052 25.8079 95.8368 24.3846 94.1934 24.3846C92.55 24.3846 91.5815 25.8079 91.5815 28.2436C91.5815 30.6977 92.5353 32.1027 94.1934 32.1027ZM94.1934 31.2957C93.1002 31.2957 92.4619 30.1989 92.4619 28.2436C92.4619 26.2921 93.1075 25.1769 94.1934 25.1769C95.2792 25.1769 95.9248 26.2921 95.9248 28.2436C95.9248 30.1989 95.2865 31.2957 94.1934 31.2957Z" fill="black"/>
<line x1="56" y1="50" x2="2" y2="50" stroke="#2AD32E" stroke-width="4" stroke-linecap="round"/>
<path d="M72.7777 52H77.5172V51.193H74.0249V51.1343L75.7123 49.3295C77.0036 47.9465 77.3851 47.3009 77.3851 46.4682C77.3851 45.309 76.446 44.3846 75.1254 44.3846C73.8085 44.3846 72.807 45.2796 72.807 46.6002H73.6728C73.6728 45.7455 74.2267 45.1769 75.0961 45.1769C75.9104 45.1769 76.534 45.6758 76.534 46.4682C76.534 47.1615 76.1269 47.675 75.2575 48.6251L72.7777 51.3397V52ZM81.4826 52.1027C83.1407 52.1027 84.0945 50.6977 84.0945 48.2436C84.0945 45.8079 83.126 44.3846 81.4826 44.3846C79.8392 44.3846 78.8708 45.8079 78.8708 48.2436C78.8708 50.6977 79.8245 52.1027 81.4826 52.1027ZM81.4826 51.2957C80.3895 51.2957 79.7512 50.1989 79.7512 48.2436C79.7512 46.2921 80.3968 45.1769 81.4826 45.1769C82.5684 45.1769 83.2141 46.2921 83.2141 48.2436C83.2141 50.1989 82.5758 51.2957 81.4826 51.2957ZM85.4884 52H90.2279V51.193H86.7357V51.1343L88.4231 49.3295C89.7143 47.9465 90.0958 47.3009 90.0958 46.4682C90.0958 45.309 89.1568 44.3846 87.8362 44.3846C86.5192 44.3846 85.5178 45.2796 85.5178 46.6002H86.3835C86.3835 45.7455 86.9374 45.1769 87.8068 45.1769C88.6212 45.1769 89.2448 45.6758 89.2448 46.4682C89.2448 47.1615 88.8376 47.675 87.9682 48.6251L85.4884 51.3397V52ZM94.3841 44.4873H93.4744L91.5962 45.7345V46.6589L93.4303 45.441H93.4744V52H94.3841V44.4873Z" fill="black"/>
</svg>
