<svg width="206" height="14" viewBox="0 0 206 14" fill="none" xmlns="http://www.w3.org/2000/svg">
<path d="M191.668 14H204.619C204.791 14 204.964 13.8313 205.137 13.6627L206 10.6265C206 10.4578 206 10.2892 205.827 10.1205L194.431 3.20482C194.085 3.03614 194.258 2.6988 194.604 2.6988H205.137C205.482 2.6988 205.482 2.53012 205.482 2.19277L204.619 0.337349C204.446 0 204.273 0 204.101 0H191.668C191.495 0 191.323 0.168675 191.15 0.337349L190.459 3.37349C190.459 3.54217 190.459 3.71084 190.632 3.87952L202.029 10.7952C202.374 10.9639 202.201 11.3012 201.856 11.3012H190.632C190.287 11.3012 190.287 11.4699 190.287 11.8072L191.15 13.6627C191.323 13.8313 191.495 14 191.668 14ZM171.465 11.1325C170.257 9.95181 169.911 8.43373 169.911 6.91566C169.911 5.39759 170.429 3.87952 171.465 2.6988C171.638 2.53012 171.811 2.53012 171.983 2.53012H178.89C179.063 2.53012 179.236 2.53012 179.408 2.6988C180.617 3.87952 180.962 5.39759 180.962 6.91566C180.962 8.43373 180.444 9.95181 179.408 11.1325C179.236 11.3012 179.063 11.3012 178.89 11.3012H171.983C171.811 11.4699 171.638 11.3012 171.465 11.1325ZM170.602 14H180.272C180.444 14 180.617 14 180.79 13.8313C182.516 12.3133 183.725 9.78313 183.725 7.08434C183.725 4.38554 182.344 1.85542 180.79 0.337349C180.617 0 180.444 0 180.272 0H170.602C170.429 0 170.257 0 170.084 0.168675C168.357 1.68675 167.148 4.21687 167.148 6.91566C167.148 9.61446 168.53 12.1446 170.084 13.6627C170.257 14 170.429 14 170.602 14ZM147.118 14H158.86C159.205 14 159.205 13.8313 159.205 13.6627V11.8072C159.205 11.4699 159.033 11.4699 158.86 11.4699H154.889C154.543 11.4699 154.543 11.3012 154.543 11.1325V3.03614C154.543 2.6988 154.716 2.6988 154.889 2.6988H158.86C159.205 2.6988 159.205 2.53012 159.205 2.36145V0.337349C159.205 0.168675 159.033 0 158.86 0H147.118C146.773 0 146.773 0.168675 146.773 0.337349V2.19277C146.773 2.53012 146.946 2.53012 147.118 2.53012H151.09C151.435 2.53012 151.435 2.6988 151.435 2.86747V10.7952C151.435 11.1325 151.262 11.1325 151.09 11.1325H147.118C146.773 11.1325 146.773 11.3012 146.773 11.4699V13.3253C146.6 13.8313 146.773 14 147.118 14ZM127.261 14H138.484C138.657 14 138.83 14 139.003 13.6627L139.866 11.8072C140.039 11.4699 139.866 11.3012 139.521 11.3012H130.023C129.678 11.3012 129.678 11.1325 129.678 10.9639V0.337349C129.678 0.168675 129.505 0 129.333 0H127.261C126.915 0 126.915 0.168675 126.915 0.337349V13.494C126.743 13.8313 126.915 14 127.261 14ZM105.676 8.26506L108.439 2.86747C108.612 2.6988 108.612 2.53012 108.957 2.53012H110.511C110.684 2.53012 110.857 2.6988 111.029 2.86747L113.792 8.26506C113.965 8.60241 113.792 8.77108 113.447 8.77108H106.194C105.676 8.77108 105.504 8.60241 105.676 8.26506ZM100.324 14H102.568C102.741 14 102.914 13.8313 103.086 13.6627L104.122 11.6386C104.295 11.4699 104.295 11.3012 104.64 11.3012H114.828C115.001 11.3012 115.174 11.4699 115.346 11.6386L116.382 13.6627C116.555 13.8313 116.555 14 116.9 14H119.145C119.49 14 119.663 13.8313 119.49 13.494L112.929 0.337349C112.583 0.168675 112.411 0 112.238 0H106.885C106.712 0 106.54 0.168675 106.367 0.337349L99.9782 13.494C99.8055 13.8313 99.9782 14 100.324 14ZM49.5574 14H60.6085C60.7812 14 60.9539 13.8313 61.1266 13.6627L62.3353 7.42169C62.3353 7.08434 62.3353 6.91566 61.9899 6.91566H59.7452C59.5725 6.91566 59.3998 7.08434 59.2272 7.25301L58.3638 10.9639C58.3638 11.1325 58.1911 11.3012 57.8458 11.3012H50.7661C50.5935 11.3012 50.4208 11.3012 50.2481 11.1325C49.0394 9.95181 48.694 8.43373 48.694 6.91566C48.694 5.39759 49.2121 3.87952 50.2481 2.6988C50.4208 2.53012 50.5935 2.53012 50.7661 2.53012H60.6085C60.9539 2.53012 60.9539 2.36145 60.9539 2.0241L60.0905 0.168675C60.2632 0 60.0905 0 59.9179 0H49.7301C49.5574 0 49.3847 0 49.2121 0.168675C47.4853 1.68675 46.2766 4.21687 46.2766 6.91566C46.2766 9.61446 47.658 12.1446 49.2121 13.6627C49.2121 14 49.3847 14 49.5574 14ZM29.6999 14H31.9447C32.29 14 32.29 13.8313 32.29 13.6627V10.7952C32.29 10.4578 32.4627 10.4578 32.6354 10.4578H34.3621C34.5348 10.4578 34.7075 10.2892 34.8801 10.1205L39.715 0.506024C39.8877 0.168675 39.715 0 39.3697 0H37.1249C36.9522 0 36.7795 0.168675 36.6069 0.337349L32.9807 7.59036C32.808 7.75904 32.808 7.92771 32.4627 7.92771H28.8365C28.6639 7.92771 28.4912 7.75904 28.3185 7.59036L24.6924 0.337349C24.865 0.168675 24.6924 0 24.5197 0H22.2749C21.9296 0 21.7569 0.168675 21.9296 0.506024L26.5918 10.1205C26.7645 10.2892 26.7645 10.4578 27.1098 10.4578H28.8365C29.1819 10.4578 29.1819 10.6265 29.1819 10.7952V13.6627C29.1819 13.8313 29.3546 14 29.6999 14ZM2.93546 7.42169V3.03614C2.93546 2.6988 3.10813 2.6988 3.2808 2.6988H11.0511C11.2238 2.6988 11.3965 2.6988 11.5692 2.86747C12.2598 3.54217 12.6052 4.38554 12.6052 5.22892C12.6052 6.07229 12.2598 6.91566 11.5692 7.59036C11.3965 7.75904 11.3965 7.75904 11.0511 7.75904H3.2808C3.10813 7.75904 2.93546 7.59036 2.93546 7.42169ZM0.345348 14H2.41743C2.76278 14 2.76278 13.8313 2.76278 13.6627V10.7952C2.76278 10.4578 2.93546 10.4578 3.10813 10.4578H12.4325C12.6052 10.4578 12.7779 10.4578 12.9505 10.2892C14.5046 9.10843 15.5407 7.25301 15.5407 5.22892C15.5407 3.20482 14.5046 1.3494 13.1232 0.168675C12.9505 0 12.7779 0 12.6052 0H0.345348C0.172674 0 0 0.168675 0 0.337349V13.494C0 13.8313 0.172674 14 0.345348 14ZM70.1056 14H72.3504C72.5231 14 72.6957 13.8313 72.6957 13.6627L74.7678 3.03614C74.7678 2.86747 74.9405 2.6988 75.1132 2.6988H75.4585C75.6312 2.6988 75.8039 2.86747 75.9765 3.03614L78.7393 13.8313C78.7393 14 78.912 14.1687 79.2573 14.1687H83.5742C83.7469 14.1687 83.9195 14 84.0922 13.8313L86.855 3.03614C86.855 2.86747 87.0277 2.6988 87.373 2.6988H87.7184C87.891 2.6988 88.0637 2.86747 88.0637 3.03614L90.1358 13.6627C90.1358 13.8313 90.3085 14 90.4811 14H92.7259C93.0713 14 93.0713 13.8313 93.0713 13.494L90.3085 0.337349C90.3085 0.168675 90.1358 0 89.7904 0H84.7829C84.6102 0 84.4376 0.168675 84.2649 0.337349L81.3294 11.3012C81.1567 11.6386 80.9841 11.6386 80.8114 11.3012L77.8759 0.337349C77.8759 0.168675 77.7033 0 77.3579 0H72.3504C72.6957 0 72.523 0.168675 72.523 0.337349L69.7603 13.494C69.7603 13.8313 69.9329 14 70.1056 14Z" fill="#0A0C0C"/>
</svg>
