<svg width="191" height="13" viewBox="0 0 191 13" fill="none" xmlns="http://www.w3.org/2000/svg">
<path d="M177.712 13H189.719C189.879 13 190.039 12.8434 190.199 12.6867L191 9.86747C191 9.71084 191 9.55422 190.84 9.39759L180.273 2.9759C179.953 2.81928 180.113 2.50602 180.433 2.50602H190.199C190.52 2.50602 190.52 2.3494 190.52 2.03614L189.719 0.313253C189.559 0 189.399 0 189.239 0H177.712C177.552 0 177.391 0.156627 177.231 0.313253L176.591 3.13253C176.591 3.28916 176.591 3.44578 176.751 3.60241L187.318 10.0241C187.638 10.1807 187.478 10.494 187.158 10.494H176.751C176.431 10.494 176.431 10.6506 176.431 10.9639L177.231 12.6867C177.391 12.8434 177.552 13 177.712 13ZM158.98 10.3373C157.859 9.24096 157.539 7.83132 157.539 6.42169C157.539 5.01205 158.019 3.60241 158.98 2.50602C159.14 2.3494 159.3 2.3494 159.46 2.3494H165.864C166.024 2.3494 166.184 2.3494 166.344 2.50602C167.465 3.60241 167.785 5.01205 167.785 6.42169C167.785 7.83132 167.305 9.24096 166.344 10.3373C166.184 10.494 166.024 10.494 165.864 10.494H159.46C159.3 10.6506 159.14 10.494 158.98 10.3373ZM158.179 13H167.145C167.305 13 167.465 13 167.625 12.8434C169.226 11.4337 170.347 9.08434 170.347 6.57831C170.347 4.07229 169.066 1.72289 167.625 0.313253C167.465 0 167.305 0 167.145 0H158.179C158.019 0 157.859 0 157.699 0.156627C156.098 1.56626 154.977 3.91566 154.977 6.42169C154.977 8.92771 156.258 11.2771 157.699 12.6867C157.859 13 158.019 13 158.179 13ZM136.406 13H147.293C147.613 13 147.613 12.8434 147.613 12.6867V10.9639C147.613 10.6506 147.453 10.6506 147.293 10.6506H143.61C143.29 10.6506 143.29 10.494 143.29 10.3373V2.81928C143.29 2.50602 143.45 2.50602 143.61 2.50602H147.293C147.613 2.50602 147.613 2.3494 147.613 2.19277V0.313253C147.613 0.156627 147.453 0 147.293 0H136.406C136.085 0 136.085 0.156627 136.085 0.313253V2.03614C136.085 2.3494 136.246 2.3494 136.406 2.3494H140.088C140.408 2.3494 140.408 2.50602 140.408 2.66265V10.0241C140.408 10.3373 140.248 10.3373 140.088 10.3373H136.406C136.085 10.3373 136.085 10.494 136.085 10.6506V12.3735C135.925 12.8434 136.085 13 136.406 13ZM117.994 13H128.401C128.561 13 128.721 13 128.881 12.6867L129.681 10.9639C129.842 10.6506 129.681 10.494 129.361 10.494H120.556C120.236 10.494 120.236 10.3373 120.236 10.1807V0.313253C120.236 0.156627 120.075 0 119.915 0H117.994C117.674 0 117.674 0.156627 117.674 0.313253V12.5301C117.514 12.8434 117.674 13 117.994 13ZM97.9816 7.6747L100.543 2.66265C100.703 2.50602 100.703 2.3494 101.023 2.3494H102.464C102.624 2.3494 102.785 2.50602 102.945 2.66265L105.506 7.6747C105.666 7.98795 105.506 8.14458 105.186 8.14458H98.4619C97.9816 8.14458 97.8215 7.98795 97.9816 7.6747ZM93.0184 13H95.0997C95.2598 13 95.4199 12.8434 95.58 12.6867L96.5406 10.8072C96.7008 10.6506 96.7007 10.494 97.021 10.494H106.467C106.627 10.494 106.787 10.6506 106.947 10.8072L107.908 12.6867C108.068 12.8434 108.068 13 108.388 13H110.469C110.79 13 110.95 12.8434 110.79 12.5301L104.706 0.313253C104.386 0.156627 104.225 0 104.065 0H99.1023C98.9422 0 98.7821 0.156627 98.622 0.313253L92.6982 12.5301C92.5381 12.8434 92.6982 13 93.0184 13ZM45.9489 13H56.1953C56.3554 13 56.5155 12.8434 56.6756 12.6867L57.7963 6.89157C57.7963 6.57831 57.7963 6.42169 57.4761 6.42169H55.3948C55.2347 6.42169 55.0746 6.57831 54.9145 6.73494L54.114 10.1807C54.114 10.3373 53.9539 10.494 53.6337 10.494H47.0696C46.9095 10.494 46.7494 10.494 46.5893 10.3373C45.4686 9.24096 45.1484 7.83132 45.1484 6.42169C45.1484 5.01205 45.6287 3.60241 46.5893 2.50602C46.7494 2.3494 46.9095 2.3494 47.0696 2.3494H56.1953C56.5155 2.3494 56.5155 2.19277 56.5155 1.87952L55.715 0.156627C55.8751 0 55.715 0 55.5549 0H46.109C45.9489 0 45.7888 0 45.6287 0.156627C44.0277 1.56626 42.907 3.91566 42.907 6.42169C42.907 8.92771 44.1878 11.2771 45.6287 12.6867C45.6287 13 45.7888 13 45.9489 13ZM27.5373 13H29.6186C29.9388 13 29.9388 12.8434 29.9388 12.6867V10.0241C29.9388 9.71084 30.0989 9.71084 30.259 9.71084H31.86C32.0201 9.71084 32.1802 9.55422 32.3403 9.39759L36.8231 0.46988C36.9832 0.156627 36.8231 0 36.5029 0H34.4216C34.2615 0 34.1014 0.156627 33.9413 0.313253L30.5792 7.04819C30.4191 7.20482 30.4191 7.36144 30.0989 7.36144H26.7368C26.5767 7.36144 26.4166 7.20482 26.2565 7.04819L22.8944 0.313253C23.0545 0.156627 22.8944 0 22.7343 0H20.653C20.3328 0 20.1727 0.156627 20.3328 0.46988L24.6555 9.39759C24.8156 9.55422 24.8156 9.71084 25.1358 9.71084H26.7368C27.057 9.71084 27.057 9.86747 27.057 10.0241V12.6867C27.057 12.8434 27.2171 13 27.5373 13ZM2.72171 6.89157V2.81928C2.72171 2.50602 2.88181 2.50602 3.04191 2.50602H10.2464C10.4065 2.50602 10.5666 2.50602 10.7267 2.66265C11.3671 3.28916 11.6873 4.07229 11.6873 4.85542C11.6873 5.63855 11.3671 6.42169 10.7267 7.04819C10.5666 7.20482 10.5666 7.20482 10.2464 7.20482H3.04191C2.88181 7.20482 2.72171 7.04819 2.72171 6.89157ZM0.320201 13H2.24141C2.56161 13 2.56161 12.8434 2.56161 12.6867V10.0241C2.56161 9.71084 2.72171 9.71084 2.88181 9.71084H11.5272C11.6873 9.71084 11.8474 9.71084 12.0075 9.55422C13.4484 8.45783 14.4091 6.73494 14.4091 4.85542C14.4091 2.9759 13.4484 1.25301 12.1676 0.156627C12.0075 0 11.8474 0 11.6873 0H0.320201C0.160101 0 0 0.156627 0 0.313253V12.5301C0 12.8434 0.160101 13 0.320201 13ZM65.0008 13H67.0821C67.2422 13 67.4023 12.8434 67.4023 12.6867L69.3235 2.81928C69.3235 2.66265 69.4837 2.50602 69.6438 2.50602H69.964C70.1241 2.50602 70.2842 2.66265 70.4443 2.81928L73.0059 12.8434C73.0059 13 73.166 13.1566 73.4862 13.1566H77.4887C77.6488 13.1566 77.8089 13 77.969 12.8434L80.5306 2.81928C80.5306 2.66265 80.6907 2.50602 81.0109 2.50602H81.3311C81.4912 2.50602 81.6513 2.66265 81.6513 2.81928L83.5725 12.6867C83.5725 12.8434 83.7326 13 83.8927 13H85.974C86.2942 13 86.2942 12.8434 86.2942 12.5301L83.7326 0.313253C83.7326 0.156627 83.5725 0 83.2523 0H78.6094C78.4493 0 78.2892 0.156627 78.1291 0.313253L75.4074 10.494C75.2473 10.8072 75.0872 10.8072 74.9271 10.494L72.2054 0.313253C72.2054 0.156627 72.0453 0 71.7251 0H67.0821C67.4023 0 67.2422 0.156627 67.2422 0.313253L64.6806 12.5301C64.6806 12.8434 64.8407 13 65.0008 13Z" fill="#E3D8F8"/>
</svg>
