<svg width="60" height="60" viewBox="0 0 60 60" fill="none" xmlns="http://www.w3.org/2000/svg">
<path d="M29.9428 13.0286C29.3714 13.0286 29.0286 12.5714 29.0286 12.1143V0.914286C29.0286 0.342857 29.4857 0 29.9428 0C30.5143 0 30.8571 0.457143 30.8571 0.914286V12C30.9714 12.5714 30.5143 13.0286 29.9428 13.0286Z" fill="#713ADA"/>
<path d="M13.7143 30.9714H0.914286C0.342857 30.9714 0 30.5142 0 30.0571C0 29.6 0.457143 29.1428 0.914286 29.1428H13.7143C14.2857 29.1428 14.6286 29.6 14.6286 30.0571C14.6286 30.5142 14.2857 30.9714 13.7143 30.9714Z" fill="#713ADA"/>
<path d="M32 40.7999C29.2572 40.7999 26.6286 39.7714 24.6857 37.8285C20.6857 33.8285 20.6857 27.3142 24.6857 23.1999C26.6286 21.2571 29.2572 20.2285 32 20.2285C34.7429 20.2285 37.3714 21.2571 39.3143 23.1999C41.2572 25.1428 42.2857 27.7714 42.2857 30.5142C42.2857 33.2571 41.2572 35.8857 39.3143 37.8285C37.3714 39.7714 34.7429 40.7999 32 40.7999ZM32 22.1714C29.7143 22.1714 27.6572 23.0857 26.0572 24.6857C22.7429 27.9999 22.7429 33.2571 26.0572 36.5714C27.6572 38.1714 29.7143 39.0857 32 39.0857C34.2857 39.0857 36.3429 38.1714 37.9429 36.5714C39.5429 34.9714 40.4572 32.9142 40.4572 30.6285C40.4572 28.3428 39.5429 26.2857 37.9429 24.6857C36.3429 22.9714 34.2857 22.1714 32 22.1714Z" fill="#713ADA"/>
<path d="M53.6 56.4572C52.4571 56.4572 51.3143 56 50.5143 55.2L38.7429 43.4286C33.1429 46.4 26.1714 45.3714 21.7143 40.8C16 35.0857 16 25.8286 21.7143 20.2286C27.4286 14.5143 36.6857 14.5143 42.2857 20.2286C46.7429 24.6857 47.7714 31.5429 44.9143 37.1429L56.6857 48.9143C57.4857 49.7143 57.9429 50.8572 57.9429 52C57.9429 53.1429 57.4857 54.2857 56.6857 55.0857C55.8857 56 54.7429 56.4572 53.6 56.4572ZM38.8571 41.3714C39.0857 41.3714 39.3143 41.4857 39.5429 41.6L51.7714 53.8286C52.6857 54.7429 54.4 54.7429 55.3143 53.8286C55.7714 53.3714 56 52.6857 56 52C56 51.3143 55.7714 50.7429 55.3143 50.1714L43.0857 38.0572C42.7429 37.7143 42.7429 37.2572 42.9714 36.9143C45.8286 32 45.0286 25.7143 41.0286 21.6C38.6286 19.2 35.4286 17.9429 32.1143 17.9429C28.6857 17.9429 25.6 19.3143 23.2 21.6C18.2857 26.5143 18.2857 34.5143 23.2 39.4286C27.2 43.4286 33.4857 44.3429 38.5143 41.3714C38.5143 41.3714 38.7429 41.3714 38.8571 41.3714Z" fill="#713ADA"/>
<path d="M42.7429 47.0858C42.5143 47.0858 42.2857 46.9715 42.0572 46.8572C41.7143 46.5143 41.7143 45.8286 42.0572 45.4858L46.9715 40.5715C47.3143 40.2286 48 40.2286 48.3429 40.5715C48.6858 40.9143 48.6858 41.6 48.3429 41.9429L43.4286 46.8572C43.2 46.9715 42.9715 47.0858 42.7429 47.0858Z" fill="#713ADA"/>
<path d="M29.9428 60C29.3714 60 29.0286 59.5428 29.0286 59.0857V48C29.0286 47.4285 29.4857 47.0857 29.9428 47.0857C30.5143 47.0857 30.8571 47.5428 30.8571 48V59.0857C30.9714 59.5428 30.5143 60 29.9428 60Z" fill="#713ADA"/>
<path d="M58.9714 31.5428H45.6C45.0286 31.5428 44.6857 31.0857 44.6857 30.6285C44.6857 30.1714 45.1429 29.7142 45.6 29.7142H58.9714C59.5429 29.7142 59.8857 30.1714 59.8857 30.6285C59.8857 31.0857 59.5429 31.5428 58.9714 31.5428Z" fill="#713ADA"/>
<path d="M29.9429 60C26.8572 60 23.8857 59.5429 20.9143 58.6286C20.8 58.6286 20.6857 58.5143 20.5715 58.4C14.7429 52.5714 11.0857 41.7143 11.0857 29.9429C11.0857 18.2857 14.7429 7.42857 20.5715 1.6C20.6857 1.48571 20.8 1.37143 20.9143 1.37143C26.7429 -0.457143 33.1429 -0.457143 38.9714 1.37143C39.0857 1.37143 39.2 1.48571 39.3143 1.6C43.7715 5.94286 46.9715 13.3714 48.2286 21.8286C48.3429 22.4 47.8857 22.8571 47.4286 22.9714C46.8572 23.0857 46.4 22.6286 46.2857 22.1714C45.1429 14.1714 42.1714 7.2 38.0572 3.2C32.8 1.6 26.9715 1.6 21.7143 3.2C16.3429 8.68571 12.9143 18.8571 12.9143 30.0571C12.9143 41.1429 16.2286 51.4286 21.7143 56.9143C26.9715 58.5143 32.8 58.5143 38.0572 56.9143C39.3143 55.6571 40.4572 54.1714 41.4857 52.3429C41.7143 51.8857 42.4 51.7714 42.8572 52C43.3143 52.2286 43.4286 52.9143 43.2 53.3714C42.0572 55.4286 40.6857 57.1429 39.3143 58.5143C39.2 58.6286 39.0857 58.7429 38.9714 58.7429C36.1143 59.4286 33.0286 60 29.9429 60Z" fill="#713ADA"/>
<path d="M29.9429 48.8C18.1714 48.8 7.31429 45.1428 1.6 39.3143C1.48571 39.2 1.37143 39.0857 1.37143 38.9714C0.457143 36.1143 0 33.0286 0 29.9428C0 26.8571 0.457143 23.8857 1.37143 20.9143C1.37143 20.8 1.48571 20.6857 1.6 20.5714C7.42857 14.7428 18.2857 11.0857 29.9429 11.0857C41.7143 11.0857 52.5714 14.7428 58.2857 20.5714C58.4 20.6857 58.5143 20.8 58.5143 20.9143C59.4286 23.7714 59.8857 26.8571 59.8857 29.9428C59.8857 33.0286 59.4286 36 58.5143 38.9714C58.5143 39.0857 58.4 39.2 58.2857 39.3143C57.0286 40.5714 55.6571 41.7143 53.9429 42.7428C53.4857 42.9714 52.9143 42.8571 52.5714 42.4C52.3429 41.9428 52.4571 41.3714 52.9143 41.0286C54.4 40.1143 55.6571 39.0857 56.6857 38.0571C57.4857 35.4286 57.9429 32.6857 57.9429 29.8286C57.9429 27.0857 57.4857 24.2286 56.6857 21.6C51.2 16.2286 41.0286 12.8 29.8286 12.8C18.7429 12.8 8.45714 16.1143 2.97143 21.6C2.17143 24.2286 1.71429 26.9714 1.71429 29.8286C1.71429 32.5714 2.17143 35.4286 2.97143 38.0571C8.45714 43.4286 18.6286 46.8571 29.8286 46.8571C32.6857 46.8571 35.5429 46.6286 38.2857 46.1714C38.8571 46.0571 39.3143 46.4 39.4286 46.9714C39.5429 47.5428 39.2 48 38.6286 48.1143C35.8857 48.5714 32.9143 48.8 29.9429 48.8Z" fill="#713ADA"/>
<path d="M41.0286 41.1428C40.8 41.1428 40.5715 41.0286 40.3429 40.9143C40 40.5714 40 39.8857 40.3429 39.5428L43.0857 36.8C43.4286 36.4571 44.1143 36.4571 44.4572 36.8C44.8 37.1428 44.8 37.8286 44.4572 38.1714L41.7143 40.9143C41.4857 41.0286 41.2572 41.1428 41.0286 41.1428Z" fill="#713ADA"/>
<path d="M29.9429 60C13.4857 60 0 46.5143 0 29.9429C0 13.4857 13.4857 0 29.9429 0C46.5143 0 59.8857 13.4857 59.8857 29.9429C59.8857 36.3429 57.9429 42.4 54.1714 47.5429C54.0571 47.7714 53.7143 47.8857 53.4857 47.8857C53.2571 47.8857 52.9143 47.7714 52.6857 47.6571L42.9714 37.9429C42.6286 37.6 42.6286 37.1429 42.8571 36.8C45.7143 31.8857 44.9143 25.6 40.9143 21.4857C38.5143 19.0857 35.3143 17.8286 32 17.8286C28.5714 17.8286 25.4857 19.2 23.0857 21.4857C20.6857 24 19.4286 27.2 19.4286 30.5143C19.4286 33.9429 20.8 37.0286 23.0857 39.4286C27.0857 43.4286 33.3714 44.3429 38.4 41.3714C38.7429 41.1429 39.3143 41.2571 39.5429 41.4857L49.3714 51.3143C49.6 51.5429 49.7143 51.7714 49.6 52C49.6 52.2286 49.4857 52.5714 49.2571 52.6857C43.8857 57.4857 37.0286 60 29.9429 60ZM29.9429 1.94286C14.5143 1.94286 1.94286 14.5143 1.94286 29.9429C1.94286 45.3714 14.5143 57.9429 29.9429 57.9429C36.2286 57.9429 42.2857 55.8857 47.2 52L38.7429 43.4286C33.1429 46.4 26.1714 45.3714 21.7143 40.8C18.9714 38.0571 17.4857 34.4 17.4857 30.5143C17.4857 26.6286 18.9714 22.9714 21.7143 20.2286C24.4571 17.4857 28.1143 16 32 16C35.8857 16 39.5429 17.4857 42.2857 20.2286C46.7429 24.6857 47.7714 31.5429 44.9143 37.1429L53.2571 45.4857C56.3429 40.9143 57.9429 35.5429 57.9429 29.9429C58.0571 14.5143 45.4857 1.94286 29.9429 1.94286Z" fill="#713ADA"/>
</svg>
