<svg width="860" height="377" viewBox="0 0 860 377" fill="none" xmlns="http://www.w3.org/2000/svg">
<rect y="29" width="860" height="328" rx="4" fill="#57329D"/>
<path d="M50.4091 203H51.8182V197.795H56.8636V196.545H51.8182V192.614H57.3864V191.364H50.4091V203ZM59.5241 203H60.8651V197.477C60.8651 196.295 61.7969 195.432 63.0696 195.432C63.4276 195.432 63.7969 195.5 63.8878 195.523V194.159C63.7344 194.148 63.3821 194.136 63.1832 194.136C62.1378 194.136 61.2287 194.727 60.9105 195.591H60.8196V194.273H59.5241V203ZM68.7571 203.182C71.1207 203.182 72.7116 201.386 72.7116 198.682C72.7116 195.955 71.1207 194.159 68.7571 194.159C66.3935 194.159 64.8026 195.955 64.8026 198.682C64.8026 201.386 66.3935 203.182 68.7571 203.182ZM68.7571 201.977C66.9616 201.977 66.1435 200.432 66.1435 198.682C66.1435 196.932 66.9616 195.364 68.7571 195.364C70.5526 195.364 71.3707 196.932 71.3707 198.682C71.3707 200.432 70.5526 201.977 68.7571 201.977ZM74.7585 203H76.0994V197.545C76.0994 196.267 77.0312 195.364 78.0767 195.364C79.0938 195.364 79.804 196.028 79.804 197.023V203H81.1676V197.318C81.1676 196.193 81.8722 195.364 83.0994 195.364C84.054 195.364 84.8722 195.869 84.8722 197.159V203H86.2131V197.159C86.2131 195.108 85.1108 194.159 83.554 194.159C82.304 194.159 81.3892 194.733 80.9403 195.636H80.8494C80.4176 194.705 79.6562 194.159 78.5085 194.159C77.3722 194.159 76.5312 194.705 76.1676 195.636H76.054V194.273H74.7585V203ZM93.3466 203H94.642V201.659H94.8011C95.0966 202.136 95.6648 203.182 97.3466 203.182C99.5284 203.182 101.051 201.432 101.051 198.659C101.051 195.909 99.5284 194.159 97.3239 194.159C95.6193 194.159 95.0966 195.205 94.8011 195.659H94.6875V191.364H93.3466V203ZM94.6648 198.636C94.6648 196.682 95.5284 195.364 97.1648 195.364C98.8693 195.364 99.7102 196.795 99.7102 198.636C99.7102 200.5 98.8466 201.977 97.1648 201.977C95.5511 201.977 94.6648 200.614 94.6648 198.636ZM105.67 203.205C107.193 203.205 107.989 202.386 108.261 201.818H108.33V203H109.67V197.25C109.67 194.477 107.557 194.159 106.443 194.159C105.125 194.159 103.625 194.614 102.943 196.205L104.216 196.659C104.511 196.023 105.21 195.341 106.489 195.341C107.722 195.341 108.33 195.994 108.33 197.114V197.159C108.33 197.807 107.67 197.75 106.08 197.955C104.46 198.165 102.693 198.523 102.693 200.523C102.693 202.227 104.011 203.205 105.67 203.205ZM105.875 202C104.807 202 104.034 201.523 104.034 200.591C104.034 199.568 104.966 199.25 106.011 199.114C106.58 199.045 108.102 198.886 108.33 198.614V199.841C108.33 200.932 107.466 202 105.875 202ZM118.3 196.227C117.879 194.989 116.936 194.159 115.209 194.159C113.368 194.159 112.004 195.205 112.004 196.682C112.004 197.886 112.72 198.693 114.322 199.068L115.777 199.409C116.658 199.614 117.072 200.034 117.072 200.636C117.072 201.386 116.277 202 115.027 202C113.93 202 113.243 201.528 113.004 200.591L111.732 200.909C112.044 202.392 113.266 203.182 115.05 203.182C117.078 203.182 118.459 202.074 118.459 200.568C118.459 199.352 117.697 198.585 116.141 198.205L114.845 197.886C113.811 197.631 113.345 197.284 113.345 196.614C113.345 195.864 114.141 195.318 115.209 195.318C116.379 195.318 116.862 195.966 117.095 196.568L118.3 196.227ZM120.477 203H121.818V194.273H120.477V203ZM121.159 192.818C121.682 192.818 122.114 192.409 122.114 191.909C122.114 191.409 121.682 191 121.159 191C120.636 191 120.205 191.409 120.205 191.909C120.205 192.409 120.636 192.818 121.159 192.818ZM127.82 203.182C129.751 203.182 131.024 202 131.251 200.455H129.911C129.661 201.409 128.865 201.977 127.82 201.977C126.229 201.977 125.206 200.659 125.206 198.636C125.206 196.659 126.251 195.364 127.82 195.364C129.001 195.364 129.706 196.091 129.911 196.886H131.251C131.024 195.25 129.638 194.159 127.797 194.159C125.433 194.159 123.865 196.023 123.865 198.682C123.865 201.295 125.365 203.182 127.82 203.182ZM137.712 203H139.053V197.477C139.053 196.295 139.984 195.432 141.257 195.432C141.615 195.432 141.984 195.5 142.075 195.523V194.159C141.922 194.148 141.57 194.136 141.371 194.136C140.325 194.136 139.416 194.727 139.098 195.591H139.007V194.273H137.712V203ZM147.058 203.182C148.831 203.182 150.126 202.295 150.536 200.977L149.24 200.614C148.899 201.523 148.109 201.977 147.058 201.977C145.484 201.977 144.399 200.96 144.337 199.091H150.672V198.523C150.672 195.273 148.74 194.159 146.922 194.159C144.558 194.159 142.99 196.023 142.99 198.705C142.99 201.386 144.536 203.182 147.058 203.182ZM144.337 197.932C144.428 196.574 145.388 195.364 146.922 195.364C148.376 195.364 149.308 196.455 149.308 197.932H144.337ZM152.712 206.273H154.053V201.659H154.166C154.462 202.136 155.03 203.182 156.712 203.182C158.893 203.182 160.416 201.432 160.416 198.659C160.416 195.909 158.893 194.159 156.689 194.159C154.984 194.159 154.462 195.205 154.166 195.659H154.007V194.273H152.712V206.273ZM154.03 198.636C154.03 196.682 154.893 195.364 156.53 195.364C158.234 195.364 159.075 196.795 159.075 198.636C159.075 200.5 158.212 201.977 156.53 201.977C154.916 201.977 154.03 200.614 154.03 198.636ZM166.007 203.182C168.371 203.182 169.962 201.386 169.962 198.682C169.962 195.955 168.371 194.159 166.007 194.159C163.643 194.159 162.053 195.955 162.053 198.682C162.053 201.386 163.643 203.182 166.007 203.182ZM166.007 201.977C164.212 201.977 163.393 200.432 163.393 198.682C163.393 196.932 164.212 195.364 166.007 195.364C167.803 195.364 168.621 196.932 168.621 198.682C168.621 200.432 167.803 201.977 166.007 201.977ZM172.009 203H173.349V197.477C173.349 196.295 174.281 195.432 175.554 195.432C175.912 195.432 176.281 195.5 176.372 195.523V194.159C176.219 194.148 175.866 194.136 175.668 194.136C174.622 194.136 173.713 194.727 173.395 195.591H173.304V194.273H172.009V203ZM182.304 194.273H180.44V192.182H179.099V194.273H177.781V195.409H179.099V200.864C179.099 202.386 180.327 203.114 181.463 203.114C181.963 203.114 182.281 203.023 182.463 202.955L182.19 201.75C182.077 201.773 181.895 201.818 181.599 201.818C181.009 201.818 180.44 201.636 180.44 200.5V195.409H182.304V194.273ZM184.321 203H185.662V194.273H184.321V203ZM185.003 192.818C185.526 192.818 185.957 192.409 185.957 191.909C185.957 191.409 185.526 191 185.003 191C184.48 191 184.048 191.409 184.048 191.909C184.048 192.409 184.48 192.818 185.003 192.818ZM189.459 197.75C189.459 196.227 190.402 195.364 191.686 195.364C192.93 195.364 193.686 196.176 193.686 197.545V203H195.027V197.455C195.027 195.227 193.839 194.159 192.072 194.159C190.754 194.159 189.936 194.75 189.527 195.636H189.413V194.273H188.118V203H189.459V197.75ZM201 206.455C203.091 206.455 204.773 205.5 204.773 203.25V194.273H203.477V195.659H203.341C203.045 195.205 202.5 194.159 200.795 194.159C198.591 194.159 197.068 195.909 197.068 198.591C197.068 201.318 198.659 202.864 200.773 202.864C202.477 202.864 203.023 201.864 203.318 201.386H203.432V203.159C203.432 204.614 202.409 205.273 201 205.273C199.415 205.273 198.858 204.438 198.5 203.955L197.432 204.705C197.977 205.619 199.051 206.455 201 206.455ZM200.955 201.659C199.273 201.659 198.409 200.386 198.409 198.568C198.409 196.795 199.25 195.364 200.955 195.364C202.591 195.364 203.455 196.682 203.455 198.568C203.455 200.5 202.568 201.659 200.955 201.659ZM215.523 194.273H213.659V192.182H212.318V194.273H211V195.409H212.318V200.864C212.318 202.386 213.545 203.114 214.682 203.114C215.182 203.114 215.5 203.023 215.682 202.955L215.409 201.75C215.295 201.773 215.114 201.818 214.818 201.818C214.227 201.818 213.659 201.636 213.659 200.5V195.409H215.523V194.273ZM220.991 203.182C223.355 203.182 224.946 201.386 224.946 198.682C224.946 195.955 223.355 194.159 220.991 194.159C218.628 194.159 217.037 195.955 217.037 198.682C217.037 201.386 218.628 203.182 220.991 203.182ZM220.991 201.977C219.196 201.977 218.378 200.432 218.378 198.682C218.378 196.932 219.196 195.364 220.991 195.364C222.787 195.364 223.605 196.932 223.605 198.682C223.605 200.432 222.787 201.977 220.991 201.977ZM234.061 203.205C235.584 203.205 236.379 202.386 236.652 201.818H236.72V203H238.061V197.25C238.061 194.477 235.947 194.159 234.834 194.159C233.516 194.159 232.016 194.614 231.334 196.205L232.607 196.659C232.902 196.023 233.601 195.341 234.879 195.341C236.112 195.341 236.72 195.994 236.72 197.114V197.159C236.72 197.807 236.061 197.75 234.47 197.955C232.851 198.165 231.084 198.523 231.084 200.523C231.084 202.227 232.402 203.205 234.061 203.205ZM234.266 202C233.197 202 232.425 201.523 232.425 200.591C232.425 199.568 233.357 199.25 234.402 199.114C234.97 199.045 236.493 198.886 236.72 198.614V199.841C236.72 200.932 235.857 202 234.266 202ZM248.895 194.273H246.94V193.386C246.94 192.523 247.304 192.068 248.19 192.068C248.577 192.068 248.804 192.159 248.94 192.205L249.327 191.045C249.122 190.955 248.713 190.818 248.054 190.818C246.804 190.818 245.599 191.568 245.599 193.068V194.273H244.19V195.409H245.599V203H246.94V195.409H248.895V194.273ZM256.274 199.432C256.274 201.068 255.024 201.818 254.024 201.818C252.911 201.818 252.115 201 252.115 199.727V194.273H250.774V199.818C250.774 202.045 251.956 203.114 253.592 203.114C254.911 203.114 255.774 202.409 256.183 201.523H256.274V203H257.615V194.273H256.274V199.432ZM261.412 191.364H260.071V203H261.412V191.364ZM265.209 191.364H263.868V203H265.209V191.364ZM268.528 206.273C269.739 206.273 270.591 205.631 271.097 204.273L274.812 194.295L273.347 194.273L270.938 201.227H270.847L268.438 194.273H266.983L270.21 203.045L269.96 203.727C269.472 205.057 268.869 205.182 267.892 204.932L267.551 206.114C267.688 206.182 268.074 206.273 268.528 206.273ZM283.655 203.205C285.178 203.205 285.973 202.386 286.246 201.818H286.314V203H287.655V197.25C287.655 194.477 285.541 194.159 284.428 194.159C283.109 194.159 281.609 194.614 280.928 196.205L282.2 196.659C282.496 196.023 283.195 195.341 284.473 195.341C285.706 195.341 286.314 195.994 286.314 197.114V197.159C286.314 197.807 285.655 197.75 284.064 197.955C282.445 198.165 280.678 198.523 280.678 200.523C280.678 202.227 281.996 203.205 283.655 203.205ZM283.859 202C282.791 202 282.018 201.523 282.018 200.591C282.018 199.568 282.95 199.25 283.996 199.114C284.564 199.045 286.087 198.886 286.314 198.614V199.841C286.314 200.932 285.45 202 283.859 202ZM295.602 199.432C295.602 201.068 294.352 201.818 293.352 201.818C292.239 201.818 291.443 201 291.443 199.727V194.273H290.102V199.818C290.102 202.045 291.284 203.114 292.92 203.114C294.239 203.114 295.102 202.409 295.511 201.523H295.602V203H296.943V194.273H295.602V199.432ZM303.195 194.273H301.331V192.182H299.99V194.273H298.672V195.409H299.99V200.864C299.99 202.386 301.217 203.114 302.354 203.114C302.854 203.114 303.172 203.023 303.354 202.955L303.081 201.75C302.967 201.773 302.786 201.818 302.49 201.818C301.899 201.818 301.331 201.636 301.331 200.5V195.409H303.195V194.273ZM308.663 203.182C311.027 203.182 312.618 201.386 312.618 198.682C312.618 195.955 311.027 194.159 308.663 194.159C306.3 194.159 304.709 195.955 304.709 198.682C304.709 201.386 306.3 203.182 308.663 203.182ZM308.663 201.977C306.868 201.977 306.05 200.432 306.05 198.682C306.05 196.932 306.868 195.364 308.663 195.364C310.459 195.364 311.277 196.932 311.277 198.682C311.277 200.432 310.459 201.977 308.663 201.977ZM314.665 203H316.006V197.545C316.006 196.267 316.938 195.364 317.983 195.364C319 195.364 319.71 196.028 319.71 197.023V203H321.074V197.318C321.074 196.193 321.778 195.364 323.006 195.364C323.96 195.364 324.778 195.869 324.778 197.159V203H326.119V197.159C326.119 195.108 325.017 194.159 323.46 194.159C322.21 194.159 321.295 194.733 320.847 195.636H320.756C320.324 194.705 319.562 194.159 318.415 194.159C317.278 194.159 316.438 194.705 316.074 195.636H315.96V194.273H314.665V203ZM331.139 203.205C332.662 203.205 333.457 202.386 333.73 201.818H333.798V203H335.139V197.25C335.139 194.477 333.026 194.159 331.912 194.159C330.594 194.159 329.094 194.614 328.412 196.205L329.685 196.659C329.98 196.023 330.679 195.341 331.957 195.341C333.19 195.341 333.798 195.994 333.798 197.114V197.159C333.798 197.807 333.139 197.75 331.548 197.955C329.929 198.165 328.162 198.523 328.162 200.523C328.162 202.227 329.48 203.205 331.139 203.205ZM331.344 202C330.276 202 329.503 201.523 329.503 200.591C329.503 199.568 330.435 199.25 331.48 199.114C332.048 199.045 333.571 198.886 333.798 198.614V199.841C333.798 200.932 332.935 202 331.344 202ZM341.382 194.273H339.518V192.182H338.178V194.273H336.859V195.409H338.178V200.864C338.178 202.386 339.405 203.114 340.541 203.114C341.041 203.114 341.359 203.023 341.541 202.955L341.268 201.75C341.155 201.773 340.973 201.818 340.678 201.818C340.087 201.818 339.518 201.636 339.518 200.5V195.409H341.382V194.273ZM346.964 203.182C348.737 203.182 350.033 202.295 350.442 200.977L349.146 200.614C348.805 201.523 348.016 201.977 346.964 201.977C345.391 201.977 344.305 200.96 344.243 199.091H350.578V198.523C350.578 195.273 348.646 194.159 346.828 194.159C344.464 194.159 342.896 196.023 342.896 198.705C342.896 201.386 344.442 203.182 346.964 203.182ZM344.243 197.932C344.334 196.574 345.294 195.364 346.828 195.364C348.283 195.364 349.214 196.455 349.214 197.932H344.243ZM355.913 203.182C357.595 203.182 358.163 202.136 358.459 201.659H358.618V203H359.913V191.364H358.572V195.659H358.459C358.163 195.205 357.641 194.159 355.936 194.159C353.732 194.159 352.209 195.909 352.209 198.659C352.209 201.432 353.732 203.182 355.913 203.182ZM356.095 201.977C354.413 201.977 353.55 200.5 353.55 198.636C353.55 196.795 354.391 195.364 356.095 195.364C357.732 195.364 358.595 196.682 358.595 198.636C358.595 200.614 357.709 201.977 356.095 201.977ZM50.2273 227H51.5682V221.545C51.5682 220.267 52.5 219.364 53.5455 219.364C54.5625 219.364 55.2727 220.028 55.2727 221.023V227H56.6364V221.318C56.6364 220.193 57.3409 219.364 58.5682 219.364C59.5227 219.364 60.3409 219.869 60.3409 221.159V227H61.6818V221.159C61.6818 219.108 60.5795 218.159 59.0227 218.159C57.7727 218.159 56.858 218.733 56.4091 219.636H56.3182C55.8864 218.705 55.125 218.159 53.9773 218.159C52.8409 218.159 52 218.705 51.6364 219.636H51.5227V218.273H50.2273V227ZM67.679 227.182C70.0426 227.182 71.6335 225.386 71.6335 222.682C71.6335 219.955 70.0426 218.159 67.679 218.159C65.3153 218.159 63.7244 219.955 63.7244 222.682C63.7244 225.386 65.3153 227.182 67.679 227.182ZM67.679 225.977C65.8835 225.977 65.0653 224.432 65.0653 222.682C65.0653 220.932 65.8835 219.364 67.679 219.364C69.4744 219.364 70.2926 220.932 70.2926 222.682C70.2926 224.432 69.4744 225.977 67.679 225.977ZM75.0213 221.75C75.0213 220.227 75.9645 219.364 77.2486 219.364C78.4929 219.364 79.2486 220.176 79.2486 221.545V227H80.5895V221.455C80.5895 219.227 79.402 218.159 77.6349 218.159C76.3168 218.159 75.4986 218.75 75.0895 219.636H74.9759V218.273H73.6804V227H75.0213V221.75ZM86.8352 218.273H84.9716V216.182H83.6307V218.273H82.3125V219.409H83.6307V224.864C83.6307 226.386 84.858 227.114 85.9943 227.114C86.4943 227.114 86.8125 227.023 86.9943 226.955L86.7216 225.75C86.608 225.773 86.4261 225.818 86.1307 225.818C85.5398 225.818 84.9716 225.636 84.9716 224.5V219.409H86.8352V218.273ZM90.3807 221.75C90.3807 220.227 91.3523 219.364 92.6761 219.364C93.9375 219.364 94.6989 220.159 94.6989 221.545V227H96.0398V221.455C96.0398 219.21 94.8466 218.159 93.0625 218.159C91.6875 218.159 90.9034 218.733 90.4943 219.636H90.3807V215.364H89.0398V227H90.3807V221.75ZM99.8338 215.364H98.4929V227H99.8338V215.364ZM103.153 230.273C104.364 230.273 105.216 229.631 105.722 228.273L109.438 218.295L107.972 218.273L105.562 225.227H105.472L103.062 218.273H101.608L104.835 227.045L104.585 227.727C104.097 229.057 103.494 229.182 102.517 228.932L102.176 230.114C102.312 230.182 102.699 230.273 103.153 230.273ZM119.371 227.182C121.143 227.182 122.439 226.295 122.848 224.977L121.553 224.614C121.212 225.523 120.422 225.977 119.371 225.977C117.797 225.977 116.712 224.96 116.649 223.091H122.984V222.523C122.984 219.273 121.053 218.159 119.234 218.159C116.871 218.159 115.303 220.023 115.303 222.705C115.303 225.386 116.848 227.182 119.371 227.182ZM116.649 221.932C116.74 220.574 117.7 219.364 119.234 219.364C120.689 219.364 121.621 220.455 121.621 221.932H116.649ZM125.024 227H126.365V221.545C126.365 220.267 127.297 219.364 128.342 219.364C129.359 219.364 130.07 220.028 130.07 221.023V227H131.433V221.318C131.433 220.193 132.138 219.364 133.365 219.364C134.32 219.364 135.138 219.869 135.138 221.159V227H136.479V221.159C136.479 219.108 135.376 218.159 133.82 218.159C132.57 218.159 131.655 218.733 131.206 219.636H131.115C130.683 218.705 129.922 218.159 128.774 218.159C127.638 218.159 126.797 218.705 126.433 219.636H126.32V218.273H125.024V227ZM138.93 230.273H140.271V225.659H140.385C140.68 226.136 141.249 227.182 142.93 227.182C145.112 227.182 146.635 225.432 146.635 222.659C146.635 219.909 145.112 218.159 142.908 218.159C141.203 218.159 140.68 219.205 140.385 219.659H140.226V218.273H138.93V230.273ZM140.249 222.636C140.249 220.682 141.112 219.364 142.749 219.364C144.453 219.364 145.294 220.795 145.294 222.636C145.294 224.5 144.43 225.977 142.749 225.977C141.135 225.977 140.249 224.614 140.249 222.636ZM150.021 215.364H148.68V227H150.021V215.364ZM156.023 227.182C158.386 227.182 159.977 225.386 159.977 222.682C159.977 219.955 158.386 218.159 156.023 218.159C153.659 218.159 152.068 219.955 152.068 222.682C152.068 225.386 153.659 227.182 156.023 227.182ZM156.023 225.977C154.227 225.977 153.409 224.432 153.409 222.682C153.409 220.932 154.227 219.364 156.023 219.364C157.818 219.364 158.636 220.932 158.636 222.682C158.636 224.432 157.818 225.977 156.023 225.977ZM162.575 230.273C163.786 230.273 164.638 229.631 165.143 228.273L168.859 218.295L167.393 218.273L164.984 225.227H164.893L162.484 218.273H161.03L164.257 227.045L164.007 227.727C163.518 229.057 162.916 229.182 161.939 228.932L161.598 230.114C161.734 230.182 162.121 230.273 162.575 230.273ZM173.98 227.182C175.753 227.182 177.048 226.295 177.457 224.977L176.162 224.614C175.821 225.523 175.031 225.977 173.98 225.977C172.406 225.977 171.321 224.96 171.259 223.091H177.594V222.523C177.594 219.273 175.662 218.159 173.844 218.159C171.48 218.159 169.912 220.023 169.912 222.705C169.912 225.386 171.457 227.182 173.98 227.182ZM171.259 221.932C171.349 220.574 172.31 219.364 173.844 219.364C175.298 219.364 176.23 220.455 176.23 221.932H171.259ZM183.293 227.182C185.065 227.182 186.361 226.295 186.77 224.977L185.474 224.614C185.134 225.523 184.344 225.977 183.293 225.977C181.719 225.977 180.634 224.96 180.571 223.091H186.906V222.523C186.906 219.273 184.974 218.159 183.156 218.159C180.793 218.159 179.224 220.023 179.224 222.705C179.224 225.386 180.77 227.182 183.293 227.182ZM180.571 221.932C180.662 220.574 181.622 219.364 183.156 219.364C184.611 219.364 185.543 220.455 185.543 221.932H180.571ZM199.628 220.227C199.207 218.989 198.264 218.159 196.537 218.159C194.696 218.159 193.332 219.205 193.332 220.682C193.332 221.886 194.048 222.693 195.651 223.068L197.105 223.409C197.986 223.614 198.401 224.034 198.401 224.636C198.401 225.386 197.605 226 196.355 226C195.259 226 194.571 225.528 194.332 224.591L193.06 224.909C193.372 226.392 194.594 227.182 196.378 227.182C198.406 227.182 199.787 226.074 199.787 224.568C199.787 223.352 199.026 222.585 197.469 222.205L196.173 221.886C195.139 221.631 194.673 221.284 194.673 220.614C194.673 219.864 195.469 219.318 196.537 219.318C197.707 219.318 198.19 219.966 198.423 220.568L199.628 220.227ZM205.351 227.182C207.283 227.182 208.555 226 208.783 224.455H207.442C207.192 225.409 206.396 225.977 205.351 225.977C203.76 225.977 202.737 224.659 202.737 222.636C202.737 220.659 203.783 219.364 205.351 219.364C206.533 219.364 207.237 220.091 207.442 220.886H208.783C208.555 219.25 207.169 218.159 205.328 218.159C202.964 218.159 201.396 220.023 201.396 222.682C201.396 225.295 202.896 227.182 205.351 227.182ZM212.084 221.75C212.084 220.227 213.055 219.364 214.379 219.364C215.641 219.364 216.402 220.159 216.402 221.545V227H217.743V221.455C217.743 219.21 216.55 218.159 214.766 218.159C213.391 218.159 212.607 218.733 212.197 219.636H212.084V215.364H210.743V227H212.084V221.75ZM223.855 227.182C225.628 227.182 226.923 226.295 227.332 224.977L226.037 224.614C225.696 225.523 224.906 225.977 223.855 225.977C222.281 225.977 221.196 224.96 221.134 223.091H227.469V222.523C227.469 219.273 225.537 218.159 223.719 218.159C221.355 218.159 219.787 220.023 219.787 222.705C219.787 225.386 221.332 227.182 223.855 227.182ZM221.134 221.932C221.224 220.574 222.185 219.364 223.719 219.364C225.173 219.364 226.105 220.455 226.105 221.932H221.134ZM232.804 227.182C234.486 227.182 235.054 226.136 235.349 225.659H235.509V227H236.804V215.364H235.463V219.659H235.349C235.054 219.205 234.531 218.159 232.827 218.159C230.622 218.159 229.099 219.909 229.099 222.659C229.099 225.432 230.622 227.182 232.804 227.182ZM232.986 225.977C231.304 225.977 230.44 224.5 230.44 222.636C230.44 220.795 231.281 219.364 232.986 219.364C234.622 219.364 235.486 220.682 235.486 222.636C235.486 224.614 234.599 225.977 232.986 225.977ZM244.946 223.432C244.946 225.068 243.696 225.818 242.696 225.818C241.582 225.818 240.787 225 240.787 223.727V218.273H239.446V223.818C239.446 226.045 240.628 227.114 242.264 227.114C243.582 227.114 244.446 226.409 244.855 225.523H244.946V227H246.287V218.273H244.946V223.432ZM250.084 215.364H248.743V227H250.084V215.364ZM256.199 227.182C257.972 227.182 259.267 226.295 259.676 224.977L258.381 224.614C258.04 225.523 257.25 225.977 256.199 225.977C254.625 225.977 253.54 224.96 253.477 223.091H259.812V222.523C259.812 219.273 257.881 218.159 256.062 218.159C253.699 218.159 252.131 220.023 252.131 222.705C252.131 225.386 253.676 227.182 256.199 227.182ZM253.477 221.932C253.568 220.574 254.528 219.364 256.062 219.364C257.517 219.364 258.449 220.455 258.449 221.932H253.477ZM262.83 227.091C263.392 227.091 263.852 226.631 263.852 226.068C263.852 225.506 263.392 225.045 262.83 225.045C262.267 225.045 261.807 225.506 261.807 226.068C261.807 226.631 262.267 227.091 262.83 227.091Z" fill="#F1EFF4"/>
<path d="M61.6566 122.674H65.7314C65.6725 119.09 62.7268 116.616 58.2494 116.616C53.8407 116.616 50.6103 119.051 50.6299 122.704C50.6201 125.669 52.7115 127.368 56.1089 128.183L58.2985 128.732C60.4881 129.263 61.7056 129.891 61.7155 131.246C61.7056 132.719 60.3114 133.72 58.1512 133.72C55.942 133.72 54.3513 132.699 54.2138 130.686H50.0997C50.2077 135.036 53.3203 137.285 58.2003 137.285C63.1097 137.285 65.9965 134.938 66.0063 131.256C65.9965 127.908 63.473 126.13 59.9775 125.345L58.1708 124.913C56.4231 124.51 54.9601 123.862 54.9895 122.419C54.9895 121.123 56.1383 120.17 58.2199 120.17C60.2525 120.17 61.4995 121.093 61.6566 122.674ZM76.8096 121.918H73.9719V118.305H69.789V121.918H67.7271V125.06H69.789V132.915C69.7694 135.871 71.7823 137.334 74.8163 137.206C75.8964 137.167 76.6623 136.951 77.0845 136.813L76.4266 133.701C76.2204 133.74 75.7786 133.838 75.3858 133.838C74.5512 133.838 73.9719 133.524 73.9719 132.365V125.06H76.8096V121.918ZM83.835 137.285C86.0639 137.285 87.5072 136.313 88.2437 134.909H88.3615V137H92.3283V126.828C92.3283 123.234 89.2845 121.722 85.9264 121.722C82.313 121.722 79.9369 123.45 79.3576 126.199L83.2262 126.513C83.511 125.512 84.4045 124.775 85.9068 124.775C87.3305 124.775 88.1455 125.492 88.1455 126.729V126.788C88.1455 127.76 87.1145 127.888 84.4928 128.143C81.5079 128.418 78.8273 129.42 78.8273 132.788C78.8273 135.773 80.958 137.285 83.835 137.285ZM85.0329 134.398C83.7466 134.398 82.8236 133.799 82.8236 132.65C82.8236 131.472 83.7957 130.893 85.2685 130.686C86.1817 130.559 87.6742 130.343 88.1749 130.009V131.609C88.1749 133.19 86.869 134.398 85.0329 134.398ZM103.684 121.918H100.689V120.907C100.689 119.886 101.101 119.287 102.329 119.287C102.83 119.287 103.34 119.395 103.674 119.503L104.41 116.361C103.89 116.204 102.741 115.948 101.455 115.948C98.6173 115.948 96.5063 117.549 96.5063 120.828V121.918H94.3756V125.06H96.5063V137H100.689V125.06H103.684V121.918ZM114.35 121.918H111.355V120.907C111.355 119.886 111.767 119.287 112.995 119.287C113.495 119.287 114.006 119.395 114.34 119.503L115.076 116.361C114.556 116.204 113.407 115.948 112.121 115.948C109.283 115.948 107.172 117.549 107.172 120.828V121.918H105.041V125.06H107.172V137H111.355V125.06H114.35V121.918ZM130.119 137.295C134.694 137.295 137.542 134.162 137.542 129.518C137.542 124.844 134.694 121.722 130.119 121.722C125.543 121.722 122.696 124.844 122.696 129.518C122.696 134.162 125.543 137.295 130.119 137.295ZM130.138 134.054C128.027 134.054 126.947 132.12 126.947 129.489C126.947 126.857 128.027 124.913 130.138 124.913C132.21 124.913 133.29 126.857 133.29 129.489C133.29 132.12 132.21 134.054 130.138 134.054ZM140.262 142.656H144.445V134.585H144.572C145.152 135.841 146.418 137.245 148.853 137.245C152.29 137.245 154.97 134.526 154.97 129.479C154.97 124.294 152.172 121.722 148.863 121.722C146.34 121.722 145.132 123.224 144.572 124.451H144.386V121.918H140.262V142.656ZM144.356 129.459C144.356 126.769 145.495 125.05 147.528 125.05C149.599 125.05 150.699 126.847 150.699 129.459C150.699 132.091 149.58 133.917 147.528 133.917C145.515 133.917 144.356 132.149 144.356 129.459ZM165.781 121.918H162.943V118.305H158.76V121.918H156.699V125.06H158.76V132.915C158.741 135.871 160.754 137.334 163.788 137.206C164.868 137.167 165.634 136.951 166.056 136.813L165.398 133.701C165.192 133.74 164.75 133.838 164.357 133.838C163.523 133.838 162.943 133.524 162.943 132.365V125.06H165.781V121.918ZM168.506 137H172.689V121.918H168.506V137ZM170.607 119.974C171.854 119.974 172.875 119.022 172.875 117.853C172.875 116.695 171.854 115.742 170.607 115.742C169.37 115.742 168.349 116.695 168.349 117.853C168.349 119.022 169.37 119.974 170.607 119.974ZM176.039 137H180.222V127.947C180.222 126.278 181.283 125.168 182.677 125.168C184.051 125.168 184.974 126.111 184.974 127.594V137H189.03V127.79C189.03 126.229 189.923 125.168 191.445 125.168C192.78 125.168 193.782 126.003 193.782 127.682V137H197.955V126.857C197.955 123.587 196.011 121.722 193.203 121.722C190.993 121.722 189.275 122.851 188.657 124.579H188.499C188.018 122.831 186.477 121.722 184.405 121.722C182.372 121.722 180.831 122.802 180.202 124.579H180.026V121.918H176.039V137ZM201.259 137H205.442V121.918H201.259V137ZM203.36 119.974C204.607 119.974 205.629 119.022 205.629 117.853C205.629 116.695 204.607 115.742 203.36 115.742C202.123 115.742 201.102 116.695 201.102 117.853C201.102 119.022 202.123 119.974 203.36 119.974ZM208.714 137H221.39V133.662H214.203V133.554L221.135 124.638V121.918H208.969V125.257H216.098V125.365L208.714 134.506V137ZM228.889 137.285C231.118 137.285 232.562 136.313 233.298 134.909H233.416V137H237.383V126.828C237.383 123.234 234.339 121.722 230.981 121.722C227.368 121.722 224.991 123.45 224.412 126.199L228.281 126.513C228.565 125.512 229.459 124.775 230.961 124.775C232.385 124.775 233.2 125.492 233.2 126.729V126.788C233.2 127.76 232.169 127.888 229.547 128.143C226.562 128.418 223.882 129.42 223.882 132.788C223.882 135.773 226.013 137.285 228.889 137.285ZM230.087 134.398C228.801 134.398 227.878 133.799 227.878 132.65C227.878 131.472 228.85 130.893 230.323 130.686C231.236 130.559 232.729 130.343 233.229 130.009V131.609C233.229 133.19 231.924 134.398 230.087 134.398ZM248.65 121.918H245.812V118.305H241.629V121.918H239.568V125.06H241.629V132.915C241.61 135.871 243.623 137.334 246.657 137.206C247.737 137.167 248.503 136.951 248.925 136.813L248.267 133.701C248.061 133.74 247.619 133.838 247.226 133.838C246.392 133.838 245.812 133.524 245.812 132.365V125.06H248.65V121.918ZM251.375 137H255.558V121.918H251.375V137ZM253.476 119.974C254.723 119.974 255.744 119.022 255.744 117.853C255.744 116.695 254.723 115.742 253.476 115.742C252.239 115.742 251.218 116.695 251.218 117.853C251.218 119.022 252.239 119.974 253.476 119.974ZM265.723 137.295C270.298 137.295 273.146 134.162 273.146 129.518C273.146 124.844 270.298 121.722 265.723 121.722C261.147 121.722 258.299 124.844 258.299 129.518C258.299 134.162 261.147 137.295 265.723 137.295ZM265.742 134.054C263.631 134.054 262.551 132.12 262.551 129.489C262.551 126.857 263.631 124.913 265.742 124.913C267.814 124.913 268.894 126.857 268.894 129.489C268.894 132.12 267.814 134.054 265.742 134.054ZM280.048 128.281C280.058 126.337 281.217 125.198 282.906 125.198C284.585 125.198 285.596 126.297 285.586 128.143V137H289.769V127.397C289.769 123.882 287.707 121.722 284.565 121.722C282.326 121.722 280.706 122.822 280.029 124.579H279.852V121.918H275.866V137H280.048V128.281ZM58.6912 154.918H55.8536V151.305H51.6707V154.918H49.6088V158.06H51.6707V165.915C51.6511 168.871 53.664 170.334 56.698 170.206C57.7781 170.167 58.544 169.951 58.9662 169.813L58.3083 166.701C58.1021 166.74 57.6603 166.838 57.2675 166.838C56.4329 166.838 55.8536 166.524 55.8536 165.365V158.06H58.6912V154.918ZM65.7167 170.285C67.9456 170.285 69.3889 169.313 70.1253 167.909H70.2432V170H74.21V159.828C74.21 156.234 71.1661 154.722 67.8081 154.722C64.1947 154.722 61.8186 156.45 61.2392 159.199L65.1079 159.513C65.3926 158.512 66.2862 157.775 67.7884 157.775C69.2122 157.775 70.0272 158.492 70.0272 159.729V159.788C70.0272 160.76 68.9962 160.888 66.3745 161.143C63.3896 161.418 60.709 162.42 60.709 165.788C60.709 168.773 62.8397 170.285 65.7167 170.285ZM66.9146 167.398C65.6283 167.398 64.7053 166.799 64.7053 165.65C64.7053 164.472 65.6774 163.893 67.1502 163.686C68.0634 163.559 69.5559 163.343 70.0566 163.009V164.609C70.0566 166.19 68.7507 167.398 66.9146 167.398ZM77.4551 170H81.638V154.918H77.4551V170ZM79.5564 152.974C80.8034 152.974 81.8246 152.022 81.8246 150.853C81.8246 149.695 80.8034 148.742 79.5564 148.742C78.3192 148.742 77.298 149.695 77.298 150.853C77.298 152.022 78.3192 152.974 79.5564 152.974ZM89.1715 149.891H84.9887V170H89.1715V149.891ZM99.3366 170.295C103.912 170.295 106.76 167.162 106.76 162.518C106.76 157.844 103.912 154.722 99.3366 154.722C94.7609 154.722 91.9135 157.844 91.9135 162.518C91.9135 167.162 94.7609 170.295 99.3366 170.295ZM99.3562 167.054C97.2451 167.054 96.165 165.12 96.165 162.489C96.165 159.857 97.2451 157.913 99.3562 157.913C101.428 157.913 102.508 159.857 102.508 162.489C102.508 165.12 101.428 167.054 99.3562 167.054ZM109.479 170H113.662V161.467C113.662 159.612 115.017 158.335 116.863 158.335C117.443 158.335 118.238 158.433 118.631 158.561V154.849C118.258 154.761 117.737 154.702 117.315 154.702C115.626 154.702 114.242 155.684 113.692 157.55H113.535V154.918H109.479V170ZM126.964 170.295C130.696 170.295 133.209 168.478 133.798 165.68L129.93 165.424C129.508 166.573 128.427 167.172 127.033 167.172C124.942 167.172 123.616 165.788 123.616 163.539V163.529H133.887V162.381C133.887 157.255 130.784 154.722 126.798 154.722C122.359 154.722 119.482 157.874 119.482 162.528C119.482 167.31 122.32 170.295 126.964 170.295ZM123.616 160.937C123.705 159.219 125.01 157.844 126.866 157.844C128.683 157.844 129.94 159.14 129.949 160.937H123.616ZM142.174 170.245C144.609 170.245 145.876 168.841 146.455 167.585H146.632V170H150.756V149.891H146.583V157.451H146.455C145.895 156.224 144.688 154.722 142.164 154.722C138.855 154.722 136.057 157.294 136.057 162.479C136.057 167.526 138.737 170.245 142.174 170.245ZM143.499 166.917C141.447 166.917 140.328 165.091 140.328 162.459C140.328 159.847 141.428 158.05 143.499 158.05C145.532 158.05 146.671 159.769 146.671 162.459C146.671 165.149 145.512 166.917 143.499 166.917ZM168.616 154.918H165.779V151.305H161.596V154.918H159.534V158.06H161.596V165.915C161.576 168.871 163.589 170.334 166.623 170.206C167.703 170.167 168.469 169.951 168.891 169.813L168.233 166.701C168.027 166.74 167.585 166.838 167.192 166.838C166.358 166.838 165.779 166.524 165.779 165.365V158.06H168.616V154.918ZM177.993 170.295C182.569 170.295 185.416 167.162 185.416 162.518C185.416 157.844 182.569 154.722 177.993 154.722C173.418 154.722 170.57 157.844 170.57 162.518C170.57 167.162 173.418 170.295 177.993 170.295ZM178.013 167.054C175.902 167.054 174.822 165.12 174.822 162.489C174.822 159.857 175.902 157.913 178.013 157.913C180.085 157.913 181.165 159.857 181.165 162.489C181.165 165.12 180.085 167.054 178.013 167.054ZM197.118 175.656C200.231 175.656 201.88 174.065 202.734 171.63L208.596 154.938L204.168 154.918L201.016 165.994H200.859L197.737 154.918H193.338L198.748 170.432L198.502 171.07C197.953 172.484 196.902 172.553 195.429 172.101L194.487 175.224C195.085 175.479 196.058 175.656 197.118 175.656ZM217.038 170.295C221.614 170.295 224.461 167.162 224.461 162.518C224.461 157.844 221.614 154.722 217.038 154.722C212.462 154.722 209.615 157.844 209.615 162.518C209.615 167.162 212.462 170.295 217.038 170.295ZM217.058 167.054C214.947 167.054 213.867 165.12 213.867 162.489C213.867 159.857 214.947 157.913 217.058 157.913C219.129 157.913 220.21 159.857 220.21 162.489C220.21 165.12 219.129 167.054 217.058 167.054ZM236.853 163.578C236.862 165.601 235.478 166.662 233.976 166.662C232.395 166.662 231.374 165.552 231.364 163.775V154.918H227.181V164.521C227.191 168.046 229.253 170.196 232.287 170.196C234.555 170.196 236.185 169.028 236.862 167.261H237.02V170H241.035V154.918H236.853V163.578ZM244.381 170H248.564V161.467C248.564 159.612 249.919 158.335 251.765 158.335C252.344 158.335 253.14 158.433 253.532 158.561V154.849C253.159 154.761 252.639 154.702 252.217 154.702C250.528 154.702 249.143 155.684 248.594 157.55H248.436V154.918H244.381V170ZM266.277 161.281C266.287 159.337 267.446 158.198 269.135 158.198C270.814 158.198 271.825 159.297 271.815 161.143V170H275.998V160.397C275.998 156.882 273.936 154.722 270.794 154.722C268.555 154.722 266.935 155.822 266.258 157.579H266.081V154.918H262.095V170H266.277V161.281ZM286.168 170.295C289.899 170.295 292.413 168.478 293.002 165.68L289.133 165.424C288.711 166.573 287.631 167.172 286.237 167.172C284.145 167.172 282.82 165.788 282.82 163.539V163.529H293.09V162.381C293.09 157.255 289.988 154.722 286.001 154.722C281.563 154.722 278.686 157.874 278.686 162.528C278.686 167.31 281.524 170.295 286.168 170.295ZM282.82 160.937C282.908 159.219 284.214 157.844 286.07 157.844C287.886 157.844 289.143 159.14 289.153 160.937H282.82ZM302.693 170.295C306.424 170.295 308.938 168.478 309.527 165.68L305.658 165.424C305.236 166.573 304.156 167.172 302.762 167.172C300.67 167.172 299.345 165.788 299.345 163.539V163.529H309.615V162.381C309.615 157.255 306.513 154.722 302.526 154.722C298.088 154.722 295.211 157.874 295.211 162.528C295.211 167.31 298.049 170.295 302.693 170.295ZM299.345 160.937C299.433 159.219 300.739 157.844 302.595 157.844C304.411 157.844 305.668 159.14 305.678 160.937H299.345ZM317.903 170.245C320.338 170.245 321.604 168.841 322.184 167.585H322.36V170H326.484V149.891H322.311V157.451H322.184C321.624 156.224 320.416 154.722 317.893 154.722C314.584 154.722 311.785 157.294 311.785 162.479C311.785 167.526 314.466 170.245 317.903 170.245ZM319.228 166.917C317.176 166.917 316.057 165.091 316.057 162.459C316.057 159.847 317.156 158.05 319.228 158.05C321.261 158.05 322.4 159.769 322.4 162.459C322.4 165.149 321.241 166.917 319.228 166.917ZM342.472 159.219C342.099 156.44 339.86 154.722 336.05 154.722C332.192 154.722 329.648 156.509 329.658 159.415C329.648 161.674 331.072 163.137 334.018 163.726L336.63 164.246C337.945 164.511 338.544 164.992 338.564 165.748C338.544 166.642 337.572 167.28 336.109 167.28C334.617 167.28 333.625 166.642 333.37 165.415L329.256 165.631C329.648 168.517 332.103 170.295 336.099 170.295C340.007 170.295 342.806 168.301 342.816 165.326C342.806 163.146 341.382 161.841 338.456 161.242L335.726 160.692C334.322 160.387 333.802 159.906 333.812 159.18C333.802 158.276 334.823 157.687 336.119 157.687C337.572 157.687 338.436 158.482 338.643 159.455L342.472 159.219Z" fill="white"/>
<rect x="49" y="260" width="124" height="48" rx="24" fill="#FFDC30"/>
<path d="M85.3426 289H87.3923V284.995H91.3354V283.305H87.3923V280.995H91.7614V279.305H85.3426V289ZM93.1023 289H95.1188V281.729H93.1023V289ZM94.1153 280.792C94.7164 280.792 95.2087 280.333 95.2087 279.769C95.2087 279.211 94.7164 278.752 94.1153 278.752C93.5188 278.752 93.0265 279.211 93.0265 279.769C93.0265 280.333 93.5188 280.792 94.1153 280.792ZM98.7507 284.797C98.7554 283.859 99.314 283.31 100.128 283.31C100.938 283.31 101.425 283.84 101.42 284.73V289H103.437V284.37C103.437 282.676 102.443 281.634 100.928 281.634C99.8489 281.634 99.0679 282.165 98.7412 283.012H98.656V281.729H96.7342V289H98.7507V284.797ZM107.706 289.118C108.88 289.118 109.49 288.441 109.769 287.836H109.855V289H111.843V279.305H109.831V282.95H109.769C109.5 282.359 108.917 281.634 107.701 281.634C106.106 281.634 104.757 282.875 104.757 285.374C104.757 287.807 106.049 289.118 107.706 289.118ZM108.345 287.514C107.355 287.514 106.816 286.633 106.816 285.365C106.816 284.105 107.346 283.239 108.345 283.239C109.325 283.239 109.874 284.068 109.874 285.365C109.874 286.662 109.315 287.514 108.345 287.514ZM119.871 289.142C122.077 289.142 123.45 287.632 123.45 285.393C123.45 283.14 122.077 281.634 119.871 281.634C117.665 281.634 116.292 283.14 116.292 285.393C116.292 287.632 117.665 289.142 119.871 289.142ZM119.881 287.58C118.863 287.58 118.342 286.647 118.342 285.379C118.342 284.11 118.863 283.173 119.881 283.173C120.879 283.173 121.4 284.11 121.4 285.379C121.4 286.647 120.879 287.58 119.881 287.58ZM129.424 285.904C129.428 286.879 128.761 287.391 128.037 287.391C127.275 287.391 126.782 286.856 126.778 285.999V281.729H124.761V286.359C124.766 288.058 125.76 289.095 127.223 289.095C128.316 289.095 129.102 288.531 129.428 287.679H129.504V289H131.44V281.729H129.424V285.904ZM136.921 281.729H135.553V279.987H133.536V281.729H132.542V283.244H133.536V287.031C133.527 288.456 134.497 289.161 135.96 289.099C136.48 289.08 136.85 288.976 137.053 288.91L136.736 287.409C136.637 287.428 136.424 287.476 136.234 287.476C135.832 287.476 135.553 287.324 135.553 286.766V283.244H136.921V281.729Z" fill="#3B3D3D"/>
<g clip-path="url(#clip0)">
<path d="M153.208 86H160.249C160.343 86 160.437 85.9036 160.531 85.8072L161 84.0723C161 83.9759 161 83.8795 160.906 83.7831L154.71 79.8313C154.522 79.7349 154.616 79.5422 154.804 79.5422H160.531C160.718 79.5422 160.718 79.4458 160.718 79.253L160.249 78.1928C160.155 78 160.061 78 159.967 78H153.208C153.114 78 153.02 78.0964 152.926 78.1928L152.551 79.9277C152.551 80.0241 152.551 80.1205 152.645 80.2169L158.841 84.1687C159.028 84.2651 158.935 84.4578 158.747 84.4578H152.645C152.457 84.4578 152.457 84.5542 152.457 84.747L152.926 85.8072C153.02 85.9036 153.114 86 153.208 86ZM142.224 84.3614C141.567 83.6867 141.379 82.8193 141.379 81.9518C141.379 81.0843 141.661 80.2169 142.224 79.5422C142.318 79.4458 142.412 79.4458 142.505 79.4458H146.261C146.355 79.4458 146.448 79.4458 146.542 79.5422C147.199 80.2169 147.387 81.0843 147.387 81.9518C147.387 82.8193 147.106 83.6867 146.542 84.3614C146.448 84.4578 146.355 84.4578 146.261 84.4578H142.505C142.412 84.5542 142.318 84.4578 142.224 84.3614ZM141.754 86H147.012C147.106 86 147.199 86 147.293 85.9036C148.232 85.0361 148.889 83.5904 148.889 82.0482C148.889 80.506 148.138 79.0602 147.293 78.1928C147.199 78 147.106 78 147.012 78H141.754C141.661 78 141.567 78 141.473 78.0964C140.534 78.9639 139.877 80.4096 139.877 81.9518C139.877 83.494 140.628 84.9398 141.473 85.8072C141.567 86 141.661 86 141.754 86ZM128.987 86H135.37C135.558 86 135.558 85.9036 135.558 85.8072V84.747C135.558 84.5542 135.464 84.5542 135.37 84.5542H133.211C133.023 84.5542 133.023 84.4578 133.023 84.3614V79.7349C133.023 79.5422 133.117 79.5422 133.211 79.5422H135.37C135.558 79.5422 135.558 79.4458 135.558 79.3494V78.1928C135.558 78.0964 135.464 78 135.37 78H128.987C128.799 78 128.799 78.0964 128.799 78.1928V79.253C128.799 79.4458 128.893 79.4458 128.987 79.4458H131.146C131.334 79.4458 131.334 79.5422 131.334 79.6386V84.1687C131.334 84.3614 131.24 84.3614 131.146 84.3614H128.987C128.799 84.3614 128.799 84.4578 128.799 84.5542V85.6145C128.705 85.9036 128.799 86 128.987 86ZM118.19 86H124.293C124.386 86 124.48 86 124.574 85.8072L125.044 84.747C125.137 84.5542 125.044 84.4578 124.856 84.4578H119.692C119.505 84.4578 119.505 84.3614 119.505 84.2651V78.1928C119.505 78.0964 119.411 78 119.317 78H118.19C118.003 78 118.003 78.0964 118.003 78.1928V85.7108C117.909 85.9036 118.003 86 118.19 86ZM106.455 82.7229L107.957 79.6386C108.051 79.5422 108.051 79.4458 108.239 79.4458H109.084C109.178 79.4458 109.272 79.5422 109.365 79.6386L110.868 82.7229C110.961 82.9157 110.868 83.012 110.68 83.012H106.737C106.455 83.012 106.361 82.9157 106.455 82.7229ZM103.545 86H104.765C104.859 86 104.953 85.9036 105.047 85.8072L105.61 84.6506C105.704 84.5542 105.704 84.4578 105.892 84.4578H111.431C111.525 84.4578 111.619 84.5542 111.712 84.6506L112.276 85.8072C112.37 85.9036 112.37 86 112.557 86H113.778C113.966 86 114.06 85.9036 113.966 85.7108L110.398 78.1928C110.21 78.0964 110.117 78 110.023 78H107.112C107.018 78 106.925 78.0964 106.831 78.1928L103.357 85.7108C103.263 85.9036 103.357 86 103.545 86ZM75.9438 86H81.9522C82.0461 86 82.14 85.9036 82.2339 85.8072L82.891 82.241C82.891 82.0482 82.891 81.9518 82.7033 81.9518H81.4828C81.3889 81.9518 81.2951 82.0482 81.2012 82.1446L80.7318 84.2651C80.7318 84.3614 80.6379 84.4578 80.4501 84.4578H76.601C76.5071 84.4578 76.4132 84.4578 76.3194 84.3614C75.6622 83.6867 75.4744 82.8193 75.4744 81.9518C75.4744 81.0843 75.7561 80.2169 76.3194 79.5422C76.4132 79.4458 76.5071 79.4458 76.601 79.4458H81.9522C82.14 79.4458 82.14 79.3494 82.14 79.1566L81.6706 78.0964C81.7645 78 81.6706 78 81.5767 78H76.0377C75.9438 78 75.85 78 75.7561 78.0964C74.8173 78.9639 74.1601 80.4096 74.1601 81.9518C74.1601 83.494 74.9111 84.9398 75.7561 85.8072C75.7561 86 75.85 86 75.9438 86ZM65.1475 86H66.368C66.5557 86 66.5557 85.9036 66.5557 85.8072V84.1687C66.5557 83.9759 66.6496 83.9759 66.7435 83.9759H67.6823C67.7762 83.9759 67.8701 83.8795 67.964 83.7831L70.5926 78.2892C70.6865 78.0964 70.5926 78 70.4049 78H69.1844C69.0905 78 68.9966 78.0964 68.9028 78.1928L66.9313 82.3373C66.8374 82.4337 66.8374 82.5301 66.6496 82.5301H64.6781C64.5842 82.5301 64.4904 82.4337 64.3965 82.3373L62.425 78.1928C62.5189 78.0964 62.425 78 62.3311 78H61.1106C60.9229 78 60.829 78.0964 60.9229 78.2892L63.4577 83.7831C63.5515 83.8795 63.5515 83.9759 63.7393 83.9759H64.6781C64.8659 83.9759 64.8659 84.0723 64.8659 84.1687V85.8072C64.8659 85.9036 64.9598 86 65.1475 86ZM50.596 82.241V79.7349C50.596 79.5422 50.6899 79.5422 50.7837 79.5422H55.0084C55.1023 79.5422 55.1961 79.5422 55.29 79.6386C55.6655 80.0241 55.8533 80.506 55.8533 80.988C55.8533 81.4699 55.6655 81.9518 55.29 82.3373C55.1961 82.4337 55.1961 82.4337 55.0084 82.4337H50.7837C50.6899 82.4337 50.596 82.3373 50.596 82.241ZM49.1878 86H50.3143C50.5021 86 50.5021 85.9036 50.5021 85.8072V84.1687C50.5021 83.9759 50.596 83.9759 50.6899 83.9759H55.7594C55.8533 83.9759 55.9472 83.9759 56.0411 83.8795C56.886 83.2048 57.4493 82.1446 57.4493 80.988C57.4493 79.8313 56.886 78.7711 56.135 78.0964C56.0411 78 55.9472 78 55.8533 78H49.1878C49.0939 78 49 78.0964 49 78.1928V85.7108C49 85.9036 49.0939 86 49.1878 86ZM87.1157 86H88.3361C88.43 86 88.5239 85.9036 88.5239 85.8072L89.6505 79.7349C89.6505 79.6386 89.7443 79.5422 89.8382 79.5422H90.026C90.1199 79.5422 90.2137 79.6386 90.3076 79.7349L91.8097 85.9036C91.8097 86 91.9036 86.0964 92.0914 86.0964H94.4384C94.5323 86.0964 94.6262 86 94.72 85.9036L96.2221 79.7349C96.2221 79.6386 96.316 79.5422 96.5038 79.5422H96.6915C96.7854 79.5422 96.8793 79.6386 96.8793 79.7349L98.0059 85.8072C98.0059 85.9036 98.0997 86 98.1936 86H99.4141C99.6018 86 99.6018 85.9036 99.6018 85.7108L98.0997 78.1928C98.0997 78.0964 98.0059 78 97.8181 78H95.0956C95.0017 78 94.9078 78.0964 94.8139 78.1928L93.2179 84.4578C93.1241 84.6506 93.0302 84.6506 92.9363 84.4578L91.3403 78.1928C91.3403 78.0964 91.2464 78 91.0587 78H88.3361C88.5239 78 88.43 78.0964 88.43 78.1928L86.9279 85.7108C86.9279 85.9036 87.0218 86 87.1157 86Z" fill="#E3D8F8"/>
</g>
<g clip-path="url(#clip1)">
<path d="M574.331 295.999H463.105C441.629 295.999 424 278.702 424 256.921V131.359C424 129.757 425.282 128.156 427.205 128.156H596.447C598.05 128.156 599.653 129.437 599.653 131.359V234.179H613.115C614.718 234.179 616.321 235.46 616.321 237.382V254.359C616 277.421 597.088 295.999 574.331 295.999ZM484.26 289.913H574.331C593.883 289.913 609.91 273.898 609.91 254.359V240.265H502.21V256.921C502.21 270.695 495.159 282.866 484.26 289.913ZM430.09 134.241V256.921C430.09 275.179 444.835 289.913 463.105 289.913C481.376 289.913 496.12 275.179 496.12 256.921V237.062C496.12 235.46 497.402 233.859 499.326 233.859H593.242V134.241H430.09Z" fill="#6D43BD"/>
<path d="M477.85 177.164H448.04C446.437 177.164 444.835 175.882 444.835 173.96V157.625C444.835 156.023 446.117 154.421 448.04 154.421H477.85C479.452 154.421 481.055 155.703 481.055 157.625V173.96C481.055 175.882 479.452 177.164 477.85 177.164ZM451.245 171.078H474.644V161.148H451.245V171.078Z" fill="#6D43BD"/>
<path d="M527.852 177.164H498.043C496.44 177.164 494.837 175.882 494.837 173.96V157.625C494.837 156.023 496.119 154.421 498.043 154.421H527.852C529.455 154.421 531.058 155.703 531.058 157.625V173.96C531.058 175.882 529.775 177.164 527.852 177.164ZM501.248 171.078H524.647V161.148H501.248V171.078Z" fill="#6D43BD"/>
<path d="M578.178 177.164H548.369C546.766 177.164 545.163 175.882 545.163 173.96V157.625C545.163 156.023 546.446 154.421 548.369 154.421H578.178C579.781 154.421 581.384 155.703 581.384 157.625V173.96C581.384 175.882 579.781 177.164 578.178 177.164ZM551.574 171.078H574.973V161.148H551.574V171.078Z" fill="#6D43BD"/>
<path d="M477.85 211.437H448.04C446.437 211.437 444.835 210.156 444.835 208.234V191.898C444.835 190.297 446.117 188.695 448.04 188.695H477.85C479.452 188.695 481.055 189.977 481.055 191.898V208.234C481.055 210.156 479.452 211.437 477.85 211.437ZM451.245 205.352H474.644V195.422H451.245V205.352Z" fill="#6D43BD"/>
<path d="M527.852 211.437H498.043C496.44 211.437 494.837 210.156 494.837 208.234V191.898C494.837 190.297 496.119 188.695 498.043 188.695H527.852C529.455 188.695 531.058 189.977 531.058 191.898V208.234C531.058 210.156 529.775 211.437 527.852 211.437ZM501.248 205.352H524.647V195.422H501.248V205.352Z" fill="#6D43BD"/>
<path d="M578.178 211.437H548.369C546.766 211.437 545.163 210.156 545.163 208.234V191.898C545.163 190.297 546.446 188.695 548.369 188.695H578.178C579.781 188.695 581.384 189.977 581.384 191.898V208.234C581.384 210.156 579.781 211.437 578.178 211.437ZM551.574 205.352H574.973V195.422H551.574V205.352Z" fill="#6D43BD"/>
<path d="M477.85 245.711H448.04C446.437 245.711 444.835 244.43 444.835 242.508V226.172C444.835 224.571 446.117 222.969 448.04 222.969H477.85C479.452 222.969 481.055 224.25 481.055 226.172V242.508C481.055 244.43 479.452 245.711 477.85 245.711ZM451.245 239.625H474.644V229.696H451.245V239.625Z" fill="#6D43BD"/>
<path d="M510.545 255.961H499.006C497.403 255.961 495.801 254.68 495.801 252.758C495.801 251.156 497.083 249.555 499.006 249.555H510.545C512.148 249.555 513.751 250.836 513.751 252.758C513.751 254.68 512.148 255.961 510.545 255.961Z" fill="#6D43BD"/>
<path d="M545.163 255.961H527.854C526.251 255.961 524.649 254.68 524.649 252.758C524.649 251.156 525.931 249.555 527.854 249.555H545.163C546.766 249.555 548.368 250.836 548.368 252.758C548.368 254.68 546.766 255.961 545.163 255.961Z" fill="#6D43BD"/>
<path d="M573.689 255.961H562.149C560.547 255.961 558.944 254.68 558.944 252.758C558.944 251.156 560.226 249.555 562.149 249.555H573.689C575.291 249.555 576.894 250.836 576.894 252.758C576.894 254.68 575.612 255.961 573.689 255.961Z" fill="#6D43BD"/>
<path d="M596.127 134.241H427.205C425.603 134.241 424 132.96 424 131.038V107.335C424 105.734 425.282 104.132 427.205 104.132H596.447C598.05 104.132 599.653 105.413 599.653 107.335V131.038C599.332 132.96 598.05 134.241 596.127 134.241ZM430.09 128.156H592.922V110.538H430.09V128.156Z" fill="#6D43BD"/>
<path d="M444.515 115.344C442.912 115.344 441.31 114.062 441.31 112.141V94.2031C441.31 92.6016 442.592 91 444.515 91C446.118 91 447.72 92.2812 447.72 94.2031V112.461C447.72 114.062 446.438 115.344 444.515 115.344Z" fill="#6D43BD"/>
<path d="M458.295 115.344C456.693 115.344 455.09 114.062 455.09 112.141V94.2031C455.09 92.6016 456.372 91 458.295 91C459.898 91 461.501 92.2812 461.501 94.2031V112.461C461.501 114.062 460.219 115.344 458.295 115.344Z" fill="#6D43BD"/>
<path d="M472.4 115.344C470.797 115.344 469.194 114.062 469.194 112.141V94.2031C469.194 92.6016 470.477 91 472.4 91C474.003 91 475.605 92.2812 475.605 94.2031V112.461C475.285 114.062 474.003 115.344 472.4 115.344Z" fill="#6D43BD"/>
<path d="M578.82 115.344C577.217 115.344 575.614 114.062 575.614 112.141V94.2031C575.614 92.6016 576.896 91 578.82 91C580.422 91 582.025 92.2812 582.025 94.2031V112.461C582.025 114.062 580.422 115.344 578.82 115.344Z" fill="#6D43BD"/>
<path d="M565.035 115.344C563.432 115.344 561.83 114.062 561.83 112.141V94.2031C561.83 92.6016 563.112 91 565.035 91C566.638 91 568.24 92.2812 568.24 94.2031V112.461C567.92 114.062 566.638 115.344 565.035 115.344Z" fill="#6D43BD"/>
<path d="M550.931 115.344C549.328 115.344 547.725 114.062 547.725 112.141V94.2031C547.725 92.6016 549.008 91 550.931 91C552.533 91 554.136 92.2812 554.136 94.2031V112.461C554.136 114.062 552.854 115.344 550.931 115.344Z" fill="#6D43BD"/>
</g>
<path d="M746.701 141.7L725.913 134.321C725.913 134.321 730.29 173.128 736.307 177.637L738.495 178.593C741.231 179.823 742.325 181.463 741.641 182.419L741.504 182.556C741.504 182.556 737.128 181.6 733.572 180.916L733.845 183.239L719.895 183.649L721.947 172.854C721.947 172.854 701.706 119.7 708.27 116.011C714.972 112.458 742.462 119.837 742.462 119.837L746.701 141.7Z" fill="#EFAC80"/>
<path d="M614.603 260.579C614.603 260.579 613.919 263.722 614.603 267.821C615.287 271.921 633.614 367.981 633.614 367.981L623.903 369.348C623.903 369.348 592.447 280.119 590.669 274.107C588.892 268.095 586.977 259.759 592.994 253.201C598.875 246.642 614.603 260.579 614.603 260.579Z" fill="#EFAC80"/>
<path d="M609.543 370.714L621.031 356.776L632.519 361.559L629.647 365.522L617.065 371.807C617.065 371.807 611.731 372.9 611.457 372.764C611.184 372.764 609.543 370.714 609.543 370.714Z" fill="#EFAC80"/>
<path d="M609.543 370.714L607.081 373.857C605.85 375.223 607.355 377.41 609.133 376.726L633.34 368.664C634.161 368.391 634.708 367.434 634.434 366.615L632.793 361.559C618.159 372.08 612.005 372.354 609.543 370.714Z" fill="url(#paint0_linear)"/>
<path d="M649.478 47.6884C649.478 47.6884 655.496 43.7258 662.334 47.6884C669.172 51.6511 669.172 64.9055 666.437 68.185C663.701 71.3278 666.574 75.7004 661.103 79.7997C655.632 83.899 647.016 85.5387 642.229 80.6196C637.306 75.7004 640.862 64.9055 640.862 64.9055L649.478 47.6884Z" fill="#282929"/>
<path d="M642.777 93.0539L627.186 93.3272C627.459 89.9111 627.733 85.2652 627.186 83.6255C626.228 80.8926 643.597 80.4827 643.597 80.4827C643.597 80.4827 642.64 87.7248 642.777 93.0539Z" fill="#EFAC80"/>
<path d="M625.818 371.397L639.084 363.062L650.572 369.894L646.606 372.764L632.656 374.814C632.656 374.814 627.185 374.13 626.912 373.994C626.775 373.857 625.818 371.397 625.818 371.397Z" fill="#EFAC80"/>
<path d="M657.821 251.424C657.821 251.424 655.906 297.2 655.769 305.125C655.633 313.05 651.53 371.671 649.752 376.863L639.905 376.18C639.905 376.18 633.203 262.492 635.255 251.424C637.443 240.356 657.821 251.424 657.821 251.424Z" fill="#EFAC80"/>
<path d="M678.883 213.984C682.302 213.301 683.122 215.487 686.541 214.804L685.721 219.996C686.131 221.089 687.225 223.822 687.225 223.822C691.055 234.89 690.781 233.661 690.508 233.934C690.097 234.207 687.225 230.108 686.952 230.381C686.678 230.791 688.593 237.35 688.046 237.213C687.499 237.077 684.9 231.201 684.627 231.338C684.353 231.611 686.268 237.896 685.447 238.17C684.627 238.443 682.575 231.338 682.028 231.884C681.481 232.294 683.533 239.4 682.712 239.536C682.028 239.536 679.43 231.748 678.609 229.151C678.472 228.878 678.062 228.741 677.925 229.015C674.643 233.114 674.096 233.251 673.822 232.841C673.549 232.567 675.19 228.058 676.558 223.822L678.335 218.63L678.883 213.984Z" fill="#EFAC80"/>
<path d="M625.817 371.397L622.398 373.584C620.894 374.54 621.578 377 623.356 377H648.931C649.888 377 650.572 376.316 650.572 375.36V370.031C633.613 375.36 627.732 373.72 625.817 371.397Z" fill="url(#paint1_linear)"/>
<path d="M615.287 93.054C615.287 93.054 580.685 103.302 564.958 135.004C563.453 138.146 563.863 141.699 566.052 144.432C570.838 150.308 581.506 160.419 601.474 167.525C601.474 167.525 605.166 166.295 605.713 161.376C605.713 161.376 586.703 144.022 581.78 140.059L608.449 119.153L615.287 93.054Z" fill="url(#paint2_linear)"/>
<path d="M610.637 167.525L605.576 162.059L601.473 167.525C601.473 167.525 602.02 182.692 601.473 187.065C601.473 187.065 602.841 187.885 603.251 187.065C603.662 186.245 610.637 167.525 610.637 167.525Z" fill="#EFAC80"/>
<path d="M651.256 251.424L643.05 281.622C624.177 281.622 596.003 279.846 582.053 270.554C582.053 270.554 600.38 185.698 612.415 164.382L654.128 162.059C654.128 162.059 682.985 202.232 661.924 281.076C661.924 281.076 658.368 281.349 652.487 281.486L651.256 251.424Z" fill="url(#paint3_linear)"/>
<path d="M643.323 92.6441C643.323 92.6441 660.419 90.7311 665.753 97.4266C671.223 104.122 689.413 150.308 690.507 172.307C691.601 194.307 686.131 220.406 686.131 220.406C686.131 220.406 680.113 220.816 677.378 220.406C674.642 219.996 678.062 177.773 675.053 170.941C672.181 164.109 659.051 131.178 658.231 128.171L654.948 145.389C654.401 148.531 654.675 151.811 655.769 154.817C658.504 162.196 663.838 176.543 666.026 181.736C666.026 181.736 624.997 188.295 604.892 178.32L611.457 150.718C611.457 150.718 597.917 92.5074 617.201 93.054L643.323 92.6441Z" fill="url(#paint4_linear)"/>
<path d="M615.697 63.6756C616.518 65.9985 615.697 68.4581 613.919 69.1413C612.005 69.8245 609.816 68.4581 608.996 66.1351C608.175 63.8122 608.996 61.3526 610.774 60.6694C612.552 59.9862 614.877 61.3526 615.697 63.6756Z" fill="#D29369"/>
<path d="M643.597 80.6196C643.597 80.6196 643.187 83.4892 642.914 87.0419C639.768 89.6381 635.665 90.8679 631.425 90.3213C630.058 90.1847 628.69 89.7748 627.459 89.2282C627.596 86.9052 627.459 84.8556 627.186 83.8991C626.228 81.0296 643.597 80.6196 643.597 80.6196Z" fill="#D29369"/>
<path d="M615.834 77.2034C615.287 76.2469 614.877 75.1538 614.466 74.0606C613.509 71.0545 612.962 67.9117 612.825 65.1788C612.825 64.6322 612.688 63.949 612.688 63.4024C612.415 61.0795 612.415 58.4833 613.099 56.0237C615.15 47.825 622.536 41.8127 631.015 41.5394C642.366 41.1295 651.53 50.4213 651.119 61.4894C652.35 60.8062 653.718 60.8062 654.949 61.3528C657.137 62.4459 657.958 65.5887 656.59 68.4582C655.222 71.3278 652.213 72.6942 650.025 71.6011C649.752 71.4644 649.478 71.1911 649.205 71.0545C647.974 80.4829 639.905 87.4517 630.605 87.0418C626.091 86.7685 621.988 84.8555 618.98 81.7127C618.843 81.576 618.569 81.3028 618.296 81.0295C617.338 79.663 616.518 78.5699 615.834 77.2034Z" fill="#EFAC80"/>
<path d="M646.469 92.3708L651.256 99.3397L645.238 101.389L648.247 107.948L630.741 114.78L633.203 100.296L646.469 92.3708Z" fill="url(#paint5_linear)"/>
<path d="M622.672 92.9175L615.287 98.6565L619.527 101.526L615.971 106.718L630.742 114.78C630.742 114.78 629.921 110.954 629.921 110.545C629.921 109.998 631.836 107.948 631.836 107.538C631.699 107.128 622.672 92.9175 622.672 92.9175Z" fill="url(#paint6_linear)"/>
<path d="M646.469 92.3708C646.469 92.3708 633.476 108.905 630.604 114.78C630.604 114.78 622.945 104.805 622.672 92.7808L646.469 92.3708Z" fill="#EFAC80"/>
<path d="M630.741 114.781C630.331 120.52 630.194 126.259 630.057 131.998C629.921 134.867 629.921 137.737 629.921 140.606C629.921 143.476 629.921 146.345 629.921 149.215C629.921 150.581 629.921 152.084 629.921 153.451C629.921 154.817 629.921 156.32 630.057 157.687C630.194 160.556 630.194 163.426 630.468 166.295C630.741 172.034 631.152 177.773 631.972 183.376L631.835 181.189L631.699 179.003C631.562 177.637 631.562 176.134 631.425 174.767V173.674V172.581L631.288 170.395L631.152 168.208V166.022C631.015 160.283 630.878 154.544 630.878 148.805C630.878 143.066 630.741 137.327 630.741 131.588V114.781Z" fill="url(#paint7_linear)"/>
<path d="M658.368 127.898C658.095 126.942 657.958 126.122 657.684 125.165C657.547 124.209 657.411 123.389 657.274 122.433C657 120.52 657 118.743 656.864 116.83V115.464V114.097C656.864 113.141 656.864 112.184 656.864 111.364C656.864 110.955 656.864 110.408 656.864 109.998L657 108.632C657 107.675 657.137 106.719 657.137 105.899C657 106.855 656.864 107.812 656.727 108.632C656.59 109.588 656.453 110.545 656.453 111.364L656.317 112.731C656.317 113.141 656.317 113.687 656.317 114.097V115.464V116.83C656.317 118.743 656.453 120.52 656.864 122.433C657 122.843 657 123.389 657.137 123.799C657.274 124.209 657.274 124.756 657.411 125.165C657.684 126.122 657.958 127.078 658.368 127.898Z" fill="url(#paint8_linear)"/>
<path d="M613.783 45.912C617.338 33.614 633.613 33.2041 633.613 33.2041C658.778 34.9805 654.812 57.1168 653.991 60.6695C653.308 60.5328 652.213 60.5328 650.983 61.2161C650.436 61.4893 650.025 61.7626 649.752 62.0359C646.743 61.0794 645.922 56.1602 644.281 53.8373C642.23 50.5579 633.066 52.3342 629.511 50.0113C625.955 47.6883 625.681 44.1356 625.681 44.1356C612.278 46.3219 612.415 60.5328 612.415 60.5328C611.868 60.3962 611.047 60.5328 611.047 60.5328C611.047 60.5328 610.637 56.9801 613.783 45.912Z" fill="#282929"/>
<path d="M789.372 355.41L789.098 363.746L778.978 371.124C778.978 371.124 774.191 364.702 774.328 363.746C774.465 362.789 774.328 348.441 774.328 348.441C774.328 348.441 785.953 352.814 786.363 352.814C786.91 352.814 789.372 355.41 789.372 355.41Z" fill="#F7BEBC"/>
<path d="M739.863 363.609V353.361L728.101 350.081L725.503 351.311L725.092 363.609L728.785 374.404L739.863 363.609Z" fill="#F7BEBC"/>
<path d="M756.549 206.059L771.456 356.777C777.337 356.504 783.355 356.094 789.509 355.41C790.193 326.442 792.244 240.083 791.834 205.376C791.424 163.426 778.841 157.277 778.841 157.277L757.369 151.675L728.102 156.867C737.265 192.258 756.549 206.059 756.549 206.059Z" fill="#282929"/>
<path d="M722.904 355C727.281 355.547 733.435 356.093 740.684 356.503L756.275 182.283L757.916 154.544C757.916 154.544 733.982 143.066 726.05 156.73C718.118 170.395 718.391 190.754 718.391 190.754C718.391 190.754 719.349 319.063 722.904 355Z" fill="#282929"/>
<path d="M739.863 363.609V374.95C739.863 375.907 739.042 376.59 738.222 376.59H711.553C709.638 376.59 708.817 374.13 710.459 373.037L725.092 363.472C725.092 363.609 731.247 367.981 739.863 363.609Z" fill="#282929"/>
<path d="M789.098 363.609V374.95C789.098 375.907 788.278 376.59 787.457 376.59H760.788C758.873 376.59 758.053 374.13 759.694 373.037L774.328 363.472C774.328 363.609 780.619 367.981 789.098 363.609Z" fill="#282929"/>
<path d="M824.521 116.147C824.521 116.147 833.958 129.538 832.863 132.408C831.769 135.277 784.859 173.401 784.859 173.401C784.859 173.401 783.628 183.649 778.158 186.382L771.319 174.221L810.16 131.178L807.152 126.805L824.521 116.147Z" fill="#F7BEBC"/>
<path d="M727.965 68.3218C727.965 68.3218 723.725 69.5516 717.434 79.1166C711.143 88.6817 705.672 115.191 705.672 115.191L725.503 128.718L738.496 96.7437L727.965 68.3218Z" fill="#34B5A8"/>
<path d="M760.925 53.4276L762.976 69.5516L746.975 69.005L747.522 50.5581L760.925 53.4276Z" fill="#F7BEBC"/>
<path opacity="0.6" d="M747.249 59.03L747.522 50.5581L761.199 54.9307L761.609 58.0735C758.464 59.3033 752.719 60.6697 747.249 59.03Z" fill="#F18C86"/>
<path d="M734.666 23.366L734.94 34.4341L736.854 35.3906L738.495 21.5896L734.666 23.366Z" fill="#ED6D19"/>
<path d="M738.085 32.9311C738.906 35.3906 737.948 37.8502 735.897 38.5335C733.982 39.2167 731.657 37.7136 730.973 35.254C730.153 32.7944 731.11 30.3348 733.162 29.6516C735.213 29.105 737.401 30.4715 738.085 32.9311Z" fill="#F39794"/>
<path d="M737.675 46.8688C737.128 45.7756 736.717 44.6825 736.444 43.4527C735.486 40.3099 735.213 37.0304 735.213 34.1609C735.213 33.6143 735.213 32.9311 735.076 32.3846C734.803 29.925 735.076 27.3287 735.897 24.7325C738.359 16.3972 746.291 10.6582 754.907 10.6582C766.669 10.6582 775.559 20.6332 774.601 31.9746C775.832 31.428 777.337 31.2914 778.431 31.9746C780.756 33.2044 781.303 36.4839 779.798 39.3534C778.294 42.2229 775.148 43.4527 772.96 42.2229C772.687 42.0863 772.413 41.813 772.139 41.5397C770.361 51.1047 761.882 57.9369 752.309 57.1171C747.659 56.7071 743.556 54.5208 740.684 51.1047C740.547 50.9681 740.273 50.6948 740 50.4215C739.179 49.465 738.359 48.2352 737.675 46.8688Z" fill="#F7BEBC"/>
<path d="M756.822 32.3845C756.685 33.341 757.369 34.1609 758.326 34.2975C759.284 34.4342 760.104 33.7509 760.241 32.7944C760.378 31.8379 759.694 31.0181 758.737 30.8814C757.779 30.7448 756.822 31.428 756.822 32.3845Z" fill="#343434"/>
<path d="M741.915 31.9746C741.778 32.9311 742.462 33.751 743.419 33.8876C744.376 34.0242 745.197 33.341 745.334 32.3845C745.47 31.428 744.787 30.6082 743.829 30.4715C742.872 30.3349 741.915 31.0181 741.915 31.9746Z" fill="#343434"/>
<path d="M755.044 28.8319C755.865 28.5586 756.822 28.422 757.643 28.2854C758.463 28.1487 759.284 28.1487 760.104 28.2854C760.925 28.422 761.609 28.5586 762.429 28.9686L762.703 29.1052C762.84 29.1052 762.84 29.2419 762.976 29.2419L763.524 29.5151C763.934 29.7884 764.207 29.9251 764.618 30.1984C764.344 29.7884 764.207 29.3785 763.797 29.1052C763.524 28.8319 763.113 28.422 762.703 28.1487C762.019 27.6021 761.062 27.1922 760.104 27.0556C759.147 26.9189 758.19 27.0556 757.232 27.3288C756.412 27.6021 755.591 28.1487 755.044 28.8319Z" fill="#ED6D19"/>
<path d="M748.069 28.5585C747.522 27.7387 746.702 27.1921 745.881 26.7822C745.06 26.3722 744.103 26.2356 743.146 26.2356C742.188 26.2356 741.231 26.5089 740.41 27.0555C740 27.3287 739.59 27.602 739.316 27.8753C739.043 28.1486 738.769 28.5585 738.496 28.9685C738.906 28.8318 739.316 28.5585 739.727 28.4219L740.274 28.1486C740.41 28.1486 740.41 28.012 740.547 28.012L740.821 27.8753C741.641 27.602 742.462 27.4654 743.146 27.3287C743.966 27.3287 744.787 27.3287 745.608 27.602C746.428 27.8753 747.249 28.1486 748.069 28.5585Z" fill="#ED6D19"/>
<path d="M733.846 10.1116C733.846 10.1116 727.965 9.70171 734.666 5.32911C741.368 0.956508 758.737 -3.1428 768.721 3.55274C768.721 3.55274 771.319 -0.81986 774.328 0.68322C777.337 2.04966 771.866 4.64589 771.866 4.64589C771.866 4.64589 775.832 4.91918 776.79 6.96883C777.474 8.47191 775.149 8.33527 773.781 8.06198C775.969 8.60856 782.807 13.801 776.79 30.6082C775.285 30.0616 764.481 18.1736 764.481 18.1736C764.481 18.1736 746.701 26.3722 749.437 21.0431C749.437 21.0431 728.512 28.9685 732.615 18.5835C732.752 18.5835 724.682 18.4469 733.846 10.1116Z" fill="#ED6D19"/>
<path d="M706.493 112.594L726.187 125.576C726.871 125.986 727.144 126.805 726.734 127.625L723.862 133.911C723.452 134.867 722.221 135.141 721.4 134.594L701.433 121.476C700.749 121.066 700.475 120.11 700.886 119.427L704.031 113.278C704.441 112.321 705.536 112.048 706.493 112.594Z" fill="#0DAB96"/>
<path d="M780.209 65.7256C776.242 63.4026 771.866 61.8995 767.216 61.2163C764.481 63.5393 755.865 63.5393 751.215 63.6759C744.103 63.9492 743.282 64.2225 740.41 62.9927C733.982 65.4523 722.767 69.5516 722.631 73.3776C719.485 157.687 726.05 157.004 726.05 157.004C734.94 160.966 772.55 158.78 778.567 157.004C784.585 155.227 789.098 114.781 789.098 114.781L807.288 131.998C813.579 125.985 826.162 118.06 826.162 118.06C826.162 118.06 798.945 76.7937 780.209 65.7256Z" fill="#46B9B5"/>
<path d="M769.268 81.303C770.088 82.6694 770.772 84.1725 771.593 85.5389L773.918 89.7749C774.738 91.1413 775.559 92.6444 776.243 94.0108C777.063 95.3773 777.884 96.8804 778.705 98.2468C779.525 99.6132 780.346 100.98 781.166 102.483C781.577 103.166 781.987 103.849 782.397 104.532L783.765 106.582L784.996 108.632C785.269 109.042 785.406 109.315 785.68 109.725L786.363 110.681L787.047 111.638L787.321 112.184L787.594 112.731C788.005 113.414 788.552 114.097 788.962 114.781C786.91 112.321 784.996 109.588 783.218 106.855C781.44 104.122 779.799 101.39 778.158 98.5201C776.516 95.6506 775.012 92.9177 773.508 90.0482C772.14 87.1787 770.635 84.3091 769.268 81.303Z" fill="white"/>
<path d="M739.316 63.4027L747.249 59.9866L750.941 63.4027L761.609 58.7568L767.216 61.2164L756.822 69.415L750.941 64.0859L746.975 69.0051L739.316 63.4027Z" fill="#34B5A8"/>
<path opacity="0.5" d="M782.26 189.388C780.209 190.208 778.294 191.028 776.379 191.848C774.465 192.667 772.55 193.624 770.635 194.58C768.72 195.537 766.806 196.493 764.891 197.587C762.976 198.543 761.062 199.636 759.284 200.729L759.147 200.319C760.515 200.046 762.019 199.773 763.387 199.636C764.754 199.5 766.259 199.363 767.626 199.363C768.994 199.363 770.498 199.5 771.866 199.636L772.96 199.773L774.054 199.91L774.601 200.046L775.148 200.183L776.242 200.456L775.148 200.183L774.601 200.046L774.054 199.91L772.96 199.773L771.866 199.636C771.456 199.636 771.182 199.636 770.772 199.5C770.362 199.5 770.088 199.5 769.678 199.5H768.584C768.173 199.5 767.9 199.5 767.49 199.5C766.122 199.5 764.617 199.636 763.25 199.773C761.882 199.91 760.515 200.183 759.147 200.456L757.916 200.729L759.01 200.046C760.925 198.953 762.703 197.86 764.617 196.903C766.532 195.947 768.447 194.99 770.362 194.034C772.276 193.077 774.328 192.257 776.242 191.438C777.2 191.028 778.294 190.618 779.251 190.208C780.209 189.935 781.303 189.661 782.26 189.388Z" fill="#DAEEF7"/>
<path opacity="0.5" d="M726.05 188.432C727.008 188.705 728.102 189.115 729.059 189.525C730.016 189.935 731.111 190.345 732.068 190.755C733.983 191.575 736.034 192.531 737.949 193.351C739.864 194.308 741.778 195.264 743.693 196.221C745.608 197.177 747.522 198.27 749.3 199.363L750.394 200.047L749.164 199.773C747.796 199.5 746.428 199.227 745.061 199.09C743.693 198.953 742.189 198.817 740.821 198.817C740.411 198.817 740.137 198.817 739.727 198.817H738.633C738.222 198.817 737.949 198.817 737.539 198.817C737.128 198.817 736.855 198.817 736.444 198.953L735.35 199.09L734.256 199.227L733.709 199.363L733.162 199.5L732.068 199.773L733.162 199.5L733.709 199.363L734.256 199.227L735.35 199.09L736.444 198.953C737.812 198.817 739.316 198.68 740.684 198.68C742.052 198.68 743.556 198.68 744.924 198.953C746.291 199.09 747.796 199.363 749.164 199.637L749.027 200.047C747.112 198.953 745.334 197.997 743.419 196.904C741.505 195.947 739.59 194.854 737.675 193.898C735.761 192.941 733.846 191.985 731.931 191.165C730.016 190.072 727.965 189.252 726.05 188.432Z" fill="#DAEEF7"/>
<path opacity="0.5" d="M730.29 164.246C732.068 164.519 733.846 164.792 735.487 165.066C737.265 165.339 739.043 165.476 740.821 165.612C744.377 166.022 747.933 166.159 751.352 166.296C753.13 166.296 754.908 166.296 756.685 166.296C758.463 166.296 760.241 166.159 762.019 166.022C763.797 165.886 765.575 165.612 767.216 165.339C768.994 165.066 770.635 164.656 772.413 164.246C770.772 164.792 768.994 165.202 767.216 165.476C765.438 165.749 763.66 166.022 762.019 166.159C760.241 166.296 758.463 166.432 756.685 166.432C754.908 166.432 753.13 166.432 751.352 166.432C747.796 166.296 744.24 166.159 740.821 165.749C739.043 165.612 737.265 165.339 735.624 165.066C733.846 164.929 732.068 164.656 730.29 164.246Z" fill="#DAEEF7"/>
<path d="M764.618 18.1735C764.618 18.1735 769.815 29.9249 768.994 36.3471C768.994 36.3471 772.687 31.1547 777.474 31.7013C777.474 31.7013 780.619 21.1797 778.841 14.0742L767.763 14.7574L764.618 18.1735Z" fill="#ED6D19"/>
<g opacity="0.5">
<path opacity="0.5" d="M769.268 169.712C769.405 169.985 769.405 170.122 769.541 170.258L769.815 170.805L770.499 172.035L771.593 173.948L774.465 179.14C774.875 179.96 778.705 186.792 779.662 188.432C778.568 187.065 777.2 185.699 776.243 184.059C775.833 183.239 775.285 182.556 774.875 181.736C774.465 180.916 774.055 180.097 773.644 179.413C772.824 177.774 772.003 176.134 771.319 174.494C770.909 173.674 770.635 172.854 770.225 172.035C770.088 171.625 769.952 171.215 769.678 170.805C769.541 170.532 769.405 170.122 769.268 169.712Z" fill="#DAEEF7"/>
</g>
<path d="M764.481 63.2661C763.523 63.9494 762.703 64.6326 761.882 65.3158L759.284 67.3654L756.822 69.2785C755.865 68.322 755.044 67.3654 754.087 66.5456C753.129 65.5891 752.172 64.6326 751.215 63.5394L750.941 63.2661L750.668 63.5394C749.984 64.3593 749.437 65.3158 748.753 66.1357C748.206 66.9555 747.522 67.7754 746.975 68.4586C745.744 67.6387 744.513 66.6822 743.282 65.8624L741.368 64.4959C740.684 64.086 740 63.6761 739.453 63.1295C740.137 63.6761 740.684 64.086 741.368 64.6326L743.282 66.1357C744.513 67.0922 745.744 68.0487 747.112 69.0052L747.248 69.1418L747.385 69.0052C748.069 68.1853 748.753 67.3654 749.3 66.4089C749.847 65.7257 750.531 64.9059 751.078 64.086C752.035 65.0425 752.856 65.8624 753.813 66.8189C754.77 67.7754 755.728 68.7319 756.822 69.825L756.959 69.9617L757.232 69.825L759.831 67.6387L762.429 65.4524C763.25 64.7692 764.07 63.9494 765.028 63.2661C765.848 62.5829 766.669 61.7631 767.49 61.0798C766.259 61.8997 765.438 62.5829 764.481 63.2661Z" fill="white"/>
<path d="M750.668 63.6758C750.394 67.6384 749.984 71.6011 749.847 75.5638C749.574 79.5265 749.3 83.4891 749.163 87.4518C749.027 89.5014 749.027 91.4145 748.89 93.4641L748.753 96.4703L748.616 99.4764C748.48 103.439 748.343 107.402 748.343 111.364C748.206 119.29 748.206 127.352 748.48 135.277C748.616 139.24 748.753 143.202 749.027 147.165L749.163 150.171C749.163 150.718 749.164 151.128 749.3 151.674L749.437 153.177C749.574 155.227 749.847 157.14 749.984 159.19C749.574 155.227 749.027 151.264 748.753 147.302C748.343 143.339 748.206 139.376 748.069 135.414C748.069 133.364 747.933 131.451 747.933 129.401C747.933 128.445 747.933 127.352 747.933 126.395V123.389V120.383V118.88V117.377V111.364C748.069 107.402 748.069 103.439 748.343 99.4764L748.48 96.4703L748.616 93.4641C748.753 91.4145 748.753 89.5014 748.89 87.4518C749.164 83.4891 749.437 79.5265 749.711 75.5638L749.984 72.5576L750.258 69.5515C750.258 67.6385 750.394 65.5888 750.668 63.6758Z" fill="white"/>
<path d="M754.771 90.8682H768.447L767.9 101.253C767.764 103.303 766.806 105.079 765.028 106.172L764.481 106.582C762.293 108.085 759.284 107.949 757.233 106.309C755.728 105.079 754.771 103.303 754.771 101.253V90.8682Z" fill="#34B5A8"/>
<path d="M800.586 124.892L819.597 110.135C820.554 109.452 821.785 109.588 822.469 110.545L826.982 116.557C827.666 117.377 827.529 118.743 826.572 119.427L807.835 133.638C807.014 134.321 805.783 134.184 805.1 133.364L800.313 127.898C799.492 126.942 799.629 125.576 800.586 124.892Z" fill="#34B5A8"/>
<path d="M789.372 355.41L789.098 363.746L778.978 371.124C778.978 371.124 774.191 364.702 774.328 363.746C774.465 362.789 774.328 348.441 774.328 348.441C774.328 348.441 785.953 352.814 786.363 352.814C786.91 352.814 789.372 355.41 789.372 355.41Z" fill="#EFAC80"/>
<path d="M739.863 363.609V353.361L728.101 350.081L725.503 351.311L725.092 363.609L728.785 374.404L739.863 363.609Z" fill="#EFAC80"/>
<path d="M756.549 206.059L771.456 356.777C777.337 356.504 783.355 356.094 789.509 355.41C790.193 326.442 792.244 240.083 791.834 205.376C791.424 163.426 778.841 157.277 778.841 157.277L757.369 151.675L728.102 156.867C737.265 192.258 756.549 206.059 756.549 206.059Z" fill="url(#paint9_linear)"/>
<path d="M722.904 355C727.281 355.547 733.435 356.093 740.684 356.503L756.275 182.283L757.916 154.544C757.916 154.544 733.982 143.066 726.05 156.73C718.118 170.395 718.391 190.754 718.391 190.754C718.391 190.754 719.349 319.063 722.904 355Z" fill="url(#paint10_linear)"/>
<path d="M739.863 363.609V374.95C739.863 375.907 739.042 376.59 738.222 376.59H711.553C709.638 376.59 708.817 374.13 710.459 373.037L725.092 363.472C725.092 363.609 731.247 367.981 739.863 363.609Z" fill="url(#paint11_linear)"/>
<path d="M789.098 363.609V374.95C789.098 375.907 788.278 376.59 787.457 376.59H760.788C758.873 376.59 758.053 374.13 759.694 373.037L774.328 363.472C774.328 363.609 780.619 367.981 789.098 363.609Z" fill="url(#paint12_linear)"/>
<path d="M824.521 116.147C824.521 116.147 833.958 129.538 832.863 132.408C831.769 135.277 784.859 173.401 784.859 173.401C784.859 173.401 783.628 183.649 778.158 186.382L771.319 174.221L810.16 131.178L807.152 126.805L824.521 116.147Z" fill="#EFAC80"/>
<path d="M727.965 68.3218C727.965 68.3218 723.725 69.5516 717.434 79.1166C711.143 88.6817 705.672 115.191 705.672 115.191L725.503 128.718L738.496 96.7437L727.965 68.3218Z" fill="url(#paint13_linear)"/>
<path d="M760.925 53.4276L762.976 69.5516L746.975 69.005L747.522 50.5581L760.925 53.4276Z" fill="#EFAC80"/>
<path opacity="0.6" d="M747.249 59.03L747.522 50.5581L761.199 54.9307L761.609 58.0735C758.464 59.3033 752.719 60.6697 747.249 59.03Z" fill="#D29369"/>
<path d="M734.666 23.366L734.94 34.4341L736.854 35.3906L738.495 21.5896L734.666 23.366Z" fill="#282929"/>
<path d="M738.085 32.9311C738.906 35.3906 737.948 37.8502 735.897 38.5335C733.982 39.2167 731.657 37.7136 730.973 35.254C730.153 32.7944 731.11 30.3348 733.162 29.6516C735.213 29.105 737.401 30.4715 738.085 32.9311Z" fill="#D29369"/>
<path d="M737.675 46.8688C737.128 45.7756 736.717 44.6825 736.444 43.4527C735.486 40.3099 735.213 37.0304 735.213 34.1609C735.213 33.6143 735.213 32.9311 735.076 32.3846C734.803 29.925 735.076 27.3287 735.897 24.7325C738.359 16.3972 746.291 10.6582 754.907 10.6582C766.669 10.6582 775.559 20.6332 774.601 31.9746C775.832 31.428 777.337 31.2914 778.431 31.9746C780.756 33.2044 781.303 36.4839 779.798 39.3534C778.294 42.2229 775.148 43.4527 772.96 42.2229C772.687 42.0863 772.413 41.813 772.139 41.5397C770.361 51.1047 761.882 57.9369 752.309 57.1171C747.659 56.7071 743.556 54.5208 740.684 51.1047C740.547 50.9681 740.273 50.6948 740 50.4215C739.179 49.465 738.359 48.2352 737.675 46.8688Z" fill="#EFAC80"/>
<path d="M733.846 10.1116C733.846 10.1116 727.965 9.70171 734.666 5.32911C741.368 0.956508 758.737 -3.1428 768.721 3.55274C768.721 3.55274 771.319 -0.81986 774.328 0.68322C777.337 2.04966 771.866 4.64589 771.866 4.64589C771.866 4.64589 775.832 4.91918 776.79 6.96883C777.474 8.47191 775.149 8.33527 773.781 8.06198C775.969 8.60856 782.807 13.801 776.79 30.6082C775.285 30.0616 764.481 18.1736 764.481 18.1736C764.481 18.1736 746.701 26.3722 749.437 21.0431C749.437 21.0431 728.512 28.9685 732.615 18.5835C732.752 18.5835 724.682 18.4469 733.846 10.1116Z" fill="#282929"/>
<path d="M706.493 112.594L726.187 125.576C726.871 125.986 727.144 126.805 726.734 127.625L723.862 133.911C723.452 134.867 722.221 135.141 721.4 134.594L701.433 121.476C700.749 121.066 700.475 120.11 700.886 119.427L704.031 113.278C704.441 112.321 705.536 112.048 706.493 112.594Z" fill="url(#paint14_linear)"/>
<path d="M780.209 65.7256C776.242 63.4026 771.866 61.8995 767.216 61.2163C764.481 63.5393 755.865 63.5393 751.215 63.6759C744.103 63.9492 743.282 64.2225 740.41 62.9927C733.982 65.4523 722.767 69.5516 722.631 73.3776C719.485 157.687 726.05 157.004 726.05 157.004C734.94 160.966 772.55 158.78 778.567 157.004C784.585 155.227 789.098 114.781 789.098 114.781L807.288 131.998C813.579 125.985 826.162 118.06 826.162 118.06C826.162 118.06 798.945 76.7937 780.209 65.7256Z" fill="url(#paint15_linear)"/>
<path d="M769.268 81.303C770.088 82.6694 770.772 84.1725 771.593 85.5389L773.918 89.7749C774.738 91.1413 775.559 92.6444 776.243 94.0108C777.063 95.3773 777.884 96.8804 778.705 98.2468C779.525 99.6132 780.346 100.98 781.166 102.483C781.577 103.166 781.987 103.849 782.397 104.532L783.765 106.582L784.996 108.632C785.269 109.042 785.406 109.315 785.68 109.725L786.363 110.681L787.047 111.638L787.321 112.184L787.594 112.731C788.005 113.414 788.552 114.097 788.962 114.781C786.91 112.321 784.996 109.588 783.218 106.855C781.44 104.122 779.799 101.39 778.158 98.5201C776.516 95.6506 775.012 92.9177 773.508 90.0482C772.14 87.1787 770.635 84.3091 769.268 81.303Z" fill="url(#paint16_linear)"/>
<path d="M739.316 63.4027L747.249 59.9866L750.941 63.4027L761.609 58.7568L767.216 61.2164L756.822 69.415L750.941 64.0859L746.975 69.0051L739.316 63.4027Z" fill="url(#paint17_linear)"/>
<path opacity="0.5" d="M782.26 189.388C780.209 190.208 778.294 191.028 776.379 191.848C774.465 192.667 772.55 193.624 770.635 194.58C768.72 195.537 766.806 196.493 764.891 197.587C762.976 198.543 761.062 199.636 759.284 200.729L759.147 200.319C760.515 200.046 762.019 199.773 763.387 199.636C764.754 199.5 766.259 199.363 767.626 199.363C768.994 199.363 770.498 199.5 771.866 199.636L772.96 199.773L774.054 199.91L774.601 200.046L775.148 200.183L776.242 200.456L775.148 200.183L774.601 200.046L774.054 199.91L772.96 199.773L771.866 199.636C771.456 199.636 771.182 199.636 770.772 199.5C770.362 199.5 770.088 199.5 769.678 199.5H768.584C768.173 199.5 767.9 199.5 767.49 199.5C766.122 199.5 764.617 199.636 763.25 199.773C761.882 199.91 760.515 200.183 759.147 200.456L757.916 200.729L759.01 200.046C760.925 198.953 762.703 197.86 764.617 196.903C766.532 195.947 768.447 194.99 770.362 194.034C772.276 193.077 774.328 192.257 776.242 191.438C777.2 191.028 778.294 190.618 779.251 190.208C780.209 189.935 781.303 189.661 782.26 189.388Z" fill="#2E255B"/>
<path opacity="0.5" d="M726.05 188.432C727.008 188.705 728.102 189.115 729.059 189.525C730.016 189.935 731.111 190.345 732.068 190.755C733.983 191.575 736.034 192.531 737.949 193.351C739.864 194.308 741.778 195.264 743.693 196.221C745.608 197.177 747.522 198.27 749.3 199.363L750.394 200.047L749.164 199.773C747.796 199.5 746.428 199.227 745.061 199.09C743.693 198.953 742.189 198.817 740.821 198.817C740.411 198.817 740.137 198.817 739.727 198.817H738.633C738.222 198.817 737.949 198.817 737.539 198.817C737.128 198.817 736.855 198.817 736.444 198.953L735.35 199.09L734.256 199.227L733.709 199.363L733.162 199.5L732.068 199.773L733.162 199.5L733.709 199.363L734.256 199.227L735.35 199.09L736.444 198.953C737.812 198.817 739.316 198.68 740.684 198.68C742.052 198.68 743.556 198.68 744.924 198.953C746.291 199.09 747.796 199.363 749.164 199.637L749.027 200.047C747.112 198.953 745.334 197.997 743.419 196.904C741.505 195.947 739.59 194.854 737.675 193.898C735.761 192.941 733.846 191.985 731.931 191.165C730.016 190.072 727.965 189.252 726.05 188.432Z" fill="#2E255B"/>
<path opacity="0.5" d="M730.29 164.246C732.068 164.519 733.846 164.792 735.487 165.066C737.265 165.339 739.043 165.476 740.821 165.612C744.377 166.022 747.933 166.159 751.352 166.296C753.13 166.296 754.908 166.296 756.685 166.296C758.463 166.296 760.241 166.159 762.019 166.022C763.797 165.886 765.575 165.612 767.216 165.339C768.994 165.066 770.635 164.656 772.413 164.246C770.772 164.792 768.994 165.202 767.216 165.476C765.438 165.749 763.66 166.022 762.019 166.159C760.241 166.296 758.463 166.432 756.685 166.432C754.908 166.432 753.13 166.432 751.352 166.432C747.796 166.296 744.24 166.159 740.821 165.749C739.043 165.612 737.265 165.339 735.624 165.066C733.846 164.929 732.068 164.656 730.29 164.246Z" fill="#2E255B"/>
<path d="M764.618 18.1735C764.618 18.1735 769.815 29.9249 768.994 36.3471C768.994 36.3471 772.687 31.1547 777.474 31.7013C777.474 31.7013 780.619 21.1797 778.841 14.0742L767.763 14.7574L764.618 18.1735Z" fill="#282929"/>
<path d="M769.268 169.712C769.405 169.985 769.405 170.122 769.541 170.258L769.815 170.805L770.499 172.035L771.593 173.948L774.465 179.14C774.875 179.96 778.705 186.792 779.662 188.432C778.568 187.065 777.2 185.699 776.243 184.059C775.833 183.239 775.285 182.556 774.875 181.736C774.465 180.916 774.055 180.097 773.644 179.413C772.824 177.774 772.003 176.134 771.319 174.494C770.909 173.674 770.635 172.854 770.225 172.035C770.088 171.625 769.952 171.215 769.678 170.805C769.541 170.532 769.405 170.122 769.268 169.712Z" fill="#2E255B"/>
<path d="M764.481 63.2661C763.523 63.9494 762.703 64.6326 761.882 65.3158L759.284 67.3654L756.822 69.2785C755.865 68.322 755.044 67.3654 754.087 66.5456C753.129 65.5891 752.172 64.6326 751.215 63.5394L750.941 63.2661L750.668 63.5394C749.984 64.3593 749.437 65.3158 748.753 66.1357C748.206 66.9555 747.522 67.7754 746.975 68.4586C745.744 67.6387 744.513 66.6822 743.282 65.8624L741.368 64.4959C740.684 64.086 740 63.6761 739.453 63.1295C740.137 63.6761 740.684 64.086 741.368 64.6326L743.282 66.1357C744.513 67.0922 745.744 68.0487 747.112 69.0052L747.248 69.1418L747.385 69.0052C748.069 68.1853 748.753 67.3654 749.3 66.4089C749.847 65.7257 750.531 64.9059 751.078 64.086C752.035 65.0425 752.856 65.8624 753.813 66.8189C754.77 67.7754 755.728 68.7319 756.822 69.825L756.959 69.9617L757.232 69.825L759.831 67.6387L762.429 65.4524C763.25 64.7692 764.07 63.9494 765.028 63.2661C765.848 62.5829 766.669 61.7631 767.49 61.0798C766.259 61.8997 765.438 62.5829 764.481 63.2661Z" fill="url(#paint18_linear)"/>
<path d="M750.668 63.6758C750.394 67.6384 749.984 71.6011 749.847 75.5638C749.574 79.5265 749.3 83.4891 749.163 87.4518C749.027 89.5014 749.027 91.4145 748.89 93.4641L748.753 96.4703L748.616 99.4764C748.48 103.439 748.343 107.402 748.343 111.364C748.206 119.29 748.206 127.352 748.48 135.277C748.616 139.24 748.753 143.202 749.027 147.165L749.163 150.171C749.163 150.718 749.164 151.128 749.3 151.674L749.437 153.177C749.574 155.227 749.847 157.14 749.984 159.19C749.574 155.227 749.027 151.264 748.753 147.302C748.343 143.339 748.206 139.376 748.069 135.414C748.069 133.364 747.933 131.451 747.933 129.401C747.933 128.445 747.933 127.352 747.933 126.395V123.389V120.383V118.88V117.377V111.364C748.069 107.402 748.069 103.439 748.343 99.4764L748.48 96.4703L748.616 93.4641C748.753 91.4145 748.753 89.5014 748.89 87.4518C749.164 83.4891 749.437 79.5265 749.711 75.5638L749.984 72.5576L750.258 69.5515C750.258 67.6385 750.394 65.5888 750.668 63.6758Z" fill="url(#paint19_linear)"/>
<path d="M754.771 90.8682H768.447L767.9 101.253C767.764 103.303 766.806 105.079 765.028 106.172L764.481 106.582C762.293 108.085 759.284 107.949 757.233 106.309C755.728 105.079 754.771 103.303 754.771 101.253V90.8682Z" fill="url(#paint20_linear)"/>
<path d="M800.586 124.892L819.597 110.135C820.554 109.452 821.785 109.588 822.469 110.545L826.982 116.557C827.666 117.377 827.529 118.743 826.572 119.427L807.835 133.638C807.014 134.321 805.783 134.184 805.1 133.364L800.313 127.898C799.492 126.942 799.629 125.576 800.586 124.892Z" fill="url(#paint21_linear)"/>
<defs>
<linearGradient id="paint0_linear" x1="606.559" y1="369.217" x2="634.357" y2="369.217" gradientUnits="userSpaceOnUse">
<stop stop-color="#232451"/>
<stop offset="1" stop-color="#2A307B"/>
</linearGradient>
<linearGradient id="paint1_linear" x1="621.568" y1="373.46" x2="650.591" y2="373.46" gradientUnits="userSpaceOnUse">
<stop stop-color="#232451"/>
<stop offset="1" stop-color="#2A307B"/>
</linearGradient>
<linearGradient id="paint2_linear" x1="564" y1="130.322" x2="615.289" y2="130.322" gradientUnits="userSpaceOnUse">
<stop stop-color="#EE7065"/>
<stop offset="1" stop-color="#F2908F"/>
</linearGradient>
<linearGradient id="paint3_linear" x1="582.103" y1="221.867" x2="669.732" y2="221.867" gradientUnits="userSpaceOnUse">
<stop stop-color="#232451"/>
<stop offset="1" stop-color="#2A307B"/>
</linearGradient>
<linearGradient id="paint4_linear" x1="604.923" y1="156.398" x2="690.703" y2="156.398" gradientUnits="userSpaceOnUse">
<stop stop-color="#EE7065"/>
<stop offset="1" stop-color="#F2908F"/>
</linearGradient>
<linearGradient id="paint5_linear" x1="630.719" y1="103.615" x2="651.245" y2="103.615" gradientUnits="userSpaceOnUse">
<stop stop-color="#EE7065"/>
<stop offset="1" stop-color="#F2908F"/>
</linearGradient>
<linearGradient id="paint6_linear" x1="615.289" y1="103.851" x2="631.761" y2="103.851" gradientUnits="userSpaceOnUse">
<stop stop-color="#EE7065"/>
<stop offset="1" stop-color="#F2908F"/>
</linearGradient>
<linearGradient id="paint7_linear" x1="629.874" y1="149.219" x2="631.963" y2="149.219" gradientUnits="userSpaceOnUse">
<stop stop-color="#EE7065"/>
<stop offset="1" stop-color="#F2908F"/>
</linearGradient>
<linearGradient id="paint8_linear" x1="656.373" y1="116.82" x2="658.312" y2="116.82" gradientUnits="userSpaceOnUse">
<stop stop-color="#EE7065"/>
<stop offset="1" stop-color="#F2908F"/>
</linearGradient>
<linearGradient id="paint9_linear" x1="728.129" y1="254.216" x2="791.783" y2="254.216" gradientUnits="userSpaceOnUse">
<stop stop-color="#232451"/>
<stop offset="1" stop-color="#2A307B"/>
</linearGradient>
<linearGradient id="paint10_linear" x1="718.353" y1="253.273" x2="757.85" y2="253.273" gradientUnits="userSpaceOnUse">
<stop stop-color="#232451"/>
<stop offset="1" stop-color="#2A307B"/>
</linearGradient>
<linearGradient id="paint11_linear" x1="709.545" y1="370.171" x2="739.88" y2="370.171" gradientUnits="userSpaceOnUse">
<stop stop-color="#232451"/>
<stop offset="1" stop-color="#2A307B"/>
</linearGradient>
<linearGradient id="paint12_linear" x1="758.808" y1="370.171" x2="789.143" y2="370.171" gradientUnits="userSpaceOnUse">
<stop stop-color="#232451"/>
<stop offset="1" stop-color="#2A307B"/>
</linearGradient>
<linearGradient id="paint13_linear" x1="705.653" y1="98.4691" x2="738.484" y2="98.4691" gradientUnits="userSpaceOnUse">
<stop stop-color="#EE7065"/>
<stop offset="1" stop-color="#F2908F"/>
</linearGradient>
<linearGradient id="paint14_linear" x1="700.681" y1="123.612" x2="726.859" y2="123.612" gradientUnits="userSpaceOnUse">
<stop stop-color="#EE7065"/>
<stop offset="1" stop-color="#F2908F"/>
</linearGradient>
<linearGradient id="paint15_linear" x1="721.802" y1="110.179" x2="826.07" y2="110.179" gradientUnits="userSpaceOnUse">
<stop stop-color="#EE7065"/>
<stop offset="1" stop-color="#F2908F"/>
</linearGradient>
<linearGradient id="paint16_linear" x1="769.311" y1="98.0387" x2="789.047" y2="98.0387" gradientUnits="userSpaceOnUse">
<stop stop-color="#EE7065"/>
<stop offset="1" stop-color="#F2908F"/>
</linearGradient>
<linearGradient id="paint17_linear" x1="739.347" y1="64.0646" x2="767.172" y2="64.0646" gradientUnits="userSpaceOnUse">
<stop stop-color="#EE7065"/>
<stop offset="1" stop-color="#F2908F"/>
</linearGradient>
<linearGradient id="paint18_linear" x1="739.347" y1="65.6942" x2="767.172" y2="65.6942" gradientUnits="userSpaceOnUse">
<stop stop-color="#EE7065"/>
<stop offset="1" stop-color="#F2908F"/>
</linearGradient>
<linearGradient id="paint19_linear" x1="747.571" y1="111.399" x2="750.662" y2="111.399" gradientUnits="userSpaceOnUse">
<stop stop-color="#EE7065"/>
<stop offset="1" stop-color="#F2908F"/>
</linearGradient>
<linearGradient id="paint20_linear" x1="754.721" y1="99.24" x2="768.377" y2="99.24" gradientUnits="userSpaceOnUse">
<stop stop-color="#EE7065"/>
<stop offset="1" stop-color="#F2908F"/>
</linearGradient>
<linearGradient id="paint21_linear" x1="799.82" y1="121.749" x2="827.42" y2="121.749" gradientUnits="userSpaceOnUse">
<stop stop-color="#EE7065"/>
<stop offset="1" stop-color="#F2908F"/>
</linearGradient>
<clipPath id="clip0">
<rect width="112" height="8" fill="white" transform="translate(49 78)"/>
</clipPath>
<clipPath id="clip1">
<rect width="192" height="205" fill="white" transform="translate(424 91)"/>
</clipPath>
</defs>
</svg>
