<svg width="344" height="614" viewBox="0 0 344 614" fill="none" xmlns="http://www.w3.org/2000/svg">
<rect width="344" height="614" rx="8" fill="#57329D"/>
<path d="M33.4091 203H34.8182V197.795H39.8636V196.545H34.8182V192.614H40.3864V191.364H33.4091V203ZM42.5241 203H43.8651V197.477C43.8651 196.295 44.7969 195.432 46.0696 195.432C46.4276 195.432 46.7969 195.5 46.8878 195.523V194.159C46.7344 194.148 46.3821 194.136 46.1832 194.136C45.1378 194.136 44.2287 194.727 43.9105 195.591H43.8196V194.273H42.5241V203ZM51.7571 203.182C54.1207 203.182 55.7116 201.386 55.7116 198.682C55.7116 195.955 54.1207 194.159 51.7571 194.159C49.3935 194.159 47.8026 195.955 47.8026 198.682C47.8026 201.386 49.3935 203.182 51.7571 203.182ZM51.7571 201.977C49.9616 201.977 49.1435 200.432 49.1435 198.682C49.1435 196.932 49.9616 195.364 51.7571 195.364C53.5526 195.364 54.3707 196.932 54.3707 198.682C54.3707 200.432 53.5526 201.977 51.7571 201.977ZM57.7585 203H59.0994V197.545C59.0994 196.267 60.0312 195.364 61.0767 195.364C62.0938 195.364 62.804 196.028 62.804 197.023V203H64.1676V197.318C64.1676 196.193 64.8722 195.364 66.0994 195.364C67.054 195.364 67.8722 195.869 67.8722 197.159V203H69.2131V197.159C69.2131 195.108 68.1108 194.159 66.554 194.159C65.304 194.159 64.3892 194.733 63.9403 195.636H63.8494C63.4176 194.705 62.6562 194.159 61.5085 194.159C60.3722 194.159 59.5312 194.705 59.1676 195.636H59.054V194.273H57.7585V203ZM76.3466 203H77.642V201.659H77.8011C78.0966 202.136 78.6648 203.182 80.3466 203.182C82.5284 203.182 84.0511 201.432 84.0511 198.659C84.0511 195.909 82.5284 194.159 80.3239 194.159C78.6193 194.159 78.0966 195.205 77.8011 195.659H77.6875V191.364H76.3466V203ZM77.6648 198.636C77.6648 196.682 78.5284 195.364 80.1648 195.364C81.8693 195.364 82.7102 196.795 82.7102 198.636C82.7102 200.5 81.8466 201.977 80.1648 201.977C78.5511 201.977 77.6648 200.614 77.6648 198.636ZM88.6705 203.205C90.1932 203.205 90.9886 202.386 91.2614 201.818H91.3295V203H92.6705V197.25C92.6705 194.477 90.5568 194.159 89.4432 194.159C88.125 194.159 86.625 194.614 85.9432 196.205L87.2159 196.659C87.5114 196.023 88.2102 195.341 89.4886 195.341C90.7216 195.341 91.3295 195.994 91.3295 197.114V197.159C91.3295 197.807 90.6705 197.75 89.0795 197.955C87.4602 198.165 85.6932 198.523 85.6932 200.523C85.6932 202.227 87.0114 203.205 88.6705 203.205ZM88.875 202C87.8068 202 87.0341 201.523 87.0341 200.591C87.0341 199.568 87.9659 199.25 89.0114 199.114C89.5795 199.045 91.1023 198.886 91.3295 198.614V199.841C91.3295 200.932 90.4659 202 88.875 202ZM101.3 196.227C100.879 194.989 99.9361 194.159 98.2088 194.159C96.3679 194.159 95.0043 195.205 95.0043 196.682C95.0043 197.886 95.7202 198.693 97.3224 199.068L98.777 199.409C99.6577 199.614 100.072 200.034 100.072 200.636C100.072 201.386 99.277 202 98.027 202C96.9304 202 96.2429 201.528 96.0043 200.591L94.7315 200.909C95.044 202.392 96.2656 203.182 98.0497 203.182C100.078 203.182 101.459 202.074 101.459 200.568C101.459 199.352 100.697 198.585 99.1406 198.205L97.8452 197.886C96.8111 197.631 96.3452 197.284 96.3452 196.614C96.3452 195.864 97.1406 195.318 98.2088 195.318C99.3793 195.318 99.8622 195.966 100.095 196.568L101.3 196.227ZM103.477 203H104.818V194.273H103.477V203ZM104.159 192.818C104.682 192.818 105.114 192.409 105.114 191.909C105.114 191.409 104.682 191 104.159 191C103.636 191 103.205 191.409 103.205 191.909C103.205 192.409 103.636 192.818 104.159 192.818ZM110.82 203.182C112.751 203.182 114.024 202 114.251 200.455H112.911C112.661 201.409 111.865 201.977 110.82 201.977C109.229 201.977 108.206 200.659 108.206 198.636C108.206 196.659 109.251 195.364 110.82 195.364C112.001 195.364 112.706 196.091 112.911 196.886H114.251C114.024 195.25 112.638 194.159 110.797 194.159C108.433 194.159 106.865 196.023 106.865 198.682C106.865 201.295 108.365 203.182 110.82 203.182ZM120.712 203H122.053V197.477C122.053 196.295 122.984 195.432 124.257 195.432C124.615 195.432 124.984 195.5 125.075 195.523V194.159C124.922 194.148 124.57 194.136 124.371 194.136C123.325 194.136 122.416 194.727 122.098 195.591H122.007V194.273H120.712V203ZM130.058 203.182C131.831 203.182 133.126 202.295 133.536 200.977L132.24 200.614C131.899 201.523 131.109 201.977 130.058 201.977C128.484 201.977 127.399 200.96 127.337 199.091H133.672V198.523C133.672 195.273 131.74 194.159 129.922 194.159C127.558 194.159 125.99 196.023 125.99 198.705C125.99 201.386 127.536 203.182 130.058 203.182ZM127.337 197.932C127.428 196.574 128.388 195.364 129.922 195.364C131.376 195.364 132.308 196.455 132.308 197.932H127.337ZM135.712 206.273H137.053V201.659H137.166C137.462 202.136 138.03 203.182 139.712 203.182C141.893 203.182 143.416 201.432 143.416 198.659C143.416 195.909 141.893 194.159 139.689 194.159C137.984 194.159 137.462 195.205 137.166 195.659H137.007V194.273H135.712V206.273ZM137.03 198.636C137.03 196.682 137.893 195.364 139.53 195.364C141.234 195.364 142.075 196.795 142.075 198.636C142.075 200.5 141.212 201.977 139.53 201.977C137.916 201.977 137.03 200.614 137.03 198.636ZM149.007 203.182C151.371 203.182 152.962 201.386 152.962 198.682C152.962 195.955 151.371 194.159 149.007 194.159C146.643 194.159 145.053 195.955 145.053 198.682C145.053 201.386 146.643 203.182 149.007 203.182ZM149.007 201.977C147.212 201.977 146.393 200.432 146.393 198.682C146.393 196.932 147.212 195.364 149.007 195.364C150.803 195.364 151.621 196.932 151.621 198.682C151.621 200.432 150.803 201.977 149.007 201.977ZM155.009 203H156.349V197.477C156.349 196.295 157.281 195.432 158.554 195.432C158.912 195.432 159.281 195.5 159.372 195.523V194.159C159.219 194.148 158.866 194.136 158.668 194.136C157.622 194.136 156.713 194.727 156.395 195.591H156.304V194.273H155.009V203ZM165.304 194.273H163.44V192.182H162.099V194.273H160.781V195.409H162.099V200.864C162.099 202.386 163.327 203.114 164.463 203.114C164.963 203.114 165.281 203.023 165.463 202.955L165.19 201.75C165.077 201.773 164.895 201.818 164.599 201.818C164.009 201.818 163.44 201.636 163.44 200.5V195.409H165.304V194.273ZM167.321 203H168.662V194.273H167.321V203ZM168.003 192.818C168.526 192.818 168.957 192.409 168.957 191.909C168.957 191.409 168.526 191 168.003 191C167.48 191 167.048 191.409 167.048 191.909C167.048 192.409 167.48 192.818 168.003 192.818ZM172.459 197.75C172.459 196.227 173.402 195.364 174.686 195.364C175.93 195.364 176.686 196.176 176.686 197.545V203H178.027V197.455C178.027 195.227 176.839 194.159 175.072 194.159C173.754 194.159 172.936 194.75 172.527 195.636H172.413V194.273H171.118V203H172.459V197.75ZM184 206.455C186.091 206.455 187.773 205.5 187.773 203.25V194.273H186.477V195.659H186.341C186.045 195.205 185.5 194.159 183.795 194.159C181.591 194.159 180.068 195.909 180.068 198.591C180.068 201.318 181.659 202.864 183.773 202.864C185.477 202.864 186.023 201.864 186.318 201.386H186.432V203.159C186.432 204.614 185.409 205.273 184 205.273C182.415 205.273 181.858 204.438 181.5 203.955L180.432 204.705C180.977 205.619 182.051 206.455 184 206.455ZM183.955 201.659C182.273 201.659 181.409 200.386 181.409 198.568C181.409 196.795 182.25 195.364 183.955 195.364C185.591 195.364 186.455 196.682 186.455 198.568C186.455 200.5 185.568 201.659 183.955 201.659ZM198.523 194.273H196.659V192.182H195.318V194.273H194V195.409H195.318V200.864C195.318 202.386 196.545 203.114 197.682 203.114C198.182 203.114 198.5 203.023 198.682 202.955L198.409 201.75C198.295 201.773 198.114 201.818 197.818 201.818C197.227 201.818 196.659 201.636 196.659 200.5V195.409H198.523V194.273ZM203.991 203.182C206.355 203.182 207.946 201.386 207.946 198.682C207.946 195.955 206.355 194.159 203.991 194.159C201.628 194.159 200.037 195.955 200.037 198.682C200.037 201.386 201.628 203.182 203.991 203.182ZM203.991 201.977C202.196 201.977 201.378 200.432 201.378 198.682C201.378 196.932 202.196 195.364 203.991 195.364C205.787 195.364 206.605 196.932 206.605 198.682C206.605 200.432 205.787 201.977 203.991 201.977ZM217.061 203.205C218.584 203.205 219.379 202.386 219.652 201.818H219.72V203H221.061V197.25C221.061 194.477 218.947 194.159 217.834 194.159C216.516 194.159 215.016 194.614 214.334 196.205L215.607 196.659C215.902 196.023 216.601 195.341 217.879 195.341C219.112 195.341 219.72 195.994 219.72 197.114V197.159C219.72 197.807 219.061 197.75 217.47 197.955C215.851 198.165 214.084 198.523 214.084 200.523C214.084 202.227 215.402 203.205 217.061 203.205ZM217.266 202C216.197 202 215.425 201.523 215.425 200.591C215.425 199.568 216.357 199.25 217.402 199.114C217.97 199.045 219.493 198.886 219.72 198.614V199.841C219.72 200.932 218.857 202 217.266 202ZM231.895 194.273H229.94V193.386C229.94 192.523 230.304 192.068 231.19 192.068C231.577 192.068 231.804 192.159 231.94 192.205L232.327 191.045C232.122 190.955 231.713 190.818 231.054 190.818C229.804 190.818 228.599 191.568 228.599 193.068V194.273H227.19V195.409H228.599V203H229.94V195.409H231.895V194.273ZM239.274 199.432C239.274 201.068 238.024 201.818 237.024 201.818C235.911 201.818 235.115 201 235.115 199.727V194.273H233.774V199.818C233.774 202.045 234.956 203.114 236.592 203.114C237.911 203.114 238.774 202.409 239.183 201.523H239.274V203H240.615V194.273H239.274V199.432ZM244.412 191.364H243.071V203H244.412V191.364ZM248.209 191.364H246.868V203H248.209V191.364ZM251.528 206.273C252.739 206.273 253.591 205.631 254.097 204.273L257.812 194.295L256.347 194.273L253.938 201.227H253.847L251.438 194.273H249.983L253.21 203.045L252.96 203.727C252.472 205.057 251.869 205.182 250.892 204.932L250.551 206.114C250.688 206.182 251.074 206.273 251.528 206.273ZM35.7955 227.205C37.3182 227.205 38.1136 226.386 38.3864 225.818H38.4545V227H39.7955V221.25C39.7955 218.477 37.6818 218.159 36.5682 218.159C35.25 218.159 33.75 218.614 33.0682 220.205L34.3409 220.659C34.6364 220.023 35.3352 219.341 36.6136 219.341C37.8466 219.341 38.4545 219.994 38.4545 221.114V221.159C38.4545 221.807 37.7955 221.75 36.2045 221.955C34.5852 222.165 32.8182 222.523 32.8182 224.523C32.8182 226.227 34.1364 227.205 35.7955 227.205ZM36 226C34.9318 226 34.1591 225.523 34.1591 224.591C34.1591 223.568 35.0909 223.25 36.1364 223.114C36.7045 223.045 38.2273 222.886 38.4545 222.614V223.841C38.4545 224.932 37.5909 226 36 226ZM47.7429 223.432C47.7429 225.068 46.4929 225.818 45.4929 225.818C44.3793 225.818 43.5838 225 43.5838 223.727V218.273H42.2429V223.818C42.2429 226.045 43.4247 227.114 45.0611 227.114C46.3793 227.114 47.2429 226.409 47.652 225.523H47.7429V227H49.0838V218.273H47.7429V223.432ZM55.3352 218.273H53.4716V216.182H52.1307V218.273H50.8125V219.409H52.1307V224.864C52.1307 226.386 53.358 227.114 54.4943 227.114C54.9943 227.114 55.3125 227.023 55.4943 226.955L55.2216 225.75C55.108 225.773 54.9261 225.818 54.6307 225.818C54.0398 225.818 53.4716 225.636 53.4716 224.5V219.409H55.3352V218.273ZM60.804 227.182C63.1676 227.182 64.7585 225.386 64.7585 222.682C64.7585 219.955 63.1676 218.159 60.804 218.159C58.4403 218.159 56.8494 219.955 56.8494 222.682C56.8494 225.386 58.4403 227.182 60.804 227.182ZM60.804 225.977C59.0085 225.977 58.1903 224.432 58.1903 222.682C58.1903 220.932 59.0085 219.364 60.804 219.364C62.5994 219.364 63.4176 220.932 63.4176 222.682C63.4176 224.432 62.5994 225.977 60.804 225.977ZM66.8054 227H68.1463V221.545C68.1463 220.267 69.0781 219.364 70.1236 219.364C71.1406 219.364 71.8509 220.028 71.8509 221.023V227H73.2145V221.318C73.2145 220.193 73.919 219.364 75.1463 219.364C76.1009 219.364 76.919 219.869 76.919 221.159V227H78.2599V221.159C78.2599 219.108 77.1577 218.159 75.6009 218.159C74.3509 218.159 73.4361 218.733 72.9872 219.636H72.8963C72.4645 218.705 71.7031 218.159 70.5554 218.159C69.419 218.159 68.5781 218.705 68.2145 219.636H68.1009V218.273H66.8054V227ZM83.2798 227.205C84.8026 227.205 85.598 226.386 85.8707 225.818H85.9389V227H87.2798V221.25C87.2798 218.477 85.1662 218.159 84.0526 218.159C82.7344 218.159 81.2344 218.614 80.5526 220.205L81.8253 220.659C82.1207 220.023 82.8196 219.341 84.098 219.341C85.331 219.341 85.9389 219.994 85.9389 221.114V221.159C85.9389 221.807 85.2798 221.75 83.6889 221.955C82.0696 222.165 80.3026 222.523 80.3026 224.523C80.3026 226.227 81.6207 227.205 83.2798 227.205ZM83.4844 226C82.4162 226 81.6435 225.523 81.6435 224.591C81.6435 223.568 82.5753 223.25 83.6207 223.114C84.1889 223.045 85.7116 222.886 85.9389 222.614V223.841C85.9389 224.932 85.0753 226 83.4844 226ZM93.5227 218.273H91.6591V216.182H90.3182V218.273H89V219.409H90.3182V224.864C90.3182 226.386 91.5455 227.114 92.6818 227.114C93.1818 227.114 93.5 227.023 93.6818 226.955L93.4091 225.75C93.2955 225.773 93.1136 225.818 92.8182 225.818C92.2273 225.818 91.6591 225.636 91.6591 224.5V219.409H93.5227V218.273ZM99.1051 227.182C100.878 227.182 102.173 226.295 102.582 224.977L101.287 224.614C100.946 225.523 100.156 225.977 99.1051 225.977C97.5312 225.977 96.446 224.96 96.3835 223.091H102.719V222.523C102.719 219.273 100.787 218.159 98.9688 218.159C96.6051 218.159 95.0369 220.023 95.0369 222.705C95.0369 225.386 96.5824 227.182 99.1051 227.182ZM96.3835 221.932C96.4744 220.574 97.4347 219.364 98.9688 219.364C100.423 219.364 101.355 220.455 101.355 221.932H96.3835ZM108.054 227.182C109.736 227.182 110.304 226.136 110.599 225.659H110.759V227H112.054V215.364H110.713V219.659H110.599C110.304 219.205 109.781 218.159 108.077 218.159C105.872 218.159 104.349 219.909 104.349 222.659C104.349 225.432 105.872 227.182 108.054 227.182ZM108.236 225.977C106.554 225.977 105.69 224.5 105.69 222.636C105.69 220.795 106.531 219.364 108.236 219.364C109.872 219.364 110.736 220.682 110.736 222.636C110.736 224.614 109.849 225.977 108.236 225.977ZM119.196 227H120.537V221.545C120.537 220.267 121.469 219.364 122.514 219.364C123.531 219.364 124.241 220.028 124.241 221.023V227H125.605V221.318C125.605 220.193 126.31 219.364 127.537 219.364C128.491 219.364 129.31 219.869 129.31 221.159V227H130.651V221.159C130.651 219.108 129.548 218.159 127.991 218.159C126.741 218.159 125.827 218.733 125.378 219.636H125.287C124.855 218.705 124.094 218.159 122.946 218.159C121.81 218.159 120.969 218.705 120.605 219.636H120.491V218.273H119.196V227ZM136.648 227.182C139.011 227.182 140.602 225.386 140.602 222.682C140.602 219.955 139.011 218.159 136.648 218.159C134.284 218.159 132.693 219.955 132.693 222.682C132.693 225.386 134.284 227.182 136.648 227.182ZM136.648 225.977C134.852 225.977 134.034 224.432 134.034 222.682C134.034 220.932 134.852 219.364 136.648 219.364C138.443 219.364 139.261 220.932 139.261 222.682C139.261 224.432 138.443 225.977 136.648 225.977ZM143.99 221.75C143.99 220.227 144.933 219.364 146.217 219.364C147.462 219.364 148.217 220.176 148.217 221.545V227H149.558V221.455C149.558 219.227 148.371 218.159 146.604 218.159C145.286 218.159 144.467 218.75 144.058 219.636H143.945V218.273H142.649V227H143.99V221.75ZM155.804 218.273H153.94V216.182H152.599V218.273H151.281V219.409H152.599V224.864C152.599 226.386 153.827 227.114 154.963 227.114C155.463 227.114 155.781 227.023 155.963 226.955L155.69 225.75C155.577 225.773 155.395 225.818 155.099 225.818C154.509 225.818 153.94 225.636 153.94 224.5V219.409H155.804V218.273ZM159.349 221.75C159.349 220.227 160.321 219.364 161.645 219.364C162.906 219.364 163.668 220.159 163.668 221.545V227H165.009V221.455C165.009 219.21 163.815 218.159 162.031 218.159C160.656 218.159 159.872 218.733 159.463 219.636H159.349V215.364H158.009V227H159.349V221.75ZM168.803 215.364H167.462V227H168.803V215.364ZM172.122 230.273C173.332 230.273 174.185 229.631 174.69 228.273L178.406 218.295L176.94 218.273L174.531 225.227H174.44L172.031 218.273H170.577L173.804 227.045L173.554 227.727C173.065 229.057 172.463 229.182 171.486 228.932L171.145 230.114C171.281 230.182 171.668 230.273 172.122 230.273ZM188.339 227.182C190.112 227.182 191.408 226.295 191.817 224.977L190.521 224.614C190.18 225.523 189.391 225.977 188.339 225.977C186.766 225.977 185.68 224.96 185.618 223.091H191.953V222.523C191.953 219.273 190.021 218.159 188.203 218.159C185.839 218.159 184.271 220.023 184.271 222.705C184.271 225.386 185.817 227.182 188.339 227.182ZM185.618 221.932C185.709 220.574 186.669 219.364 188.203 219.364C189.658 219.364 190.589 220.455 190.589 221.932H185.618ZM193.993 227H195.334V221.545C195.334 220.267 196.266 219.364 197.311 219.364C198.328 219.364 199.038 220.028 199.038 221.023V227H200.402V221.318C200.402 220.193 201.107 219.364 202.334 219.364C203.288 219.364 204.107 219.869 204.107 221.159V227H205.447V221.159C205.447 219.108 204.345 218.159 202.788 218.159C201.538 218.159 200.624 218.733 200.175 219.636H200.084C199.652 218.705 198.891 218.159 197.743 218.159C196.607 218.159 195.766 218.705 195.402 219.636H195.288V218.273H193.993V227ZM207.899 230.273H209.24V225.659H209.354C209.649 226.136 210.217 227.182 211.899 227.182C214.081 227.182 215.604 225.432 215.604 222.659C215.604 219.909 214.081 218.159 211.876 218.159C210.172 218.159 209.649 219.205 209.354 219.659H209.195V218.273H207.899V230.273ZM209.217 222.636C209.217 220.682 210.081 219.364 211.717 219.364C213.422 219.364 214.263 220.795 214.263 222.636C214.263 224.5 213.399 225.977 211.717 225.977C210.104 225.977 209.217 224.614 209.217 222.636ZM218.99 215.364H217.649V227H218.99V215.364ZM224.991 227.182C227.355 227.182 228.946 225.386 228.946 222.682C228.946 219.955 227.355 218.159 224.991 218.159C222.628 218.159 221.037 219.955 221.037 222.682C221.037 225.386 222.628 227.182 224.991 227.182ZM224.991 225.977C223.196 225.977 222.378 224.432 222.378 222.682C222.378 220.932 223.196 219.364 224.991 219.364C226.787 219.364 227.605 220.932 227.605 222.682C227.605 224.432 226.787 225.977 224.991 225.977ZM231.544 230.273C232.754 230.273 233.607 229.631 234.112 228.273L237.828 218.295L236.362 218.273L233.953 225.227H233.862L231.453 218.273H229.999L233.226 227.045L232.976 227.727C232.487 229.057 231.885 229.182 230.908 228.932L230.567 230.114C230.703 230.182 231.089 230.273 231.544 230.273ZM242.949 227.182C244.722 227.182 246.017 226.295 246.426 224.977L245.131 224.614C244.79 225.523 244 225.977 242.949 225.977C241.375 225.977 240.29 224.96 240.227 223.091H246.562V222.523C246.562 219.273 244.631 218.159 242.812 218.159C240.449 218.159 238.881 220.023 238.881 222.705C238.881 225.386 240.426 227.182 242.949 227.182ZM240.227 221.932C240.318 220.574 241.278 219.364 242.812 219.364C244.267 219.364 245.199 220.455 245.199 221.932H240.227ZM252.261 227.182C254.034 227.182 255.33 226.295 255.739 224.977L254.443 224.614C254.102 225.523 253.312 225.977 252.261 225.977C250.688 225.977 249.602 224.96 249.54 223.091H255.875V222.523C255.875 219.273 253.943 218.159 252.125 218.159C249.761 218.159 248.193 220.023 248.193 222.705C248.193 225.386 249.739 227.182 252.261 227.182ZM249.54 221.932C249.631 220.574 250.591 219.364 252.125 219.364C253.58 219.364 254.511 220.455 254.511 221.932H249.54ZM39.4091 244.227C38.9886 242.989 38.0455 242.159 36.3182 242.159C34.4773 242.159 33.1136 243.205 33.1136 244.682C33.1136 245.886 33.8295 246.693 35.4318 247.068L36.8864 247.409C37.767 247.614 38.1818 248.034 38.1818 248.636C38.1818 249.386 37.3864 250 36.1364 250C35.0398 250 34.3523 249.528 34.1136 248.591L32.8409 248.909C33.1534 250.392 34.375 251.182 36.1591 251.182C38.1875 251.182 39.5682 250.074 39.5682 248.568C39.5682 247.352 38.8068 246.585 37.25 246.205L35.9545 245.886C34.9205 245.631 34.4545 245.284 34.4545 244.614C34.4545 243.864 35.25 243.318 36.3182 243.318C37.4886 243.318 37.9716 243.966 38.2045 244.568L39.4091 244.227ZM45.1321 251.182C47.0639 251.182 48.3366 250 48.5639 248.455H47.223C46.973 249.409 46.1776 249.977 45.1321 249.977C43.5412 249.977 42.5185 248.659 42.5185 246.636C42.5185 244.659 43.5639 243.364 45.1321 243.364C46.3139 243.364 47.0185 244.091 47.223 244.886H48.5639C48.3366 243.25 46.9503 242.159 45.1094 242.159C42.7457 242.159 41.1776 244.023 41.1776 246.682C41.1776 249.295 42.6776 251.182 45.1321 251.182ZM51.8651 245.75C51.8651 244.227 52.8366 243.364 54.1605 243.364C55.4219 243.364 56.1832 244.159 56.1832 245.545V251H57.5241V245.455C57.5241 243.21 56.331 242.159 54.5469 242.159C53.1719 242.159 52.3878 242.733 51.9787 243.636H51.8651V239.364H50.5241V251H51.8651V245.75ZM63.6364 251.182C65.4091 251.182 66.7045 250.295 67.1136 248.977L65.8182 248.614C65.4773 249.523 64.6875 249.977 63.6364 249.977C62.0625 249.977 60.9773 248.96 60.9148 247.091H67.25V246.523C67.25 243.273 65.3182 242.159 63.5 242.159C61.1364 242.159 59.5682 244.023 59.5682 246.705C59.5682 249.386 61.1136 251.182 63.6364 251.182ZM60.9148 245.932C61.0057 244.574 61.9659 243.364 63.5 243.364C64.9545 243.364 65.8864 244.455 65.8864 245.932H60.9148ZM72.5852 251.182C74.267 251.182 74.8352 250.136 75.1307 249.659H75.2898V251H76.5852V239.364H75.2443V243.659H75.1307C74.8352 243.205 74.3125 242.159 72.608 242.159C70.4034 242.159 68.8807 243.909 68.8807 246.659C68.8807 249.432 70.4034 251.182 72.5852 251.182ZM72.767 249.977C71.0852 249.977 70.2216 248.5 70.2216 246.636C70.2216 244.795 71.0625 243.364 72.767 243.364C74.4034 243.364 75.267 244.682 75.267 246.636C75.267 248.614 74.3807 249.977 72.767 249.977ZM84.7273 247.432C84.7273 249.068 83.4773 249.818 82.4773 249.818C81.3636 249.818 80.5682 249 80.5682 247.727V242.273H79.2273V247.818C79.2273 250.045 80.4091 251.114 82.0455 251.114C83.3636 251.114 84.2273 250.409 84.6364 249.523H84.7273V251H86.0682V242.273H84.7273V247.432ZM89.8651 239.364H88.5241V251H89.8651V239.364ZM95.9801 251.182C97.7528 251.182 99.0483 250.295 99.4574 248.977L98.1619 248.614C97.821 249.523 97.0312 249.977 95.9801 249.977C94.4062 249.977 93.321 248.96 93.2585 247.091H99.5938V246.523C99.5938 243.273 97.6619 242.159 95.8438 242.159C93.4801 242.159 91.9119 244.023 91.9119 246.705C91.9119 249.386 93.4574 251.182 95.9801 251.182ZM93.2585 245.932C93.3494 244.574 94.3097 243.364 95.8438 243.364C97.2983 243.364 98.2301 244.455 98.2301 245.932H93.2585ZM102.611 251.091C103.173 251.091 103.634 250.631 103.634 250.068C103.634 249.506 103.173 249.045 102.611 249.045C102.048 249.045 101.588 249.506 101.588 250.068C101.588 250.631 102.048 251.091 102.611 251.091Z" fill="#F1EFF4"/>
<path d="M44.6566 74.6742H48.7314C48.6725 71.0903 45.7268 68.616 41.2494 68.616C36.8407 68.616 33.6103 71.0511 33.6299 74.7037C33.6201 77.669 35.7115 79.3677 39.1089 80.1826L41.2985 80.7325C43.4881 81.2627 44.7056 81.8911 44.7155 83.2461C44.7056 84.719 43.3114 85.7205 41.1512 85.7205C38.942 85.7205 37.3513 84.6993 37.2138 82.6865H33.0997C33.2077 87.0362 36.3203 89.2847 41.2003 89.2847C46.1097 89.2847 48.9965 86.938 49.0063 83.2559C48.9965 79.9077 46.473 78.1305 42.9775 77.345L41.1708 76.9129C39.4231 76.5104 37.9601 75.8623 37.9895 74.4189C37.9895 73.1229 39.1383 72.1704 41.2199 72.1704C43.2525 72.1704 44.4995 73.0934 44.6566 74.6742ZM59.8096 73.9182H56.9719V70.3048H52.789V73.9182H50.7271V77.0602H52.789V84.9153C52.7694 87.8708 54.7823 89.3338 57.8163 89.2062C58.8964 89.1669 59.6623 88.9509 60.0845 88.8134L59.4266 85.7009C59.2204 85.7401 58.7786 85.8383 58.3858 85.8383C57.5512 85.8383 56.9719 85.5241 56.9719 84.3655V77.0602H59.8096V73.9182ZM66.835 89.2847C69.0639 89.2847 70.5072 88.3127 71.2437 86.9086H71.3615V89H75.3283V78.8276C75.3283 75.2339 72.2845 73.7218 68.9264 73.7218C65.313 73.7218 62.9369 75.4499 62.3576 78.1992L66.2262 78.5134C66.511 77.5119 67.4045 76.7755 68.9068 76.7755C70.3305 76.7755 71.1455 77.4923 71.1455 78.7294V78.7884C71.1455 79.7604 70.1145 79.8881 67.4928 80.1434C64.5079 80.4183 61.8273 81.4198 61.8273 84.7877C61.8273 87.7726 63.958 89.2847 66.835 89.2847ZM68.0329 86.398C66.7466 86.398 65.8236 85.799 65.8236 84.6502C65.8236 83.472 66.7957 82.8926 68.2685 82.6865C69.1817 82.5588 70.6742 82.3428 71.1749 82.0089V83.6094C71.1749 85.1903 69.869 86.398 68.0329 86.398ZM86.6839 73.9182H83.6891V72.9068C83.6891 71.8857 84.1015 71.2867 85.3289 71.2867C85.8296 71.2867 86.3402 71.3947 86.674 71.5027L87.4105 68.3607C86.8901 68.2036 85.7413 67.9483 84.455 67.9483C81.6173 67.9483 79.5063 69.5488 79.5063 72.8283V73.9182H77.3756V77.0602H79.5063V89H83.6891V77.0602H86.6839V73.9182ZM97.3496 73.9182H94.3549V72.9068C94.3549 71.8857 94.7673 71.2867 95.9946 71.2867C96.4954 71.2867 97.006 71.3947 97.3398 71.5027L98.0762 68.3607C97.5558 68.2036 96.407 67.9483 95.1207 67.9483C92.2831 67.9483 90.172 69.5488 90.172 72.8283V73.9182H88.0413V77.0602H90.172V89H94.3549V77.0602H97.3496V73.9182ZM113.119 89.2946C117.694 89.2946 120.542 86.1623 120.542 81.518C120.542 76.8442 117.694 73.7218 113.119 73.7218C108.543 73.7218 105.696 76.8442 105.696 81.518C105.696 86.1623 108.543 89.2946 113.119 89.2946ZM113.138 86.0543C111.027 86.0543 109.947 84.12 109.947 81.4885C109.947 78.8571 111.027 76.9129 113.138 76.9129C115.21 76.9129 116.29 78.8571 116.29 81.4885C116.29 84.12 115.21 86.0543 113.138 86.0543ZM123.262 94.6557H127.445V86.5846H127.572C128.152 87.8414 129.418 89.2455 131.853 89.2455C135.29 89.2455 137.97 86.5256 137.97 81.4787C137.97 76.2944 135.172 73.7218 131.863 73.7218C129.34 73.7218 128.132 75.2241 127.572 76.4515H127.386V73.9182H123.262V94.6557ZM127.356 81.4591C127.356 78.7687 128.495 77.0504 130.528 77.0504C132.599 77.0504 133.699 78.8473 133.699 81.4591C133.699 84.0906 132.58 85.9169 130.528 85.9169C128.515 85.9169 127.356 84.1495 127.356 81.4591ZM148.781 73.9182H145.943V70.3048H141.76V73.9182H139.699V77.0602H141.76V84.9153C141.741 87.8708 143.754 89.3338 146.788 89.2062C147.868 89.1669 148.634 88.9509 149.056 88.8134L148.398 85.7009C148.192 85.7401 147.75 85.8383 147.357 85.8383C146.523 85.8383 145.943 85.5241 145.943 84.3655V77.0602H148.781V73.9182ZM151.506 89H155.689V73.9182H151.506V89ZM153.607 71.974C154.854 71.974 155.875 71.0216 155.875 69.8532C155.875 68.6945 154.854 67.7421 153.607 67.7421C152.37 67.7421 151.349 68.6945 151.349 69.8532C151.349 71.0216 152.37 71.974 153.607 71.974ZM159.039 89H163.222V79.947C163.222 78.2778 164.283 77.1682 165.677 77.1682C167.051 77.1682 167.974 78.1108 167.974 79.5935V89H172.03V79.7899C172.03 78.2287 172.923 77.1682 174.445 77.1682C175.78 77.1682 176.782 78.0028 176.782 79.6819V89H180.955V78.8571C180.955 75.5874 179.011 73.7218 176.203 73.7218C173.993 73.7218 172.275 74.851 171.657 76.5791H171.499C171.018 74.8313 169.477 73.7218 167.405 73.7218C165.372 73.7218 163.831 74.8019 163.202 76.5791H163.026V73.9182H159.039V89ZM184.259 89H188.442V73.9182H184.259V89ZM186.36 71.974C187.607 71.974 188.629 71.0216 188.629 69.8532C188.629 68.6945 187.607 67.7421 186.36 67.7421C185.123 67.7421 184.102 68.6945 184.102 69.8532C184.102 71.0216 185.123 71.974 186.36 71.974ZM191.714 89H204.39V85.6616H197.203V85.5536L204.135 76.638V73.9182H191.969V77.2566H199.098V77.3646L191.714 86.506V89ZM211.889 89.2847C214.118 89.2847 215.562 88.3127 216.298 86.9086H216.416V89H220.383V78.8276C220.383 75.2339 217.339 73.7218 213.981 73.7218C210.368 73.7218 207.991 75.4499 207.412 78.1992L211.281 78.5134C211.565 77.5119 212.459 76.7755 213.961 76.7755C215.385 76.7755 216.2 77.4923 216.2 78.7294V78.7884C216.2 79.7604 215.169 79.8881 212.547 80.1434C209.562 80.4183 206.882 81.4198 206.882 84.7877C206.882 87.7726 209.013 89.2847 211.889 89.2847ZM213.087 86.398C211.801 86.398 210.878 85.799 210.878 84.6502C210.878 83.472 211.85 82.8926 213.323 82.6865C214.236 82.5588 215.729 82.3428 216.229 82.0089V83.6094C216.229 85.1903 214.924 86.398 213.087 86.398ZM231.65 73.9182H228.812V70.3048H224.629V73.9182H222.568V77.0602H224.629V84.9153C224.61 87.8708 226.623 89.3338 229.657 89.2062C230.737 89.1669 231.503 88.9509 231.925 88.8134L231.267 85.7009C231.061 85.7401 230.619 85.8383 230.226 85.8383C229.392 85.8383 228.812 85.5241 228.812 84.3655V77.0602H231.65V73.9182ZM234.375 89H238.558V73.9182H234.375V89ZM236.476 71.974C237.723 71.974 238.744 71.0216 238.744 69.8532C238.744 68.6945 237.723 67.7421 236.476 67.7421C235.239 67.7421 234.218 68.6945 234.218 69.8532C234.218 71.0216 235.239 71.974 236.476 71.974ZM248.723 89.2946C253.298 89.2946 256.146 86.1623 256.146 81.518C256.146 76.8442 253.298 73.7218 248.723 73.7218C244.147 73.7218 241.299 76.8442 241.299 81.518C241.299 86.1623 244.147 89.2946 248.723 89.2946ZM248.742 86.0543C246.631 86.0543 245.551 84.12 245.551 81.4885C245.551 78.8571 246.631 76.9129 248.742 76.9129C250.814 76.9129 251.894 78.8571 251.894 81.4885C251.894 84.12 250.814 86.0543 248.742 86.0543ZM263.048 80.2808C263.058 78.3367 264.217 77.1977 265.906 77.1977C267.585 77.1977 268.596 78.2974 268.586 80.1434V89H272.769V79.3971C272.769 75.882 270.707 73.7218 267.565 73.7218C265.326 73.7218 263.706 74.8215 263.029 76.5791H262.852V73.9182H258.866V89H263.048V80.2808ZM41.6912 106.918H38.8536V103.305H34.6707V106.918H32.6088V110.06H34.6707V117.915C34.6511 120.871 36.664 122.334 39.698 122.206C40.7781 122.167 41.544 121.951 41.9662 121.813L41.3083 118.701C41.1021 118.74 40.6603 118.838 40.2675 118.838C39.4329 118.838 38.8536 118.524 38.8536 117.365V110.06H41.6912V106.918ZM48.7167 122.285C50.9456 122.285 52.3889 121.313 53.1253 119.909H53.2432V122H57.21V111.828C57.21 108.234 54.1661 106.722 50.8081 106.722C47.1947 106.722 44.8186 108.45 44.2392 111.199L48.1079 111.513C48.3926 110.512 49.2862 109.775 50.7884 109.775C52.2122 109.775 53.0272 110.492 53.0272 111.729V111.788C53.0272 112.76 51.9962 112.888 49.3745 113.143C46.3896 113.418 43.709 114.42 43.709 117.788C43.709 120.773 45.8397 122.285 48.7167 122.285ZM49.9146 119.398C48.6283 119.398 47.7053 118.799 47.7053 117.65C47.7053 116.472 48.6774 115.893 50.1502 115.686C51.0634 115.559 52.5559 115.343 53.0566 115.009V116.609C53.0566 118.19 51.7507 119.398 49.9146 119.398ZM60.4551 122H64.638V106.918H60.4551V122ZM62.5564 104.974C63.8034 104.974 64.8246 104.022 64.8246 102.853C64.8246 101.695 63.8034 100.742 62.5564 100.742C61.3192 100.742 60.298 101.695 60.298 102.853C60.298 104.022 61.3192 104.974 62.5564 104.974ZM72.1715 101.891H67.9887V122H72.1715V101.891ZM82.3366 122.295C86.9122 122.295 89.7596 119.162 89.7596 114.518C89.7596 109.844 86.9122 106.722 82.3366 106.722C77.7609 106.722 74.9135 109.844 74.9135 114.518C74.9135 119.162 77.7609 122.295 82.3366 122.295ZM82.3562 119.054C80.2451 119.054 79.165 117.12 79.165 114.489C79.165 111.857 80.2451 109.913 82.3562 109.913C84.428 109.913 85.5081 111.857 85.5081 114.489C85.5081 117.12 84.428 119.054 82.3562 119.054ZM92.4795 122H96.6623V113.467C96.6623 111.612 98.0173 110.335 99.8633 110.335C100.443 110.335 101.238 110.433 101.631 110.561V106.849C101.258 106.761 100.737 106.702 100.315 106.702C98.6261 106.702 97.2416 107.684 96.6918 109.55H96.5347V106.918H92.4795V122ZM109.964 122.295C113.696 122.295 116.209 120.478 116.798 117.68L112.93 117.424C112.508 118.573 111.427 119.172 110.033 119.172C107.942 119.172 106.616 117.788 106.616 115.539V115.529H116.887V114.381C116.887 109.255 113.784 106.722 109.798 106.722C105.359 106.722 102.482 109.874 102.482 114.528C102.482 119.31 105.32 122.295 109.964 122.295ZM106.616 112.937C106.705 111.219 108.01 109.844 109.866 109.844C111.683 109.844 112.94 111.14 112.949 112.937H106.616ZM125.174 122.245C127.609 122.245 128.876 120.841 129.455 119.585H129.632V122H133.756V101.891H129.583V109.451H129.455C128.895 108.224 127.688 106.722 125.164 106.722C121.855 106.722 119.057 109.294 119.057 114.479C119.057 119.526 121.737 122.245 125.174 122.245ZM126.499 118.917C124.447 118.917 123.328 117.091 123.328 114.459C123.328 111.847 124.428 110.05 126.499 110.05C128.532 110.05 129.671 111.769 129.671 114.459C129.671 117.149 128.512 118.917 126.499 118.917ZM151.616 106.918H148.779V103.305H144.596V106.918H142.534V110.06H144.596V117.915C144.576 120.871 146.589 122.334 149.623 122.206C150.703 122.167 151.469 121.951 151.891 121.813L151.233 118.701C151.027 118.74 150.585 118.838 150.192 118.838C149.358 118.838 148.779 118.524 148.779 117.365V110.06H151.616V106.918ZM160.993 122.295C165.569 122.295 168.416 119.162 168.416 114.518C168.416 109.844 165.569 106.722 160.993 106.722C156.418 106.722 153.57 109.844 153.57 114.518C153.57 119.162 156.418 122.295 160.993 122.295ZM161.013 119.054C158.902 119.054 157.822 117.12 157.822 114.489C157.822 111.857 158.902 109.913 161.013 109.913C163.085 109.913 164.165 111.857 164.165 114.489C164.165 117.12 163.085 119.054 161.013 119.054ZM180.118 127.656C183.231 127.656 184.88 126.065 185.734 123.63L191.596 106.938L187.168 106.918L184.016 117.994H183.859L180.737 106.918H176.338L181.748 122.432L181.502 123.07C180.953 124.484 179.902 124.553 178.429 124.101L177.487 127.224C178.085 127.479 179.058 127.656 180.118 127.656ZM200.038 122.295C204.614 122.295 207.461 119.162 207.461 114.518C207.461 109.844 204.614 106.722 200.038 106.722C195.462 106.722 192.615 109.844 192.615 114.518C192.615 119.162 195.462 122.295 200.038 122.295ZM200.058 119.054C197.947 119.054 196.867 117.12 196.867 114.489C196.867 111.857 197.947 109.913 200.058 109.913C202.129 109.913 203.21 111.857 203.21 114.489C203.21 117.12 202.129 119.054 200.058 119.054ZM219.853 115.578C219.862 117.601 218.478 118.662 216.976 118.662C215.395 118.662 214.374 117.552 214.364 115.775V106.918H210.181V116.521C210.191 120.046 212.253 122.196 215.287 122.196C217.555 122.196 219.185 121.028 219.862 119.261H220.02V122H224.035V106.918H219.853V115.578ZM227.381 122H231.564V113.467C231.564 111.612 232.919 110.335 234.765 110.335C235.344 110.335 236.14 110.433 236.532 110.561V106.849C236.159 106.761 235.639 106.702 235.217 106.702C233.528 106.702 232.143 107.684 231.594 109.55H231.436V106.918H227.381V122ZM37.8521 146.281C37.8619 144.337 39.0205 143.198 40.7094 143.198C42.3884 143.198 43.3997 144.297 43.3899 146.143V155H47.5728V145.397C47.5728 141.882 45.5108 139.722 42.3687 139.722C40.13 139.722 38.5099 140.822 37.8324 142.579H37.6557V139.918H33.6692V155H37.8521V146.281ZM57.7427 155.295C61.4739 155.295 63.9875 153.478 64.5766 150.68L60.708 150.424C60.2858 151.573 59.2057 152.172 57.8114 152.172C55.72 152.172 54.3944 150.788 54.3944 148.539V148.529H64.665V147.381C64.665 142.255 61.5622 139.722 57.5758 139.722C53.1376 139.722 50.2607 142.874 50.2607 147.528C50.2607 152.31 53.0983 155.295 57.7427 155.295ZM54.3944 145.937C54.4828 144.219 55.7887 142.844 57.6445 142.844C59.461 142.844 60.7178 144.14 60.7276 145.937H54.3944ZM74.2679 155.295C77.9991 155.295 80.5127 153.478 81.1018 150.68L77.2332 150.424C76.811 151.573 75.7309 152.172 74.3366 152.172C72.2452 152.172 70.9196 150.788 70.9196 148.539V148.529H81.1902V147.381C81.1902 142.255 78.0874 139.722 74.101 139.722C69.6628 139.722 66.7859 142.874 66.7859 147.528C66.7859 152.31 69.6235 155.295 74.2679 155.295ZM70.9196 145.937C71.008 144.219 72.3139 142.844 74.1697 142.844C75.9862 142.844 77.243 144.14 77.2528 145.937H70.9196ZM89.4773 155.245C91.9124 155.245 93.1791 153.841 93.7584 152.585H93.9351V155H98.0591V134.891H93.886V142.451H93.7584C93.1987 141.224 91.991 139.722 89.4675 139.722C86.1586 139.722 83.3602 142.294 83.3602 147.479C83.3602 152.526 86.0407 155.245 89.4773 155.245ZM90.8029 151.917C88.7507 151.917 87.6314 150.091 87.6314 147.459C87.6314 144.847 88.7311 143.05 90.8029 143.05C92.8354 143.05 93.9744 144.769 93.9744 147.459C93.9744 150.149 92.8158 151.917 90.8029 151.917ZM114.047 144.219C113.674 141.44 111.435 139.722 107.625 139.722C103.766 139.722 101.223 141.509 101.233 144.415C101.223 146.674 102.647 148.137 105.593 148.726L108.204 149.246C109.52 149.511 110.119 149.992 110.139 150.748C110.119 151.642 109.147 152.28 107.684 152.28C106.192 152.28 105.2 151.642 104.945 150.415L100.83 150.631C101.223 153.517 103.678 155.295 107.674 155.295C111.582 155.295 114.381 153.301 114.39 150.326C114.381 148.146 112.957 146.841 110.031 146.242L107.301 145.692C105.897 145.387 105.377 144.906 105.386 144.18C105.377 143.276 106.398 142.687 107.694 142.687C109.147 142.687 110.011 143.482 110.217 144.455L114.047 144.219Z" fill="white"/>
<rect x="32" y="281" width="124" height="48" rx="24" fill="#FFDC30"/>
<path d="M68.3426 310H70.3923V305.995H74.3354V304.305H70.3923V301.995H74.7614V300.305H68.3426V310ZM76.1023 310H78.1188V302.729H76.1023V310ZM77.1153 301.792C77.7164 301.792 78.2087 301.333 78.2087 300.769C78.2087 300.211 77.7164 299.752 77.1153 299.752C76.5188 299.752 76.0265 300.211 76.0265 300.769C76.0265 301.333 76.5188 301.792 77.1153 301.792ZM81.7507 305.797C81.7554 304.859 82.314 304.31 83.1282 304.31C83.9377 304.31 84.4252 304.84 84.4205 305.73V310H86.437V305.37C86.437 303.676 85.443 302.634 83.9282 302.634C82.8489 302.634 82.0679 303.165 81.7412 304.012H81.656V302.729H79.7342V310H81.7507V305.797ZM90.7056 310.118C91.8796 310.118 92.4902 309.441 92.7695 308.836H92.8547V310H94.8428V300.305H92.831V303.95H92.7695C92.4997 303.359 91.9174 302.634 90.7009 302.634C89.1056 302.634 87.7565 303.875 87.7565 306.374C87.7565 308.807 89.0488 310.118 90.7056 310.118ZM91.3447 308.514C90.3553 308.514 89.8157 307.633 89.8157 306.365C89.8157 305.105 90.3458 304.239 91.3447 304.239C92.3245 304.239 92.8736 305.068 92.8736 306.365C92.8736 307.662 92.3151 308.514 91.3447 308.514ZM102.871 310.142C105.077 310.142 106.45 308.632 106.45 306.393C106.45 304.14 105.077 302.634 102.871 302.634C100.665 302.634 99.2925 304.14 99.2925 306.393C99.2925 308.632 100.665 310.142 102.871 310.142ZM102.881 308.58C101.863 308.58 101.342 307.647 101.342 306.379C101.342 305.11 101.863 304.173 102.881 304.173C103.879 304.173 104.4 305.11 104.4 306.379C104.4 307.647 103.879 308.58 102.881 308.58ZM112.424 306.904C112.428 307.879 111.761 308.391 111.037 308.391C110.275 308.391 109.782 307.856 109.778 306.999V302.729H107.761V307.359C107.766 309.058 108.76 310.095 110.223 310.095C111.316 310.095 112.102 309.531 112.428 308.679H112.504V310H114.44V302.729H112.424V306.904ZM119.921 302.729H118.553V300.987H116.536V302.729H115.542V304.244H116.536V308.031C116.527 309.456 117.497 310.161 118.96 310.099C119.48 310.08 119.85 309.976 120.053 309.91L119.736 308.409C119.637 308.428 119.424 308.476 119.234 308.476C118.832 308.476 118.553 308.324 118.553 307.766V304.244H119.921V302.729Z" fill="#3B3D3D"/>
<g clip-path="url(#clip0)">
<path d="M136.208 40H143.249C143.343 40 143.437 39.9036 143.531 39.8072L144 38.0723C144 37.9759 144 37.8795 143.906 37.7831L137.71 33.8313C137.522 33.7349 137.616 33.5422 137.804 33.5422H143.531C143.718 33.5422 143.718 33.4458 143.718 33.253L143.249 32.1928C143.155 32 143.061 32 142.967 32H136.208C136.114 32 136.02 32.0964 135.926 32.1928L135.551 33.9277C135.551 34.0241 135.551 34.1205 135.645 34.2169L141.841 38.1687C142.028 38.2651 141.935 38.4578 141.747 38.4578H135.645C135.457 38.4578 135.457 38.5542 135.457 38.747L135.926 39.8072C136.02 39.9036 136.114 40 136.208 40ZM125.224 38.3614C124.567 37.6867 124.379 36.8193 124.379 35.9518C124.379 35.0843 124.661 34.2169 125.224 33.5422C125.318 33.4458 125.412 33.4458 125.505 33.4458H129.261C129.355 33.4458 129.448 33.4458 129.542 33.5422C130.199 34.2169 130.387 35.0843 130.387 35.9518C130.387 36.8193 130.106 37.6867 129.542 38.3614C129.448 38.4578 129.355 38.4578 129.261 38.4578H125.505C125.412 38.5542 125.318 38.4578 125.224 38.3614ZM124.754 40H130.012C130.106 40 130.199 40 130.293 39.9036C131.232 39.0361 131.889 37.5904 131.889 36.0482C131.889 34.506 131.138 33.0602 130.293 32.1928C130.199 32 130.106 32 130.012 32H124.754C124.661 32 124.567 32 124.473 32.0964C123.534 32.9639 122.877 34.4096 122.877 35.9518C122.877 37.494 123.628 38.9398 124.473 39.8072C124.567 40 124.661 40 124.754 40ZM111.987 40H118.37C118.558 40 118.558 39.9036 118.558 39.8072V38.747C118.558 38.5542 118.464 38.5542 118.37 38.5542H116.211C116.023 38.5542 116.023 38.4578 116.023 38.3614V33.7349C116.023 33.5422 116.117 33.5422 116.211 33.5422H118.37C118.558 33.5422 118.558 33.4458 118.558 33.3494V32.1928C118.558 32.0964 118.464 32 118.37 32H111.987C111.799 32 111.799 32.0964 111.799 32.1928V33.253C111.799 33.4458 111.893 33.4458 111.987 33.4458H114.146C114.334 33.4458 114.334 33.5422 114.334 33.6386V38.1687C114.334 38.3614 114.24 38.3614 114.146 38.3614H111.987C111.799 38.3614 111.799 38.4578 111.799 38.5542V39.6145C111.705 39.9036 111.799 40 111.987 40ZM101.19 40H107.293C107.386 40 107.48 40 107.574 39.8072L108.044 38.747C108.137 38.5542 108.044 38.4578 107.856 38.4578H102.692C102.505 38.4578 102.505 38.3614 102.505 38.2651V32.1928C102.505 32.0964 102.411 32 102.317 32H101.19C101.003 32 101.003 32.0964 101.003 32.1928V39.7108C100.909 39.9036 101.003 40 101.19 40ZM89.4552 36.7229L90.9572 33.6386C91.0511 33.5422 91.0511 33.4458 91.2389 33.4458H92.0838C92.1777 33.4458 92.2716 33.5422 92.3655 33.6386L93.8676 36.7229C93.9614 36.9157 93.8676 37.012 93.6798 37.012H89.7368C89.4552 37.012 89.3613 36.9157 89.4552 36.7229ZM86.5448 40H87.7653C87.8592 40 87.9531 39.9036 88.0469 39.8072L88.6102 38.6506C88.7041 38.5542 88.7041 38.4578 88.8919 38.4578H94.4308C94.5247 38.4578 94.6186 38.5542 94.7125 38.6506L95.2758 39.8072C95.3697 39.9036 95.3697 40 95.5574 40H96.7779C96.9656 40 97.0595 39.9036 96.9656 39.7108L93.3982 32.1928C93.2104 32.0964 93.1165 32 93.0226 32H90.1123C90.0184 32 89.9246 32.0964 89.8307 32.1928L86.3571 39.7108C86.2632 39.9036 86.3571 40 86.5448 40ZM58.9438 40H64.9522C65.0461 40 65.14 39.9036 65.2339 39.8072L65.891 36.241C65.891 36.0482 65.891 35.9518 65.7033 35.9518H64.4828C64.3889 35.9518 64.2951 36.0482 64.2012 36.1446L63.7318 38.2651C63.7318 38.3614 63.6379 38.4578 63.4501 38.4578H59.601C59.5071 38.4578 59.4132 38.4578 59.3194 38.3614C58.6622 37.6867 58.4744 36.8193 58.4744 35.9518C58.4744 35.0843 58.7561 34.2169 59.3194 33.5422C59.4132 33.4458 59.5071 33.4458 59.601 33.4458H64.9522C65.14 33.4458 65.14 33.3494 65.14 33.1566L64.6706 32.0964C64.7645 32 64.6706 32 64.5767 32H59.0377C58.9438 32 58.85 32 58.7561 32.0964C57.8173 32.9639 57.1601 34.4096 57.1601 35.9518C57.1601 37.494 57.9111 38.9398 58.7561 39.8072C58.7561 40 58.85 40 58.9438 40ZM48.1475 40H49.368C49.5557 40 49.5557 39.9036 49.5557 39.8072V38.1687C49.5557 37.9759 49.6496 37.9759 49.7435 37.9759H50.6823C50.7762 37.9759 50.8701 37.8795 50.964 37.7831L53.5926 32.2892C53.6865 32.0964 53.5926 32 53.4049 32H52.1844C52.0905 32 51.9966 32.0964 51.9028 32.1928L49.9313 36.3373C49.8374 36.4337 49.8374 36.5301 49.6496 36.5301H47.6781C47.5842 36.5301 47.4904 36.4337 47.3965 36.3373L45.425 32.1928C45.5189 32.0964 45.425 32 45.3311 32H44.1106C43.9229 32 43.829 32.0964 43.9229 32.2892L46.4577 37.7831C46.5515 37.8795 46.5515 37.9759 46.7393 37.9759H47.6781C47.8659 37.9759 47.8659 38.0723 47.8659 38.1687V39.8072C47.8659 39.9036 47.9598 40 48.1475 40ZM33.596 36.241V33.7349C33.596 33.5422 33.6899 33.5422 33.7837 33.5422H38.0084C38.1023 33.5422 38.1961 33.5422 38.29 33.6386C38.6655 34.0241 38.8533 34.506 38.8533 34.988C38.8533 35.4699 38.6655 35.9518 38.29 36.3373C38.1961 36.4337 38.1961 36.4337 38.0084 36.4337H33.7837C33.6899 36.4337 33.596 36.3373 33.596 36.241ZM32.1878 40H33.3143C33.5021 40 33.5021 39.9036 33.5021 39.8072V38.1687C33.5021 37.9759 33.596 37.9759 33.6899 37.9759H38.7594C38.8533 37.9759 38.9472 37.9759 39.0411 37.8795C39.886 37.2048 40.4493 36.1446 40.4493 34.988C40.4493 33.8313 39.886 32.7711 39.135 32.0964C39.0411 32 38.9472 32 38.8533 32H32.1878C32.0939 32 32 32.0964 32 32.1928V39.7108C32 39.9036 32.0939 40 32.1878 40ZM70.1157 40H71.3361C71.43 40 71.5239 39.9036 71.5239 39.8072L72.6505 33.7349C72.6505 33.6386 72.7443 33.5422 72.8382 33.5422H73.026C73.1199 33.5422 73.2137 33.6386 73.3076 33.7349L74.8097 39.9036C74.8097 40 74.9036 40.0964 75.0914 40.0964H77.4384C77.5323 40.0964 77.6262 40 77.72 39.9036L79.2221 33.7349C79.2221 33.6386 79.316 33.5422 79.5038 33.5422H79.6915C79.7854 33.5422 79.8793 33.6386 79.8793 33.7349L81.0059 39.8072C81.0059 39.9036 81.0997 40 81.1936 40H82.4141C82.6018 40 82.6018 39.9036 82.6018 39.7108L81.0997 32.1928C81.0997 32.0964 81.0059 32 80.8181 32H78.0956C78.0017 32 77.9078 32.0964 77.8139 32.1928L76.2179 38.4578C76.1241 38.6506 76.0302 38.6506 75.9363 38.4578L74.3403 32.1928C74.3403 32.0964 74.2464 32 74.0587 32H71.3361C71.5239 32 71.43 32.0964 71.43 32.1928L69.9279 39.7108C69.9279 39.9036 70.0218 40 70.1157 40Z" fill="#E3D8F8"/>
</g>
<g clip-path="url(#clip1)">
<path d="M130.918 534.999H53.2922C38.3038 534.999 26 523.018 26 507.931V420.956C26 419.846 26.8948 418.737 28.2371 418.737H146.354C147.472 418.737 148.591 419.624 148.591 420.956V492.177H157.987C159.105 492.177 160.224 493.065 160.224 494.396V506.156C160 522.131 146.801 534.999 130.918 534.999ZM68.0568 530.784H130.918C144.564 530.784 155.75 519.69 155.75 506.156V496.393H80.5843V507.931C80.5843 517.471 75.6628 525.902 68.0568 530.784ZM30.2504 422.952V507.931C30.2504 520.577 40.5409 530.784 53.2922 530.784C66.0434 530.784 76.3339 520.577 76.3339 507.931V494.174C76.3339 493.065 77.2287 491.956 78.571 491.956H144.117V422.952H30.2504Z" fill="#6D43BD"/>
<path d="M63.5823 452.684H42.7776C41.6591 452.684 40.5405 451.796 40.5405 450.465V439.149C40.5405 438.04 41.4354 436.931 42.7776 436.931H63.5823C64.7008 436.931 65.8193 437.818 65.8193 439.149V450.465C65.8193 451.796 64.7008 452.684 63.5823 452.684ZM45.0147 448.468H61.3452V441.59H45.0147V448.468Z" fill="#6D43BD"/>
<path d="M98.4807 452.684H77.676C76.5575 452.684 75.439 451.796 75.439 450.465V439.149C75.439 438.04 76.3338 436.931 77.676 436.931H98.4807C99.5992 436.931 100.718 437.818 100.718 439.149V450.465C100.718 451.796 99.823 452.684 98.4807 452.684ZM79.9131 448.468H96.2436V441.59H79.9131V448.468Z" fill="#6D43BD"/>
<path d="M133.604 452.684H112.799C111.68 452.684 110.562 451.796 110.562 450.465V439.149C110.562 438.04 111.457 436.931 112.799 436.931H133.604C134.722 436.931 135.841 437.818 135.841 439.149V450.465C135.841 451.796 134.722 452.684 133.604 452.684ZM115.036 448.468H131.366V441.59H115.036V448.468Z" fill="#6D43BD"/>
<path d="M63.5823 476.425H42.7776C41.6591 476.425 40.5405 475.537 40.5405 474.206V462.891C40.5405 461.781 41.4354 460.672 42.7776 460.672H63.5823C64.7008 460.672 65.8193 461.559 65.8193 462.891V474.206C65.8193 475.537 64.7008 476.425 63.5823 476.425ZM45.0147 472.209H61.3452V465.331H45.0147V472.209Z" fill="#6D43BD"/>
<path d="M98.4807 476.425H77.676C76.5575 476.425 75.439 475.537 75.439 474.206V462.891C75.439 461.781 76.3338 460.672 77.676 460.672H98.4807C99.5992 460.672 100.718 461.559 100.718 462.891V474.206C100.718 475.537 99.823 476.425 98.4807 476.425ZM79.9131 472.209H96.2436V465.331H79.9131V472.209Z" fill="#6D43BD"/>
<path d="M133.604 476.425H112.799C111.68 476.425 110.562 475.537 110.562 474.206V462.891C110.562 461.781 111.457 460.672 112.799 460.672H133.604C134.722 460.672 135.841 461.559 135.841 462.891V474.206C135.841 475.537 134.722 476.425 133.604 476.425ZM115.036 472.209H131.366V465.331H115.036V472.209Z" fill="#6D43BD"/>
<path d="M63.5823 500.166H42.7776C41.6591 500.166 40.5405 499.279 40.5405 497.947V486.632C40.5405 485.522 41.4354 484.413 42.7776 484.413H63.5823C64.7008 484.413 65.8193 485.301 65.8193 486.632V497.947C65.8193 499.279 64.7008 500.166 63.5823 500.166ZM45.0147 495.951H61.3452V489.072H45.0147V495.951Z" fill="#6D43BD"/>
<path d="M86.4013 507.266H78.3479C77.2294 507.266 76.1108 506.378 76.1108 505.047C76.1108 503.938 77.0057 502.828 78.3479 502.828H86.4013C87.5199 502.828 88.6384 503.716 88.6384 505.047C88.6384 506.378 87.5199 507.266 86.4013 507.266Z" fill="#6D43BD"/>
<path d="M110.562 507.266H98.4815C97.3629 507.266 96.2444 506.378 96.2444 505.047C96.2444 503.938 97.1392 502.828 98.4815 502.828H110.562C111.68 502.828 112.799 503.716 112.799 505.047C112.799 506.378 111.68 507.266 110.562 507.266Z" fill="#6D43BD"/>
<path d="M130.47 507.266H122.417C121.298 507.266 120.179 506.378 120.179 505.047C120.179 503.938 121.074 502.828 122.417 502.828H130.47C131.588 502.828 132.707 503.716 132.707 505.047C132.707 506.378 131.812 507.266 130.47 507.266Z" fill="#6D43BD"/>
<path d="M146.13 422.952H28.2371C27.1185 422.952 26 422.065 26 420.734V404.315C26 403.206 26.8948 402.096 28.2371 402.096H146.354C147.472 402.096 148.591 402.984 148.591 404.315V420.734C148.367 422.065 147.472 422.952 146.13 422.952ZM30.2504 418.737H143.893V406.534H30.2504V418.737Z" fill="#6D43BD"/>
<path d="M40.3181 409.862C39.1996 409.862 38.0811 408.975 38.0811 407.644V395.219C38.0811 394.109 38.9759 393 40.3181 393C41.4366 393 42.5552 393.887 42.5552 395.219V407.866C42.5552 408.975 41.6604 409.862 40.3181 409.862Z" fill="#6D43BD"/>
<path d="M49.9355 409.862C48.817 409.862 47.6985 408.975 47.6985 407.644V395.219C47.6985 394.109 48.5933 393 49.9355 393C51.0541 393 52.1726 393.887 52.1726 395.219V407.866C52.1726 408.975 51.2778 409.862 49.9355 409.862Z" fill="#6D43BD"/>
<path d="M59.7788 409.862C58.6603 409.862 57.5417 408.975 57.5417 407.644V395.219C57.5417 394.109 58.4366 393 59.7788 393C60.8973 393 62.0159 393.887 62.0159 395.219V407.866C61.7922 408.975 60.8973 409.862 59.7788 409.862Z" fill="#6D43BD"/>
<path d="M134.052 409.862C132.933 409.862 131.814 408.975 131.814 407.644V395.219C131.814 394.109 132.709 393 134.052 393C135.17 393 136.289 393.887 136.289 395.219V407.866C136.289 408.975 135.17 409.862 134.052 409.862Z" fill="#6D43BD"/>
<path d="M124.431 409.862C123.313 409.862 122.194 408.975 122.194 407.644V395.219C122.194 394.109 123.089 393 124.431 393C125.55 393 126.668 393.887 126.668 395.219V407.866C126.445 408.975 125.55 409.862 124.431 409.862Z" fill="#6D43BD"/>
<path d="M114.587 409.862C113.468 409.862 112.35 408.975 112.35 407.644V395.219C112.35 394.109 113.244 393 114.587 393C115.705 393 116.824 393.887 116.824 395.219V407.866C116.824 408.975 115.929 409.862 114.587 409.862Z" fill="#6D43BD"/>
</g>
<path d="M250.993 427.852L236.538 422.704C236.538 422.704 239.581 449.776 243.765 452.922L245.287 453.589C247.189 454.447 247.95 455.591 247.474 456.258L247.379 456.354C247.379 456.354 244.336 455.686 241.863 455.21L242.054 456.83L232.354 457.116L233.78 449.585C233.78 449.585 219.706 412.504 224.27 409.931C228.93 407.452 248.045 412.6 248.045 412.6L250.993 427.852Z" fill="#EFAC80"/>
<path d="M159.14 510.783C159.14 510.783 158.664 512.976 159.14 515.836C159.615 518.695 172.359 585.708 172.359 585.708L165.607 586.662C165.607 586.662 143.734 524.415 142.498 520.221C141.262 516.026 139.93 510.211 144.114 505.636C148.204 501.06 159.14 510.783 159.14 510.783Z" fill="#EFAC80"/>
<path d="M155.621 587.615L163.609 577.892L171.597 581.228L169.6 583.992L160.851 588.377C160.851 588.377 157.142 589.14 156.952 589.045C156.762 589.045 155.621 587.615 155.621 587.615Z" fill="#EFAC80"/>
<path d="M155.621 587.615L153.91 589.807C153.054 590.76 154.1 592.286 155.336 591.809L172.168 586.185C172.739 585.994 173.119 585.327 172.929 584.755L171.788 581.228C161.612 588.568 157.333 588.759 155.621 587.615Z" fill="url(#paint0_linear)"/>
<path d="M183.389 362.268C183.389 362.268 187.574 359.504 192.329 362.268C197.084 365.033 197.084 374.279 195.182 376.567C193.28 378.759 195.277 381.81 191.473 384.669C187.669 387.529 181.678 388.673 178.349 385.241C174.926 381.81 177.398 374.279 177.398 374.279L183.389 362.268Z" fill="#282929"/>
<path d="M178.73 393.916L167.889 394.106C168.079 391.723 168.269 388.482 167.889 387.338C167.223 385.432 179.3 385.146 179.3 385.146C179.3 385.146 178.635 390.198 178.73 393.916Z" fill="#EFAC80"/>
<path d="M166.938 588.092L176.163 582.277L184.151 587.043L181.393 589.045L171.693 590.475C171.693 590.475 167.889 589.998 167.699 589.903C167.604 589.807 166.938 588.092 166.938 588.092Z" fill="#EFAC80"/>
<path d="M189.191 504.397C189.191 504.397 187.86 536.33 187.765 541.859C187.67 547.388 184.817 588.282 183.58 591.904L176.733 591.428C176.733 591.428 172.074 512.118 173.5 504.397C175.022 496.675 189.191 504.397 189.191 504.397Z" fill="#EFAC80"/>
<path d="M203.835 478.278C206.213 477.801 206.784 479.327 209.161 478.85L208.59 482.472C208.876 483.235 209.636 485.141 209.636 485.141C212.299 492.863 212.109 492.005 211.919 492.195C211.634 492.386 209.636 489.526 209.446 489.717C209.256 490.003 210.587 494.579 210.207 494.483C209.827 494.388 208.02 490.289 207.83 490.384C207.639 490.575 208.971 494.96 208.4 495.15C207.83 495.341 206.403 490.384 206.023 490.766C205.642 491.052 207.069 496.008 206.498 496.104C206.023 496.104 204.216 490.67 203.645 488.859C203.55 488.668 203.265 488.573 203.17 488.764C200.887 491.623 200.507 491.719 200.317 491.433C200.127 491.242 201.268 488.096 202.219 485.141L203.455 481.519L203.835 478.278Z" fill="#EFAC80"/>
<path d="M166.938 588.091L164.56 589.617C163.514 590.284 163.99 592 165.226 592H183.01C183.675 592 184.151 591.523 184.151 590.856V587.138C172.359 590.856 168.269 589.712 166.938 588.091Z" fill="url(#paint1_linear)"/>
<path d="M159.615 393.916C159.615 393.916 135.555 401.065 124.619 423.18C123.573 425.373 123.858 427.851 125.38 429.757C128.708 433.856 136.126 440.91 150.01 445.867C150.01 445.867 152.578 445.009 152.958 441.578C152.958 441.578 139.74 429.472 136.316 426.707L154.86 412.122L159.615 393.916Z" fill="url(#paint2_linear)"/>
<path d="M156.382 445.868L152.863 442.055L150.01 445.868C150.01 445.868 150.391 456.449 150.01 459.499C150.01 459.499 150.961 460.071 151.247 459.499C151.532 458.927 156.382 445.868 156.382 445.868Z" fill="#EFAC80"/>
<path d="M184.625 504.397L178.92 525.464C165.796 525.464 146.206 524.224 136.506 517.742C136.506 517.742 149.249 458.546 157.618 443.675L186.623 442.055C186.623 442.055 206.688 470.08 192.043 525.082C192.043 525.082 189.571 525.273 185.481 525.368L184.625 504.397Z" fill="url(#paint3_linear)"/>
<path d="M179.111 393.63C179.111 393.63 190.998 392.295 194.707 396.966C198.511 401.637 211.159 433.856 211.92 449.204C212.68 464.551 208.876 482.758 208.876 482.758C208.876 482.758 204.692 483.044 202.79 482.758C200.888 482.472 203.266 453.017 201.173 448.25C199.176 443.484 190.047 420.511 189.476 418.414L187.194 430.425C186.814 432.617 187.004 434.905 187.765 437.002C189.667 442.15 193.375 452.159 194.897 455.781C194.897 455.781 166.368 460.357 152.388 453.398L156.953 434.142C156.953 434.142 147.538 393.534 160.947 393.916L179.111 393.63Z" fill="url(#paint4_linear)"/>
<path d="M159.901 373.421C160.471 375.041 159.901 376.757 158.665 377.234C157.333 377.71 155.812 376.757 155.241 375.137C154.671 373.516 155.241 371.8 156.477 371.324C157.714 370.847 159.33 371.8 159.901 373.421Z" fill="#D29369"/>
<path d="M179.3 385.241C179.3 385.241 179.015 387.243 178.825 389.721C176.638 391.533 173.785 392.391 170.837 392.009C169.886 391.914 168.935 391.628 168.079 391.247C168.174 389.626 168.079 388.196 167.889 387.529C167.223 385.527 179.3 385.241 179.3 385.241Z" fill="#D29369"/>
<path d="M159.996 382.858C159.616 382.191 159.331 381.428 159.045 380.666C158.38 378.568 157.999 376.376 157.904 374.469C157.904 374.088 157.809 373.612 157.809 373.23C157.619 371.61 157.619 369.799 158.094 368.083C159.521 362.363 164.656 358.169 170.552 357.978C178.445 357.692 184.817 364.174 184.532 371.896C185.387 371.419 186.338 371.419 187.194 371.8C188.716 372.563 189.286 374.755 188.335 376.757C187.385 378.759 185.292 379.712 183.771 378.95C183.581 378.854 183.39 378.664 183.2 378.568C182.344 385.146 176.734 390.007 170.267 389.721C167.129 389.531 164.276 388.196 162.184 386.004C162.088 385.908 161.898 385.718 161.708 385.527C161.042 384.574 160.472 383.811 159.996 382.858Z" fill="#EFAC80"/>
<path d="M181.297 393.439L184.626 398.301L180.441 399.73L182.533 404.306L170.361 409.072L172.073 398.968L181.297 393.439Z" fill="url(#paint5_linear)"/>
<path d="M164.75 393.82L159.615 397.824L162.563 399.826L160.09 403.448L170.361 409.072C170.361 409.072 169.79 406.403 169.79 406.117C169.79 405.736 171.122 404.306 171.122 404.02C171.027 403.734 164.75 393.82 164.75 393.82Z" fill="url(#paint6_linear)"/>
<path d="M181.297 393.439C181.297 393.439 172.263 404.973 170.266 409.072C170.266 409.072 164.94 402.113 164.75 393.725L181.297 393.439Z" fill="#EFAC80"/>
<path d="M170.361 409.072C170.076 413.076 169.98 417.08 169.885 421.083C169.79 423.085 169.79 425.087 169.79 427.089C169.79 429.09 169.79 431.092 169.79 433.094C169.79 434.047 169.79 435.096 169.79 436.049C169.79 437.002 169.79 438.051 169.885 439.004C169.98 441.006 169.98 443.008 170.171 445.01C170.361 449.013 170.646 453.017 171.217 456.925L171.122 455.4L171.027 453.875C170.931 452.921 170.931 451.873 170.836 450.92V450.157V449.394L170.741 447.869L170.646 446.344V444.819C170.551 440.815 170.456 436.812 170.456 432.808C170.456 428.804 170.361 424.801 170.361 420.797V409.072Z" fill="url(#paint7_linear)"/>
<path d="M189.571 418.224C189.381 417.556 189.286 416.984 189.096 416.317C189.001 415.65 188.906 415.078 188.81 414.411C188.62 413.076 188.62 411.837 188.525 410.502V409.549V408.596C188.525 407.929 188.525 407.261 188.525 406.689C188.525 406.403 188.525 406.022 188.525 405.736L188.62 404.783C188.62 404.116 188.715 403.448 188.715 402.876C188.62 403.544 188.525 404.211 188.43 404.783C188.335 405.45 188.24 406.117 188.24 406.689L188.145 407.643C188.145 407.929 188.145 408.31 188.145 408.596V409.549V410.502C188.145 411.837 188.24 413.076 188.525 414.411C188.62 414.697 188.62 415.078 188.715 415.364C188.81 415.65 188.81 416.031 188.906 416.317C189.096 416.984 189.286 417.652 189.571 418.224Z" fill="url(#paint8_linear)"/>
<path d="M158.569 361.029C161.041 352.45 172.358 352.164 172.358 352.164C189.856 353.403 187.098 368.845 186.528 371.324C186.052 371.228 185.291 371.228 184.435 371.705C184.055 371.896 183.77 372.086 183.579 372.277C181.487 371.61 180.917 368.178 179.776 366.558C178.349 364.27 171.978 365.509 169.505 363.888C167.032 362.268 166.842 359.79 166.842 359.79C157.523 361.315 157.618 371.228 157.618 371.228C157.237 371.133 156.667 371.228 156.667 371.228C156.667 371.228 156.381 368.75 158.569 361.029Z" fill="#282929"/>
<path d="M280.664 576.939L280.474 582.754L273.436 587.901C273.436 587.901 270.108 583.421 270.203 582.754C270.298 582.086 270.203 572.077 270.203 572.077C270.203 572.077 278.286 575.128 278.572 575.128C278.952 575.128 280.664 576.939 280.664 576.939Z" fill="#F7BEBC"/>
<path d="M246.238 582.658V575.509L238.059 573.221L236.252 574.079L235.967 582.658L238.535 590.189L246.238 582.658Z" fill="#F7BEBC"/>
<path d="M257.84 472.749L268.206 577.892C272.295 577.701 276.48 577.415 280.759 576.939C281.235 556.73 282.661 496.485 282.376 472.273C282.09 443.008 273.341 438.718 273.341 438.718L258.411 434.81L238.06 438.432C244.432 463.121 257.84 472.749 257.84 472.749Z" fill="#282929"/>
<path d="M234.446 576.653C237.489 577.034 241.768 577.416 246.809 577.702L257.65 456.163L258.791 436.812C258.791 436.812 242.149 428.805 236.633 438.337C231.117 447.87 231.308 462.073 231.308 462.073C231.308 462.073 231.973 551.583 234.446 576.653Z" fill="#282929"/>
<path d="M246.238 582.658V590.57C246.238 591.237 245.668 591.714 245.097 591.714H226.553C225.221 591.714 224.651 589.998 225.792 589.236L235.968 582.563C235.968 582.658 240.247 585.709 246.238 582.658Z" fill="#282929"/>
<path d="M280.474 582.658V590.57C280.474 591.237 279.903 591.714 279.333 591.714H260.788C259.457 591.714 258.886 589.998 260.028 589.236L270.203 582.563C270.203 582.658 274.578 585.709 280.474 582.658Z" fill="#282929"/>
<path d="M305.104 410.026C305.104 410.026 311.666 419.368 310.905 421.369C310.144 423.371 277.525 449.967 277.525 449.967C277.525 449.967 276.669 457.116 272.865 459.023L268.111 450.539L295.118 420.512L293.026 417.461L305.104 410.026Z" fill="#F7BEBC"/>
<path d="M237.965 376.662C237.965 376.662 235.017 377.52 230.642 384.193C226.268 390.865 222.464 409.358 222.464 409.358L236.253 418.795L245.287 396.49L237.965 376.662Z" fill="#34B5A8"/>
<path d="M260.883 366.272L262.309 377.52L251.183 377.139L251.563 364.27L260.883 366.272Z" fill="#F7BEBC"/>
<path opacity="0.6" d="M251.373 370.18L251.563 364.27L261.073 367.32L261.359 369.513C259.171 370.371 255.177 371.324 251.373 370.18Z" fill="#F18C86"/>
<path d="M242.624 345.3L242.814 353.022L244.145 353.689L245.286 344.061L242.624 345.3Z" fill="#ED6D19"/>
<path d="M245.002 351.973C245.573 353.689 244.907 355.405 243.481 355.882C242.149 356.358 240.533 355.31 240.057 353.594C239.486 351.878 240.152 350.162 241.579 349.686C243.005 349.304 244.527 350.257 245.002 351.973Z" fill="#F39794"/>
<path d="M244.717 361.696C244.336 360.933 244.051 360.171 243.861 359.313C243.195 357.12 243.005 354.833 243.005 352.831C243.005 352.45 243.005 351.973 242.91 351.592C242.72 349.876 242.91 348.065 243.481 346.253C245.192 340.439 250.708 336.435 256.699 336.435C264.878 336.435 271.059 343.394 270.393 351.306C271.249 350.924 272.295 350.829 273.056 351.306C274.673 352.164 275.053 354.451 274.007 356.453C272.961 358.455 270.774 359.313 269.252 358.455C269.062 358.36 268.872 358.169 268.682 357.978C267.445 364.651 261.549 369.417 254.892 368.845C251.659 368.559 248.806 367.034 246.809 364.651C246.714 364.556 246.524 364.365 246.333 364.174C245.763 363.507 245.192 362.649 244.717 361.696Z" fill="#F7BEBC"/>
<path d="M258.03 351.591C257.935 352.259 258.411 352.831 259.076 352.926C259.742 353.021 260.313 352.545 260.408 351.877C260.503 351.21 260.027 350.638 259.362 350.543C258.696 350.448 258.03 350.924 258.03 351.591Z" fill="#343434"/>
<path d="M247.664 351.306C247.569 351.973 248.045 352.545 248.71 352.64C249.376 352.736 249.947 352.259 250.042 351.592C250.137 350.925 249.661 350.353 248.996 350.257C248.33 350.162 247.664 350.639 247.664 351.306Z" fill="#343434"/>
<path d="M256.794 349.114C257.365 348.923 258.031 348.828 258.601 348.732C259.172 348.637 259.742 348.637 260.313 348.732C260.884 348.828 261.359 348.923 261.93 349.209L262.12 349.304C262.215 349.304 262.215 349.4 262.31 349.4L262.691 349.59C262.976 349.781 263.166 349.876 263.451 350.067C263.261 349.781 263.166 349.495 262.881 349.304C262.691 349.114 262.405 348.828 262.12 348.637C261.644 348.256 260.979 347.97 260.313 347.874C259.647 347.779 258.982 347.874 258.316 348.065C257.745 348.256 257.175 348.637 256.794 349.114Z" fill="#ED6D19"/>
<path d="M251.944 348.923C251.564 348.351 250.993 347.97 250.422 347.684C249.852 347.398 249.186 347.302 248.52 347.302C247.855 347.302 247.189 347.493 246.618 347.874C246.333 348.065 246.048 348.255 245.858 348.446C245.668 348.637 245.477 348.923 245.287 349.209C245.572 349.113 245.858 348.923 246.143 348.827L246.523 348.637C246.618 348.637 246.618 348.541 246.714 348.541L246.904 348.446C247.474 348.255 248.045 348.16 248.52 348.065C249.091 348.065 249.662 348.065 250.232 348.255C250.803 348.446 251.373 348.637 251.944 348.923Z" fill="#ED6D19"/>
<path d="M242.054 336.054C242.054 336.054 237.965 335.768 242.625 332.718C247.285 329.667 259.362 326.808 266.304 331.479C266.304 331.479 268.111 328.428 270.203 329.477C272.296 330.43 268.492 332.241 268.492 332.241C268.492 332.241 271.249 332.432 271.915 333.862C272.391 334.91 270.774 334.815 269.823 334.624C271.345 335.006 276.099 338.628 271.915 350.353C270.869 349.971 263.356 341.678 263.356 341.678C263.356 341.678 250.994 347.398 252.896 343.68C252.896 343.68 238.346 349.209 241.198 341.964C241.294 341.964 235.683 341.869 242.054 336.054Z" fill="#ED6D19"/>
<path d="M223.035 407.547L236.729 416.603C237.205 416.889 237.395 417.461 237.11 418.033L235.112 422.418C234.827 423.085 233.971 423.276 233.401 422.895L219.516 413.743C219.041 413.457 218.851 412.79 219.136 412.314L221.323 408.024C221.609 407.357 222.369 407.166 223.035 407.547Z" fill="#0DAB96"/>
<path d="M274.292 374.851C271.534 373.23 268.491 372.182 265.258 371.705C263.356 373.326 257.365 373.326 254.131 373.421C249.186 373.612 248.616 373.802 246.619 372.944C242.149 374.66 234.351 377.52 234.256 380.189C232.069 439.004 236.633 438.527 236.633 438.527C242.815 441.292 268.967 439.767 273.151 438.527C277.335 437.288 280.474 409.072 280.474 409.072L293.122 421.083C297.496 416.889 306.245 411.36 306.245 411.36C306.245 411.36 287.321 382.572 274.292 374.851Z" fill="#46B9B5"/>
<path d="M266.684 385.718C267.254 386.672 267.73 387.72 268.301 388.673L269.917 391.628C270.488 392.582 271.058 393.63 271.534 394.583C272.104 395.537 272.675 396.585 273.246 397.538C273.816 398.492 274.387 399.445 274.957 400.494C275.243 400.97 275.528 401.447 275.813 401.923L276.764 403.353L277.62 404.783C277.81 405.069 277.905 405.26 278.096 405.546L278.571 406.213L279.047 406.88L279.237 407.262L279.427 407.643C279.712 408.119 280.093 408.596 280.378 409.073C278.951 407.357 277.62 405.45 276.384 403.544C275.148 401.637 274.006 399.731 272.865 397.729C271.724 395.727 270.678 393.821 269.632 391.819C268.681 389.817 267.635 387.815 266.684 385.718Z" fill="white"/>
<path d="M245.858 373.23L251.373 370.847L253.941 373.23L261.359 369.989L265.258 371.705L258.03 377.425L253.941 373.707L251.183 377.139L245.858 373.23Z" fill="#34B5A8"/>
<path opacity="0.5" d="M275.718 461.12C274.291 461.692 272.96 462.264 271.629 462.835C270.297 463.407 268.966 464.075 267.635 464.742C266.303 465.409 264.972 466.077 263.641 466.839C262.309 467.506 260.978 468.269 259.742 469.032L259.646 468.746C260.597 468.555 261.643 468.364 262.594 468.269C263.545 468.174 264.591 468.078 265.542 468.078C266.493 468.078 267.54 468.174 268.491 468.269L269.251 468.364L270.012 468.46L270.392 468.555L270.773 468.65L271.534 468.841L270.773 468.65L270.392 468.555L270.012 468.46L269.251 468.364L268.491 468.269C268.205 468.269 268.015 468.269 267.73 468.174C267.444 468.174 267.254 468.174 266.969 468.174H266.208C265.923 468.174 265.733 468.174 265.447 468.174C264.496 468.174 263.45 468.269 262.499 468.364C261.548 468.46 260.597 468.65 259.646 468.841L258.791 469.032L259.551 468.555C260.883 467.792 262.119 467.03 263.45 466.362C264.782 465.695 266.113 465.028 267.444 464.361C268.776 463.693 270.202 463.121 271.534 462.549C272.199 462.264 272.96 461.978 273.626 461.692C274.291 461.501 275.052 461.31 275.718 461.12Z" fill="#DAEEF7"/>
<path opacity="0.5" d="M236.633 460.453C237.299 460.643 238.06 460.929 238.725 461.215C239.391 461.501 240.152 461.787 240.818 462.073C242.149 462.645 243.575 463.312 244.907 463.884C246.238 464.552 247.57 465.219 248.901 465.886C250.232 466.553 251.564 467.316 252.8 468.079L253.561 468.555L252.705 468.365C251.754 468.174 250.803 467.983 249.852 467.888C248.901 467.793 247.855 467.697 246.904 467.697C246.619 467.697 246.428 467.697 246.143 467.697H245.382C245.097 467.697 244.907 467.697 244.622 467.697C244.336 467.697 244.146 467.697 243.861 467.793L243.1 467.888L242.339 467.983L241.959 468.079L241.578 468.174L240.818 468.365L241.578 468.174L241.959 468.079L242.339 467.983L243.1 467.888L243.861 467.793C244.812 467.697 245.858 467.602 246.809 467.602C247.76 467.602 248.806 467.602 249.757 467.793C250.708 467.888 251.754 468.079 252.705 468.269L252.61 468.555C251.278 467.793 250.042 467.125 248.711 466.363C247.379 465.695 246.048 464.933 244.717 464.266C243.385 463.598 242.054 462.931 240.723 462.359C239.391 461.597 237.965 461.025 236.633 460.453Z" fill="#DAEEF7"/>
<path opacity="0.5" d="M239.582 443.58C240.818 443.771 242.054 443.961 243.196 444.152C244.432 444.343 245.668 444.438 246.904 444.533C249.377 444.819 251.849 444.915 254.227 445.01C255.463 445.01 256.699 445.01 257.936 445.01C259.172 445.01 260.408 444.915 261.645 444.819C262.881 444.724 264.117 444.533 265.258 444.343C266.495 444.152 267.636 443.866 268.872 443.58C267.731 443.961 266.495 444.247 265.258 444.438C264.022 444.629 262.786 444.819 261.645 444.915C260.408 445.01 259.172 445.105 257.936 445.105C256.699 445.105 255.463 445.105 254.227 445.105C251.754 445.01 249.282 444.915 246.904 444.629C245.668 444.533 244.432 444.343 243.291 444.152C242.054 444.057 240.818 443.866 239.582 443.58Z" fill="#DAEEF7"/>
<path d="M263.451 341.678C263.451 341.678 267.065 349.876 266.494 354.356C266.494 354.356 269.062 350.734 272.39 351.115C272.39 351.115 274.578 343.775 273.341 338.818L265.638 339.295L263.451 341.678Z" fill="#ED6D19"/>
<g opacity="0.5">
<path opacity="0.5" d="M266.684 447.393C266.779 447.584 266.779 447.679 266.874 447.774L267.064 448.156L267.54 449.014L268.301 450.348L270.298 453.97C270.583 454.542 273.246 459.309 273.911 460.452C273.151 459.499 272.2 458.546 271.534 457.402C271.249 456.83 270.868 456.354 270.583 455.782C270.298 455.21 270.012 454.638 269.727 454.161C269.156 453.017 268.586 451.873 268.11 450.729C267.825 450.157 267.635 449.586 267.35 449.014C267.254 448.728 267.159 448.442 266.969 448.156C266.874 447.965 266.779 447.679 266.684 447.393Z" fill="#DAEEF7"/>
</g>
<path d="M263.356 373.135C262.69 373.612 262.119 374.088 261.549 374.565L259.742 375.995L258.03 377.329C257.364 376.662 256.794 375.995 256.128 375.423C255.462 374.756 254.797 374.088 254.131 373.326L253.941 373.135L253.751 373.326C253.275 373.898 252.895 374.565 252.419 375.137C252.039 375.709 251.563 376.281 251.183 376.757C250.327 376.185 249.471 375.518 248.615 374.946L247.284 373.993C246.809 373.707 246.333 373.421 245.953 373.04C246.428 373.421 246.809 373.707 247.284 374.088L248.615 375.137C249.471 375.804 250.327 376.471 251.278 377.139L251.373 377.234L251.468 377.139C251.944 376.567 252.419 375.995 252.8 375.328C253.18 374.851 253.656 374.279 254.036 373.707C254.702 374.374 255.272 374.946 255.938 375.613C256.604 376.281 257.269 376.948 258.03 377.711L258.125 377.806L258.315 377.711L260.122 376.185L261.929 374.66C262.5 374.184 263.07 373.612 263.736 373.135C264.307 372.658 264.877 372.086 265.448 371.61C264.592 372.182 264.021 372.658 263.356 373.135Z" fill="white"/>
<path d="M253.751 373.421C253.561 376.185 253.275 378.95 253.18 381.714C252.99 384.479 252.8 387.243 252.705 390.007C252.61 391.437 252.61 392.772 252.515 394.202L252.419 396.299L252.324 398.396C252.229 401.16 252.134 403.925 252.134 406.689C252.039 412.218 252.039 417.842 252.229 423.371C252.324 426.135 252.419 428.9 252.61 431.664L252.705 433.761C252.705 434.143 252.705 434.429 252.8 434.81L252.895 435.858C252.99 437.288 253.18 438.623 253.275 440.053C252.99 437.288 252.61 434.524 252.419 431.759C252.134 428.995 252.039 426.231 251.944 423.466C251.944 422.036 251.849 420.702 251.849 419.272C251.849 418.605 251.849 417.842 251.849 417.175V415.078V412.981V411.932V410.883V406.689C251.944 403.925 251.944 401.16 252.134 398.396L252.229 396.299L252.324 394.202C252.419 392.772 252.419 391.437 252.515 390.007C252.705 387.243 252.895 384.479 253.085 381.714L253.275 379.617L253.466 377.52C253.466 376.185 253.561 374.755 253.751 373.421Z" fill="white"/>
<path d="M256.604 392.391H266.114L265.734 399.635C265.639 401.065 264.973 402.304 263.737 403.067L263.356 403.353C261.835 404.401 259.743 404.306 258.316 403.162C257.27 402.304 256.604 401.065 256.604 399.635V392.391Z" fill="#34B5A8"/>
<path d="M288.462 416.126L301.68 405.831C302.346 405.354 303.202 405.45 303.678 406.117L306.816 410.311C307.291 410.883 307.196 411.837 306.53 412.313L293.502 422.227C292.931 422.704 292.076 422.608 291.6 422.036L288.272 418.223C287.701 417.556 287.796 416.603 288.462 416.126Z" fill="#34B5A8"/>
<path d="M280.664 576.939L280.474 582.754L273.436 587.901C273.436 587.901 270.108 583.421 270.203 582.754C270.298 582.086 270.203 572.077 270.203 572.077C270.203 572.077 278.286 575.128 278.572 575.128C278.952 575.128 280.664 576.939 280.664 576.939Z" fill="#EFAC80"/>
<path d="M246.238 582.658V575.509L238.059 573.221L236.252 574.079L235.967 582.658L238.535 590.189L246.238 582.658Z" fill="#EFAC80"/>
<path d="M257.84 472.749L268.206 577.892C272.295 577.701 276.48 577.415 280.759 576.939C281.235 556.73 282.661 496.485 282.376 472.273C282.09 443.008 273.341 438.718 273.341 438.718L258.411 434.81L238.06 438.432C244.432 463.121 257.84 472.749 257.84 472.749Z" fill="url(#paint9_linear)"/>
<path d="M234.446 576.653C237.489 577.034 241.768 577.416 246.809 577.702L257.65 456.163L258.791 436.812C258.791 436.812 242.149 428.805 236.633 438.337C231.117 447.87 231.308 462.073 231.308 462.073C231.308 462.073 231.973 551.583 234.446 576.653Z" fill="url(#paint10_linear)"/>
<path d="M246.238 582.658V590.57C246.238 591.237 245.668 591.714 245.097 591.714H226.553C225.221 591.714 224.651 589.998 225.792 589.236L235.968 582.563C235.968 582.658 240.247 585.709 246.238 582.658Z" fill="url(#paint11_linear)"/>
<path d="M280.474 582.658V590.57C280.474 591.237 279.903 591.714 279.333 591.714H260.788C259.457 591.714 258.886 589.998 260.028 589.236L270.203 582.563C270.203 582.658 274.578 585.709 280.474 582.658Z" fill="url(#paint12_linear)"/>
<path d="M305.104 410.026C305.104 410.026 311.666 419.368 310.905 421.369C310.144 423.371 277.525 449.967 277.525 449.967C277.525 449.967 276.669 457.116 272.865 459.023L268.111 450.539L295.118 420.512L293.026 417.461L305.104 410.026Z" fill="#EFAC80"/>
<path d="M237.965 376.662C237.965 376.662 235.017 377.52 230.642 384.193C226.268 390.865 222.464 409.358 222.464 409.358L236.253 418.795L245.287 396.49L237.965 376.662Z" fill="url(#paint13_linear)"/>
<path d="M260.883 366.272L262.309 377.52L251.183 377.139L251.563 364.27L260.883 366.272Z" fill="#EFAC80"/>
<path opacity="0.6" d="M251.373 370.18L251.563 364.27L261.073 367.32L261.359 369.513C259.171 370.371 255.177 371.324 251.373 370.18Z" fill="#D29369"/>
<path d="M242.624 345.3L242.814 353.022L244.145 353.689L245.286 344.061L242.624 345.3Z" fill="#282929"/>
<path d="M245.002 351.973C245.573 353.689 244.907 355.405 243.481 355.882C242.149 356.358 240.533 355.31 240.057 353.594C239.486 351.878 240.152 350.162 241.579 349.686C243.005 349.304 244.527 350.257 245.002 351.973Z" fill="#D29369"/>
<path d="M244.717 361.696C244.336 360.933 244.051 360.171 243.861 359.313C243.195 357.12 243.005 354.833 243.005 352.831C243.005 352.45 243.005 351.973 242.91 351.592C242.72 349.876 242.91 348.065 243.481 346.253C245.192 340.439 250.708 336.435 256.699 336.435C264.878 336.435 271.059 343.394 270.393 351.306C271.249 350.924 272.295 350.829 273.056 351.306C274.673 352.164 275.053 354.451 274.007 356.453C272.961 358.455 270.774 359.313 269.252 358.455C269.062 358.36 268.872 358.169 268.682 357.978C267.445 364.651 261.549 369.417 254.892 368.845C251.659 368.559 248.806 367.034 246.809 364.651C246.714 364.556 246.524 364.365 246.333 364.174C245.763 363.507 245.192 362.649 244.717 361.696Z" fill="#EFAC80"/>
<path d="M242.054 336.054C242.054 336.054 237.965 335.768 242.625 332.718C247.285 329.667 259.362 326.808 266.304 331.479C266.304 331.479 268.111 328.428 270.203 329.477C272.296 330.43 268.492 332.241 268.492 332.241C268.492 332.241 271.249 332.432 271.915 333.862C272.391 334.91 270.774 334.815 269.823 334.624C271.345 335.006 276.099 338.628 271.915 350.353C270.869 349.971 263.356 341.678 263.356 341.678C263.356 341.678 250.994 347.398 252.896 343.68C252.896 343.68 238.346 349.209 241.198 341.964C241.294 341.964 235.683 341.869 242.054 336.054Z" fill="#282929"/>
<path d="M223.035 407.547L236.729 416.603C237.205 416.889 237.395 417.461 237.11 418.033L235.112 422.418C234.827 423.085 233.971 423.276 233.401 422.895L219.516 413.743C219.041 413.457 218.851 412.79 219.136 412.314L221.323 408.024C221.609 407.357 222.369 407.166 223.035 407.547Z" fill="url(#paint14_linear)"/>
<path d="M274.292 374.851C271.534 373.23 268.491 372.182 265.258 371.705C263.356 373.326 257.365 373.326 254.131 373.421C249.186 373.612 248.616 373.802 246.619 372.944C242.149 374.66 234.351 377.52 234.256 380.189C232.069 439.004 236.633 438.527 236.633 438.527C242.815 441.292 268.967 439.767 273.151 438.527C277.335 437.288 280.474 409.072 280.474 409.072L293.122 421.083C297.496 416.889 306.245 411.36 306.245 411.36C306.245 411.36 287.321 382.572 274.292 374.851Z" fill="url(#paint15_linear)"/>
<path d="M266.684 385.718C267.254 386.672 267.73 387.72 268.301 388.673L269.917 391.628C270.488 392.582 271.058 393.63 271.534 394.583C272.104 395.537 272.675 396.585 273.246 397.538C273.816 398.492 274.387 399.445 274.957 400.494C275.243 400.97 275.528 401.447 275.813 401.923L276.764 403.353L277.62 404.783C277.81 405.069 277.905 405.26 278.096 405.546L278.571 406.213L279.047 406.88L279.237 407.262L279.427 407.643C279.712 408.119 280.093 408.596 280.378 409.073C278.951 407.357 277.62 405.45 276.384 403.544C275.148 401.637 274.006 399.731 272.865 397.729C271.724 395.727 270.678 393.821 269.632 391.819C268.681 389.817 267.635 387.815 266.684 385.718Z" fill="url(#paint16_linear)"/>
<path d="M245.858 373.23L251.373 370.847L253.941 373.23L261.359 369.989L265.258 371.705L258.03 377.425L253.941 373.707L251.183 377.139L245.858 373.23Z" fill="url(#paint17_linear)"/>
<path opacity="0.5" d="M275.718 461.12C274.291 461.692 272.96 462.264 271.629 462.835C270.297 463.407 268.966 464.075 267.635 464.742C266.303 465.409 264.972 466.077 263.641 466.839C262.309 467.506 260.978 468.269 259.742 469.032L259.646 468.746C260.597 468.555 261.643 468.364 262.594 468.269C263.545 468.174 264.591 468.078 265.542 468.078C266.493 468.078 267.54 468.174 268.491 468.269L269.251 468.364L270.012 468.46L270.392 468.555L270.773 468.65L271.534 468.841L270.773 468.65L270.392 468.555L270.012 468.46L269.251 468.364L268.491 468.269C268.205 468.269 268.015 468.269 267.73 468.174C267.444 468.174 267.254 468.174 266.969 468.174H266.208C265.923 468.174 265.733 468.174 265.447 468.174C264.496 468.174 263.45 468.269 262.499 468.364C261.548 468.46 260.597 468.65 259.646 468.841L258.791 469.032L259.551 468.555C260.883 467.792 262.119 467.03 263.45 466.362C264.782 465.695 266.113 465.028 267.444 464.361C268.776 463.693 270.202 463.121 271.534 462.549C272.199 462.264 272.96 461.978 273.626 461.692C274.291 461.501 275.052 461.31 275.718 461.12Z" fill="#2E255B"/>
<path opacity="0.5" d="M236.633 460.453C237.299 460.643 238.06 460.929 238.725 461.215C239.391 461.501 240.152 461.787 240.818 462.073C242.149 462.645 243.575 463.312 244.907 463.884C246.238 464.552 247.57 465.219 248.901 465.886C250.232 466.553 251.564 467.316 252.8 468.079L253.561 468.555L252.705 468.365C251.754 468.174 250.803 467.983 249.852 467.888C248.901 467.793 247.855 467.697 246.904 467.697C246.619 467.697 246.428 467.697 246.143 467.697H245.382C245.097 467.697 244.907 467.697 244.622 467.697C244.336 467.697 244.146 467.697 243.861 467.793L243.1 467.888L242.339 467.983L241.959 468.079L241.578 468.174L240.818 468.365L241.578 468.174L241.959 468.079L242.339 467.983L243.1 467.888L243.861 467.793C244.812 467.697 245.858 467.602 246.809 467.602C247.76 467.602 248.806 467.602 249.757 467.793C250.708 467.888 251.754 468.079 252.705 468.269L252.61 468.555C251.278 467.793 250.042 467.125 248.711 466.363C247.379 465.695 246.048 464.933 244.717 464.266C243.385 463.598 242.054 462.931 240.723 462.359C239.391 461.597 237.965 461.025 236.633 460.453Z" fill="#2E255B"/>
<path opacity="0.5" d="M239.582 443.58C240.818 443.771 242.054 443.961 243.196 444.152C244.432 444.343 245.668 444.438 246.904 444.533C249.377 444.819 251.849 444.915 254.227 445.01C255.463 445.01 256.699 445.01 257.936 445.01C259.172 445.01 260.408 444.915 261.645 444.819C262.881 444.724 264.117 444.533 265.258 444.343C266.495 444.152 267.636 443.866 268.872 443.58C267.731 443.961 266.495 444.247 265.258 444.438C264.022 444.629 262.786 444.819 261.645 444.915C260.408 445.01 259.172 445.105 257.936 445.105C256.699 445.105 255.463 445.105 254.227 445.105C251.754 445.01 249.282 444.915 246.904 444.629C245.668 444.533 244.432 444.343 243.291 444.152C242.054 444.057 240.818 443.866 239.582 443.58Z" fill="#2E255B"/>
<path d="M263.451 341.678C263.451 341.678 267.065 349.876 266.494 354.356C266.494 354.356 269.062 350.734 272.39 351.115C272.39 351.115 274.578 343.775 273.341 338.818L265.638 339.295L263.451 341.678Z" fill="#282929"/>
<path d="M266.684 447.393C266.779 447.584 266.779 447.679 266.874 447.774L267.064 448.156L267.54 449.014L268.301 450.348L270.298 453.97C270.583 454.542 273.246 459.309 273.911 460.452C273.151 459.499 272.2 458.546 271.534 457.402C271.249 456.83 270.868 456.354 270.583 455.782C270.298 455.21 270.012 454.638 269.727 454.161C269.156 453.017 268.586 451.873 268.11 450.729C267.825 450.157 267.635 449.586 267.35 449.014C267.254 448.728 267.159 448.442 266.969 448.156C266.874 447.965 266.779 447.679 266.684 447.393Z" fill="#2E255B"/>
<path d="M263.356 373.135C262.69 373.612 262.119 374.088 261.549 374.565L259.742 375.995L258.03 377.329C257.364 376.662 256.794 375.995 256.128 375.423C255.462 374.756 254.797 374.088 254.131 373.326L253.941 373.135L253.751 373.326C253.275 373.898 252.895 374.565 252.419 375.137C252.039 375.709 251.563 376.281 251.183 376.757C250.327 376.185 249.471 375.518 248.615 374.946L247.284 373.993C246.809 373.707 246.333 373.421 245.953 373.04C246.428 373.421 246.809 373.707 247.284 374.088L248.615 375.137C249.471 375.804 250.327 376.471 251.278 377.139L251.373 377.234L251.468 377.139C251.944 376.567 252.419 375.995 252.8 375.328C253.18 374.851 253.656 374.279 254.036 373.707C254.702 374.374 255.272 374.946 255.938 375.613C256.604 376.281 257.269 376.948 258.03 377.711L258.125 377.806L258.315 377.711L260.122 376.185L261.929 374.66C262.5 374.184 263.07 373.612 263.736 373.135C264.307 372.658 264.877 372.086 265.448 371.61C264.592 372.182 264.021 372.658 263.356 373.135Z" fill="url(#paint18_linear)"/>
<path d="M253.751 373.421C253.561 376.185 253.275 378.95 253.18 381.714C252.99 384.479 252.8 387.243 252.705 390.007C252.61 391.437 252.61 392.772 252.515 394.202L252.419 396.299L252.324 398.396C252.229 401.16 252.134 403.925 252.134 406.689C252.039 412.218 252.039 417.842 252.229 423.371C252.324 426.135 252.419 428.9 252.61 431.664L252.705 433.761C252.705 434.143 252.705 434.429 252.8 434.81L252.895 435.858C252.99 437.288 253.18 438.623 253.275 440.053C252.99 437.288 252.61 434.524 252.419 431.759C252.134 428.995 252.039 426.231 251.944 423.466C251.944 422.036 251.849 420.702 251.849 419.272C251.849 418.605 251.849 417.842 251.849 417.175V415.078V412.981V411.932V410.883V406.689C251.944 403.925 251.944 401.16 252.134 398.396L252.229 396.299L252.324 394.202C252.419 392.772 252.419 391.437 252.515 390.007C252.705 387.243 252.895 384.479 253.085 381.714L253.275 379.617L253.466 377.52C253.466 376.185 253.561 374.755 253.751 373.421Z" fill="url(#paint19_linear)"/>
<path d="M256.604 392.391H266.114L265.734 399.635C265.639 401.065 264.973 402.304 263.737 403.067L263.356 403.353C261.835 404.401 259.743 404.306 258.316 403.162C257.27 402.304 256.604 401.065 256.604 399.635V392.391Z" fill="url(#paint20_linear)"/>
<path d="M288.462 416.126L301.68 405.831C302.346 405.354 303.202 405.45 303.678 406.117L306.816 410.311C307.291 410.883 307.196 411.837 306.53 412.313L293.502 422.227C292.931 422.704 292.076 422.608 291.6 422.036L288.272 418.223C287.701 417.556 287.796 416.603 288.462 416.126Z" fill="url(#paint21_linear)"/>
<defs>
<linearGradient id="paint0_linear" x1="153.546" y1="586.57" x2="172.876" y2="586.57" gradientUnits="userSpaceOnUse">
<stop stop-color="#232451"/>
<stop offset="1" stop-color="#2A307B"/>
</linearGradient>
<linearGradient id="paint1_linear" x1="163.983" y1="589.53" x2="184.164" y2="589.53" gradientUnits="userSpaceOnUse">
<stop stop-color="#232451"/>
<stop offset="1" stop-color="#2A307B"/>
</linearGradient>
<linearGradient id="paint2_linear" x1="123.953" y1="419.914" x2="159.617" y2="419.914" gradientUnits="userSpaceOnUse">
<stop stop-color="#EE7065"/>
<stop offset="1" stop-color="#F2908F"/>
</linearGradient>
<linearGradient id="paint3_linear" x1="136.54" y1="483.778" x2="197.473" y2="483.778" gradientUnits="userSpaceOnUse">
<stop stop-color="#232451"/>
<stop offset="1" stop-color="#2A307B"/>
</linearGradient>
<linearGradient id="paint4_linear" x1="152.409" y1="438.105" x2="212.056" y2="438.105" gradientUnits="userSpaceOnUse">
<stop stop-color="#EE7065"/>
<stop offset="1" stop-color="#F2908F"/>
</linearGradient>
<linearGradient id="paint5_linear" x1="170.345" y1="401.283" x2="184.618" y2="401.283" gradientUnits="userSpaceOnUse">
<stop stop-color="#EE7065"/>
<stop offset="1" stop-color="#F2908F"/>
</linearGradient>
<linearGradient id="paint6_linear" x1="159.616" y1="401.448" x2="171.07" y2="401.448" gradientUnits="userSpaceOnUse">
<stop stop-color="#EE7065"/>
<stop offset="1" stop-color="#F2908F"/>
</linearGradient>
<linearGradient id="paint7_linear" x1="169.758" y1="433.097" x2="171.21" y2="433.097" gradientUnits="userSpaceOnUse">
<stop stop-color="#EE7065"/>
<stop offset="1" stop-color="#F2908F"/>
</linearGradient>
<linearGradient id="paint8_linear" x1="188.184" y1="410.496" x2="189.532" y2="410.496" gradientUnits="userSpaceOnUse">
<stop stop-color="#EE7065"/>
<stop offset="1" stop-color="#F2908F"/>
</linearGradient>
<linearGradient id="paint9_linear" x1="238.079" y1="506.344" x2="282.34" y2="506.344" gradientUnits="userSpaceOnUse">
<stop stop-color="#232451"/>
<stop offset="1" stop-color="#2A307B"/>
</linearGradient>
<linearGradient id="paint10_linear" x1="231.281" y1="505.686" x2="258.745" y2="505.686" gradientUnits="userSpaceOnUse">
<stop stop-color="#232451"/>
<stop offset="1" stop-color="#2A307B"/>
</linearGradient>
<linearGradient id="paint11_linear" x1="225.157" y1="587.236" x2="246.25" y2="587.236" gradientUnits="userSpaceOnUse">
<stop stop-color="#232451"/>
<stop offset="1" stop-color="#2A307B"/>
</linearGradient>
<linearGradient id="paint12_linear" x1="259.412" y1="587.236" x2="280.505" y2="587.236" gradientUnits="userSpaceOnUse">
<stop stop-color="#232451"/>
<stop offset="1" stop-color="#2A307B"/>
</linearGradient>
<linearGradient id="paint13_linear" x1="222.451" y1="397.693" x2="245.279" y2="397.693" gradientUnits="userSpaceOnUse">
<stop stop-color="#EE7065"/>
<stop offset="1" stop-color="#F2908F"/>
</linearGradient>
<linearGradient id="paint14_linear" x1="218.993" y1="415.233" x2="237.196" y2="415.233" gradientUnits="userSpaceOnUse">
<stop stop-color="#EE7065"/>
<stop offset="1" stop-color="#F2908F"/>
</linearGradient>
<linearGradient id="paint15_linear" x1="233.679" y1="405.862" x2="306.181" y2="405.862" gradientUnits="userSpaceOnUse">
<stop stop-color="#EE7065"/>
<stop offset="1" stop-color="#F2908F"/>
</linearGradient>
<linearGradient id="paint16_linear" x1="266.714" y1="397.393" x2="280.437" y2="397.393" gradientUnits="userSpaceOnUse">
<stop stop-color="#EE7065"/>
<stop offset="1" stop-color="#F2908F"/>
</linearGradient>
<linearGradient id="paint17_linear" x1="245.879" y1="373.692" x2="265.227" y2="373.692" gradientUnits="userSpaceOnUse">
<stop stop-color="#EE7065"/>
<stop offset="1" stop-color="#F2908F"/>
</linearGradient>
<linearGradient id="paint18_linear" x1="245.879" y1="374.829" x2="265.227" y2="374.829" gradientUnits="userSpaceOnUse">
<stop stop-color="#EE7065"/>
<stop offset="1" stop-color="#F2908F"/>
</linearGradient>
<linearGradient id="paint19_linear" x1="251.598" y1="406.713" x2="253.747" y2="406.713" gradientUnits="userSpaceOnUse">
<stop stop-color="#EE7065"/>
<stop offset="1" stop-color="#F2908F"/>
</linearGradient>
<linearGradient id="paint20_linear" x1="256.57" y1="398.231" x2="266.066" y2="398.231" gradientUnits="userSpaceOnUse">
<stop stop-color="#EE7065"/>
<stop offset="1" stop-color="#F2908F"/>
</linearGradient>
<linearGradient id="paint21_linear" x1="287.929" y1="413.933" x2="307.12" y2="413.933" gradientUnits="userSpaceOnUse">
<stop stop-color="#EE7065"/>
<stop offset="1" stop-color="#F2908F"/>
</linearGradient>
<clipPath id="clip0">
<rect width="112" height="8" fill="white" transform="translate(32 32)"/>
</clipPath>
<clipPath id="clip1">
<rect width="134" height="142" fill="white" transform="translate(26 393)"/>
</clipPath>
</defs>
</svg>
