<svg width="612" height="560" viewBox="0 0 612 560" fill="none" xmlns="http://www.w3.org/2000/svg">
<g clip-path="url(#clip0)">
<path d="M169.353 84.1097C181.555 124.967 238.59 337.06 241.539 319.349C241.539 319.349 260.28 321.038 265.473 280.737C266.007 276.673 266.392 272.16 266.605 267.175C268.956 212.949 265.665 7.16557 245.001 37.263C224.336 67.3818 226.409 86.9975 222.926 53.7128C219.421 20.4067 214.848 -12.0223 196.321 4.40611C195.274 5.34732 194.205 6.30993 193.137 7.27253C175.55 23.4443 157.835 45.5841 169.353 84.1097Z" fill="url(#paint0_linear)"/>
<path opacity="0.3" d="M169.353 84.1096C181.555 124.967 238.59 337.06 241.539 319.349C241.539 319.349 260.28 321.038 265.473 280.737C263.207 253.549 241.774 227.067 233.418 215.259C220.875 197.547 214.977 194.595 223.097 160.198C231.217 125.801 225.319 109.693 202.454 60.2371C192.133 37.926 191.128 20.1072 193.137 7.27246C175.55 23.4442 157.835 45.5841 169.353 84.1096Z" fill="url(#paint1_linear)"/>
<path d="M73.5749 200.114C108.535 237.249 204.805 309.274 234.102 316.012C240.684 317.531 243.89 315.755 242.265 309.552C242.265 309.552 213.93 20.2572 132.726 11.8718C121.849 10.7595 106.612 11.444 96.9104 17.0271C95.2435 17.9897 93.7263 19.0593 92.3373 20.193C70.5832 38.29 84.2383 77.6712 93.8332 98.8271C97.4019 106.699 103.065 113.159 107.168 120.71C110.651 127.128 111.826 135.663 102.595 134.914C94.1323 134.208 88.619 124.261 80.9901 121.48C72.3569 118.336 65.5614 122.571 59.9626 133.181C48.188 155.535 56.7785 182.274 73.5749 200.114Z" fill="url(#paint2_linear)"/>
<path opacity="0.3" d="M73.5749 200.115C108.535 237.25 204.805 309.274 234.102 316.012C230.32 307.028 225.896 297.017 220.704 285.958C189.996 220.308 131.379 233.592 153.796 185.398C176.212 137.182 173.114 89.6292 129.734 66.8262C104.048 53.3069 95.2649 33.8409 92.3587 20.1934C70.6046 38.2903 84.2597 77.6715 93.8546 98.8274C97.4233 106.699 103.086 113.159 107.189 120.711C110.672 127.128 111.848 135.663 102.616 134.914C94.1537 134.208 88.6404 124.262 81.0115 121.481C72.3782 118.336 65.5828 122.572 59.984 133.182C48.188 155.535 56.7785 182.274 73.5749 200.115Z" fill="url(#paint3_linear)"/>
<path d="M63.4673 456.338C53.0176 456.959 44.4698 449.643 44.4698 440.038V93.9931C44.4698 84.3884 53.0176 76.8801 63.4673 77.2651L556.696 95.191C564.688 95.4904 571.163 102.507 571.163 110.849V411.545C571.163 419.888 564.688 427.054 556.696 427.525L63.4673 456.338Z" fill="url(#paint4_linear)"/>
<path d="M385.035 494.65C377.15 491.912 371.252 484.874 369.606 476.232L358.131 416.594L259.981 420.252L247.907 482.393C246.219 491.099 252.993 499.827 260.793 503.035L301.865 519.913C309.494 523.058 317.721 524.298 325.863 523.571L412.644 515.763C415.187 515.528 417.217 513.432 417.517 510.758C417.816 508.062 419.589 505.046 417.175 504.212L385.035 494.65Z" fill="url(#paint5_linear)"/>
<path d="M385.996 491.013C378.111 488.297 372.234 481.366 370.568 472.831L359.114 413.941L263.357 417.556L251.283 478.906C249.595 487.505 254.061 496.126 261.861 499.27L302.891 515.934C310.519 519.036 318.725 520.277 326.867 519.549L413.563 511.848C416.106 511.613 418.136 509.56 418.435 506.907C418.734 504.255 417.196 501.752 414.781 500.918L385.996 491.013Z" fill="url(#paint6_linear)"/>
<path d="M67.3778 456.338C56.9282 456.959 48.3804 449.643 48.3804 440.038V93.9931C48.3804 84.3884 56.9282 76.8801 67.3778 77.2651L560.606 95.191C568.599 95.4904 575.074 102.507 575.074 110.849V411.545C575.074 419.888 568.599 427.054 560.606 427.525L67.3778 456.338Z" fill="url(#paint7_linear)"/>
<path d="M560.606 102.25L67.3778 85.3299C61.8004 85.1374 57.2487 89.1375 57.2487 94.2714V363.501V439.547C57.2487 444.681 61.779 448.574 67.3778 448.253L560.606 420.402C564.88 420.166 568.363 416.337 568.363 411.867V343.158V110.614C568.363 106.144 564.88 102.4 560.606 102.25Z" fill="url(#paint8_linear)"/>
<path d="M67.3779 418.861C65.1982 418.968 63.4246 417.427 63.4246 415.438V94.4633C63.4246 92.4739 65.1982 90.9123 67.3779 90.9765L560.606 107.191C562.273 107.255 563.641 108.71 563.641 110.464V391.309C563.641 393.063 562.273 394.539 560.606 394.624L67.3779 418.861Z" fill="white"/>
<path d="M228.076 126.742C228.076 121.994 223.76 118.079 218.909 117.972L107.403 115.769C102.296 115.662 97.9362 119.555 97.9362 124.454V233.976C97.9362 238.875 102.103 242.79 107.211 242.747L218.93 241.72C223.76 241.677 228.098 237.784 228.098 233.035V126.742H228.076Z" fill="#D8DEE8"/>
<path d="M376.509 129.395C376.509 124.818 373.26 121.031 368.751 120.946L265.216 118.914C260.472 118.828 256.583 122.571 256.583 127.277V232.822C256.583 237.528 260.686 241.314 265.43 241.271L368.623 240.309C373.132 240.266 376.487 236.522 376.487 231.945V129.395H376.509Z" fill="#D8DEE8"/>
<path d="M228.076 280.524C228.076 275.775 223.76 271.989 218.909 272.075L107.403 273.893C102.296 273.978 97.9362 278.021 97.9362 282.899V392.421C97.9362 397.32 102.103 401.085 107.211 400.85L218.845 395.801C223.674 395.587 228.076 391.544 228.076 386.796V280.524Z" fill="#D8DEE8"/>
<path d="M375.034 277.786C375.034 273.208 371.807 269.55 367.299 269.615L263.742 271.326C258.998 271.411 255.13 275.283 255.13 280.011V385.598C255.13 390.304 259.297 393.962 264.041 393.726L367.384 389.02C371.893 388.806 375.034 384.956 375.034 380.357V277.786Z" fill="#D8DEE8"/>
<path d="M527.122 142.914C527.122 146.893 524.087 150.059 520.326 150.016L421.557 148.711C417.603 148.668 414.526 145.31 414.526 141.224V132.112C414.526 128.026 417.603 124.774 421.557 124.86L520.39 126.742C524.151 126.807 527.122 130.101 527.122 134.058V142.914Z" fill="#D8DEE8"/>
<path d="M482.052 165.182C482.052 167.942 479.915 170.145 477.287 170.124L419.162 169.653C416.448 169.632 414.247 167.343 414.247 164.541C414.247 161.739 416.448 159.492 419.162 159.514L477.287 160.113C479.915 160.177 482.052 162.444 482.052 165.182Z" fill="#D8DEE8"/>
<path d="M482.052 184.413C482.052 187.173 479.915 189.397 477.287 189.376L419.162 189.183C416.448 189.183 414.247 186.894 414.247 184.092C414.247 181.29 416.448 179.044 419.162 179.044L477.287 179.365C479.915 179.429 482.052 181.675 482.052 184.413Z" fill="#D8DEE8"/>
<path d="M482.052 203.644C482.052 206.403 479.915 208.628 477.287 208.628L419.162 208.714C416.448 208.714 414.247 206.446 414.247 203.644C414.247 200.842 416.448 198.574 419.162 198.574L477.287 198.617C479.915 198.66 482.052 200.906 482.052 203.644Z" fill="#D8DEE8"/>
<path d="M219.293 132.861C219.293 135.128 217.156 136.925 214.87 136.882L190.979 136.519C188.65 136.476 186.406 134.615 186.406 132.326V132.155C186.406 129.888 188.521 128.069 190.851 128.112L214.763 128.518C217.071 128.561 219.315 130.422 219.315 132.69V132.861H219.293Z" fill="#F4F7FA"/>
<path d="M214.357 190.703C214.357 192.97 212.22 194.767 209.934 194.724L134.756 194.361C132.427 194.318 130.183 192.457 130.183 190.168V189.997C130.183 187.729 132.298 185.911 134.628 185.954L209.827 186.36C212.135 186.403 214.379 188.264 214.379 190.532V190.703H214.357Z" fill="#F4F7FA"/>
<path d="M214.357 205.12C214.357 207.388 212.22 209.185 209.933 209.142L160.378 208.778C158.048 208.735 155.805 206.874 155.805 204.585V204.414C155.805 202.147 157.92 200.329 160.25 200.371L209.805 200.778C212.113 200.821 214.357 202.682 214.357 204.949V205.12Z" fill="#F4F7FA"/>
<path d="M214.357 218.96C214.357 221.227 212.22 223.024 209.934 222.982L145.441 222.618C143.111 222.575 140.868 220.714 140.868 218.425V218.254C140.868 215.987 142.983 214.168 145.312 214.211L209.827 214.618C212.135 214.66 214.379 216.521 214.379 218.789V218.96H214.357Z" fill="#F4F7FA"/>
<path d="M364.072 190.981C364.072 193.248 361.935 195.045 359.648 195.002L284.47 194.638C282.141 194.596 279.897 192.735 279.897 190.446V190.275C279.897 188.007 282.013 186.189 284.342 186.232L359.541 186.638C361.849 186.681 364.093 188.542 364.093 190.809V190.981H364.072Z" fill="#F4F7FA"/>
<path d="M364.072 205.398C364.072 207.666 361.935 209.462 359.648 209.42L310.114 209.056C307.784 209.013 305.541 207.152 305.541 204.863V204.714C305.541 202.446 307.656 200.628 309.985 200.671L359.541 201.077C361.849 201.12 364.093 202.981 364.093 205.248V205.398H364.072Z" fill="#F4F7FA"/>
<path d="M364.072 219.238C364.072 221.506 361.935 223.303 359.648 223.26L295.155 222.896C292.826 222.854 290.582 220.992 290.582 218.704V218.532C290.582 216.265 292.697 214.447 295.027 214.49L359.541 214.896C361.849 214.939 364.093 216.8 364.093 219.067V219.238H364.072Z" fill="#F4F7FA"/>
<path d="M213.887 348.163C213.972 350.431 211.9 352.292 209.592 352.356L134.457 354.645C132.127 354.687 129.819 352.891 129.734 350.623V350.452C129.648 348.185 131.7 346.281 134.029 346.238L209.186 343.992C211.494 343.949 213.801 345.725 213.866 347.992L213.887 348.163Z" fill="#F4F7FA"/>
<path d="M214.378 362.581C214.464 364.848 212.391 366.709 210.083 366.773L160.57 368.164C158.241 368.207 155.933 366.41 155.848 364.142V363.971C155.762 361.704 157.814 359.8 160.143 359.757L209.677 358.409C211.985 358.367 214.293 360.142 214.357 362.41L214.378 362.581Z" fill="#F4F7FA"/>
<path d="M214.87 376.421C214.955 378.688 212.883 380.549 210.575 380.613L146.103 382.539C143.774 382.581 141.466 380.784 141.38 378.517V378.346C141.295 376.078 143.346 374.175 145.676 374.132L210.169 372.271C212.477 372.228 214.784 374.003 214.849 376.271L214.87 376.421Z" fill="#F4F7FA"/>
<path d="M363.516 343.179C363.601 345.446 361.528 347.307 359.221 347.372L284.086 349.66C281.756 349.703 279.448 347.906 279.363 345.639V345.468C279.277 343.2 281.329 341.296 283.658 341.254L358.815 339.008C361.122 338.965 363.43 340.74 363.494 343.008L363.516 343.179Z" fill="#F4F7FA"/>
<path d="M364.029 357.575C364.114 359.843 362.041 361.704 359.733 361.768L310.22 363.158C307.891 363.201 305.583 361.404 305.498 359.137V358.966C305.412 356.698 307.464 354.795 309.793 354.752L359.327 353.404C361.635 353.361 363.943 355.137 364.007 357.404L364.029 357.575Z" fill="#F4F7FA"/>
<path d="M364.52 371.415C364.606 373.683 362.533 375.544 360.225 375.608L295.753 377.533C293.424 377.576 291.116 375.779 291.031 373.512V373.34C290.945 371.073 292.997 369.169 295.326 369.126L359.819 367.265C362.127 367.223 364.435 368.998 364.499 371.266L364.52 371.415Z" fill="#F4F7FA"/>
<path d="M364.072 135.235C364.072 137.417 362.832 139.149 360.695 139.128L339.133 138.786C336.954 138.743 335.565 136.946 335.565 134.743V134.572C335.565 132.368 337.21 130.614 339.39 130.657L360.759 131.042C362.918 131.085 364.072 132.882 364.072 135.064V135.235Z" fill="#F4F7FA"/>
<path d="M219.293 284.674C219.293 286.941 217.156 288.803 214.87 288.845L190.979 289.337C188.65 289.38 186.406 287.583 186.406 285.294V285.123C186.406 282.856 188.521 280.973 190.851 280.931L214.763 280.503C217.071 280.46 219.315 282.257 219.315 284.503V284.674H219.293Z" fill="#F4F7FA"/>
<path d="M364.072 290.663C364.072 292.845 362.106 294.664 359.969 294.706L338.022 295.198C335.843 295.241 334.09 293.508 334.09 291.305V291.134C334.09 288.931 335.736 287.112 337.915 287.07L360.033 286.62C362.191 286.578 364.072 288.31 364.072 290.492V290.663Z" fill="#F4F7FA"/>
<path d="M172.729 548.342C172.729 548.342 189.12 555.786 189.376 556.984C189.654 558.182 178.841 556.577 174.439 556.748C170.037 556.919 166.404 555.615 166.81 553.754C167.216 551.893 168.755 547.187 168.755 547.187L172.729 548.342Z" fill="url(#paint9_linear)"/>
<path d="M173.328 542.288L172.323 549.668C172.323 549.668 169.738 550.588 167.985 549.497L167.237 541.39L173.328 542.288Z" fill="url(#paint10_linear)"/>
<path d="M96.1839 542.459L94.2821 545.518C93.7478 546.374 93.5982 547.4 93.8547 548.384C94.5171 550.93 95.842 555.893 96.4404 557.176C97.231 558.93 107.83 559.978 107.83 559.978C107.83 559.978 108.771 558.652 106.569 557.048C104.368 555.443 102.958 555.187 102.167 552.812C101.398 550.438 100.864 543.721 100.864 543.721L96.1839 542.459Z" fill="url(#paint11_linear)"/>
<path d="M104.112 534.673C103.407 535.229 100.009 545.582 100.009 545.582C100.009 545.582 98.898 546.994 96.8038 544.919C94.7096 542.844 95.8636 543.978 95.8636 543.978L96.2482 533.796L104.112 534.673Z" fill="url(#paint12_linear)"/>
<path d="M182.346 393.961C183.2 415.994 183.243 439.91 181.982 465.472C180.551 494.265 177.687 520.854 174.076 544.983C172.729 545.026 171.319 545.026 169.844 544.983C168.84 544.962 167.879 544.898 166.96 544.833C165.079 539.828 162.878 533.261 160.891 525.41C158.796 517.153 157.557 509.752 156.66 502.65C153.497 477.708 157.194 475.526 154.651 457.044C152.386 440.68 149.159 440.038 145.376 416.786C141.274 391.566 144.329 387.779 145.804 386.41C152.129 380.613 167.002 384.571 182.346 393.961Z" fill="url(#paint13_linear)"/>
<path opacity="0.3" d="M145.804 386.432C151.83 380.891 165.656 384.25 180.23 392.721C163.455 410.86 161.617 422.626 163.647 430.262C165.912 438.883 172.836 441.386 172.793 450.819C172.751 462.413 162.301 465.493 162.536 477.751C162.686 485.858 167.28 485.772 168.37 495.805C169.652 507.656 163.647 511.741 165.592 520.533C166.425 524.298 168.819 529.239 175.614 534.33C175.123 537.924 174.631 541.496 174.097 545.005C172.751 545.047 171.34 545.047 169.866 545.005C168.861 544.983 167.9 544.919 166.981 544.855C165.1 539.849 162.899 533.282 160.912 525.432C158.818 517.175 157.578 509.773 156.681 502.671C153.518 477.729 157.215 475.547 154.672 457.065C152.407 440.701 149.18 440.059 145.398 416.807C141.252 391.566 144.308 387.801 145.804 386.432Z" fill="url(#paint14_linear)"/>
<path d="M171.96 393.598C157.514 414.754 141.936 441.087 128.003 472.596C117.468 496.404 109.839 518.78 104.24 538.695C103.492 539.037 101.697 539.743 99.4107 539.443C96.2907 539.037 94.4316 537.048 93.9401 536.491C91.6536 522.202 91.91 510.116 92.6793 501.367C93.1708 495.784 94.0469 486.457 97.6156 474.97C101.612 462.093 104.347 461.365 109.54 447.761C114.946 433.621 113.621 430.092 118.793 412.401C120.908 405.128 124.477 394.325 130.332 381.384C144.201 385.448 158.091 389.512 171.96 393.598Z" fill="url(#paint15_linear)"/>
<path d="M240.278 243.004C240.278 243.004 243.078 239.646 244.873 237.143C246.668 234.64 254.895 227.688 254.895 227.688C254.895 227.688 255.493 228.843 253.698 230.597C251.924 232.373 248.185 235.389 248.997 236.736C249.809 238.063 252.16 239.282 250.386 241.721C248.612 244.159 245.685 242.405 244.125 244.352C242.565 246.298 240.962 248.437 240.962 248.437L240.278 243.004Z" fill="url(#paint16_linear)"/>
<path d="M239.872 239.475C241.753 241.828 243.612 244.181 245.492 246.512C243.099 256.866 238.013 272.481 226.153 287.626C213.588 303.691 186.791 327.756 170.122 319.863C159.95 315.05 146.231 298.557 151.168 290.6C155.912 282.942 176.426 286.557 190.509 283.391C204.314 280.268 222.243 270.214 239.872 239.475Z" fill="url(#paint17_linear)"/>
<path d="M113.13 300.589C113.13 300.589 102.21 337.831 108.963 352.142C115.737 366.474 137.32 350.73 137.32 350.73L113.13 300.589Z" fill="url(#paint18_linear)"/>
<path d="M145.077 286.792C159.117 286.535 169.93 287.006 175.914 293.23C182.218 299.819 175.55 306.964 176.576 323.884C178.157 349.789 194.484 356.463 195.146 382.71C195.381 391.566 193.714 398.753 192.475 403.074C188.757 407.502 182.709 413.727 173.883 418.839C161.019 426.305 153.689 424.786 135.333 429.385C105.33 436.915 102.467 446.584 87.7217 443.782C72.8272 440.958 59.9842 428.08 61.7151 421.192C62.7622 417.064 68.7457 418.369 75.8189 412.208C84.9437 404.272 81.6528 396.421 88.6406 387.822C98.6843 375.479 112.104 383.458 120.673 372.741C129.328 361.917 126.465 340.141 119.626 328.141C115.16 320.312 113.365 311.22 109.604 303.028C109.284 302.343 108.942 301.231 109.134 299.862C109.882 294.599 118.729 291.926 125.439 289.979C135.675 287.006 143.923 286.813 145.077 286.792Z" fill="url(#paint19_linear)"/>
<path d="M158.754 286.492L155.997 285.572C155.997 285.572 155.185 289.316 146.295 289.572C141.359 289.465 138.218 286.62 138.218 286.62L136.294 287.968C136.294 287.968 140.333 293.252 146.936 293.252C155.441 293.294 158.754 286.492 158.754 286.492Z" fill="url(#paint20_linear)"/>
<path d="M156.488 274.449C157.236 270.363 154.95 266.855 154.458 266.106C152.343 262.94 151.851 262.534 150.932 262.042L149.672 261.422C149.672 261.422 149.608 261.4 149.522 261.379C148.731 261.186 146.103 261.336 145.59 261.507C143.923 262.021 142.769 269.08 144.158 278.791C144.094 279.561 144.03 280.31 143.966 281.08C140.184 280.567 139.094 280.909 138.901 281.422C138.474 282.513 141.102 288.931 144.714 290.193C149.223 291.776 155.505 287.647 155.89 286.15C156.04 285.551 156.018 286.064 152.941 284.289C152.663 283.39 151.787 280.973 151.488 280.096C152.15 279.626 155.933 277.465 156.488 274.449Z" fill="url(#paint21_linear)"/>
<path d="M151.36 271.155C150.526 270.213 149.308 271.283 149.437 272.588C149.543 273.914 150.954 275.155 152.151 274.791C153.347 274.427 152.471 272.438 151.36 271.155Z" fill="url(#paint22_linear)"/>
<path d="M17.7153 228.094C36.0289 217.72 66.3094 231.945 80.0073 249.421C86.3754 257.55 88.4696 265.4 97.9149 269.037C105.095 271.796 117.618 272.802 126.272 266.855C127.362 266.106 131.807 262.919 138.132 259.112C140.932 257.443 143.667 255.903 146.958 256.438C147.791 256.566 150.591 256.994 151.809 259.283C152.792 261.144 152.364 263.668 151.381 265.294C150.783 266.256 150.441 266.256 150.249 266.962C149.757 268.93 152.984 270.898 152.492 271.796C152.129 272.438 150.398 271.604 149.8 272.374C149.159 273.208 150.89 274.684 150.975 277.337C152.236 278.941 152.386 281.936 151.595 285.658C150.42 291.113 148.496 295.22 146.466 298.129C136.658 312.14 129.649 322.151 119.306 325.681C105.629 330.344 98.1499 319.563 70.4979 309.317C32.6312 295.305 18.8692 305.252 7.92808 291.883C-5.72701 275.176 -1.30353 238.854 17.7153 228.094Z" fill="#26264F"/>
<g opacity="0.4">
<path opacity="0.4" d="M98.2569 421.578C112.382 412.187 125.161 422.925 135.141 414.647C143.368 407.845 136.615 398.946 145.505 386.967C155.249 373.811 168.776 377.191 172.003 367.351C175.337 357.19 161.959 350.302 161.639 336.206C161.468 329.018 164.695 319.627 177.58 308.397C176.875 312.504 176.17 317.488 176.555 323.906C178.136 349.81 194.462 356.484 195.125 382.731C195.36 391.587 193.693 398.775 192.454 403.096C188.735 407.524 182.688 413.749 173.862 418.861C160.998 426.327 153.668 424.808 135.312 429.407C105.309 436.937 102.445 446.605 87.7004 443.803C83.4051 442.99 79.2808 441.343 75.648 439.225C79.9433 438.562 83.1487 437.086 85.5848 435.396C92.0384 430.947 90.9058 426.455 98.2569 421.578Z" fill="url(#paint23_linear)"/>
</g>
<path d="M237.458 160.177V160.712C242.308 154.38 251.006 145.609 256.22 140.518C256.327 140.283 256.476 140.069 256.583 139.834C259.489 133.181 263.421 125.994 268.529 118.806C273.615 111.597 280.09 104.517 287.612 97.9926C288.509 97.1369 289.556 96.3882 290.518 95.5968C291.009 95.2117 291.501 94.8053 292.014 94.4202L292.74 93.8213C292.997 93.6288 293.253 93.4362 293.51 93.2437C294.535 92.495 295.582 91.7463 296.608 90.9763L297.377 90.3987L298.19 89.8639C298.724 89.5003 299.279 89.158 299.814 88.7944C301.951 87.3184 304.258 86.0349 306.502 84.6873C307.656 84.0241 308.853 83.4252 310.007 82.8048C310.584 82.484 311.182 82.1845 311.759 81.8636C312.358 81.5855 312.977 81.2861 313.576 81.008C323.213 76.3661 333.706 73.0291 344.497 71.168C345.843 70.9541 347.19 70.7402 348.557 70.5263C349.904 70.3552 351.293 70.2268 352.639 70.0771L354.669 69.8632L356.721 69.7562L358.772 69.6279C359.456 69.5851 360.118 69.5209 360.802 69.5423C362.17 69.5423 363.516 69.5209 364.884 69.5209C365.226 69.5209 365.567 69.4995 365.888 69.5209L366.807 69.5637L368.623 69.6492L370.418 69.7348C370.568 69.7348 370.696 69.7348 370.888 69.7562L372.748 69.8846L375.226 70.0557L377.086 70.184L377.406 70.2054H377.513C377.513 70.2054 378.154 70.2054 377.086 70.2268L381.082 70.783C381.744 70.8899 382.407 70.9327 383.069 71.0825L385.035 71.4675L387.001 71.8311L387.984 72.0237C388.305 72.0878 388.625 72.1734 388.946 72.259C390.228 72.5798 391.51 72.8793 392.792 73.2002C393.433 73.3285 394.053 73.5424 394.694 73.7136L396.575 74.2697L398.455 74.8045L400.293 75.4463C401.511 75.8741 402.729 76.2591 403.926 76.7297C405.101 77.2003 406.298 77.6923 407.473 78.1629C416.811 82.1203 425.188 87.2328 432.326 93.0726L433.672 94.1422L434.954 95.2759C435.809 96.0246 436.685 96.7519 437.476 97.522C437.518 97.5434 437.54 97.5861 437.583 97.6075C439.143 99.1477 440.745 100.602 442.156 102.207C442.54 102.592 442.904 102.998 443.267 103.383L443.822 103.961L444.335 104.581C445.019 105.394 445.703 106.207 446.387 106.998C446.558 107.191 446.729 107.383 446.9 107.597L447.37 108.218C447.69 108.624 448.011 109.052 448.31 109.458C448.93 110.293 449.592 111.063 450.126 111.918C454.764 118.528 458.29 125.138 460.704 131.448C463.119 137.737 464.572 143.641 465.384 148.861C465.47 149.524 465.555 150.166 465.662 150.786C465.748 151.406 465.876 152.027 465.897 152.647C466.004 153.888 466.111 155.043 466.218 156.155C466.282 157.289 466.282 158.38 466.346 159.407C466.367 159.92 466.41 160.433 466.41 160.904C466.389 161.396 466.367 161.888 466.367 162.337C466.346 163.279 466.346 164.156 466.324 164.968C466.324 165.204 466.282 165.311 466.282 165.482C466.26 165.632 466.239 165.781 466.218 165.931C466.196 166.23 466.154 166.188 466.111 166.444C466.089 166.68 466.068 166.765 466.047 166.765H420.359L448.118 196.093L512.632 263.346L604.927 166.765H556.397C556.333 166.765 556.247 165.974 556.183 165.353C555.991 164.006 555.798 162.701 555.563 161.118C555.435 160.327 555.328 159.578 555.2 158.722C555.136 158.316 555.072 157.909 555.008 157.481C554.944 157.054 554.88 156.583 554.794 156.219C554.452 154.615 554.11 152.925 553.726 151.128C553.533 150.23 553.32 149.331 553.127 148.39C552.914 147.449 552.636 146.508 552.379 145.524C551.845 143.577 551.332 141.524 550.691 139.406C550.007 137.31 549.302 135.128 548.576 132.882C548.212 131.748 547.764 130.636 547.336 129.459C546.909 128.325 546.439 127.149 545.99 125.951C542.229 116.517 537.079 106.271 530.198 95.939C523.36 85.6071 514.619 75.3393 504.277 65.7988C503.016 64.5795 501.627 63.4672 500.302 62.2907C499.618 61.7131 498.956 61.1356 498.272 60.558L497.246 59.681L496.199 58.8467C494.767 57.7344 493.335 56.622 491.904 55.5097L490.814 54.6754L489.681 53.8839C488.933 53.3492 488.185 52.8144 487.416 52.2796C484.446 50.1191 481.262 48.1725 478.099 46.1617C476.496 45.1777 474.851 44.2793 473.205 43.3167C472.393 42.8461 471.56 42.3969 470.748 41.9049C469.893 41.477 469.06 41.0278 468.205 40.6C454.699 33.5409 439.784 28.1931 424.291 25.0058C422.346 24.6422 420.401 24.2785 418.457 23.9149C416.512 23.5726 414.546 23.3373 412.58 23.0378L409.631 22.6314L406.661 22.3533L403.669 22.2464C402.686 22.1608 401.703 22.0538 400.72 22.0111C398.754 21.9255 396.767 21.6902 394.801 21.6046C394.309 21.5832 393.818 21.4121 393.326 21.4121H391.852L388.903 21.5618L385.954 21.6474C384.971 21.6474 383.988 21.7758 383.005 21.8185L377.15 22.1608C375.825 22.1822 376.701 22.2036 376.359 22.2036L376.209 22.225L375.889 22.2678L375.269 22.3533L374.03 22.5031L371.572 22.8025L370.333 22.9523L369.713 23.0164L368.965 23.1234L365.867 23.5512L362.768 24.0004L361.229 24.2357C360.717 24.3213 360.268 24.4283 359.776 24.5138C357.874 24.8989 355.994 25.2839 354.092 25.669C353.152 25.8401 352.212 26.0968 351.293 26.3321L348.493 27.038L345.715 27.7439L342.98 28.5782C341.164 29.1343 339.347 29.6691 337.552 30.2681C335.778 30.9098 334.005 31.5301 332.231 32.1719C318.191 37.4983 305.391 44.5788 294.364 52.8358C293.681 53.3492 292.975 53.8625 292.292 54.3759C291.608 54.9107 290.967 55.4455 290.304 55.9803C288.979 57.0498 287.654 58.0766 286.394 59.189C283.893 61.435 281.393 63.5742 279.107 65.9058C278.53 66.4834 277.953 67.0395 277.376 67.6171L276.521 68.4727L275.709 69.3498C274.619 70.5263 273.551 71.7028 272.482 72.8579L271.691 73.735L270.922 74.6334C270.431 75.2323 269.918 75.8313 269.426 76.4303C268.443 77.6282 267.418 78.7619 266.52 80.0026C261.498 86.4841 257.224 93.0298 253.698 99.5114C251.967 102.656 250.45 105.779 249.083 108.859C244.894 118.293 242.223 127.256 240.513 135.256C240.321 136.261 240.129 137.245 239.936 138.229C239.765 139.192 239.53 140.133 239.424 141.096C239.167 142.978 238.889 144.797 238.654 146.529C238.441 148.283 238.334 149.952 238.184 151.556C238.12 152.348 238.034 153.118 237.992 153.888C237.97 154.636 237.799 155.385 237.757 156.112C237.714 157.503 237.458 158.893 237.458 160.177Z" fill="url(#paint24_linear)"/>
<path opacity="0.4" d="M237.458 160.177V160.711C242.308 154.38 251.006 145.609 256.22 140.518C256.327 140.283 256.476 140.069 256.583 139.834C259.489 133.181 263.421 125.993 268.529 118.806C273.615 111.597 280.09 104.517 287.612 97.9924C288.509 97.1368 289.556 96.3881 290.518 95.5966C291.009 95.2116 291.501 94.8051 292.014 94.4201L292.74 93.8211C292.997 93.6286 293.253 93.4361 293.51 93.2436C294.535 92.4949 295.582 91.7462 296.608 90.9761L297.378 90.3985L298.19 89.8638C298.724 89.5001 299.279 89.1579 299.814 88.7942C301.951 87.3182 304.258 86.0347 306.502 84.6871C307.656 84.024 308.853 83.425 310.007 82.8047C310.584 82.4838 311.182 82.1843 311.759 81.8635C312.358 81.5854 312.977 81.2859 313.576 81.0078C323.213 76.3659 333.706 73.0289 344.497 71.1679C345.843 70.9539 347.19 70.74 348.557 70.5261C349.904 70.355 351.293 70.2266 352.639 70.0769L354.669 69.863L356.721 69.756L358.772 69.6277C359.456 69.5849 360.118 69.5207 360.802 69.5421C362.17 69.5421 363.516 69.5207 364.884 69.5207C365.226 69.5207 365.567 69.4993 365.888 69.5207L366.807 69.5635L368.623 69.6491L370.418 69.7346C370.568 69.7346 370.696 69.7346 370.888 69.756L372.748 69.8844L375.226 70.0555L377.086 70.1839L377.406 70.2053H377.513C377.513 70.2053 378.154 70.2052 377.086 70.2266L381.082 70.7828C381.744 70.8898 382.407 70.9326 383.069 71.0823L385.035 71.4673L387.001 71.831L387.984 72.0235C388.305 72.0877 388.625 72.1732 388.946 72.2588C390.228 72.5797 391.51 72.8792 392.792 73.2C393.433 73.3284 394.053 73.5423 394.694 73.7134L396.575 74.2696L398.455 74.8044L400.293 75.4461C401.511 75.8739 402.729 76.259 403.926 76.7296C405.101 77.2002 406.298 77.6922 407.473 78.1628C416.811 82.1201 425.188 87.2326 432.326 93.0724L433.672 94.142L434.954 95.2757C435.809 96.0244 436.685 96.7517 437.476 97.5218C437.518 97.5432 437.54 97.586 437.583 97.6074C417.089 73.4139 383.86 57.6914 346.378 57.6914C307.977 57.6914 274.042 74.184 253.698 99.4042C251.967 102.549 250.45 105.672 249.083 108.752C244.894 118.186 242.223 127.149 240.513 135.149C240.321 136.154 240.129 137.138 239.936 138.122C239.765 139.085 239.53 140.026 239.424 140.989C239.167 142.871 238.889 144.689 238.654 146.422C238.441 148.176 238.334 149.845 238.184 151.449C238.12 152.24 238.034 153.011 237.992 153.781C237.97 154.529 237.799 155.278 237.757 156.005C237.714 157.503 237.458 158.893 237.458 160.177Z" fill="url(#paint25_linear)"/>
<path d="M494.682 511.592C559.475 511.592 612 459.013 612 394.154C612 329.295 559.475 276.716 494.682 276.716C429.889 276.716 377.363 329.295 377.363 394.154C377.363 459.013 429.889 511.592 494.682 511.592Z" fill="url(#paint26_linear)"/>
<path d="M602.469 394.154C602.469 459.012 549.943 511.592 485.151 511.592C453.546 511.592 424.868 499.078 403.776 478.735C381.616 457.386 367.833 427.374 367.833 394.154C367.833 329.296 420.359 276.716 485.151 276.716C504.576 276.716 522.89 281.444 539.024 289.808C576.719 309.359 602.469 348.74 602.469 394.154Z" fill="url(#paint27_linear)"/>
<path d="M485.172 498.479C542.731 498.479 589.391 451.771 589.391 394.154C589.391 336.537 542.731 289.829 485.172 289.829C427.614 289.829 380.953 336.537 380.953 394.154C380.953 451.771 427.614 498.479 485.172 498.479Z" fill="url(#paint28_linear)"/>
<path d="M542.229 396.657C538.361 396.657 535.241 393.384 535.241 389.384L549.238 389.405C549.217 393.427 546.097 396.657 542.229 396.657Z" fill="white"/>
<path d="M431.087 346.815C431.364 345.339 432.583 344.312 434.014 344.312L539.75 344.462C541.139 344.462 542.336 345.553 542.593 347.051L549.196 384.892L423.906 384.72L431.087 346.815Z" fill="white"/>
<path d="M526.309 396.635C522.441 396.635 519.321 393.362 519.321 389.362L533.318 389.384C533.296 393.384 530.176 396.635 526.309 396.635Z" fill="white"/>
<path d="M510.388 396.614C506.52 396.614 503.401 393.341 503.401 389.341L517.398 389.362C517.376 393.362 514.256 396.614 510.388 396.614Z" fill="white"/>
<path d="M494.468 396.571C490.6 396.571 487.48 393.298 487.48 389.298L501.477 389.32C501.477 393.341 498.336 396.593 494.468 396.571Z" fill="white"/>
<path d="M430.809 396.465C434.676 396.465 437.796 393.234 437.796 389.213L423.799 389.191C423.821 393.213 426.941 396.465 430.809 396.465Z" fill="white"/>
<path d="M446.729 396.507C450.597 396.507 453.717 393.277 453.717 389.255L439.72 389.234C439.741 393.234 442.861 396.486 446.729 396.507Z" fill="white"/>
<path d="M462.649 396.528C466.517 396.528 469.637 393.298 469.637 389.277L455.64 389.255C455.661 393.255 458.781 396.528 462.649 396.528Z" fill="white"/>
<path d="M478.569 396.55C482.437 396.55 485.557 393.32 485.557 389.298L471.56 389.277C471.581 393.298 474.701 396.55 478.569 396.55Z" fill="white"/>
<path d="M489.339 400.058L431.342 399.972V450.52C431.342 452.274 432.411 453.707 434.099 453.707L473.804 453.75L539.258 453.835C540.006 453.835 540.605 453.514 541.139 452.937C541.673 452.359 541.759 451.568 541.759 450.734V400.122L489.339 400.058ZM524.941 441.3L481.24 441.236L446.707 441.193V411.459L488.826 411.502L524.941 411.545V441.3Z" fill="white"/>
<path opacity="0.3" d="M602.469 394.154C602.469 459.012 549.943 511.592 485.151 511.592C453.545 511.592 424.867 499.078 403.776 478.735C404.588 475.205 405.699 473.002 405.699 473.002C410.529 474.136 415.187 474.906 419.675 475.312C443.373 477.494 461.879 469.75 473.846 453.771C476.646 450.049 479.103 445.856 481.176 441.257C485.001 432.765 487.566 422.797 488.762 411.524C489.168 407.844 489.403 404.015 489.51 400.058C489.553 398.218 489.574 396.357 489.553 394.453C489.531 392.764 489.489 391.031 489.425 389.298C489.361 387.822 489.275 386.325 489.19 384.827C488.848 379.544 488.292 374.068 487.48 368.399C486.219 359.522 486.305 351.543 487.459 344.398C491.284 320.611 506.819 305.937 523.082 296.974C528.467 294 533.916 291.669 539.045 289.829C576.719 309.359 602.469 348.74 602.469 394.154Z" fill="url(#paint29_linear)"/>
<path d="M287.697 160.862C287.697 160.07 288.295 159.386 289.064 159.343C289.812 159.3 290.411 159.899 290.411 160.691C290.411 161.482 289.791 162.167 289.043 162.209C288.317 162.252 287.697 161.653 287.697 160.862ZM287.932 160.84C287.932 161.503 288.445 162.017 289.064 161.953C289.684 161.91 290.197 161.332 290.197 160.669C290.197 160.006 289.684 159.514 289.064 159.557C288.445 159.6 287.932 160.177 287.932 160.84Z" fill="#8E9DB2"/>
<path d="M299.194 111.298L278.871 108.817C276.884 108.56 275.26 110.165 275.26 112.368V161.418C275.26 163.643 276.884 165.29 278.871 165.14L299.172 163.471C301.16 163.3 302.784 161.546 302.784 159.557L302.805 115.363C302.805 113.352 301.203 111.534 299.194 111.298ZM289.065 161.974C288.488 162.017 287.996 161.589 287.932 160.969C287.868 160.306 288.317 159.685 288.958 159.578C289.001 159.578 289.043 159.578 289.065 159.557C289.684 159.514 290.197 160.027 290.197 160.669C290.197 161.354 289.684 161.91 289.065 161.974ZM300.967 156.284C300.967 156.583 300.711 156.862 300.412 156.883L277.653 158.166C277.354 158.188 277.098 157.931 277.098 157.589V116.325C277.098 115.983 277.354 115.748 277.653 115.769L300.433 117.972C300.732 117.994 300.989 118.272 300.989 118.593L300.967 156.284Z" fill="#8E9DB2"/>
<path d="M287.697 308.867C287.697 308.076 288.295 307.391 289.064 307.348C289.812 307.306 290.411 307.904 290.411 308.696C290.411 309.487 289.791 310.172 289.043 310.215C288.317 310.257 287.697 309.659 287.697 308.867ZM287.932 308.846C287.932 309.509 288.445 310.022 289.064 309.958C289.684 309.915 290.197 309.338 290.197 308.675C290.197 308.011 289.684 307.519 289.064 307.562C288.445 307.626 287.932 308.183 287.932 308.846Z" fill="#8E9DB2"/>
<path d="M299.194 259.325L278.871 256.844C276.884 256.587 275.26 258.192 275.26 260.395V309.445C275.26 311.669 276.884 313.317 278.871 313.167L299.172 311.498C301.16 311.327 302.784 309.573 302.784 307.584L302.805 263.39C302.805 261.357 301.203 259.561 299.194 259.325ZM289.065 309.98C288.488 310.022 287.996 309.595 287.932 308.974C287.868 308.311 288.317 307.691 288.958 307.584C289.001 307.584 289.043 307.584 289.065 307.562C289.684 307.52 290.197 308.033 290.197 308.675C290.197 309.316 289.684 309.937 289.065 309.98ZM300.967 304.289C300.967 304.589 300.711 304.867 300.412 304.888L277.653 306.172C277.354 306.193 277.098 305.937 277.098 305.594V264.331C277.098 263.989 277.354 263.753 277.653 263.775L300.433 265.978C300.732 265.999 300.989 266.277 300.989 266.598L300.967 304.289Z" fill="#8E9DB2"/>
<path d="M129.371 160.862C129.371 160.07 129.969 159.386 130.739 159.343C131.486 159.3 132.085 159.899 132.085 160.691C132.085 161.482 131.465 162.167 130.717 162.209C129.969 162.252 129.371 161.653 129.371 160.862ZM129.585 160.84C129.585 161.503 130.097 162.017 130.717 161.953C131.337 161.91 131.85 161.332 131.85 160.669C131.85 160.006 131.337 159.514 130.717 159.557C130.097 159.6 129.585 160.177 129.585 160.84Z" fill="#8E9DB2"/>
<path d="M140.868 111.298L120.545 108.817C118.558 108.56 116.934 110.165 116.934 112.368V161.418C116.934 163.643 118.558 165.29 120.545 165.14L140.846 163.471C142.834 163.3 144.458 161.546 144.458 159.557L144.479 115.363C144.458 113.352 142.855 111.534 140.868 111.298ZM130.717 161.974C130.14 162.017 129.649 161.589 129.585 160.969C129.52 160.306 129.969 159.685 130.61 159.578C130.653 159.578 130.696 159.578 130.717 159.557C131.337 159.514 131.85 160.027 131.85 160.669C131.85 161.354 131.337 161.91 130.717 161.974ZM142.62 156.284C142.62 156.583 142.363 156.862 142.064 156.883L119.306 158.166C119.007 158.188 118.75 157.931 118.75 157.589V116.325C118.75 115.983 119.007 115.748 119.306 115.769L142.086 117.972C142.385 117.994 142.641 118.272 142.641 118.593L142.62 156.284Z" fill="#8E9DB2"/>
</g>
<defs>
<linearGradient id="paint0_linear" x1="267.258" y1="160.195" x2="165.678" y2="160.195" gradientUnits="userSpaceOnUse">
<stop stop-color="#FF9085"/>
<stop offset="1" stop-color="#FB6FBB"/>
</linearGradient>
<linearGradient id="paint1_linear" x1="265.476" y1="163.833" x2="165.678" y2="163.833" gradientUnits="userSpaceOnUse">
<stop stop-color="#FF9085"/>
<stop offset="1" stop-color="#FB6FBB"/>
</linearGradient>
<linearGradient id="paint2_linear" x1="225.504" y1="158.712" x2="56.6774" y2="177.651" gradientUnits="userSpaceOnUse">
<stop stop-color="#FFC444"/>
<stop offset="0.0984598" stop-color="#FEBC46"/>
<stop offset="0.9964" stop-color="#F36F56"/>
</linearGradient>
<linearGradient id="paint3_linear" x1="216.848" y1="162.077" x2="56.9426" y2="180.016" gradientUnits="userSpaceOnUse">
<stop stop-color="#FFC444"/>
<stop offset="0.0984598" stop-color="#FEBC46"/>
<stop offset="0.9964" stop-color="#F36F56"/>
</linearGradient>
<linearGradient id="paint4_linear" x1="99.5065" y1="274.307" x2="186.978" y2="265.178" gradientUnits="userSpaceOnUse">
<stop offset="0.003597" stop-color="#26264F"/>
<stop offset="1" stop-color="#444B8C"/>
</linearGradient>
<linearGradient id="paint5_linear" x1="285.964" y1="541.801" x2="304.521" y2="515.246" gradientUnits="userSpaceOnUse">
<stop stop-color="#444B8C"/>
<stop offset="0.9964" stop-color="#26264F"/>
</linearGradient>
<linearGradient id="paint6_linear" x1="342.063" y1="534.989" x2="313.645" y2="380.873" gradientUnits="userSpaceOnUse">
<stop stop-color="#444B8C"/>
<stop offset="0.9964" stop-color="#26264F"/>
</linearGradient>
<linearGradient id="paint7_linear" x1="412.031" y1="109.513" x2="554.161" y2="-93.1339" gradientUnits="userSpaceOnUse">
<stop stop-color="#444B8C"/>
<stop offset="0.9964" stop-color="#26264F"/>
</linearGradient>
<linearGradient id="paint8_linear" x1="350.383" y1="133.591" x2="172.51" y2="697.965" gradientUnits="userSpaceOnUse">
<stop stop-color="#444B8C"/>
<stop offset="0.9964" stop-color="#26264F"/>
</linearGradient>
<linearGradient id="paint9_linear" x1="180.672" y1="522.478" x2="176.594" y2="574.323" gradientUnits="userSpaceOnUse">
<stop offset="0.003597" stop-color="#26264F"/>
<stop offset="1" stop-color="#444B8C"/>
</linearGradient>
<linearGradient id="paint10_linear" x1="170.166" y1="551.342" x2="170.908" y2="497.646" gradientUnits="userSpaceOnUse">
<stop stop-color="#AB316D"/>
<stop offset="1" stop-color="#792D3D"/>
</linearGradient>
<linearGradient id="paint11_linear" x1="103.77" y1="516.43" x2="99.6922" y2="568.274" gradientUnits="userSpaceOnUse">
<stop offset="0.003597" stop-color="#26264F"/>
<stop offset="1" stop-color="#444B8C"/>
</linearGradient>
<linearGradient id="paint12_linear" x1="99.6891" y1="550.369" x2="100.43" y2="496.673" gradientUnits="userSpaceOnUse">
<stop stop-color="#AB316D"/>
<stop offset="1" stop-color="#792D3D"/>
</linearGradient>
<linearGradient id="paint13_linear" x1="182.968" y1="464.356" x2="143.307" y2="464.356" gradientUnits="userSpaceOnUse">
<stop stop-color="#311944"/>
<stop offset="1" stop-color="#6B3976"/>
</linearGradient>
<linearGradient id="paint14_linear" x1="180.226" y1="464.357" x2="143.307" y2="464.357" gradientUnits="userSpaceOnUse">
<stop offset="0.003597" stop-color="#26264F"/>
<stop offset="1" stop-color="#444B8C"/>
</linearGradient>
<linearGradient id="paint15_linear" x1="171.957" y1="460.443" x2="92.1154" y2="460.443" gradientUnits="userSpaceOnUse">
<stop stop-color="#311944"/>
<stop offset="1" stop-color="#6B3976"/>
</linearGradient>
<linearGradient id="paint16_linear" x1="251.982" y1="223.998" x2="228.617" y2="289.247" gradientUnits="userSpaceOnUse">
<stop stop-color="#AB316D"/>
<stop offset="1" stop-color="#792D3D"/>
</linearGradient>
<linearGradient id="paint17_linear" x1="195.471" y1="278.925" x2="154.563" y2="433.498" gradientUnits="userSpaceOnUse">
<stop stop-color="#AA80F9"/>
<stop offset="0.9964" stop-color="#6165D7"/>
</linearGradient>
<linearGradient id="paint18_linear" x1="137.778" y1="329.868" x2="106.947" y2="329.197" gradientUnits="userSpaceOnUse">
<stop stop-color="#AA80F9"/>
<stop offset="0.9964" stop-color="#6165D7"/>
</linearGradient>
<linearGradient id="paint19_linear" x1="164.458" y1="270.717" x2="123.55" y2="425.289" gradientUnits="userSpaceOnUse">
<stop stop-color="#AA80F9"/>
<stop offset="0.9964" stop-color="#6165D7"/>
</linearGradient>
<linearGradient id="paint20_linear" x1="155.633" y1="274.989" x2="143.016" y2="294.086" gradientUnits="userSpaceOnUse">
<stop stop-color="#FFC444"/>
<stop offset="0.9964" stop-color="#F36F56"/>
</linearGradient>
<linearGradient id="paint21_linear" x1="145.627" y1="268.168" x2="152.146" y2="294.512" gradientUnits="userSpaceOnUse">
<stop stop-color="#AB316D"/>
<stop offset="1" stop-color="#792D3D"/>
</linearGradient>
<linearGradient id="paint22_linear" x1="151.041" y1="266.448" x2="151.139" y2="291.108" gradientUnits="userSpaceOnUse">
<stop stop-color="#AB316D"/>
<stop offset="1" stop-color="#792D3D"/>
</linearGradient>
<linearGradient id="paint23_linear" x1="173.195" y1="273.029" x2="132.287" y2="427.602" gradientUnits="userSpaceOnUse">
<stop stop-color="#AA80F9"/>
<stop offset="0.9964" stop-color="#6165D7"/>
</linearGradient>
<linearGradient id="paint24_linear" x1="586.996" y1="364.231" x2="376.768" y2="110.666" gradientUnits="userSpaceOnUse">
<stop stop-color="#AA80F9"/>
<stop offset="0.9964" stop-color="#6165D7"/>
</linearGradient>
<linearGradient id="paint25_linear" x1="357.287" y1="156.327" x2="292.126" y2="67.1134" gradientUnits="userSpaceOnUse">
<stop stop-color="#AA80F9"/>
<stop offset="0.9964" stop-color="#6165D7"/>
</linearGradient>
<linearGradient id="paint26_linear" x1="551.098" y1="367.795" x2="380.442" y2="447.386" gradientUnits="userSpaceOnUse">
<stop offset="0.00359712" stop-color="#E38DDD"/>
<stop offset="1" stop-color="#9571F6"/>
</linearGradient>
<linearGradient id="paint27_linear" x1="345.915" y1="238.914" x2="575.271" y2="494.096" gradientUnits="userSpaceOnUse">
<stop offset="0.00359712" stop-color="#E38DDD"/>
<stop offset="1" stop-color="#9571F6"/>
</linearGradient>
<linearGradient id="paint28_linear" x1="462.242" y1="267.956" x2="606.978" y2="1063.2" gradientUnits="userSpaceOnUse">
<stop offset="0.00359712" stop-color="#E38DDD"/>
<stop offset="1" stop-color="#9571F6"/>
</linearGradient>
<linearGradient id="paint29_linear" x1="552.808" y1="387.505" x2="387.87" y2="464.43" gradientUnits="userSpaceOnUse">
<stop offset="0.00359712" stop-color="#E38DDD"/>
<stop offset="1" stop-color="#9571F6"/>
</linearGradient>
<clipPath id="clip0">
<rect width="612" height="560" fill="white"/>
</clipPath>
</defs>
</svg>
