<svg width="344" height="614" viewBox="0 0 344 614" fill="none" xmlns="http://www.w3.org/2000/svg">
<rect width="344" height="614" rx="8" fill="#57329D"/>
<path d="M33.4091 224.364V236H34.7273V227.159H34.8409L38.4773 236H39.75L43.3864 227.159H43.5V236H44.8182V224.364H43.1364L39.1818 234.023H39.0455L35.0909 224.364H33.4091ZM50.0298 236.205C51.5526 236.205 52.348 235.386 52.6207 234.818H52.6889V236H54.0298V230.25C54.0298 227.477 51.9162 227.159 50.8026 227.159C49.4844 227.159 47.9844 227.614 47.3026 229.205L48.5753 229.659C48.8707 229.023 49.5696 228.341 50.848 228.341C52.081 228.341 52.6889 228.994 52.6889 230.114V230.159C52.6889 230.807 52.0298 230.75 50.4389 230.955C48.8196 231.165 47.0526 231.523 47.0526 233.523C47.0526 235.227 48.3707 236.205 50.0298 236.205ZM50.2344 235C49.1662 235 48.3935 234.523 48.3935 233.591C48.3935 232.568 49.3253 232.25 50.3707 232.114C50.9389 232.045 52.4616 231.886 52.6889 231.614V232.841C52.6889 233.932 51.8253 235 50.2344 235ZM56.4773 236H57.8182V232.733L58.7557 231.864L62.0227 236H63.7273L59.767 231L63.4545 227.273H61.7955L57.9773 231.159H57.8182V224.364H56.4773V236ZM68.4801 236.182C70.2528 236.182 71.5483 235.295 71.9574 233.977L70.6619 233.614C70.321 234.523 69.5312 234.977 68.4801 234.977C66.9062 234.977 65.821 233.96 65.7585 232.091H72.0938V231.523C72.0938 228.273 70.1619 227.159 68.3438 227.159C65.9801 227.159 64.4119 229.023 64.4119 231.705C64.4119 234.386 65.9574 236.182 68.4801 236.182ZM65.7585 230.932C65.8494 229.574 66.8097 228.364 68.3438 228.364C69.7983 228.364 70.7301 229.455 70.7301 230.932H65.7585ZM85.7699 227.273H84.3153L81.9062 234.227H81.8153L79.4062 227.273H77.9517L81.179 236H82.5426L85.7699 227.273ZM87.5398 236H88.8807V227.273H87.5398V236ZM88.2216 225.818C88.7443 225.818 89.1761 225.409 89.1761 224.909C89.1761 224.409 88.7443 224 88.2216 224C87.6989 224 87.267 224.409 87.267 224.909C87.267 225.409 87.6989 225.818 88.2216 225.818ZM91.3366 236H92.6776V230.477C92.6776 229.295 93.6094 228.432 94.8821 228.432C95.2401 228.432 95.6094 228.5 95.7003 228.523V227.159C95.5469 227.148 95.1946 227.136 94.9957 227.136C93.9503 227.136 93.0412 227.727 92.723 228.591H92.6321V227.273H91.3366V236ZM101.632 227.273H99.7685V225.182H98.4276V227.273H97.1094V228.409H98.4276V233.864C98.4276 235.386 99.6548 236.114 100.791 236.114C101.291 236.114 101.609 236.023 101.791 235.955L101.518 234.75C101.405 234.773 101.223 234.818 100.928 234.818C100.337 234.818 99.7685 234.636 99.7685 233.5V228.409H101.632V227.273ZM109.149 232.432C109.149 234.068 107.899 234.818 106.899 234.818C105.786 234.818 104.99 234 104.99 232.727V227.273H103.649V232.818C103.649 235.045 104.831 236.114 106.467 236.114C107.786 236.114 108.649 235.409 109.058 234.523H109.149V236H110.49V227.273H109.149V232.432ZM115.514 236.205C117.037 236.205 117.832 235.386 118.105 234.818H118.173V236H119.514V230.25C119.514 227.477 117.401 227.159 116.287 227.159C114.969 227.159 113.469 227.614 112.787 229.205L114.06 229.659C114.355 229.023 115.054 228.341 116.332 228.341C117.565 228.341 118.173 228.994 118.173 230.114V230.159C118.173 230.807 117.514 230.75 115.923 230.955C114.304 231.165 112.537 231.523 112.537 233.523C112.537 235.227 113.855 236.205 115.514 236.205ZM115.719 235C114.651 235 113.878 234.523 113.878 233.591C113.878 232.568 114.81 232.25 115.855 232.114C116.423 232.045 117.946 231.886 118.173 231.614V232.841C118.173 233.932 117.31 235 115.719 235ZM123.303 224.364H121.962V236H123.303V224.364ZM137.554 239.273V227.273H136.259V228.659H136.099C135.804 228.205 135.281 227.159 133.577 227.159C131.372 227.159 129.849 228.909 129.849 231.659C129.849 234.432 131.372 236.182 133.554 236.182C135.236 236.182 135.804 235.136 136.099 234.659H136.213V239.273H137.554ZM136.236 231.636C136.236 233.614 135.349 234.977 133.736 234.977C132.054 234.977 131.19 233.5 131.19 231.636C131.19 229.795 132.031 228.364 133.736 228.364C135.372 228.364 136.236 229.682 136.236 231.636ZM145.509 232.432C145.509 234.068 144.259 234.818 143.259 234.818C142.145 234.818 141.349 234 141.349 232.727V227.273H140.009V232.818C140.009 235.045 141.19 236.114 142.827 236.114C144.145 236.114 145.009 235.409 145.418 234.523H145.509V236H146.849V227.273H145.509V232.432ZM152.964 236.182C154.737 236.182 156.033 235.295 156.442 233.977L155.146 233.614C154.805 234.523 154.016 234.977 152.964 234.977C151.391 234.977 150.305 233.96 150.243 232.091H156.578V231.523C156.578 228.273 154.646 227.159 152.828 227.159C150.464 227.159 148.896 229.023 148.896 231.705C148.896 234.386 150.442 236.182 152.964 236.182ZM150.243 230.932C150.334 229.574 151.294 228.364 152.828 228.364C154.283 228.364 155.214 229.455 155.214 230.932H150.243ZM164.118 232.432C164.118 234.068 162.868 234.818 161.868 234.818C160.754 234.818 159.959 234 159.959 232.727V227.273H158.618V232.818C158.618 235.045 159.8 236.114 161.436 236.114C162.754 236.114 163.618 235.409 164.027 234.523H164.118V236H165.459V227.273H164.118V232.432ZM171.574 236.182C173.347 236.182 174.642 235.295 175.051 233.977L173.756 233.614C173.415 234.523 172.625 234.977 171.574 234.977C170 234.977 168.915 233.96 168.852 232.091H175.188V231.523C175.188 228.273 173.256 227.159 171.438 227.159C169.074 227.159 167.506 229.023 167.506 231.705C167.506 234.386 169.051 236.182 171.574 236.182ZM168.852 230.932C168.943 229.574 169.903 228.364 171.438 228.364C172.892 228.364 173.824 229.455 173.824 230.932H168.852ZM177.227 236H178.568V227.273H177.227V236ZM177.909 225.818C178.432 225.818 178.864 225.409 178.864 224.909C178.864 224.409 178.432 224 177.909 224C177.386 224 176.955 224.409 176.955 224.909C176.955 225.409 177.386 225.818 177.909 225.818ZM182.365 230.75C182.365 229.227 183.308 228.364 184.592 228.364C185.837 228.364 186.592 229.176 186.592 230.545V236H187.933V230.455C187.933 228.227 186.746 227.159 184.979 227.159C183.661 227.159 182.842 227.75 182.433 228.636H182.32V227.273H181.024V236H182.365V230.75ZM193.906 239.455C195.997 239.455 197.679 238.5 197.679 236.25V227.273H196.384V228.659H196.247C195.952 228.205 195.406 227.159 193.702 227.159C191.497 227.159 189.974 228.909 189.974 231.591C189.974 234.318 191.565 235.864 193.679 235.864C195.384 235.864 195.929 234.864 196.224 234.386H196.338V236.159C196.338 237.614 195.315 238.273 193.906 238.273C192.321 238.273 191.764 237.438 191.406 236.955L190.338 237.705C190.884 238.619 191.957 239.455 193.906 239.455ZM193.861 234.659C192.179 234.659 191.315 233.386 191.315 231.568C191.315 229.795 192.156 228.364 193.861 228.364C195.497 228.364 196.361 229.682 196.361 231.568C196.361 233.5 195.474 234.659 193.861 234.659ZM204.634 236H205.974V230.545C205.974 229.267 206.906 228.364 207.952 228.364C208.969 228.364 209.679 229.028 209.679 230.023V236H211.043V230.318C211.043 229.193 211.747 228.364 212.974 228.364C213.929 228.364 214.747 228.869 214.747 230.159V236H216.088V230.159C216.088 228.108 214.986 227.159 213.429 227.159C212.179 227.159 211.264 227.733 210.815 228.636H210.724C210.293 227.705 209.531 227.159 208.384 227.159C207.247 227.159 206.406 227.705 206.043 228.636H205.929V227.273H204.634V236ZM222.085 236.182C224.449 236.182 226.04 234.386 226.04 231.682C226.04 228.955 224.449 227.159 222.085 227.159C219.722 227.159 218.131 228.955 218.131 231.682C218.131 234.386 219.722 236.182 222.085 236.182ZM222.085 234.977C220.29 234.977 219.472 233.432 219.472 231.682C219.472 229.932 220.29 228.364 222.085 228.364C223.881 228.364 224.699 229.932 224.699 231.682C224.699 233.432 223.881 234.977 222.085 234.977ZM228.087 236H229.428V230.477C229.428 229.295 230.359 228.432 231.632 228.432C231.99 228.432 232.359 228.5 232.45 228.523V227.159C232.297 227.148 231.945 227.136 231.746 227.136C230.7 227.136 229.791 227.727 229.473 228.591H229.382V227.273H228.087V236ZM237.433 236.182C239.206 236.182 240.501 235.295 240.911 233.977L239.615 233.614C239.274 234.523 238.484 234.977 237.433 234.977C235.859 234.977 234.774 233.96 234.712 232.091H241.047V231.523C241.047 228.273 239.115 227.159 237.297 227.159C234.933 227.159 233.365 229.023 233.365 231.705C233.365 234.386 234.911 236.182 237.433 236.182ZM234.712 230.932C234.803 229.574 235.763 228.364 237.297 228.364C238.751 228.364 239.683 229.455 239.683 230.932H234.712ZM33.2273 263.273H34.5682V258.659H34.6818C34.9773 259.136 35.5455 260.182 37.2273 260.182C39.4091 260.182 40.9318 258.432 40.9318 255.659C40.9318 252.909 39.4091 251.159 37.2045 251.159C35.5 251.159 34.9773 252.205 34.6818 252.659H34.5227V251.273H33.2273V263.273ZM34.5455 255.636C34.5455 253.682 35.4091 252.364 37.0455 252.364C38.75 252.364 39.5909 253.795 39.5909 255.636C39.5909 257.5 38.7273 258.977 37.0455 258.977C35.4318 258.977 34.5455 257.614 34.5455 255.636ZM44.3182 248.364H42.9773V260H44.3182V248.364ZM50.4332 260.182C52.206 260.182 53.5014 259.295 53.9105 257.977L52.6151 257.614C52.2741 258.523 51.4844 258.977 50.4332 258.977C48.8594 258.977 47.7741 257.96 47.7116 256.091H54.0469V255.523C54.0469 252.273 52.1151 251.159 50.2969 251.159C47.9332 251.159 46.3651 253.023 46.3651 255.705C46.3651 258.386 47.9105 260.182 50.4332 260.182ZM47.7116 254.932C47.8026 253.574 48.7628 252.364 50.2969 252.364C51.7514 252.364 52.6832 253.455 52.6832 254.932H47.7116ZM58.6548 260.205C60.1776 260.205 60.973 259.386 61.2457 258.818H61.3139V260H62.6548V254.25C62.6548 251.477 60.5412 251.159 59.4276 251.159C58.1094 251.159 56.6094 251.614 55.9276 253.205L57.2003 253.659C57.4957 253.023 58.1946 252.341 59.473 252.341C60.706 252.341 61.3139 252.994 61.3139 254.114V254.159C61.3139 254.807 60.6548 254.75 59.0639 254.955C57.4446 255.165 55.6776 255.523 55.6776 257.523C55.6776 259.227 56.9957 260.205 58.6548 260.205ZM58.8594 259C57.7912 259 57.0185 258.523 57.0185 257.591C57.0185 256.568 57.9503 256.25 58.9957 256.114C59.5639 256.045 61.0866 255.886 61.3139 255.614V256.841C61.3139 257.932 60.4503 259 58.8594 259ZM71.2841 253.227C70.8636 251.989 69.9205 251.159 68.1932 251.159C66.3523 251.159 64.9886 252.205 64.9886 253.682C64.9886 254.886 65.7045 255.693 67.3068 256.068L68.7614 256.409C69.642 256.614 70.0568 257.034 70.0568 257.636C70.0568 258.386 69.2614 259 68.0114 259C66.9148 259 66.2273 258.528 65.9886 257.591L64.7159 257.909C65.0284 259.392 66.25 260.182 68.0341 260.182C70.0625 260.182 71.4432 259.074 71.4432 257.568C71.4432 256.352 70.6818 255.585 69.125 255.205L67.8295 254.886C66.7955 254.631 66.3295 254.284 66.3295 253.614C66.3295 252.864 67.125 252.318 68.1932 252.318C69.3636 252.318 69.8466 252.966 70.0795 253.568L71.2841 253.227ZM76.0298 260.205C77.5526 260.205 78.348 259.386 78.6207 258.818H78.6889V260H80.0298V254.25C80.0298 251.477 77.9162 251.159 76.8026 251.159C75.4844 251.159 73.9844 251.614 73.3026 253.205L74.5753 253.659C74.8707 253.023 75.5696 252.341 76.848 252.341C78.081 252.341 78.6889 252.994 78.6889 254.114V254.159C78.6889 254.807 78.0298 254.75 76.4389 254.955C74.8196 255.165 73.0526 255.523 73.0526 257.523C73.0526 259.227 74.3707 260.205 76.0298 260.205ZM76.2344 259C75.1662 259 74.3935 258.523 74.3935 257.591C74.3935 256.568 75.3253 256.25 76.3707 256.114C76.9389 256.045 78.4616 255.886 78.6889 255.614V256.841C78.6889 257.932 77.8253 259 76.2344 259ZM83.8182 254.75C83.8182 253.227 84.7614 252.364 86.0455 252.364C87.2898 252.364 88.0455 253.176 88.0455 254.545V260H89.3864V254.455C89.3864 252.227 88.1989 251.159 86.4318 251.159C85.1136 251.159 84.2955 251.75 83.8864 252.636H83.7727V251.273H82.4773V260H83.8182V254.75ZM95.6321 251.273H93.7685V249.182H92.4276V251.273H91.1094V252.409H92.4276V257.864C92.4276 259.386 93.6548 260.114 94.7912 260.114C95.2912 260.114 95.6094 260.023 95.7912 259.955L95.5185 258.75C95.4048 258.773 95.223 258.818 94.9276 258.818C94.3366 258.818 93.7685 258.636 93.7685 257.5V252.409H95.6321V251.273ZM106.036 251.273H104.081V250.386C104.081 249.523 104.445 249.068 105.331 249.068C105.717 249.068 105.945 249.159 106.081 249.205L106.467 248.045C106.263 247.955 105.854 247.818 105.195 247.818C103.945 247.818 102.74 248.568 102.74 250.068V251.273H101.331V252.409H102.74V260H104.081V252.409H106.036V251.273ZM111.101 260.182C113.464 260.182 115.055 258.386 115.055 255.682C115.055 252.955 113.464 251.159 111.101 251.159C108.737 251.159 107.146 252.955 107.146 255.682C107.146 258.386 108.737 260.182 111.101 260.182ZM111.101 258.977C109.305 258.977 108.487 257.432 108.487 255.682C108.487 253.932 109.305 252.364 111.101 252.364C112.896 252.364 113.714 253.932 113.714 255.682C113.714 257.432 112.896 258.977 111.101 258.977ZM117.102 260H118.443V254.477C118.443 253.295 119.375 252.432 120.648 252.432C121.006 252.432 121.375 252.5 121.466 252.523V251.159C121.312 251.148 120.96 251.136 120.761 251.136C119.716 251.136 118.807 251.727 118.489 252.591H118.398V251.273H117.102V260ZM128.419 263.273C129.629 263.273 130.482 262.631 130.987 261.273L134.703 251.295L133.237 251.273L130.828 258.227H130.737L128.328 251.273H126.874L130.101 260.045L129.851 260.727C129.362 262.057 128.76 262.182 127.783 261.932L127.442 263.114C127.578 263.182 127.964 263.273 128.419 263.273ZM139.71 260.182C142.074 260.182 143.665 258.386 143.665 255.682C143.665 252.955 142.074 251.159 139.71 251.159C137.347 251.159 135.756 252.955 135.756 255.682C135.756 258.386 137.347 260.182 139.71 260.182ZM139.71 258.977C137.915 258.977 137.097 257.432 137.097 255.682C137.097 253.932 137.915 252.364 139.71 252.364C141.506 252.364 142.324 253.932 142.324 255.682C142.324 257.432 141.506 258.977 139.71 258.977ZM151.212 256.432C151.212 258.068 149.962 258.818 148.962 258.818C147.848 258.818 147.053 258 147.053 256.727V251.273H145.712V256.818C145.712 259.045 146.893 260.114 148.53 260.114C149.848 260.114 150.712 259.409 151.121 258.523H151.212V260H152.553V251.273H151.212V256.432ZM155.009 260H156.349V254.477C156.349 253.295 157.281 252.432 158.554 252.432C158.912 252.432 159.281 252.5 159.372 252.523V251.159C159.219 251.148 158.866 251.136 158.668 251.136C157.622 251.136 156.713 251.727 156.395 252.591H156.304V251.273H155.009V260ZM169.007 260.182C170.939 260.182 172.212 259 172.439 257.455H171.098C170.848 258.409 170.053 258.977 169.007 258.977C167.416 258.977 166.393 257.659 166.393 255.636C166.393 253.659 167.439 252.364 169.007 252.364C170.189 252.364 170.893 253.091 171.098 253.886H172.439C172.212 252.25 170.825 251.159 168.984 251.159C166.621 251.159 165.053 253.023 165.053 255.682C165.053 258.295 166.553 260.182 169.007 260.182ZM179.899 256.432C179.899 258.068 178.649 258.818 177.649 258.818C176.536 258.818 175.74 258 175.74 256.727V251.273H174.399V256.818C174.399 259.045 175.581 260.114 177.217 260.114C178.536 260.114 179.399 259.409 179.808 258.523H179.899V260H181.24V251.273H179.899V256.432ZM189.878 253.227C189.457 251.989 188.514 251.159 186.787 251.159C184.946 251.159 183.582 252.205 183.582 253.682C183.582 254.886 184.298 255.693 185.901 256.068L187.355 256.409C188.236 256.614 188.651 257.034 188.651 257.636C188.651 258.386 187.855 259 186.605 259C185.509 259 184.821 258.528 184.582 257.591L183.31 257.909C183.622 259.392 184.844 260.182 186.628 260.182C188.656 260.182 190.037 259.074 190.037 257.568C190.037 256.352 189.276 255.585 187.719 255.205L186.423 254.886C185.389 254.631 184.923 254.284 184.923 253.614C184.923 252.864 185.719 252.318 186.787 252.318C187.957 252.318 188.44 252.966 188.673 253.568L189.878 253.227ZM195.851 251.273H193.987V249.182H192.646V251.273H191.328V252.409H192.646V257.864C192.646 259.386 193.874 260.114 195.01 260.114C195.51 260.114 195.828 260.023 196.01 259.955L195.737 258.75C195.624 258.773 195.442 258.818 195.146 258.818C194.555 258.818 193.987 258.636 193.987 257.5V252.409H195.851V251.273ZM201.32 260.182C203.683 260.182 205.274 258.386 205.274 255.682C205.274 252.955 203.683 251.159 201.32 251.159C198.956 251.159 197.365 252.955 197.365 255.682C197.365 258.386 198.956 260.182 201.32 260.182ZM201.32 258.977C199.524 258.977 198.706 257.432 198.706 255.682C198.706 253.932 199.524 252.364 201.32 252.364C203.115 252.364 203.933 253.932 203.933 255.682C203.933 257.432 203.115 258.977 201.32 258.977ZM207.321 260H208.662V254.545C208.662 253.267 209.594 252.364 210.639 252.364C211.656 252.364 212.366 253.028 212.366 254.023V260H213.73V254.318C213.73 253.193 214.435 252.364 215.662 252.364C216.616 252.364 217.435 252.869 217.435 254.159V260H218.776V254.159C218.776 252.108 217.673 251.159 216.116 251.159C214.866 251.159 213.952 251.733 213.503 252.636H213.412C212.98 251.705 212.219 251.159 211.071 251.159C209.935 251.159 209.094 251.705 208.73 252.636H208.616V251.273H207.321V260ZM224.886 260.182C226.659 260.182 227.955 259.295 228.364 257.977L227.068 257.614C226.727 258.523 225.938 258.977 224.886 258.977C223.312 258.977 222.227 257.96 222.165 256.091H228.5V255.523C228.5 252.273 226.568 251.159 224.75 251.159C222.386 251.159 220.818 253.023 220.818 255.705C220.818 258.386 222.364 260.182 224.886 260.182ZM222.165 254.932C222.256 253.574 223.216 252.364 224.75 252.364C226.205 252.364 227.136 253.455 227.136 254.932H222.165ZM230.54 260H231.881V254.477C231.881 253.295 232.812 252.432 234.085 252.432C234.443 252.432 234.812 252.5 234.903 252.523V251.159C234.75 251.148 234.398 251.136 234.199 251.136C233.153 251.136 232.244 251.727 231.926 252.591H231.835V251.273H230.54V260ZM242.675 253.227C242.254 251.989 241.311 251.159 239.584 251.159C237.743 251.159 236.379 252.205 236.379 253.682C236.379 254.886 237.095 255.693 238.697 256.068L240.152 256.409C241.033 256.614 241.447 257.034 241.447 257.636C241.447 258.386 240.652 259 239.402 259C238.305 259 237.618 258.528 237.379 257.591L236.107 257.909C236.419 259.392 237.641 260.182 239.425 260.182C241.453 260.182 242.834 259.074 242.834 257.568C242.834 256.352 242.072 255.585 240.516 255.205L239.22 254.886C238.186 254.631 237.72 254.284 237.72 253.614C237.72 252.864 238.516 252.318 239.584 252.318C240.754 252.318 241.237 252.966 241.47 253.568L242.675 253.227ZM251.33 260H252.648L254.557 253.295H254.693L256.602 260H257.92L260.58 251.273H259.17L257.284 257.932H257.193L255.352 251.273H253.92L252.057 257.955H251.966L250.08 251.273H248.67L251.33 260ZM262.352 260H263.693V251.273H262.352V260ZM263.034 249.818C263.557 249.818 263.989 249.409 263.989 248.909C263.989 248.409 263.557 248 263.034 248C262.511 248 262.08 248.409 262.08 248.909C262.08 249.409 262.511 249.818 263.034 249.818ZM269.945 251.273H268.081V249.182H266.74V251.273H265.422V252.409H266.74V257.864C266.74 259.386 267.967 260.114 269.104 260.114C269.604 260.114 269.922 260.023 270.104 259.955L269.831 258.75C269.717 258.773 269.536 258.818 269.24 258.818C268.649 258.818 268.081 258.636 268.081 257.5V252.409H269.945V251.273ZM273.49 254.75C273.49 253.227 274.462 252.364 275.786 252.364C277.047 252.364 277.808 253.159 277.808 254.545V260H279.149V254.455C279.149 252.21 277.956 251.159 276.172 251.159C274.797 251.159 274.013 251.733 273.604 252.636H273.49V248.364H272.149V260H273.49V254.75ZM33.8864 284L35.0568 280.705H39.7614L40.9318 284H42.4091L38.1364 272.364H36.6818L32.4091 284H33.8864ZM35.5 279.455L37.3636 274.205H37.4545L39.3182 279.455H35.5ZM44.0398 287.273H45.3807V282.659H45.4943C45.7898 283.136 46.358 284.182 48.0398 284.182C50.2216 284.182 51.7443 282.432 51.7443 279.659C51.7443 276.909 50.2216 275.159 48.017 275.159C46.3125 275.159 45.7898 276.205 45.4943 276.659H45.3352V275.273H44.0398V287.273ZM45.358 279.636C45.358 277.682 46.2216 276.364 47.858 276.364C49.5625 276.364 50.4034 277.795 50.4034 279.636C50.4034 281.5 49.5398 282.977 47.858 282.977C46.2443 282.977 45.358 281.614 45.358 279.636ZM53.7898 287.273H55.1307V282.659H55.2443C55.5398 283.136 56.108 284.182 57.7898 284.182C59.9716 284.182 61.4943 282.432 61.4943 279.659C61.4943 276.909 59.9716 275.159 57.767 275.159C56.0625 275.159 55.5398 276.205 55.2443 276.659H55.0852V275.273H53.7898V287.273ZM55.108 279.636C55.108 277.682 55.9716 276.364 57.608 276.364C59.3125 276.364 60.1534 277.795 60.1534 279.636C60.1534 281.5 59.2898 282.977 57.608 282.977C55.9943 282.977 55.108 281.614 55.108 279.636ZM67.0852 284.182C69.4489 284.182 71.0398 282.386 71.0398 279.682C71.0398 276.955 69.4489 275.159 67.0852 275.159C64.7216 275.159 63.1307 276.955 63.1307 279.682C63.1307 282.386 64.7216 284.182 67.0852 284.182ZM67.0852 282.977C65.2898 282.977 64.4716 281.432 64.4716 279.682C64.4716 277.932 65.2898 276.364 67.0852 276.364C68.8807 276.364 69.6989 277.932 69.6989 279.682C69.6989 281.432 68.8807 282.977 67.0852 282.977ZM73.0866 284H74.4276V275.273H73.0866V284ZM73.7685 273.818C74.2912 273.818 74.723 273.409 74.723 272.909C74.723 272.409 74.2912 272 73.7685 272C73.2457 272 72.8139 272.409 72.8139 272.909C72.8139 273.409 73.2457 273.818 73.7685 273.818ZM78.2244 278.75C78.2244 277.227 79.1676 276.364 80.4517 276.364C81.696 276.364 82.4517 277.176 82.4517 278.545V284H83.7926V278.455C83.7926 276.227 82.6051 275.159 80.8381 275.159C79.5199 275.159 78.7017 275.75 78.2926 276.636H78.179V275.273H76.8835V284H78.2244V278.75ZM90.0384 275.273H88.1747V273.182H86.8338V275.273H85.5156V276.409H86.8338V281.864C86.8338 283.386 88.0611 284.114 89.1974 284.114C89.6974 284.114 90.0156 284.023 90.1974 283.955L89.9247 282.75C89.8111 282.773 89.6293 282.818 89.3338 282.818C88.7429 282.818 88.1747 282.636 88.1747 281.5V276.409H90.0384V275.273ZM92.0554 284H93.3963V278.545C93.3963 277.267 94.3281 276.364 95.3736 276.364C96.3906 276.364 97.1009 277.028 97.1009 278.023V284H98.4645V278.318C98.4645 277.193 99.169 276.364 100.396 276.364C101.351 276.364 102.169 276.869 102.169 278.159V284H103.51V278.159C103.51 276.108 102.408 275.159 100.851 275.159C99.6009 275.159 98.6861 275.733 98.2372 276.636H98.1463C97.7145 275.705 96.9531 275.159 95.8054 275.159C94.669 275.159 93.8281 275.705 93.4645 276.636H93.3509V275.273H92.0554V284ZM109.621 284.182C111.393 284.182 112.689 283.295 113.098 281.977L111.803 281.614C111.462 282.523 110.672 282.977 109.621 282.977C108.047 282.977 106.962 281.96 106.899 280.091H113.234V279.523C113.234 276.273 111.303 275.159 109.484 275.159C107.121 275.159 105.553 277.023 105.553 279.705C105.553 282.386 107.098 284.182 109.621 284.182ZM106.899 278.932C106.99 277.574 107.95 276.364 109.484 276.364C110.939 276.364 111.871 277.455 111.871 278.932H106.899ZM116.615 278.75C116.615 277.227 117.558 276.364 118.842 276.364C120.087 276.364 120.842 277.176 120.842 278.545V284H122.183V278.455C122.183 276.227 120.996 275.159 119.229 275.159C117.911 275.159 117.092 275.75 116.683 276.636H116.57V275.273H115.274V284H116.615V278.75ZM128.429 275.273H126.565V273.182H125.224V275.273H123.906V276.409H125.224V281.864C125.224 283.386 126.452 284.114 127.588 284.114C128.088 284.114 128.406 284.023 128.588 283.955L128.315 282.75C128.202 282.773 128.02 282.818 127.724 282.818C127.134 282.818 126.565 282.636 126.565 281.5V276.409H128.429V275.273ZM141.128 277.227C140.707 275.989 139.764 275.159 138.037 275.159C136.196 275.159 134.832 276.205 134.832 277.682C134.832 278.886 135.548 279.693 137.151 280.068L138.605 280.409C139.486 280.614 139.901 281.034 139.901 281.636C139.901 282.386 139.105 283 137.855 283C136.759 283 136.071 282.528 135.832 281.591L134.56 281.909C134.872 283.392 136.094 284.182 137.878 284.182C139.906 284.182 141.287 283.074 141.287 281.568C141.287 280.352 140.526 279.585 138.969 279.205L137.673 278.886C136.639 278.631 136.173 278.284 136.173 277.614C136.173 276.864 136.969 276.318 138.037 276.318C139.207 276.318 139.69 276.966 139.923 277.568L141.128 277.227ZM146.851 284.182C148.783 284.182 150.055 283 150.283 281.455H148.942C148.692 282.409 147.896 282.977 146.851 282.977C145.26 282.977 144.237 281.659 144.237 279.636C144.237 277.659 145.283 276.364 146.851 276.364C148.033 276.364 148.737 277.091 148.942 277.886H150.283C150.055 276.25 148.669 275.159 146.828 275.159C144.464 275.159 142.896 277.023 142.896 279.682C142.896 282.295 144.396 284.182 146.851 284.182ZM153.584 278.75C153.584 277.227 154.555 276.364 155.879 276.364C157.141 276.364 157.902 277.159 157.902 278.545V284H159.243V278.455C159.243 276.21 158.05 275.159 156.266 275.159C154.891 275.159 154.107 275.733 153.697 276.636H153.584V272.364H152.243V284H153.584V278.75ZM165.355 284.182C167.128 284.182 168.423 283.295 168.832 281.977L167.537 281.614C167.196 282.523 166.406 282.977 165.355 282.977C163.781 282.977 162.696 281.96 162.634 280.091H168.969V279.523C168.969 276.273 167.037 275.159 165.219 275.159C162.855 275.159 161.287 277.023 161.287 279.705C161.287 282.386 162.832 284.182 165.355 284.182ZM162.634 278.932C162.724 277.574 163.685 276.364 165.219 276.364C166.673 276.364 167.605 277.455 167.605 278.932H162.634ZM174.304 284.182C175.986 284.182 176.554 283.136 176.849 282.659H177.009V284H178.304V272.364H176.963V276.659H176.849C176.554 276.205 176.031 275.159 174.327 275.159C172.122 275.159 170.599 276.909 170.599 279.659C170.599 282.432 172.122 284.182 174.304 284.182ZM174.486 282.977C172.804 282.977 171.94 281.5 171.94 279.636C171.94 277.795 172.781 276.364 174.486 276.364C176.122 276.364 176.986 277.682 176.986 279.636C176.986 281.614 176.099 282.977 174.486 282.977ZM186.446 280.432C186.446 282.068 185.196 282.818 184.196 282.818C183.082 282.818 182.287 282 182.287 280.727V275.273H180.946V280.818C180.946 283.045 182.128 284.114 183.764 284.114C185.082 284.114 185.946 283.409 186.355 282.523H186.446V284H187.787V275.273H186.446V280.432ZM191.584 272.364H190.243V284H191.584V272.364ZM194.04 284H195.381V275.273H194.04V284ZM194.722 273.818C195.244 273.818 195.676 273.409 195.676 272.909C195.676 272.409 195.244 272 194.722 272C194.199 272 193.767 272.409 193.767 272.909C193.767 273.409 194.199 273.818 194.722 273.818ZM199.178 278.75C199.178 277.227 200.121 276.364 201.405 276.364C202.649 276.364 203.405 277.176 203.405 278.545V284H204.746V278.455C204.746 276.227 203.558 275.159 201.791 275.159C200.473 275.159 199.655 275.75 199.246 276.636H199.132V275.273H197.837V284H199.178V278.75ZM210.719 287.455C212.81 287.455 214.491 286.5 214.491 284.25V275.273H213.196V276.659H213.06C212.764 276.205 212.219 275.159 210.514 275.159C208.31 275.159 206.787 276.909 206.787 279.591C206.787 282.318 208.378 283.864 210.491 283.864C212.196 283.864 212.741 282.864 213.037 282.386H213.151V284.159C213.151 285.614 212.128 286.273 210.719 286.273C209.134 286.273 208.577 285.438 208.219 284.955L207.151 285.705C207.696 286.619 208.77 287.455 210.719 287.455ZM210.673 282.659C208.991 282.659 208.128 281.386 208.128 279.568C208.128 277.795 208.969 276.364 210.673 276.364C212.31 276.364 213.173 277.682 213.173 279.568C213.173 281.5 212.287 282.659 210.673 282.659ZM224.014 284.205C225.537 284.205 226.332 283.386 226.605 282.818H226.673V284H228.014V278.25C228.014 275.477 225.901 275.159 224.787 275.159C223.469 275.159 221.969 275.614 221.287 277.205L222.56 277.659C222.855 277.023 223.554 276.341 224.832 276.341C226.065 276.341 226.673 276.994 226.673 278.114V278.159C226.673 278.807 226.014 278.75 224.423 278.955C222.804 279.165 221.037 279.523 221.037 281.523C221.037 283.227 222.355 284.205 224.014 284.205ZM224.219 283C223.151 283 222.378 282.523 222.378 281.591C222.378 280.568 223.31 280.25 224.355 280.114C224.923 280.045 226.446 279.886 226.673 279.614V280.841C226.673 281.932 225.81 283 224.219 283ZM231.803 278.75C231.803 277.227 232.746 276.364 234.03 276.364C235.274 276.364 236.03 277.176 236.03 278.545V284H237.371V278.455C237.371 276.227 236.183 275.159 234.416 275.159C233.098 275.159 232.28 275.75 231.871 276.636H231.757V275.273H230.462V284H231.803V278.75ZM243.116 284.182C244.798 284.182 245.366 283.136 245.662 282.659H245.821V284H247.116V272.364H245.776V276.659H245.662C245.366 276.205 244.844 275.159 243.139 275.159C240.935 275.159 239.412 276.909 239.412 279.659C239.412 282.432 240.935 284.182 243.116 284.182ZM243.298 282.977C241.616 282.977 240.753 281.5 240.753 279.636C240.753 277.795 241.594 276.364 243.298 276.364C244.935 276.364 245.798 277.682 245.798 279.636C245.798 281.614 244.912 282.977 243.298 282.977ZM33.8864 296.364H32.4091L36.6818 308H38.1364L42.4091 296.364H40.9318L37.4773 306.159H37.3409L33.8864 296.364ZM44.0398 308H45.3807V299.273H44.0398V308ZM44.7216 297.818C45.2443 297.818 45.6761 297.409 45.6761 296.909C45.6761 296.409 45.2443 296 44.7216 296C44.1989 296 43.767 296.409 43.767 296.909C43.767 297.409 44.1989 297.818 44.7216 297.818ZM47.8366 308H49.1776V302.477C49.1776 301.295 50.1094 300.432 51.3821 300.432C51.7401 300.432 52.1094 300.5 52.2003 300.523V299.159C52.0469 299.148 51.6946 299.136 51.4957 299.136C50.4503 299.136 49.5412 299.727 49.223 300.591H49.1321V299.273H47.8366V308ZM58.1321 299.273H56.2685V297.182H54.9276V299.273H53.6094V300.409H54.9276V305.864C54.9276 307.386 56.1548 308.114 57.2912 308.114C57.7912 308.114 58.1094 308.023 58.2912 307.955L58.0185 306.75C57.9048 306.773 57.723 306.818 57.4276 306.818C56.8366 306.818 56.2685 306.636 56.2685 305.5V300.409H58.1321V299.273ZM65.6491 304.432C65.6491 306.068 64.3991 306.818 63.3991 306.818C62.2855 306.818 61.4901 306 61.4901 304.727V299.273H60.1491V304.818C60.1491 307.045 61.331 308.114 62.9673 308.114C64.2855 308.114 65.1491 307.409 65.5582 306.523H65.6491V308H66.9901V299.273H65.6491V304.432ZM72.0142 308.205C73.5369 308.205 74.3324 307.386 74.6051 306.818H74.6733V308H76.0142V302.25C76.0142 299.477 73.9006 299.159 72.7869 299.159C71.4688 299.159 69.9688 299.614 69.2869 301.205L70.5597 301.659C70.8551 301.023 71.554 300.341 72.8324 300.341C74.0653 300.341 74.6733 300.994 74.6733 302.114V302.159C74.6733 302.807 74.0142 302.75 72.4233 302.955C70.804 303.165 69.0369 303.523 69.0369 305.523C69.0369 307.227 70.3551 308.205 72.0142 308.205ZM72.2188 307C71.1506 307 70.3778 306.523 70.3778 305.591C70.3778 304.568 71.3097 304.25 72.3551 304.114C72.9233 304.045 74.446 303.886 74.6733 303.614V304.841C74.6733 305.932 73.8097 307 72.2188 307ZM79.8026 296.364H78.4616V308H79.8026V296.364ZM94.054 311.273V299.273H92.7585V300.659H92.5994C92.304 300.205 91.7812 299.159 90.0767 299.159C87.8722 299.159 86.3494 300.909 86.3494 303.659C86.3494 306.432 87.8722 308.182 90.054 308.182C91.7358 308.182 92.304 307.136 92.5994 306.659H92.7131V311.273H94.054ZM92.7358 303.636C92.7358 305.614 91.8494 306.977 90.2358 306.977C88.554 306.977 87.6903 305.5 87.6903 303.636C87.6903 301.795 88.5312 300.364 90.2358 300.364C91.8722 300.364 92.7358 301.682 92.7358 303.636ZM102.009 304.432C102.009 306.068 100.759 306.818 99.7585 306.818C98.6449 306.818 97.8494 306 97.8494 304.727V299.273H96.5085V304.818C96.5085 307.045 97.6903 308.114 99.3267 308.114C100.645 308.114 101.509 307.409 101.918 306.523H102.009V308H103.349V299.273H102.009V304.432ZM109.464 308.182C111.237 308.182 112.533 307.295 112.942 305.977L111.646 305.614C111.305 306.523 110.516 306.977 109.464 306.977C107.891 306.977 106.805 305.96 106.743 304.091H113.078V303.523C113.078 300.273 111.146 299.159 109.328 299.159C106.964 299.159 105.396 301.023 105.396 303.705C105.396 306.386 106.942 308.182 109.464 308.182ZM106.743 302.932C106.834 301.574 107.794 300.364 109.328 300.364C110.783 300.364 111.714 301.455 111.714 302.932H106.743ZM120.618 304.432C120.618 306.068 119.368 306.818 118.368 306.818C117.254 306.818 116.459 306 116.459 304.727V299.273H115.118V304.818C115.118 307.045 116.3 308.114 117.936 308.114C119.254 308.114 120.118 307.409 120.527 306.523H120.618V308H121.959V299.273H120.618V304.432ZM128.074 308.182C129.847 308.182 131.142 307.295 131.551 305.977L130.256 305.614C129.915 306.523 129.125 306.977 128.074 306.977C126.5 306.977 125.415 305.96 125.352 304.091H131.688V303.523C131.688 300.273 129.756 299.159 127.938 299.159C125.574 299.159 124.006 301.023 124.006 303.705C124.006 306.386 125.551 308.182 128.074 308.182ZM125.352 302.932C125.443 301.574 126.403 300.364 127.938 300.364C129.392 300.364 130.324 301.455 130.324 302.932H125.352ZM138.227 308H139.568V302.545C139.568 301.267 140.5 300.364 141.545 300.364C142.562 300.364 143.273 301.028 143.273 302.023V308H144.636V302.318C144.636 301.193 145.341 300.364 146.568 300.364C147.523 300.364 148.341 300.869 148.341 302.159V308H149.682V302.159C149.682 300.108 148.58 299.159 147.023 299.159C145.773 299.159 144.858 299.733 144.409 300.636H144.318C143.886 299.705 143.125 299.159 141.977 299.159C140.841 299.159 140 299.705 139.636 300.636H139.523V299.273H138.227V308ZM154.702 308.205C156.224 308.205 157.02 307.386 157.293 306.818H157.361V308H158.702V302.25C158.702 299.477 156.588 299.159 155.474 299.159C154.156 299.159 152.656 299.614 151.974 301.205L153.247 301.659C153.543 301.023 154.241 300.341 155.52 300.341C156.753 300.341 157.361 300.994 157.361 302.114V302.159C157.361 302.807 156.702 302.75 155.111 302.955C153.491 303.165 151.724 303.523 151.724 305.523C151.724 307.227 153.043 308.205 154.702 308.205ZM154.906 307C153.838 307 153.065 306.523 153.065 305.591C153.065 304.568 153.997 304.25 155.043 304.114C155.611 304.045 157.134 303.886 157.361 303.614V304.841C157.361 305.932 156.497 307 154.906 307ZM162.49 302.75C162.49 301.227 163.433 300.364 164.717 300.364C165.962 300.364 166.717 301.176 166.717 302.545V308H168.058V302.455C168.058 300.227 166.871 299.159 165.104 299.159C163.786 299.159 162.967 299.75 162.558 300.636H162.445V299.273H161.149V308H162.49V302.75ZM173.077 308.205C174.599 308.205 175.395 307.386 175.668 306.818H175.736V308H177.077V302.25C177.077 299.477 174.963 299.159 173.849 299.159C172.531 299.159 171.031 299.614 170.349 301.205L171.622 301.659C171.918 301.023 172.616 300.341 173.895 300.341C175.128 300.341 175.736 300.994 175.736 302.114V302.159C175.736 302.807 175.077 302.75 173.486 302.955C171.866 303.165 170.099 303.523 170.099 305.523C170.099 307.227 171.418 308.205 173.077 308.205ZM173.281 307C172.213 307 171.44 306.523 171.44 305.591C171.44 304.568 172.372 304.25 173.418 304.114C173.986 304.045 175.509 303.886 175.736 303.614V304.841C175.736 305.932 174.872 307 173.281 307ZM183.047 311.455C185.138 311.455 186.82 310.5 186.82 308.25V299.273H185.524V300.659H185.388C185.092 300.205 184.547 299.159 182.842 299.159C180.638 299.159 179.115 300.909 179.115 303.591C179.115 306.318 180.706 307.864 182.82 307.864C184.524 307.864 185.07 306.864 185.365 306.386H185.479V308.159C185.479 309.614 184.456 310.273 183.047 310.273C181.462 310.273 180.905 309.438 180.547 308.955L179.479 309.705C180.024 310.619 181.098 311.455 183.047 311.455ZM183.001 306.659C181.32 306.659 180.456 305.386 180.456 303.568C180.456 301.795 181.297 300.364 183.001 300.364C184.638 300.364 185.501 301.682 185.501 303.568C185.501 305.5 184.615 306.659 183.001 306.659ZM192.933 308.182C194.706 308.182 196.001 307.295 196.411 305.977L195.115 305.614C194.774 306.523 193.984 306.977 192.933 306.977C191.359 306.977 190.274 305.96 190.212 304.091H196.547V303.523C196.547 300.273 194.615 299.159 192.797 299.159C190.433 299.159 188.865 301.023 188.865 303.705C188.865 306.386 190.411 308.182 192.933 308.182ZM190.212 302.932C190.303 301.574 191.263 300.364 192.797 300.364C194.251 300.364 195.183 301.455 195.183 302.932H190.212ZM198.587 308H199.928V302.545C199.928 301.267 200.859 300.364 201.905 300.364C202.922 300.364 203.632 301.028 203.632 302.023V308H204.996V302.318C204.996 301.193 205.7 300.364 206.928 300.364C207.882 300.364 208.7 300.869 208.7 302.159V308H210.041V302.159C210.041 300.108 208.939 299.159 207.382 299.159C206.132 299.159 205.217 299.733 204.768 300.636H204.678C204.246 299.705 203.484 299.159 202.337 299.159C201.2 299.159 200.359 299.705 199.996 300.636H199.882V299.273H198.587V308ZM216.152 308.182C217.925 308.182 219.22 307.295 219.629 305.977L218.334 305.614C217.993 306.523 217.203 306.977 216.152 306.977C214.578 306.977 213.493 305.96 213.43 304.091H219.766V303.523C219.766 300.273 217.834 299.159 216.016 299.159C213.652 299.159 212.084 301.023 212.084 303.705C212.084 306.386 213.629 308.182 216.152 308.182ZM213.43 302.932C213.521 301.574 214.482 300.364 216.016 300.364C217.47 300.364 218.402 301.455 218.402 302.932H213.43ZM223.146 302.75C223.146 301.227 224.089 300.364 225.374 300.364C226.618 300.364 227.374 301.176 227.374 302.545V308H228.714V302.455C228.714 300.227 227.527 299.159 225.76 299.159C224.442 299.159 223.624 299.75 223.214 300.636H223.101V299.273H221.805V308H223.146V302.75ZM234.96 299.273H233.097V297.182H231.756V299.273H230.438V300.409H231.756V305.864C231.756 307.386 232.983 308.114 234.119 308.114C234.619 308.114 234.938 308.023 235.119 307.955L234.847 306.75C234.733 306.773 234.551 306.818 234.256 306.818C233.665 306.818 233.097 306.636 233.097 305.5V300.409H234.96V299.273ZM237.955 308.091C238.517 308.091 238.977 307.631 238.977 307.068C238.977 306.506 238.517 306.045 237.955 306.045C237.392 306.045 236.932 306.506 236.932 307.068C236.932 307.631 237.392 308.091 237.955 308.091Z" fill="#F1EFF4"/>
<path d="M51.4905 75.9311C50.9308 71.2867 47.4157 68.616 42.7615 68.616C37.4495 68.616 33.3943 72.3668 33.3943 78.9455C33.3943 85.5045 37.3808 89.2749 42.7615 89.2749C47.9164 89.2749 51.029 85.8481 51.4905 82.1464L47.1898 82.1268C46.7873 84.2771 45.0984 85.5143 42.8302 85.5143C39.7766 85.5143 37.7048 83.2461 37.7048 78.9455C37.7048 74.7626 39.7471 72.3766 42.8597 72.3766C45.1868 72.3766 46.8658 73.7218 47.1898 75.9311H51.4905ZM64.1323 82.5784C64.1421 84.6011 62.7577 85.6616 61.2554 85.6616C59.6745 85.6616 58.6534 84.552 58.6436 82.7748V73.9182H54.4607V83.5211C54.4705 87.046 56.5325 89.1964 59.5665 89.1964C61.8347 89.1964 63.4646 88.0279 64.1421 86.2605H64.2992V89H68.3152V73.9182H64.1323V82.5784ZM84.2095 78.2189C83.8364 75.4401 81.5977 73.7218 77.7879 73.7218C73.9291 73.7218 71.386 75.5088 71.3958 78.4152C71.386 80.6736 72.8098 82.1366 75.7554 82.7257L78.3673 83.2461C79.683 83.5112 80.2819 83.9924 80.3016 84.7484C80.2819 85.6419 79.3099 86.2802 77.8469 86.2802C76.3544 86.2802 75.3627 85.6419 75.1074 84.4146L70.9933 84.6306C71.386 87.5173 73.8408 89.2946 77.837 89.2946C81.745 89.2946 84.5433 87.3013 84.5532 84.3262C84.5433 82.1464 83.1196 80.8405 80.1936 80.2415L77.4639 79.6917C76.0598 79.3873 75.5394 78.9062 75.5492 78.1796C75.5394 77.2762 76.5606 76.6871 77.8567 76.6871C79.3099 76.6871 80.1739 77.4824 80.3801 78.4545L84.2095 78.2189ZM95.2091 73.9182H92.3715V70.3048H88.1886V73.9182H86.1266V77.0602H88.1886V84.9153C88.169 87.8708 90.1818 89.3338 93.2159 89.2062C94.296 89.1669 95.0618 88.9509 95.484 88.8134L94.8262 85.7009C94.62 85.7401 94.1781 85.8383 93.7854 85.8383C92.9508 85.8383 92.3715 85.5241 92.3715 84.3655V77.0602H95.2091V73.9182ZM104.586 89.2946C109.162 89.2946 112.009 86.1623 112.009 81.518C112.009 76.8442 109.162 73.7218 104.586 73.7218C100.011 73.7218 97.1631 76.8442 97.1631 81.518C97.1631 86.1623 100.011 89.2946 104.586 89.2946ZM104.606 86.0543C102.495 86.0543 101.415 84.12 101.415 81.4885C101.415 78.8571 102.495 76.9129 104.606 76.9129C106.678 76.9129 107.758 78.8571 107.758 81.4885C107.758 84.12 106.678 86.0543 104.606 86.0543ZM114.729 89H118.912V79.947C118.912 78.2778 119.972 77.1682 121.367 77.1682C122.741 77.1682 123.664 78.1108 123.664 79.5935V89H127.719V79.7899C127.719 78.2287 128.613 77.1682 130.135 77.1682C131.47 77.1682 132.472 78.0028 132.472 79.6819V89H136.645V78.8571C136.645 75.5874 134.701 73.7218 131.892 73.7218C129.683 73.7218 127.965 74.851 127.346 76.5791H127.189C126.708 74.8313 125.167 73.7218 123.095 73.7218C121.062 73.7218 119.521 74.8019 118.892 76.5791H118.716V73.9182H114.729V89ZM146.822 89.2946C150.553 89.2946 153.067 87.4781 153.656 84.6797L149.787 84.4244C149.365 85.5732 148.285 86.1722 146.891 86.1722C144.799 86.1722 143.474 84.7877 143.474 82.5392V82.5294H153.744V81.3805C153.744 76.2551 150.642 73.7218 146.655 73.7218C142.217 73.7218 139.34 76.8737 139.34 81.5278C139.34 86.3096 142.178 89.2946 146.822 89.2946ZM143.474 79.9372C143.562 78.2189 144.868 76.8442 146.724 76.8442C148.54 76.8442 149.797 78.1403 149.807 79.9372H143.474ZM156.474 89H160.657V80.4674C160.657 78.6116 162.012 77.3352 163.858 77.3352C164.437 77.3352 165.233 77.4333 165.625 77.561V73.8494C165.252 73.7611 164.732 73.7022 164.31 73.7022C162.621 73.7022 161.236 74.6841 160.686 76.5496H160.529V73.9182H156.474V89ZM180.336 78.2189C179.963 75.4401 177.725 73.7218 173.915 73.7218C170.056 73.7218 167.513 75.5088 167.523 78.4152C167.513 80.6736 168.937 82.1366 171.882 82.7257L174.494 83.2461C175.81 83.5112 176.409 83.9924 176.429 84.7484C176.409 85.6419 175.437 86.2802 173.974 86.2802C172.481 86.2802 171.49 85.6419 171.234 84.4146L167.12 84.6306C167.513 87.5173 169.968 89.2946 173.964 89.2946C177.872 89.2946 180.67 87.3013 180.68 84.3262C180.67 82.1464 179.247 80.8405 176.321 80.2415L173.591 79.6917C172.187 79.3873 171.666 78.9062 171.676 78.1796C171.666 77.2762 172.688 76.6871 173.984 76.6871C175.437 76.6871 176.301 77.4824 176.507 78.4545L180.336 78.2189ZM193.896 80.2808C193.906 78.3367 195.094 77.1977 196.803 77.1977C198.501 77.1977 199.503 78.2876 199.493 80.1434V89H203.676V79.3971C203.686 75.8623 201.604 73.7218 198.462 73.7218C196.174 73.7218 194.643 74.8019 193.955 76.5791H193.779V68.8909H189.713V89H193.896V80.2808ZM211.268 89.2847C213.497 89.2847 214.941 88.3127 215.677 86.9086H215.795V89H219.762V78.8276C219.762 75.2339 216.718 73.7218 213.36 73.7218C209.746 73.7218 207.37 75.4499 206.791 78.1992L210.66 78.5134C210.944 77.5119 211.838 76.7755 213.34 76.7755C214.764 76.7755 215.579 77.4923 215.579 78.7294V78.7884C215.579 79.7604 214.548 79.8881 211.926 80.1434C208.941 80.4183 206.261 81.4198 206.261 84.7877C206.261 87.7726 208.391 89.2847 211.268 89.2847ZM212.466 86.398C211.18 86.398 210.257 85.799 210.257 84.6502C210.257 83.472 211.229 82.8926 212.702 82.6865C213.615 82.5588 215.108 82.3428 215.608 82.0089V83.6094C215.608 85.1903 214.302 86.398 212.466 86.398ZM231.029 73.9182H228.191V70.3048H224.008V73.9182H221.946V77.0602H224.008V84.9153C223.989 87.8708 226.002 89.3338 229.036 89.2062C230.116 89.1669 230.882 88.9509 231.304 88.8134L230.646 85.7009C230.44 85.7401 229.998 85.8383 229.605 85.8383C228.771 85.8383 228.191 85.5241 228.191 84.3655V77.0602H231.029V73.9182ZM240.465 89.2946C244.196 89.2946 246.71 87.4781 247.299 84.6797L243.43 84.4244C243.008 85.5732 241.928 86.1722 240.534 86.1722C238.442 86.1722 237.117 84.7877 237.117 82.5392V82.5294H247.387V81.3805C247.387 76.2551 244.284 73.7218 240.298 73.7218C235.86 73.7218 232.983 76.8737 232.983 81.5278C232.983 86.3096 235.821 89.2946 240.465 89.2946ZM237.117 79.9372C237.205 78.2189 238.511 76.8442 240.367 76.8442C242.183 76.8442 243.44 78.1403 243.45 79.9372H237.117ZM47.8182 127.656V106.918H43.6943V109.451H43.5077C42.9481 108.224 41.7403 106.722 39.2169 106.722C35.9079 106.722 33.1095 109.294 33.1095 114.479C33.1095 119.526 35.7901 122.245 39.2267 122.245C41.6618 122.245 42.9284 120.841 43.5077 119.585H43.6354V127.656H47.8182ZM43.7238 114.459C43.7238 117.149 42.5651 118.917 40.5523 118.917C38.5001 118.917 37.3808 117.091 37.3808 114.459C37.3808 111.847 38.4805 110.05 40.5523 110.05C42.5848 110.05 43.7238 111.769 43.7238 114.459ZM60.8381 115.578C60.8479 117.601 59.4634 118.662 57.9612 118.662C56.3803 118.662 55.3591 117.552 55.3493 115.775V106.918H51.1665V116.521C51.1763 120.046 53.2383 122.196 56.2723 122.196C58.5405 122.196 60.1704 121.028 60.8479 119.261H61.005V122H65.0209V106.918H60.8381V115.578ZM75.2399 122.295C78.9711 122.295 81.4848 120.478 82.0739 117.68L78.2053 117.424C77.783 118.573 76.703 119.172 75.3087 119.172C73.2173 119.172 71.8917 117.788 71.8917 115.539V115.529H82.1623V114.381C82.1623 109.255 79.0595 106.722 75.073 106.722C70.6349 106.722 67.758 109.874 67.758 114.528C67.758 119.31 70.5956 122.295 75.2399 122.295ZM71.8917 112.937C71.9801 111.219 73.286 109.844 75.1418 109.844C76.9583 109.844 78.2151 111.14 78.2249 112.937H71.8917ZM94.5635 115.578C94.5733 117.601 93.1889 118.662 91.6866 118.662C90.1057 118.662 89.0846 117.552 89.0748 115.775V106.918H84.8919V116.521C84.9017 120.046 86.9637 122.196 89.9977 122.196C92.2659 122.196 93.8958 121.028 94.5733 119.261H94.7304V122H98.7464V106.918H94.5635V115.578ZM108.965 122.295C112.697 122.295 115.21 120.478 115.799 117.68L111.931 117.424C111.508 118.573 110.428 119.172 109.034 119.172C106.943 119.172 105.617 117.788 105.617 115.539V115.529H115.888V114.381C115.888 109.255 112.785 106.722 108.798 106.722C104.36 106.722 101.483 109.874 101.483 114.528C101.483 119.31 104.321 122.295 108.965 122.295ZM105.617 112.937C105.706 111.219 107.011 109.844 108.867 109.844C110.684 109.844 111.941 111.14 111.95 112.937H105.617ZM131.166 111.219C130.793 108.44 128.554 106.722 124.744 106.722C120.886 106.722 118.342 108.509 118.352 111.415C118.342 113.674 119.766 115.137 122.712 115.726L125.324 116.246C126.639 116.511 127.238 116.992 127.258 117.748C127.238 118.642 126.266 119.28 124.803 119.28C123.311 119.28 122.319 118.642 122.064 117.415L117.95 117.631C118.342 120.517 120.797 122.295 124.793 122.295C128.701 122.295 131.5 120.301 131.51 117.326C131.5 115.146 130.076 113.841 127.15 113.242L124.42 112.692C123.016 112.387 122.496 111.906 122.506 111.18C122.496 110.276 123.517 109.687 124.813 109.687C126.266 109.687 127.13 110.482 127.337 111.455L131.166 111.219ZM136.588 122.255C137.845 122.255 138.935 121.205 138.945 119.899C138.935 118.612 137.845 117.562 136.588 117.562C135.292 117.562 134.222 118.612 134.232 119.899C134.222 121.205 135.292 122.255 136.588 122.255ZM33.7478 155H47.3371V151.495H37.9993V146.693H46.6007V143.188H37.9993V138.396H47.2978V134.891H33.7478V155ZM64.6601 139.918H60.2318L57.1094 150.709H56.9523L53.82 139.918H49.4015L54.6743 155H59.3873L64.6601 139.918ZM73.1608 155.295C76.892 155.295 79.4056 153.478 79.9947 150.68L76.1261 150.424C75.7039 151.573 74.6238 152.172 73.2295 152.172C71.1381 152.172 69.8126 150.788 69.8126 148.539V148.529H80.0831V147.381C80.0831 142.255 76.9803 139.722 72.9939 139.722C68.5557 139.722 65.6788 142.874 65.6788 147.528C65.6788 152.31 68.5165 155.295 73.1608 155.295ZM69.8126 145.937C69.9009 144.219 71.2068 142.844 73.0626 142.844C74.8791 142.844 76.1359 144.14 76.1457 145.937H69.8126ZM86.9956 146.281C87.0054 144.337 88.1641 143.198 89.8529 143.198C91.5319 143.198 92.5433 144.297 92.5335 146.143V155H96.7163V145.397C96.7163 141.882 94.6543 139.722 91.5123 139.722C89.2736 139.722 87.6535 140.822 86.976 142.579H86.7992V139.918H82.8128V155H86.9956V146.281ZM114.435 139.918H111.597V136.305H107.414V139.918H105.352V143.06H107.414V150.915C107.394 153.871 109.407 155.334 112.441 155.206C113.521 155.167 114.287 154.951 114.709 154.813L114.052 151.701C113.845 151.74 113.404 151.838 113.011 151.838C112.176 151.838 111.597 151.524 111.597 150.365V143.06H114.435V139.918ZM121.666 146.281C121.676 144.337 122.864 143.198 124.573 143.198C126.271 143.198 127.273 144.288 127.263 146.143V155H131.446V145.397C131.456 141.862 129.374 139.722 126.232 139.722C123.944 139.722 122.412 140.802 121.725 142.579H121.548V134.891H117.483V155H121.666V146.281ZM141.611 155.295C145.342 155.295 147.856 153.478 148.445 150.68L144.576 150.424C144.154 151.573 143.074 152.172 141.679 152.172C139.588 152.172 138.263 150.788 138.263 148.539V148.529H148.533V147.381C148.533 142.255 145.43 139.722 141.444 139.722C137.006 139.722 134.129 142.874 134.129 147.528C134.129 152.31 136.966 155.295 141.611 155.295ZM138.263 145.937C138.351 144.219 139.657 142.844 141.513 142.844C143.329 142.844 144.586 144.14 144.596 145.937H138.263ZM171.723 139.918H167.295L164.172 150.709H164.015L160.883 139.918H156.464L161.737 155H166.45L171.723 139.918ZM173.863 155H178.046V139.918H173.863V155ZM175.965 137.974C177.212 137.974 178.233 137.022 178.233 135.853C178.233 134.695 177.212 133.742 175.965 133.742C174.727 133.742 173.706 134.695 173.706 135.853C173.706 137.022 174.727 137.974 175.965 137.974ZM181.397 155H185.58V146.467C185.58 144.612 186.935 143.335 188.781 143.335C189.36 143.335 190.155 143.433 190.548 143.561V139.849C190.175 139.761 189.655 139.702 189.232 139.702C187.544 139.702 186.159 140.684 185.609 142.55H185.452V139.918H181.397V155ZM201.489 139.918H198.651V136.305H194.468V139.918H192.406V143.06H194.468V150.915C194.449 153.871 196.462 155.334 199.496 155.206C200.576 155.167 201.342 154.951 201.764 154.813L201.106 151.701C200.9 151.74 200.458 151.838 200.065 151.838C199.23 151.838 198.651 151.524 198.651 150.365V143.06H201.489V139.918ZM213.885 148.578C213.895 150.601 212.511 151.662 211.008 151.662C209.427 151.662 208.406 150.552 208.396 148.775V139.918H204.214V149.521C204.223 153.046 206.285 155.196 209.319 155.196C211.588 155.196 213.217 154.028 213.895 152.261H214.052V155H218.068V139.918H213.885V148.578ZM225.714 155.285C227.943 155.285 229.387 154.313 230.123 152.909H230.241V155H234.208V144.828C234.208 141.234 231.164 139.722 227.806 139.722C224.193 139.722 221.816 141.45 221.237 144.199L225.106 144.513C225.39 143.512 226.284 142.775 227.786 142.775C229.21 142.775 230.025 143.492 230.025 144.729V144.788C230.025 145.76 228.994 145.888 226.372 146.143C223.387 146.418 220.707 147.42 220.707 150.788C220.707 153.773 222.838 155.285 225.714 155.285ZM226.912 152.398C225.626 152.398 224.703 151.799 224.703 150.65C224.703 149.472 225.675 148.893 227.148 148.686C228.061 148.559 229.554 148.343 230.054 148.009V149.609C230.054 151.19 228.748 152.398 226.912 152.398ZM241.636 134.891H237.453V155H241.636V134.891ZM40.4835 188.295C45.0591 188.295 47.9066 185.162 47.9066 180.518C47.9066 175.844 45.0591 172.722 40.4835 172.722C35.9079 172.722 33.0604 175.844 33.0604 180.518C33.0604 185.162 35.9079 188.295 40.4835 188.295ZM40.5032 185.054C38.3921 185.054 37.312 183.12 37.312 180.489C37.312 177.857 38.3921 175.913 40.5032 175.913C42.5749 175.913 43.655 177.857 43.655 180.489C43.655 183.12 42.5749 185.054 40.5032 185.054ZM54.8093 179.281C54.8191 177.337 55.9777 176.198 57.6666 176.198C59.3456 176.198 60.357 177.297 60.3471 179.143V188H64.53V178.397C64.53 174.882 62.468 172.722 59.326 172.722C57.0873 172.722 55.4672 173.822 54.7896 175.579H54.6129V172.918H50.6264V188H54.8093V179.281ZM74.6999 188.295C78.4311 188.295 80.9447 186.478 81.5339 183.68L77.6652 183.424C77.243 184.573 76.1629 185.172 74.7686 185.172C72.6772 185.172 71.3517 183.788 71.3517 181.539V181.529H81.6222V180.381C81.6222 175.255 78.5195 172.722 74.533 172.722C70.0948 172.722 67.2179 175.874 67.2179 180.528C67.2179 185.31 70.0556 188.295 74.6999 188.295ZM71.3517 178.937C71.44 177.219 72.7459 175.844 74.6017 175.844C76.4182 175.844 77.675 177.14 77.6849 178.937H71.3517ZM96.9004 177.219C96.5273 174.44 94.2886 172.722 90.4789 172.722C86.62 172.722 84.0769 174.509 84.0868 177.415C84.0769 179.674 85.5007 181.137 88.4464 181.726L91.0582 182.246C92.3739 182.511 92.9729 182.992 92.9925 183.748C92.9729 184.642 92.0008 185.28 90.5378 185.28C89.0453 185.28 88.0536 184.642 87.7983 183.415L83.6842 183.631C84.0769 186.517 86.5317 188.295 90.528 188.295C94.4359 188.295 97.2343 186.301 97.2441 183.326C97.2343 181.146 95.8105 179.841 92.8845 179.242L90.1548 178.692C88.7507 178.387 88.2303 177.906 88.2402 177.18C88.2303 176.276 89.2515 175.687 90.5476 175.687C92.0008 175.687 92.8649 176.482 93.0711 177.455L96.9004 177.219ZM102.323 188.255C103.58 188.255 104.67 187.205 104.679 185.899C104.67 184.612 103.58 183.562 102.323 183.562C101.027 183.562 99.9565 184.612 99.9664 185.899C99.9565 187.205 101.027 188.255 102.323 188.255Z" fill="white"/>
<rect x="32" y="338" width="124" height="48" rx="24" fill="#FFDC30"/>
<path d="M68.3426 367H70.3923V362.995H74.3354V361.305H70.3923V358.995H74.7614V357.305H68.3426V367ZM76.1023 367H78.1188V359.729H76.1023V367ZM77.1153 358.792C77.7164 358.792 78.2087 358.333 78.2087 357.769C78.2087 357.211 77.7164 356.752 77.1153 356.752C76.5188 356.752 76.0265 357.211 76.0265 357.769C76.0265 358.333 76.5188 358.792 77.1153 358.792ZM81.7507 362.797C81.7554 361.859 82.314 361.31 83.1282 361.31C83.9377 361.31 84.4252 361.84 84.4205 362.73V367H86.437V362.37C86.437 360.676 85.443 359.634 83.9282 359.634C82.8489 359.634 82.0679 360.165 81.7412 361.012H81.656V359.729H79.7342V367H81.7507V362.797ZM90.7056 367.118C91.8796 367.118 92.4902 366.441 92.7695 365.836H92.8547V367H94.8428V357.305H92.831V360.95H92.7695C92.4997 360.359 91.9174 359.634 90.7009 359.634C89.1056 359.634 87.7565 360.875 87.7565 363.374C87.7565 365.807 89.0488 367.118 90.7056 367.118ZM91.3447 365.514C90.3553 365.514 89.8157 364.633 89.8157 363.365C89.8157 362.105 90.3458 361.239 91.3447 361.239C92.3245 361.239 92.8736 362.068 92.8736 363.365C92.8736 364.662 92.3151 365.514 91.3447 365.514ZM102.871 367.142C105.077 367.142 106.45 365.632 106.45 363.393C106.45 361.14 105.077 359.634 102.871 359.634C100.665 359.634 99.2925 361.14 99.2925 363.393C99.2925 365.632 100.665 367.142 102.871 367.142ZM102.881 365.58C101.863 365.58 101.342 364.647 101.342 363.379C101.342 362.11 101.863 361.173 102.881 361.173C103.879 361.173 104.4 362.11 104.4 363.379C104.4 364.647 103.879 365.58 102.881 365.58ZM112.424 363.904C112.428 364.879 111.761 365.391 111.037 365.391C110.275 365.391 109.782 364.856 109.778 363.999V359.729H107.761V364.359C107.766 366.058 108.76 367.095 110.223 367.095C111.316 367.095 112.102 366.531 112.428 365.679H112.504V367H114.44V359.729H112.424V363.904ZM119.921 359.729H118.553V357.987H116.536V359.729H115.542V361.244H116.536V365.031C116.527 366.456 117.497 367.161 118.96 367.099C119.48 367.08 119.85 366.976 120.053 366.91L119.736 365.409C119.637 365.428 119.424 365.476 119.234 365.476C118.832 365.476 118.553 365.324 118.553 364.766V361.244H119.921V359.729Z" fill="#3B3D3D"/>
<g clip-path="url(#clip0)">
<path d="M136.208 40H143.249C143.343 40 143.437 39.9036 143.531 39.8072L144 38.0723C144 37.9759 144 37.8795 143.906 37.7831L137.71 33.8313C137.522 33.7349 137.616 33.5422 137.804 33.5422H143.531C143.718 33.5422 143.718 33.4458 143.718 33.253L143.249 32.1928C143.155 32 143.061 32 142.967 32H136.208C136.114 32 136.02 32.0964 135.926 32.1928L135.551 33.9277C135.551 34.0241 135.551 34.1205 135.645 34.2169L141.841 38.1687C142.028 38.2651 141.935 38.4578 141.747 38.4578H135.645C135.457 38.4578 135.457 38.5542 135.457 38.747L135.926 39.8072C136.02 39.9036 136.114 40 136.208 40ZM125.224 38.3614C124.567 37.6867 124.379 36.8193 124.379 35.9518C124.379 35.0843 124.661 34.2169 125.224 33.5422C125.318 33.4458 125.412 33.4458 125.505 33.4458H129.261C129.355 33.4458 129.448 33.4458 129.542 33.5422C130.199 34.2169 130.387 35.0843 130.387 35.9518C130.387 36.8193 130.106 37.6867 129.542 38.3614C129.448 38.4578 129.355 38.4578 129.261 38.4578H125.505C125.412 38.5542 125.318 38.4578 125.224 38.3614ZM124.754 40H130.012C130.106 40 130.199 40 130.293 39.9036C131.232 39.0361 131.889 37.5904 131.889 36.0482C131.889 34.506 131.138 33.0602 130.293 32.1928C130.199 32 130.106 32 130.012 32H124.754C124.661 32 124.567 32 124.473 32.0964C123.534 32.9639 122.877 34.4096 122.877 35.9518C122.877 37.494 123.628 38.9398 124.473 39.8072C124.567 40 124.661 40 124.754 40ZM111.987 40H118.37C118.558 40 118.558 39.9036 118.558 39.8072V38.747C118.558 38.5542 118.464 38.5542 118.37 38.5542H116.211C116.023 38.5542 116.023 38.4578 116.023 38.3614V33.7349C116.023 33.5422 116.117 33.5422 116.211 33.5422H118.37C118.558 33.5422 118.558 33.4458 118.558 33.3494V32.1928C118.558 32.0964 118.464 32 118.37 32H111.987C111.799 32 111.799 32.0964 111.799 32.1928V33.253C111.799 33.4458 111.893 33.4458 111.987 33.4458H114.146C114.334 33.4458 114.334 33.5422 114.334 33.6386V38.1687C114.334 38.3614 114.24 38.3614 114.146 38.3614H111.987C111.799 38.3614 111.799 38.4578 111.799 38.5542V39.6145C111.705 39.9036 111.799 40 111.987 40ZM101.19 40H107.293C107.386 40 107.48 40 107.574 39.8072L108.044 38.747C108.137 38.5542 108.044 38.4578 107.856 38.4578H102.692C102.505 38.4578 102.505 38.3614 102.505 38.2651V32.1928C102.505 32.0964 102.411 32 102.317 32H101.19C101.003 32 101.003 32.0964 101.003 32.1928V39.7108C100.909 39.9036 101.003 40 101.19 40ZM89.4552 36.7229L90.9572 33.6386C91.0511 33.5422 91.0511 33.4458 91.2389 33.4458H92.0838C92.1777 33.4458 92.2716 33.5422 92.3655 33.6386L93.8676 36.7229C93.9614 36.9157 93.8676 37.012 93.6798 37.012H89.7368C89.4552 37.012 89.3613 36.9157 89.4552 36.7229ZM86.5448 40H87.7653C87.8592 40 87.9531 39.9036 88.0469 39.8072L88.6102 38.6506C88.7041 38.5542 88.7041 38.4578 88.8919 38.4578H94.4308C94.5247 38.4578 94.6186 38.5542 94.7125 38.6506L95.2758 39.8072C95.3697 39.9036 95.3697 40 95.5574 40H96.7779C96.9656 40 97.0595 39.9036 96.9656 39.7108L93.3982 32.1928C93.2104 32.0964 93.1165 32 93.0226 32H90.1123C90.0184 32 89.9246 32.0964 89.8307 32.1928L86.3571 39.7108C86.2632 39.9036 86.3571 40 86.5448 40ZM58.9438 40H64.9522C65.0461 40 65.14 39.9036 65.2339 39.8072L65.891 36.241C65.891 36.0482 65.891 35.9518 65.7033 35.9518H64.4828C64.3889 35.9518 64.2951 36.0482 64.2012 36.1446L63.7318 38.2651C63.7318 38.3614 63.6379 38.4578 63.4501 38.4578H59.601C59.5071 38.4578 59.4132 38.4578 59.3194 38.3614C58.6622 37.6867 58.4744 36.8193 58.4744 35.9518C58.4744 35.0843 58.7561 34.2169 59.3194 33.5422C59.4132 33.4458 59.5071 33.4458 59.601 33.4458H64.9522C65.14 33.4458 65.14 33.3494 65.14 33.1566L64.6706 32.0964C64.7645 32 64.6706 32 64.5767 32H59.0377C58.9438 32 58.85 32 58.7561 32.0964C57.8173 32.9639 57.1601 34.4096 57.1601 35.9518C57.1601 37.494 57.9111 38.9398 58.7561 39.8072C58.7561 40 58.85 40 58.9438 40ZM48.1475 40H49.368C49.5557 40 49.5557 39.9036 49.5557 39.8072V38.1687C49.5557 37.9759 49.6496 37.9759 49.7435 37.9759H50.6823C50.7762 37.9759 50.8701 37.8795 50.964 37.7831L53.5926 32.2892C53.6865 32.0964 53.5926 32 53.4049 32H52.1844C52.0905 32 51.9966 32.0964 51.9028 32.1928L49.9313 36.3373C49.8374 36.4337 49.8374 36.5301 49.6496 36.5301H47.6781C47.5842 36.5301 47.4904 36.4337 47.3965 36.3373L45.425 32.1928C45.5189 32.0964 45.425 32 45.3311 32H44.1106C43.9229 32 43.829 32.0964 43.9229 32.2892L46.4577 37.7831C46.5515 37.8795 46.5515 37.9759 46.7393 37.9759H47.6781C47.8659 37.9759 47.8659 38.0723 47.8659 38.1687V39.8072C47.8659 39.9036 47.9598 40 48.1475 40ZM33.596 36.241V33.7349C33.596 33.5422 33.6899 33.5422 33.7837 33.5422H38.0084C38.1023 33.5422 38.1961 33.5422 38.29 33.6386C38.6655 34.0241 38.8533 34.506 38.8533 34.988C38.8533 35.4699 38.6655 35.9518 38.29 36.3373C38.1961 36.4337 38.1961 36.4337 38.0084 36.4337H33.7837C33.6899 36.4337 33.596 36.3373 33.596 36.241ZM32.1878 40H33.3143C33.5021 40 33.5021 39.9036 33.5021 39.8072V38.1687C33.5021 37.9759 33.596 37.9759 33.6899 37.9759H38.7594C38.8533 37.9759 38.9472 37.9759 39.0411 37.8795C39.886 37.2048 40.4493 36.1446 40.4493 34.988C40.4493 33.8313 39.886 32.7711 39.135 32.0964C39.0411 32 38.9472 32 38.8533 32H32.1878C32.0939 32 32 32.0964 32 32.1928V39.7108C32 39.9036 32.0939 40 32.1878 40ZM70.1157 40H71.3361C71.43 40 71.5239 39.9036 71.5239 39.8072L72.6505 33.7349C72.6505 33.6386 72.7443 33.5422 72.8382 33.5422H73.026C73.1199 33.5422 73.2137 33.6386 73.3076 33.7349L74.8097 39.9036C74.8097 40 74.9036 40.0964 75.0914 40.0964H77.4384C77.5323 40.0964 77.6262 40 77.72 39.9036L79.2221 33.7349C79.2221 33.6386 79.316 33.5422 79.5038 33.5422H79.6915C79.7854 33.5422 79.8793 33.6386 79.8793 33.7349L81.0059 39.8072C81.0059 39.9036 81.0997 40 81.1936 40H82.4141C82.6018 40 82.6018 39.9036 82.6018 39.7108L81.0997 32.1928C81.0997 32.0964 81.0059 32 80.8181 32H78.0956C78.0017 32 77.9078 32.0964 77.8139 32.1928L76.2179 38.4578C76.1241 38.6506 76.0302 38.6506 75.9363 38.4578L74.3403 32.1928C74.3403 32.0964 74.2464 32 74.0587 32H71.3361C71.5239 32 71.43 32.0964 71.43 32.1928L69.9279 39.7108C69.9279 39.9036 70.0218 40 70.1157 40Z" fill="#E3D8F8"/>
</g>
<defs>
<clipPath id="clip0">
<rect width="112" height="8" fill="white" transform="translate(32 32)"/>
</clipPath>
</defs>
</svg>
