<svg width="46" height="60" viewBox="0 0 46 60" fill="none" xmlns="http://www.w3.org/2000/svg">
<g clip-path="url(#clip0)">
<path d="M22.8409 11.7045C19.6591 11.7045 16.9318 9.0909 16.9318 5.79544C16.9318 2.61363 19.5454 -0.113647 22.8409 -0.113647C26.0227 -0.113647 28.75 2.49999 28.75 5.79544C28.6363 9.0909 26.0227 11.7045 22.8409 11.7045ZM22.8409 1.93181C20.6818 1.93181 18.8636 3.74999 18.8636 5.90908C18.8636 8.06817 20.6818 9.88635 22.8409 9.88635C25 9.88635 26.8182 8.06817 26.8182 5.90908C26.8182 3.74999 25 1.93181 22.8409 1.93181Z" fill="#713ADA"/>
<path d="M26.9318 60C25 60 23.4091 58.409 23.4091 56.4772V40.2272C23.4091 39.8863 23.1818 39.659 22.8409 39.659C22.5 39.659 22.2727 39.8863 22.2727 40.2272V56.3636C22.2727 58.2954 20.6818 59.8863 18.75 59.8863C16.8182 59.8863 15.2273 58.2954 15.2273 56.3636V25.1136L12.0455 30.2272C11.4773 31.25 10.3409 31.8181 9.20457 31.7045C8.0682 31.5909 7.04548 30.909 6.59093 29.7727C6.25002 28.8636 6.36366 27.7272 6.93184 26.8181L13.8637 16.1363C15 14.4318 16.9318 13.2954 18.9773 13.2954H26.5909C28.6364 13.2954 30.5682 14.3181 31.7046 16.1363L38.75 26.9318C39.3182 27.8409 39.4318 28.9772 38.9773 29.8863C38.5227 30.909 37.5 31.5909 36.3637 31.5909C35.1137 31.7045 34.0909 31.1363 33.4091 30.1136L30.3409 25.1136V56.4772C30.4546 58.409 28.8637 60 26.9318 60ZM22.8409 37.7272C24.2046 37.7272 25.3409 38.8636 25.3409 40.2272V56.3636C25.3409 57.2727 26.0227 57.9545 26.9318 57.9545C27.8409 57.9545 28.5227 57.2727 28.5227 56.3636V21.5909C28.5227 21.1363 28.8637 20.7954 29.2046 20.6818C29.6591 20.5681 30.1137 20.6818 30.2273 21.1363L35.1137 28.9772C35.4546 29.4318 35.9091 29.659 36.3637 29.5454C36.5909 29.5454 37.0455 29.4318 37.2727 28.9772C37.3864 28.6363 37.3864 28.1818 37.1591 27.8409L30.1137 17.0454C29.3182 15.7954 28.0682 15.1136 26.5909 15.1136H18.9773C17.5 15.1136 16.25 15.7954 15.4546 17.0454L8.52275 27.7272C8.29548 28.0681 8.18184 28.5227 8.40911 28.8636C8.63639 29.5454 9.09093 29.659 9.3182 29.659C9.77275 29.659 10.2273 29.4318 10.4546 29.0909L15.3409 21.1363C15.5682 20.7954 16.0227 20.5681 16.3637 20.6818C16.8182 20.7954 17.0455 21.1363 17.0455 21.5909V56.3636C17.0455 57.2727 17.7273 57.9545 18.6364 57.9545C19.5455 57.9545 20.2273 57.2727 20.2273 56.3636V40.2272C20.2273 38.8636 21.3637 37.7272 22.8409 37.7272Z" fill="#713ADA"/>
<path d="M44.6591 46.25H32.6136C32.3863 46.25 32.0454 46.1363 31.9318 45.909C31.7045 45.6818 31.7045 45.4545 31.7045 45.2272L32.2727 32.9545C32.2727 32.5 32.7273 32.0454 33.1818 32.0454H44.0909C44.6591 32.0454 45 32.5 45 32.9545L45.5682 45.2272C45.5682 45.4545 45.4545 45.7954 45.3409 45.909C45.1136 46.25 44.8863 46.25 44.6591 46.25ZM33.6363 44.4318H43.6364L43.1818 33.9772H34.0909L33.6363 44.4318Z" fill="#713ADA"/>
<path d="M36.0227 36.5909C35.4545 36.5909 35.1136 36.1363 35.1136 35.6818V31.2499C35.1136 31.0227 35.1136 30.6818 35.2273 30.4545C35.3409 29.8863 35.7954 29.659 36.3636 29.7727C36.9318 29.8863 37.1591 30.3409 37.0454 30.909C37.0454 31.0227 37.0454 31.1363 37.0454 31.2499V35.6818C36.9318 36.1363 36.5909 36.5909 36.0227 36.5909Z" fill="#713ADA"/>
<path d="M41.25 36.5909C40.6818 36.5909 40.3409 36.1364 40.3409 35.6819V31.25C40.3409 30.3409 39.6591 29.6591 38.75 29.6591C38.6364 29.6591 38.6364 29.6591 38.5227 29.6591C37.9545 29.7728 37.5 29.3182 37.5 28.8637C37.3864 28.2955 37.8409 27.8409 38.2954 27.8409C38.4091 27.8409 38.6364 27.8409 38.75 27.8409C40.6818 27.8409 42.2727 29.4319 42.2727 31.3637V35.7955C42.1591 36.1364 41.8182 36.5909 41.25 36.5909Z" fill="#713ADA"/>
<path d="M13.0682 46.25H0.909091C0.681818 46.25 0.340909 46.1363 0.227273 45.909C0.113636 45.7954 0 45.5681 0 45.3409L0.568182 32.9545C0.568182 32.3863 1.02273 32.0454 1.47727 32.0454H12.3864C12.9545 32.0454 13.2955 32.5 13.2955 32.9545L13.8636 45.2272C13.8636 45.4545 13.75 45.7954 13.6364 45.909C13.5227 46.25 13.2955 46.25 13.0682 46.25ZM1.93182 44.4318H11.9318L11.3636 33.9772H2.27273L1.93182 44.4318Z" fill="#713ADA"/>
<path d="M9.54543 36.5909C8.97725 36.5909 8.63634 36.1364 8.63634 35.6818V31.25C8.63634 31.1364 8.63634 31.0228 8.63634 30.9091C8.52271 30.3409 8.86362 29.8864 9.31816 29.7728C9.88634 29.6591 10.3409 30 10.4545 30.4546C10.4545 30.6818 10.5682 30.9091 10.5682 31.25V35.6818C10.5682 36.1364 10.1136 36.5909 9.54543 36.5909Z" fill="#713ADA"/>
<path d="M4.31818 36.5909C3.75 36.5909 3.40909 36.1364 3.40909 35.6818V31.25C3.40909 29.3182 5 27.7273 6.93181 27.7273C7.04545 27.7273 7.27272 27.7273 7.38636 27.7273C7.95454 27.8409 8.29545 28.2955 8.18181 28.75C8.06818 29.3182 7.61363 29.6591 7.15909 29.5455C7.04545 29.5455 7.04545 29.5455 6.93181 29.5455C6.02272 29.5455 5.34091 30.2273 5.34091 31.1364V35.5682C5.34091 36.1364 4.88636 36.5909 4.31818 36.5909Z" fill="#713ADA"/>
</g>
<defs>
<clipPath id="clip0">
<rect width="45.5682" height="60" fill="white"/>
</clipPath>
</defs>
</svg>
