<svg width="294" height="168" viewBox="0 0 294 168" fill="none" xmlns="http://www.w3.org/2000/svg">
<g clip-path="url(#clip0)">
<path d="M46.4036 52.3232V147.454C46.4036 155.289 52.4442 161.704 60.0249 161.835C93.5711 162.729 210.923 164.911 242.929 164.399C248.456 164.268 252.826 159.772 253.088 154.132C253.733 132.048 254.76 78.9022 251.035 54.1237C250.259 48.9844 246.021 45.0137 240.876 44.8825C212.725 43.9882 88.3064 41.031 56.4316 41.6749C50.9042 41.9253 46.4036 46.6711 46.4036 52.3232Z" fill="url(#paint0_linear)"/>
<path d="M52.1818 51.9415V142.327C52.1818 146.954 55.7752 150.674 60.1564 150.674L238.309 152.987C242.678 153.118 246.284 149.398 246.284 144.903L246.534 55.2922C246.534 52.0846 244.087 49.3897 240.876 49.2586L58.4851 45.3951C55.1424 45.3951 52.1818 48.2212 52.1818 51.9415Z" fill="url(#paint1_linear)"/>
<path d="M52.3127 51.8109V142.196C52.3127 146.823 55.906 150.543 60.2873 150.543L238.44 152.857C242.809 152.988 246.415 149.267 246.415 144.772L246.665 55.1616C246.665 51.954 244.218 49.2591 241.007 49.128L58.616 45.2645C55.2733 45.2645 52.3127 48.2217 52.3127 51.8109Z" fill="url(#paint2_linear)"/>
<path d="M102.954 94.3083H52.122V106.757H102.954V94.3083Z" fill="white"/>
<path d="M246.785 60.2888H103.981V79.4153H246.785V60.2888Z" fill="white"/>
<path d="M246.367 127.04H52.2413V141.289H246.367V127.04Z" fill="white"/>
<path d="M109.902 46.2898H98.0717V151.056L109.902 151.175V46.2898Z" fill="white"/>
<path d="M155.267 47.3628L143.437 47.1243V151.652L155.267 151.771V47.3628Z" fill="white"/>
<path d="M190.103 48.0784L178.272 47.84V152.129L190.103 152.248V48.0784Z" fill="white"/>
<path d="M229.045 48.9129L217.214 48.6744V152.606L229.045 152.725V48.9129Z" fill="white"/>
<path d="M7.4497 129.735C7.4497 129.735 8.22568 128.96 10.1477 129.091C12.2011 129.223 11.3057 131.011 11.0431 131.142C10.9118 131.393 10.0164 131.655 9.37174 131.655C8.59576 131.655 7.83172 131.405 7.56908 131.524C7.58102 131.154 7.4497 129.735 7.4497 129.735Z" fill="#EE7066"/>
<path d="M6.9363 129.866L7.19893 131.536C7.19893 131.536 6.42296 132.048 6.04094 131.917C5.5276 131.786 5.39628 131.142 5.5276 130.629C5.65892 130.129 6.6856 129.735 6.9363 129.866Z" fill="#EE7066"/>
<path d="M17.9907 129.223C17.9907 129.223 18.7667 128.448 20.6888 128.579C22.7421 128.71 21.8468 130.498 21.5841 130.63C21.4528 130.892 20.5575 131.142 19.9128 131.142C19.1368 131.142 18.3728 130.892 18.1101 130.892C18.1221 130.642 17.9907 129.223 17.9907 129.223Z" fill="#EE7066"/>
<path d="M17.4776 129.353L17.7402 131.023C17.7402 131.023 16.9642 131.535 16.5822 131.404C16.2002 131.154 15.9375 130.629 16.0689 130.116C16.2002 129.616 17.3582 129.222 17.4776 129.353Z" fill="#EE7066"/>
<path d="M28.6637 129.485C28.6637 129.485 29.4397 128.71 31.493 129.103C33.4151 129.485 32.3884 131.154 32.1377 131.285C32.0064 131.536 31.111 131.667 30.4663 131.536C29.6904 131.536 29.0577 131.023 28.6637 131.154C28.6637 130.892 28.6637 129.485 28.6637 129.485Z" fill="#EE7066"/>
<path d="M28.1502 129.616V131.286C28.1502 131.286 27.3742 131.798 26.8608 131.548C26.4788 131.286 26.2162 130.654 26.4788 130.26C26.8608 129.616 28.0188 129.485 28.1502 129.616Z" fill="#EE7066"/>
<path d="M39.3365 129.998C39.3365 129.998 40.2318 129.354 42.1658 130.129C44.0998 130.904 42.8105 132.311 42.5478 132.442C42.4165 132.573 41.3898 132.573 40.8765 132.442C40.1005 132.311 39.4678 131.667 39.2052 131.798C39.2052 131.405 39.3365 129.998 39.3365 129.998Z" fill="#EE7066"/>
<path d="M38.8225 129.998L38.5599 131.667C38.5599 131.667 37.6645 131.929 37.2706 131.667C36.8886 131.417 36.7572 130.773 37.1393 130.26C37.5332 129.866 38.6912 129.866 38.8225 129.998Z" fill="#EE7066"/>
<path d="M49.9972 129.735C49.9972 129.735 50.8926 129.091 52.8265 129.866C54.7605 130.641 53.4712 132.048 53.2086 132.18C53.0772 132.311 52.0506 132.311 51.5372 132.18C50.7612 132.048 50.1285 131.405 49.8659 131.536C49.7465 131.154 49.9972 129.735 49.9972 129.735Z" fill="#EE7066"/>
<path d="M49.3525 129.735L49.0898 131.405C49.0898 131.405 48.1945 131.655 47.8005 131.405C47.4185 131.142 47.2872 130.51 47.6692 129.998C48.0751 129.616 49.2331 129.616 49.3525 129.735Z" fill="#EE7066"/>
<path d="M60.5386 130.76C60.5386 130.76 61.434 130.117 63.368 130.892C65.3019 131.667 64.0126 133.074 63.75 133.205C63.6187 133.336 62.592 133.336 62.0787 133.205C61.3027 133.074 60.67 132.43 60.4073 132.561C60.2879 132.179 60.5386 130.76 60.5386 130.76Z" fill="#EE7066"/>
<path d="M59.8935 130.761L59.6309 132.43C59.6309 132.43 58.7355 132.68 58.3416 132.43C57.9596 132.168 57.8282 131.536 58.2103 131.011C58.6162 130.641 59.7742 130.641 59.8935 130.761Z" fill="#EE7066"/>
<path d="M2.18478 135.769C2.18478 135.769 2.96076 136.544 5.01412 136.281C7.06747 136.031 6.0408 134.231 5.7901 134.099C5.65878 133.849 4.76342 133.718 4.11876 133.718C3.34278 133.718 2.57874 134.099 2.3161 134.099C2.18478 134.362 2.18478 135.769 2.18478 135.769Z" fill="#EE7066"/>
<path d="M1.6715 135.65L1.80282 133.98C1.80282 133.98 1.02685 133.468 0.513506 133.73C0.000167082 133.98 -0.131152 134.624 0.131486 135.018C0.382187 135.519 1.40886 135.769 1.6715 135.65Z" fill="#EE7066"/>
<path d="M12.8575 135.65C12.8575 135.65 13.7528 136.294 15.6868 135.519C17.6208 134.875 16.3315 133.336 16.0688 133.205C15.9375 133.074 14.9108 133.074 14.3975 133.074C13.6215 133.205 12.9888 133.718 12.7262 133.718C12.7262 134.231 12.8575 135.65 12.8575 135.65Z" fill="#EE7066"/>
<path d="M12.3443 135.65L12.2129 133.98C12.2129 133.98 11.3176 133.599 10.9236 133.98C10.5416 134.362 10.4103 134.875 10.7923 135.387C11.0549 135.769 12.2129 135.769 12.3443 135.65Z" fill="#EE7066"/>
<path d="M23.2679 135.125C23.2679 135.125 24.0439 135.9 25.9659 135.769C28.0193 135.638 27.1239 133.849 26.8613 133.718C26.7299 133.468 25.8346 133.206 25.1899 133.206C24.414 133.206 23.6499 133.468 23.3873 133.337C23.3992 133.718 23.2679 135.125 23.2679 135.125Z" fill="#EE7066"/>
<path d="M22.7544 135.006L23.0171 133.336C23.0171 133.336 22.2411 132.823 21.8591 132.955C21.4771 133.086 21.2144 133.73 21.3457 134.242C21.4651 134.743 22.4918 135.125 22.7544 135.006Z" fill="#EE7066"/>
<path d="M33.8086 135.387C33.8086 135.387 34.5846 136.162 36.5066 136.031C38.56 135.9 37.6646 134.111 37.402 133.98C37.2706 133.73 36.3753 133.468 35.7306 133.468C34.9547 133.468 34.1906 133.718 33.928 133.599C33.928 133.98 33.8086 135.387 33.8086 135.387Z" fill="#EE7066"/>
<path d="M33.2953 135.137L33.5579 133.468C33.5579 133.468 32.7819 132.955 32.3999 133.086C31.8866 133.217 31.7553 133.861 31.8866 134.374C32.006 134.875 33.0326 135.256 33.2953 135.137Z" fill="#EE7066"/>
<path d="M44.3503 135.769C44.3503 135.769 45.1263 136.544 47.0483 136.413C48.9823 136.282 48.2063 134.493 47.9437 134.362C47.8124 134.1 46.917 133.849 46.2724 133.849C45.4964 133.849 44.7323 134.1 44.4697 134.1C44.4697 134.362 44.3503 135.769 44.3503 135.769Z" fill="#EE7066"/>
<path d="M43.8253 135.65L44.0879 133.98C44.0879 133.98 43.312 133.468 42.9299 133.599C42.5479 133.73 42.2853 134.374 42.4166 134.887C42.5479 135.387 43.5746 135.769 43.8253 135.65Z" fill="#EE7066"/>
<path d="M54.7602 136.795C54.7602 136.795 55.2736 137.689 57.3269 138.082C59.3803 138.345 58.7356 136.413 58.6162 136.282C58.4849 136.031 57.7209 135.638 57.0762 135.388C56.3003 135.125 55.5362 135.388 55.2736 135.256C55.1423 135.388 54.7602 136.795 54.7602 136.795Z" fill="#EE7066"/>
<path d="M54.2467 136.413L54.76 134.875C54.76 134.875 54.1154 134.231 53.602 134.231C53.0887 134.362 52.8261 134.875 52.9574 135.387C53.0887 135.9 54.1154 136.544 54.2467 136.413Z" fill="#EE7066"/>
<path d="M70.8289 130.892C70.8289 130.892 71.6049 130.117 73.5269 130.248C75.5803 130.379 74.6849 132.168 74.4223 132.299C74.291 132.561 73.3956 132.812 72.751 132.812C71.975 132.812 71.211 132.561 70.9483 132.681C70.9483 132.311 70.8289 130.892 70.8289 130.892Z" fill="#EE7066"/>
<path d="M70.3037 131.154L70.5663 132.824C70.5663 132.824 69.7903 133.336 69.4083 133.205C68.895 133.074 68.7636 132.43 68.8949 131.917C69.0263 131.285 70.053 131.023 70.3037 131.154Z" fill="#EE7066"/>
<path d="M81.3585 130.379C81.3585 130.379 82.1344 129.604 84.0565 129.735C86.1098 129.866 85.2145 131.655 84.9518 131.786C84.8205 132.036 83.9252 132.299 83.2805 132.299C82.5045 132.299 81.7405 132.036 81.4779 132.036C81.4898 131.798 81.3585 130.379 81.3585 130.379Z" fill="#EE7066"/>
<path d="M80.845 130.51L81.1077 132.18C81.1077 132.18 80.3317 132.692 79.9497 132.561C79.5677 132.299 79.305 131.786 79.4363 131.273C79.5677 130.761 80.7256 130.379 80.845 130.51Z" fill="#EE7066"/>
<path d="M92.4135 130.892C92.4135 130.892 93.1894 130.248 94.9802 130.761C96.7828 131.142 95.7562 132.812 95.4935 132.943C95.3622 133.193 94.4668 133.324 93.8222 133.193C93.0462 133.062 92.4135 132.549 92.1508 132.68C92.2941 132.311 92.4135 130.892 92.4135 130.892Z" fill="#EE7066"/>
<path d="M91.8999 131.023L91.7686 132.692C91.7686 132.692 91.506 132.823 91.2553 132.823C90.9926 132.823 90.7419 132.954 90.3599 132.692C89.8466 132.43 89.7153 131.798 89.9779 131.404C90.1092 131.273 90.2405 131.154 90.4912 131.154C90.6226 131.154 90.8733 131.154 91.1359 131.023C91.2672 131.023 91.3985 131.023 91.5179 131.023C91.6492 130.892 91.8999 130.892 91.8999 131.023Z" fill="#EE7066"/>
<path d="M100.638 131.023C100.638 131.023 100.638 130.892 100.638 130.772C100.638 130.641 100.77 130.641 101.152 130.522C101.534 130.391 102.047 130.26 102.56 130.391C103.074 130.522 103.336 130.904 103.456 131.035C103.587 131.166 103.456 132.06 103.074 132.323C102.429 132.704 101.784 132.454 101.665 132.573C101.534 132.442 101.414 132.06 101.152 131.679C100.77 131.273 100.638 131.023 100.638 131.023Z" fill="#EE7066"/>
<path d="M100.519 131.023C100.782 131.536 101.032 132.049 101.164 132.561C101.164 132.561 101.032 132.693 100.913 132.824C100.782 132.955 100.4 132.955 100.268 132.955C99.8862 132.693 99.6235 132.061 99.8862 131.667C99.8862 131.417 100.137 131.286 100.268 131.154C100.388 131.023 100.388 131.023 100.519 131.023Z" fill="#EE7066"/>
<path d="M100.77 123.701C100.77 123.701 100.125 122.807 100.901 120.875C101.546 118.955 103.086 120.231 103.217 120.494C103.349 120.625 103.349 121.65 103.217 122.163C103.086 122.938 102.573 123.582 102.573 123.832C102.191 123.964 100.77 123.701 100.77 123.701Z" fill="#EE7066"/>
<path d="M100.77 124.346L102.442 124.477C102.442 124.477 102.692 125.371 102.442 125.765C102.179 126.146 101.546 126.146 101.033 125.896C100.639 125.502 100.639 124.477 100.77 124.346Z" fill="#EE7066"/>
<path d="M101.545 113.304C101.545 113.304 100.901 112.409 101.545 110.478C102.19 108.558 103.73 109.834 103.861 110.096C103.993 110.227 104.112 111.253 103.993 111.765C103.861 112.541 103.348 113.173 103.348 113.435C102.954 113.435 101.545 113.304 101.545 113.304Z" fill="#EE7066"/>
<path d="M101.677 113.817L103.348 113.948C103.348 113.948 103.73 114.842 103.348 115.235C103.086 115.617 102.453 115.748 101.94 115.367C101.546 115.104 101.414 113.948 101.677 113.817Z" fill="#EE7066"/>
<path d="M65.5525 136.926C65.5525 136.926 66.3285 137.701 68.3818 137.438C70.4352 137.188 69.4085 135.388 69.1578 135.256C69.0265 134.994 68.1311 134.875 67.4864 134.875C66.7105 134.875 65.9464 135.256 65.6838 135.256C65.5525 135.519 65.5525 136.926 65.5525 136.926Z" fill="#EE7066"/>
<path d="M65.0392 136.795L65.1705 135.125C65.1705 135.125 64.3945 134.613 63.8812 134.863C63.4992 135.125 63.2366 135.757 63.4992 136.151C63.7499 136.544 64.7766 136.926 65.0392 136.795Z" fill="#EE7066"/>
<path d="M76.2252 136.794C76.2252 136.794 77.1206 137.438 79.0546 136.663C80.9885 136.019 79.6992 134.481 79.4366 134.35C79.3053 134.219 78.2786 134.219 77.7652 134.219C76.9893 134.35 76.3565 134.863 76.0939 134.863C76.0939 135.387 76.2252 136.794 76.2252 136.794Z" fill="#EE7066"/>
<path d="M75.7116 136.795L75.5803 135.125C75.5803 135.125 74.685 134.744 74.291 135.125C73.909 135.507 73.7777 136.019 74.1597 136.532C74.4223 136.926 75.5803 136.926 75.7116 136.795Z" fill="#EE7066"/>
<path d="M86.6349 136.282C86.6349 136.282 87.4109 137.057 89.3329 136.926C89.4643 136.926 89.715 136.925 89.8463 136.794L89.9776 136.663C90.1089 136.413 90.491 136.019 90.3596 135.638C90.3596 135.256 90.2283 134.863 90.097 134.863C89.9657 134.612 89.0703 134.35 88.557 134.35C87.781 134.35 87.0169 134.612 86.7543 134.481C86.7662 134.875 86.6349 136.282 86.6349 136.282Z" fill="#EE7066"/>
<path d="M86.1216 136.163L86.3842 134.493C86.3842 134.493 85.6082 133.981 85.2262 134.112C84.7129 134.243 84.5816 134.887 84.7129 135.399C84.8323 135.9 85.859 136.282 86.1216 136.163Z" fill="#EE7066"/>
<path d="M97.1764 136.925C97.1764 136.925 97.439 137.176 97.821 137.307C98.3344 137.438 99.1104 137.557 100.268 137.307C102.716 136.532 101.044 135.125 100.782 134.994C100.519 134.862 99.6237 134.731 98.979 134.862C98.2031 134.862 97.439 135.244 97.1764 135.244C97.2958 135.518 97.1764 136.925 97.1764 136.925Z" fill="#EE7066"/>
<path d="M96.6631 136.794L96.7944 135.125C96.7944 135.125 96.0184 134.612 95.5051 134.743C95.1231 134.874 94.8604 135.518 94.9917 136.031C95.2424 136.544 96.4004 136.925 96.6631 136.794Z" fill="#EE7066"/>
<path d="M106.81 129.485C106.81 129.485 107.706 128.71 107.586 126.659C107.455 124.608 105.664 125.502 105.533 125.764C105.282 125.896 105.02 126.79 105.02 127.434C105.02 128.209 105.282 128.972 105.151 129.234C105.402 129.222 106.81 129.485 106.81 129.485Z" fill="#EE7066"/>
<path d="M106.56 129.998L104.888 129.735C104.888 129.735 104.757 129.867 104.626 130.117C104.495 130.379 104.375 130.63 104.495 130.892C104.626 131.405 105.139 131.786 105.653 131.667C105.915 131.667 106.166 131.154 106.428 130.773C106.56 130.379 106.691 130.129 106.56 129.998Z" fill="#EE7066"/>
<path d="M107.718 118.825C107.718 118.825 108.613 118.312 108.876 116.261C109.126 114.21 107.204 114.854 106.954 115.105C106.691 115.236 106.309 115.999 106.178 116.643C105.927 117.418 106.178 118.181 106.046 118.443C106.297 118.575 107.718 118.825 107.718 118.825Z" fill="#EE7066"/>
<path d="M107.455 119.337L105.915 118.824C105.915 118.824 105.271 119.468 105.271 119.981C105.402 120.494 105.915 120.756 106.429 120.625C106.942 120.625 107.587 119.6 107.455 119.337Z" fill="#EE7066"/>
<path d="M101.414 103.037C101.414 103.037 100.519 102.393 100.638 100.342C100.638 98.2911 102.561 99.0543 102.692 99.3166C102.954 99.4478 103.205 100.342 103.336 100.986C103.468 101.761 103.074 102.524 103.205 102.787C102.823 102.775 101.414 103.037 101.414 103.037Z" fill="#EE7066"/>
<path d="M101.546 103.549L103.217 103.287C103.217 103.287 103.862 104.062 103.599 104.444C103.468 104.957 102.823 105.088 102.31 104.957C101.928 104.837 101.415 103.681 101.546 103.549Z" fill="#EE7066"/>
<path d="M100.388 92.6389C100.388 92.6389 99.4926 91.9949 99.612 89.8128C99.7433 87.7618 101.534 88.525 101.665 88.7873C101.928 88.9185 102.179 89.8128 102.31 90.4567C102.441 91.2318 102.047 91.9949 102.179 92.2573C101.797 92.3765 100.388 92.6389 100.388 92.6389Z" fill="#EE7066"/>
<path d="M100.519 93.152L102.19 92.7704C102.19 92.7704 102.835 93.5455 102.572 93.9271C102.572 94.0582 102.441 94.1894 102.441 94.1894C102.31 94.1894 102.19 94.3206 102.19 94.3206C101.928 94.4517 101.677 94.4517 101.414 94.3206C101.283 94.3206 101.164 94.3206 101.032 94.1894C100.901 94.0582 100.782 93.9271 100.782 93.8078C100.519 93.5336 100.519 93.152 100.519 93.152Z" fill="#EE7066"/>
<path d="M100.256 81.597C100.256 81.597 99.4803 80.7026 100.006 78.6398C100.519 76.5888 102.19 77.7454 102.19 77.9958C102.453 78.127 102.453 79.1525 102.453 79.7964C102.322 80.6907 101.94 81.3346 102.071 81.597C101.677 81.7281 100.256 81.597 100.256 81.597Z" fill="#EE7066"/>
<path d="M100.388 82.2411H102.059C102.059 82.2411 102.572 83.0161 102.31 83.5289C102.059 83.9104 101.414 84.1728 101.02 83.9104C100.388 83.517 100.256 82.3603 100.388 82.2411Z" fill="#EE7066"/>
<path d="M103.217 69.1486C103.217 69.1486 103.349 68.767 103.862 68.1231C104.125 67.8608 104.507 67.4792 105.151 67.348C105.796 67.2169 106.441 67.0857 107.336 67.0857C107.849 67.0857 107.981 67.2169 108.112 67.2169C108.243 67.348 108.375 67.348 108.494 67.4792C108.625 67.7415 108.745 67.9919 108.745 68.1231C108.745 68.6358 108.363 69.0174 108.231 69.1486C108.1 69.4109 106.942 69.5302 106.309 69.6613C105.283 69.7925 104.507 70.1741 104.387 70.5556C104.256 70.4245 104.005 70.1741 103.743 69.7806C103.349 69.399 103.217 69.1486 103.217 69.1486Z" fill="#EE7066"/>
<path d="M102.704 69.9117C103.086 70.2933 103.599 70.6868 103.993 71.0684C103.993 71.0684 103.862 71.3307 103.862 71.7123C103.731 72.0939 103.611 72.4874 103.48 72.6066C103.098 72.9882 102.453 72.8689 102.071 72.4754C101.677 71.9627 102.441 70.0429 102.704 69.9117Z" fill="#EE7066"/>
<path d="M115.167 65.1657C115.167 65.1657 115.943 64.3906 117.997 64.9034C120.05 65.2849 118.892 66.9543 118.641 67.0855C118.51 67.3478 117.614 67.4671 116.97 67.3478C116.194 67.3478 115.43 66.8351 115.167 66.9662C115.167 66.5727 115.167 65.1657 115.167 65.1657Z" fill="#EE7066"/>
<path d="M114.523 65.2971L114.654 66.9665C114.654 66.9665 113.878 67.4793 113.365 67.2289C112.983 66.9665 112.72 66.3346 112.983 65.9411C113.245 65.2971 114.391 65.0348 114.523 65.2971Z" fill="#EE7066"/>
<path d="M125.959 64.6531C125.959 64.6531 126.854 64.0092 128.92 64.6531C130.973 65.297 129.696 66.8353 129.433 66.9664C129.302 67.0976 128.275 67.2288 127.762 67.0976C126.986 66.9664 126.353 66.4537 126.09 66.5849C125.84 66.0602 125.959 64.6531 125.959 64.6531Z" fill="#EE7066"/>
<path d="M125.446 64.7721V66.4415C125.446 66.4415 124.55 66.823 124.156 66.5726C123.774 66.3103 123.643 65.6783 123.906 65.1656C124.037 64.7721 125.195 64.6528 125.446 64.7721Z" fill="#EE7066"/>
<path d="M107.587 108.045C107.587 108.045 108.363 107.27 107.969 105.219C107.587 103.168 105.915 104.325 105.784 104.575C105.533 104.706 105.402 105.601 105.402 106.245C105.402 107.02 105.915 107.652 105.784 108.045C106.166 108.045 107.587 108.045 107.587 108.045Z" fill="#EE7066"/>
<path d="M107.455 108.558H105.784C105.784 108.558 105.271 109.333 105.533 109.845C105.784 110.227 106.429 110.489 106.823 110.227C107.455 109.845 107.587 108.808 107.455 108.558Z" fill="#EE7066"/>
<path d="M107.073 97.385C107.073 97.385 107.586 96.4907 106.942 94.5589C106.942 94.4278 106.81 94.4278 106.81 94.1774C106.81 94.0462 106.679 93.915 106.679 93.915C106.548 93.7839 106.428 93.6527 106.297 93.6527C106.034 93.5215 105.784 93.5215 105.521 93.6527C105.008 93.7839 104.745 94.1654 104.626 94.2966C104.494 94.5589 104.494 95.4532 104.626 95.966C104.888 96.7411 105.402 97.373 105.402 97.6354C105.652 97.6473 107.073 97.385 107.073 97.385Z" fill="#EE7066"/>
<path d="M107.073 97.8976L105.402 98.1599C105.402 98.1599 105.151 99.0542 105.402 99.4477C105.664 99.8293 106.428 99.8293 106.81 99.5789C107.192 99.1854 107.192 98.0287 107.073 97.8976Z" fill="#EE7066"/>
<path d="M106.046 87.1186C106.046 87.1186 106.822 86.3435 106.691 84.4237C106.56 82.5039 104.769 83.267 104.638 83.5294C104.387 83.6605 104.124 84.5548 104.124 85.1988C104.124 85.9738 104.506 86.737 104.387 86.9993C104.626 86.9874 106.046 87.1186 106.046 87.1186Z" fill="#EE7066"/>
<path d="M105.915 87.631L104.113 87.3687C104.113 87.3687 103.599 88.1437 103.862 88.6565C104.113 89.038 104.638 89.3004 105.151 89.038C105.653 88.7876 106.047 87.7622 105.915 87.631Z" fill="#EE7066"/>
<path d="M106.297 76.8395C106.297 76.8395 106.548 76.7083 106.81 76.3267C107.061 75.9451 107.324 75.3012 107.324 74.5262C107.324 74.2638 107.324 74.1446 107.324 74.0134C107.324 73.8823 107.192 73.8823 107.192 73.7511C107.061 73.6199 106.81 73.4888 106.548 73.3695C106.166 73.1072 105.521 73.2384 105.521 73.2384C105.27 73.2384 104.745 74.1327 104.626 74.6454C104.375 75.4205 104.757 76.1836 104.626 76.446C104.888 76.5891 106.297 76.8395 106.297 76.8395Z" fill="#EE7066"/>
<path d="M106.166 77.233L104.495 76.8514C104.495 76.8514 103.85 77.6265 103.981 78.0081C104.113 78.5208 104.757 78.7832 105.271 78.5208C105.784 78.5089 106.166 77.4834 106.166 77.233Z" fill="#EE7066"/>
<path d="M110.667 72.0937C110.667 72.0937 111.562 72.7376 113.496 72.2249C115.418 71.7121 114.272 70.1739 114.009 70.0427C113.878 69.9116 112.851 69.7804 112.338 69.7804C111.562 69.9116 110.917 70.2931 110.667 70.2931C110.535 70.6866 110.667 72.0937 110.667 72.0937Z" fill="#EE7066"/>
<path d="M110.153 71.9627L110.022 70.2933C110.022 70.2933 109.127 69.9118 108.733 70.1622C108.351 70.4245 108.219 71.0565 108.47 71.5692C108.864 71.9627 110.022 72.0939 110.153 71.9627Z" fill="#EE7066"/>
<path d="M120.945 71.3307C120.945 71.3307 121.59 72.2251 123.512 72.2251C125.434 72.3562 124.801 70.4245 124.539 70.2933C124.407 70.031 123.512 69.6494 122.999 69.6494C122.223 69.5183 121.459 69.7806 121.196 69.6494C121.077 69.9118 120.945 71.3307 120.945 71.3307Z" fill="#EE7066"/>
<path d="M120.432 71.0679L120.682 69.3985C120.682 69.3985 119.906 68.7546 119.524 68.8858C119.011 69.017 118.88 69.6609 119.011 70.1736C119.154 70.8175 120.181 71.1991 120.432 71.0679Z" fill="#EE7066"/>
<path d="M137.014 65.0345C137.014 65.0345 137.264 64.9033 137.79 64.7722C138.303 64.641 139.33 64.7722 140.356 65.1537C142.41 66.048 140.87 67.467 140.607 67.467C140.356 67.5982 139.449 67.5982 138.804 67.467C137.909 67.3359 137.264 66.8231 137.002 66.8231C136.894 66.4415 137.014 65.0345 137.014 65.0345Z" fill="#EE7066"/>
<path d="M136.381 65.1657V66.8351C136.381 66.8351 135.486 67.2167 135.092 67.0975C134.71 66.8351 134.447 66.2032 134.71 65.8097C134.841 65.5473 135.223 65.4281 135.605 65.2969C135.868 65.0346 136.25 65.0346 136.381 65.1657Z" fill="#EE7066"/>
<path d="M148.462 70.1738C148.462 70.1738 148.713 70.1738 149.238 70.5554C149.501 70.6866 149.752 70.937 150.134 71.3305C150.396 71.712 150.778 72.2248 151.029 72.7375C152.056 75.182 149.871 74.9196 149.62 74.6573C149.37 74.6573 148.725 73.763 148.212 73.2503C147.698 72.4752 147.436 71.712 147.185 71.4497C147.555 71.1993 148.462 70.1738 148.462 70.1738Z" fill="#EE7066"/>
<path d="M147.818 69.78C147.436 70.2928 147.173 70.6743 146.791 71.1871C146.791 71.1871 146.541 71.1871 146.278 71.0559C146.027 70.9248 145.633 70.7936 145.502 70.5432C145.239 70.0304 145.371 69.3865 145.884 69.1361C146.147 69.005 146.529 69.1361 147.042 69.2673C147.424 69.3985 147.818 69.6608 147.818 69.78Z" fill="#EE7066"/>
<path d="M152.951 81.979C152.951 81.979 153.214 82.2413 153.333 82.6229C153.465 83.1357 153.596 83.9107 153.596 84.9362C153.333 87.1183 151.543 85.9617 151.411 85.7113C151.161 85.5801 151.029 84.5546 151.029 84.0419C151.029 83.1476 151.411 82.5037 151.292 82.2413C151.543 82.2413 152.951 81.979 152.951 81.979Z" fill="#EE7066"/>
<path d="M152.832 81.4663L151.161 81.7286C151.161 81.7286 151.029 81.4663 150.91 81.2159C150.779 80.9536 150.647 80.7032 150.779 80.4408C150.91 79.9281 151.555 79.6657 152.068 79.7969C152.569 80.0592 152.951 81.2159 152.832 81.4663Z" fill="#EE7066"/>
<path d="M152.701 93.2828C152.701 93.2828 153.214 94.1771 152.45 96.1088C151.674 98.0286 150.265 96.6216 150.134 96.3712C150.002 96.1088 150.002 95.2145 150.134 94.7018C150.385 93.9267 150.91 93.2947 150.91 93.0324C151.28 93.0205 152.701 93.2828 152.701 93.2828Z" fill="#EE7066"/>
<path d="M152.701 92.77L151.03 92.5076C151.03 92.5076 150.779 91.6133 151.03 91.2198C151.412 90.8382 152.056 90.8382 152.438 91.0887C152.832 91.4822 152.832 92.6388 152.701 92.77Z" fill="#EE7066"/>
<path d="M152.318 103.931C152.318 103.931 152.832 104.825 152.068 106.757C151.292 108.558 149.883 107.27 149.752 107.007C149.62 106.757 149.62 105.851 149.883 105.338C150.146 104.563 150.659 104.05 150.659 103.669C151.029 103.549 152.318 103.931 152.318 103.931Z" fill="#EE7066"/>
<path d="M152.319 103.287L150.647 103.037C150.647 103.037 150.397 102.143 150.779 101.749C151.161 101.368 151.805 101.368 152.187 101.749C152.569 102.131 152.569 103.168 152.319 103.287Z" fill="#EE7066"/>
<path d="M150.898 114.329C150.898 114.329 151.411 115.223 150.647 117.024C149.871 118.944 148.462 117.668 148.331 117.274C148.2 117.024 148.2 116.118 148.331 115.605C148.594 114.83 149.107 114.198 149.107 113.936C149.489 114.079 150.898 114.329 150.898 114.329Z" fill="#EE7066"/>
<path d="M150.898 113.685L149.227 113.435C149.227 113.435 148.976 112.541 149.227 112.147C149.609 111.765 150.253 111.765 150.635 112.016C151.029 112.541 151.029 113.566 150.898 113.685Z" fill="#EE7066"/>
<path d="M131.236 70.6868C131.236 70.6868 131.367 70.9492 131.881 71.0684C132.263 71.1996 132.907 71.3307 133.803 71.1996C135.605 70.9372 134.961 69.2798 134.698 69.1486C134.567 68.8863 133.671 68.6359 133.158 68.6359C132.382 68.6359 131.749 69.0174 131.487 68.8982C131.236 69.2679 131.236 70.6868 131.236 70.6868Z" fill="#EE7066"/>
<path d="M130.723 70.5558L130.854 68.8864C130.854 68.8864 130.078 68.3737 129.696 68.6241C129.314 68.8864 129.182 69.5184 129.314 69.9119C129.564 70.4246 130.591 70.687 130.723 70.5558Z" fill="#EE7066"/>
<path d="M140.356 72.225C140.356 72.225 140.488 72.4873 140.738 72.7377C141.12 73.0001 141.514 73.2505 142.41 73.3817C143.186 73.5128 143.699 73.2505 143.95 72.8689C144.212 72.4873 144.212 71.9746 144.081 71.8434C144.081 71.7123 143.83 71.4618 143.568 71.3307C143.317 71.1995 142.923 70.9491 142.672 70.8179C141.896 70.5556 141.132 70.8179 141.001 70.6868C140.87 70.9372 140.356 72.225 140.356 72.225Z" fill="#EE7066"/>
<path d="M139.975 71.9624L140.488 70.4242C140.488 70.4242 139.843 69.7803 139.33 69.9114C138.817 70.0426 138.554 70.6865 138.685 71.1992C138.948 71.712 139.724 72.0935 139.975 71.9624Z" fill="#EE7066"/>
<path d="M146.278 77.8771C146.278 77.8771 146.146 78.1395 146.146 78.5211C146.015 78.9026 146.146 79.5465 146.397 80.4408C146.91 82.1102 148.582 81.0848 148.582 80.8224C148.713 80.6913 148.833 79.6658 148.713 79.153C148.582 78.378 148.069 77.746 148.069 77.4836C147.686 77.4836 146.278 77.8771 146.278 77.8771Z" fill="#EE7066"/>
<path d="M146.278 77.3642L147.949 76.9826C147.949 76.9826 148.2 76.0883 147.818 75.6948C147.436 75.3132 146.791 75.4325 146.409 75.826C146.015 76.3268 146.147 77.233 146.278 77.3642Z" fill="#EE7066"/>
<path d="M147.424 87.6306C147.424 87.6306 146.648 88.2745 146.779 90.3255C146.91 92.2452 148.701 91.4821 148.832 91.2198C149.083 91.0886 149.346 90.1943 149.346 89.5504C149.346 88.7753 149.083 88.0122 149.214 87.7499C148.844 87.7618 147.424 87.6306 147.424 87.6306Z" fill="#EE7066"/>
<path d="M147.686 87.1182L149.358 87.2493C149.358 87.2493 149.871 86.4743 149.74 85.9615C149.489 85.58 148.964 85.3176 148.45 85.58C147.818 85.8304 147.555 86.8558 147.686 87.1182Z" fill="#EE7066"/>
<path d="M146.66 98.0291C146.66 98.0291 145.765 98.673 145.884 100.724C145.884 102.775 147.806 102.012 147.937 101.749C148.188 101.618 148.451 100.724 148.582 100.08C148.713 99.3049 148.331 98.5418 148.451 98.2795C148.069 98.1602 146.66 98.0291 146.66 98.0291Z" fill="#EE7066"/>
<path d="M146.911 97.5162L148.582 97.7786C148.582 97.7786 149.227 97.0035 148.964 96.6219C148.833 96.1091 148.188 95.8468 147.675 96.1091C147.173 96.2284 146.791 97.2539 146.911 97.5162Z" fill="#EE7066"/>
<path d="M145.12 108.296C145.12 108.296 144.093 108.808 143.711 110.859C143.329 112.91 145.251 112.397 145.514 112.147C145.777 112.016 146.29 111.253 146.409 110.609C146.672 109.834 146.541 109.071 146.672 108.808C146.397 108.808 145.12 108.296 145.12 108.296Z" fill="#EE7066"/>
<path d="M145.37 107.783L146.91 108.427C146.91 108.427 147.686 107.783 147.555 107.27C147.424 106.757 146.91 106.376 146.397 106.495C146.015 106.626 145.37 107.652 145.37 107.783Z" fill="#EE7066"/>
<path d="M151.411 124.608C151.411 124.608 152.056 125.383 151.411 127.172C150.898 128.972 149.226 128.066 149.226 127.684C149.095 127.553 148.976 126.659 149.095 126.015C149.226 125.24 149.74 124.608 149.74 124.346C150.002 124.477 151.411 124.608 151.411 124.608Z" fill="#EE7066"/>
<path d="M151.411 124.095L149.74 123.964C149.74 123.964 149.358 123.07 149.74 122.676C150.002 122.295 150.635 122.164 151.149 122.545C151.542 122.807 151.542 123.833 151.411 124.095Z" fill="#EE7066"/>
<path d="M152.056 132.049C152.056 132.049 152.187 131.917 152.306 131.917C152.438 131.917 152.438 131.917 153.464 132.43C155.136 133.456 153.715 134.744 153.464 134.744C153.202 134.875 152.306 134.744 151.793 134.481C151.148 134.231 151.017 133.587 150.766 133.456C150.898 133.325 151.148 132.943 151.411 132.681C151.805 132.311 152.056 132.049 152.056 132.049Z" fill="#EE7066"/>
<path d="M151.925 131.917C151.543 132.299 151.149 132.812 150.635 133.205C150.635 133.205 150.504 133.205 150.385 133.074C150.253 132.943 150.122 132.693 150.122 132.561C150.253 132.18 150.898 131.917 151.28 131.786C151.674 131.536 151.925 131.798 151.925 131.917Z" fill="#EE7066"/>
<path d="M145.371 119.206C145.371 119.206 144.475 119.981 144.726 122.032C144.977 124.083 146.648 123.189 146.779 122.926C147.03 122.795 147.293 121.901 147.293 121.257C147.293 120.482 147.03 119.719 147.03 119.457C146.791 119.337 145.371 119.206 145.371 119.206Z" fill="#EE7066"/>
<path d="M145.502 118.574L147.174 118.825C147.174 118.825 147.687 118.05 147.556 117.668C147.424 117.155 146.78 117.024 146.266 117.155C145.765 117.287 145.371 118.443 145.502 118.574Z" fill="#EE7066"/>
<path d="M144.989 130.129C144.989 130.129 144.738 130.379 144.607 130.773C144.476 131.035 144.476 131.286 144.344 131.798C144.344 132.18 144.344 132.693 144.476 133.468C144.738 134.362 145.12 135.006 145.371 135.268C145.753 135.519 146.016 135.65 146.266 135.519C146.78 135.388 147.042 134.744 147.042 134.624C147.174 134.374 146.911 132.955 147.042 132.311C147.042 131.417 146.66 130.642 146.78 130.391C146.398 130.248 144.989 130.129 144.989 130.129Z" fill="#EE7066"/>
<path d="M145.239 129.485L146.91 129.735C146.91 129.735 147.555 128.96 147.293 128.448C147.161 127.935 146.517 127.672 146.003 127.935C145.502 128.197 145.12 129.223 145.239 129.485Z" fill="#EE7066"/>
<path d="M160.794 133.205C160.794 133.205 161.57 132.43 163.492 132.692C165.415 132.943 164.519 134.612 164.268 134.743C164.137 135.006 163.242 135.125 162.597 135.256C161.821 135.256 161.188 134.874 160.794 135.006C160.794 134.612 160.794 133.205 160.794 133.205Z" fill="#EE7066"/>
<path d="M160.281 133.336L160.412 135.006C160.412 135.006 159.636 135.518 159.123 135.256C158.741 135.006 158.478 134.362 158.741 133.968C159.004 133.467 160.03 133.205 160.281 133.336Z" fill="#EE7066"/>
<path d="M170.954 132.824C170.954 132.824 171.599 132.048 173.401 132.048C175.204 132.048 174.691 133.849 174.428 134.099C174.297 134.362 173.533 134.743 172.888 134.743C172.112 134.875 171.479 134.481 171.217 134.612C171.085 134.231 170.954 132.824 170.954 132.824Z" fill="#EE7066"/>
<path d="M170.441 133.074L170.691 134.744C170.691 134.744 169.915 135.256 169.533 135.125C169.151 134.994 168.889 134.35 169.02 133.837C169.283 133.337 170.309 132.943 170.441 133.074Z" fill="#EE7066"/>
<path d="M179.824 131.536C179.824 131.536 179.955 131.285 179.824 131.154C179.824 131.023 179.693 130.892 179.955 131.023C180.206 131.023 180.731 131.154 181.113 131.285C181.627 131.417 182.009 131.667 182.009 131.798C182.14 131.929 182.14 132.573 181.758 132.824C181.376 133.205 180.731 132.955 180.6 133.205C180.469 132.824 179.824 131.536 179.824 131.536Z" fill="#EE7066"/>
<path d="M179.561 131.786L180.337 133.324C180.337 133.324 180.206 133.456 180.075 133.706C179.943 133.837 179.693 133.956 179.43 133.956C179.048 133.825 178.654 133.312 178.785 132.8C178.797 132.18 179.43 131.667 179.561 131.786Z" fill="#EE7066"/>
<path d="M180.719 125.24C180.719 125.24 180.075 124.346 180.719 122.414C181.364 120.494 182.904 121.639 182.904 121.901C183.035 122.032 183.167 123.058 183.035 123.571C182.904 124.346 182.391 124.978 182.391 125.24C182.14 125.371 180.719 125.24 180.719 125.24Z" fill="#EE7066"/>
<path d="M180.719 125.884L182.39 126.015C182.39 126.015 182.772 126.909 182.522 127.303C182.259 127.684 181.626 127.815 181.113 127.565C180.719 127.04 180.588 126.015 180.719 125.884Z" fill="#EE7066"/>
<path d="M179.693 114.842C179.693 114.842 179.048 113.948 179.693 112.016C180.337 110.096 181.877 111.241 181.877 111.503C182.009 111.635 182.128 112.66 182.009 113.173C181.877 113.948 181.364 114.58 181.364 114.842C181.101 114.973 179.693 114.842 179.693 114.842Z" fill="#EE7066"/>
<path d="M179.824 115.354L181.496 115.486C181.496 115.486 181.878 116.38 181.627 116.773C181.376 117.155 180.732 117.286 180.218 117.024C179.693 116.642 179.693 115.486 179.824 115.354Z" fill="#EE7066"/>
<path d="M180.075 104.194C180.075 104.194 179.43 103.299 180.075 101.368C180.719 99.4477 182.259 100.592 182.391 100.855C182.522 100.986 182.642 102.011 182.522 102.524C182.391 103.299 181.877 103.931 181.877 104.194C181.495 104.325 180.075 104.194 180.075 104.194Z" fill="#EE7066"/>
<path d="M180.075 104.707L181.746 104.838C181.746 104.838 182.128 105.732 181.877 106.126C181.615 106.507 180.982 106.638 180.457 106.376C180.075 105.994 179.955 104.957 180.075 104.707Z" fill="#EE7066"/>
<path d="M154.885 138.726C154.885 138.726 155.53 139.621 157.714 139.502C159.768 139.37 158.872 137.582 158.61 137.451C158.478 137.2 157.583 136.938 156.938 136.938C156.162 136.807 155.398 137.2 155.136 137.069C155.148 137.307 154.885 138.726 154.885 138.726Z" fill="#EE7066"/>
<path d="M154.372 138.464L154.635 136.795C154.635 136.795 153.859 136.151 153.477 136.413C152.963 136.544 152.701 137.188 152.832 137.701C153.083 138.214 154.241 138.595 154.372 138.464Z" fill="#EE7066"/>
<path d="M165.94 139.37C165.94 139.37 166.836 140.014 168.901 139.37C170.823 138.595 169.545 137.188 169.283 137.057C169.152 136.925 168.125 136.925 167.612 137.057C166.836 137.188 166.203 137.701 165.94 137.701C165.809 137.951 165.94 139.37 165.94 139.37Z" fill="#EE7066"/>
<path d="M165.295 139.37L165.164 137.701C165.164 137.701 164.269 137.319 163.875 137.569C163.493 137.82 163.361 138.464 163.624 138.976C164.006 139.37 165.164 139.501 165.295 139.37Z" fill="#EE7066"/>
<path d="M176.613 138.344C176.613 138.344 176.863 138.476 177.389 138.595C177.902 138.726 178.678 138.726 179.705 138.344C181.889 137.45 180.218 136.162 180.087 136.031C179.824 135.9 178.929 135.9 178.284 136.031C177.508 136.162 176.875 136.675 176.613 136.544C176.613 136.925 176.613 138.344 176.613 138.344Z" fill="#EE7066"/>
<path d="M176.099 138.213V136.544C176.099 136.544 175.204 136.162 174.81 136.413C174.428 136.663 174.166 137.307 174.428 137.7C174.679 138.213 175.968 138.344 176.099 138.213Z" fill="#EE7066"/>
<path d="M186.247 130.642C186.247 130.511 187.022 129.867 186.76 127.816C186.509 125.765 184.706 126.79 184.575 127.041C184.313 127.172 184.193 128.066 184.193 128.71C184.193 129.485 184.575 130.248 184.444 130.511C184.838 130.511 186.247 130.642 186.247 130.642Z" fill="#EE7066"/>
<path d="M186.115 131.405C185.602 131.274 184.957 131.142 184.444 131.023C184.444 131.023 183.931 131.798 183.931 132.18C183.931 132.693 184.444 133.205 184.957 133.205C185.208 133.205 185.602 132.824 185.853 132.43C185.996 131.917 186.115 131.536 186.115 131.405Z" fill="#EE7066"/>
<path d="M186.115 119.981C186.115 119.981 186.891 119.206 186.629 117.155C186.366 115.104 184.575 116.13 184.444 116.38C184.193 116.511 184.062 117.406 184.062 118.049C184.062 118.825 184.444 119.588 184.313 119.85C184.707 119.981 186.115 119.981 186.115 119.981Z" fill="#EE7066"/>
<path d="M185.996 120.494L184.325 120.363C184.325 120.363 183.811 121.138 184.074 121.651C184.325 122.032 184.969 122.295 185.363 122.032C185.865 121.782 186.116 120.756 185.996 120.494Z" fill="#EE7066"/>
<path d="M186.378 109.584C186.378 109.584 187.274 108.94 187.405 107.02C187.536 104.969 185.602 105.613 185.483 105.863C185.232 105.994 184.838 106.889 184.707 107.401C184.576 108.177 184.707 108.94 184.576 109.202C184.958 109.202 186.378 109.584 186.378 109.584Z" fill="#EE7066"/>
<path d="M186.115 110.096L184.444 109.715C184.444 109.715 183.799 110.359 183.931 110.871C184.062 111.384 184.575 111.646 185.089 111.515C185.733 111.253 186.247 110.227 186.115 110.096Z" fill="#EE7066"/>
<path d="M178.917 93.6646C178.917 93.6646 178.272 92.7703 178.917 90.8386C179.561 88.9188 181.101 90.1947 181.233 90.457C181.364 90.5882 181.495 91.6137 181.364 92.1264C181.233 92.9015 180.719 93.5334 180.719 93.7958C180.337 93.7958 178.917 93.6646 178.917 93.6646Z" fill="#EE7066"/>
<path d="M178.917 94.1774L180.588 94.3085C180.588 94.3085 180.97 95.2028 180.588 95.5963C180.337 95.9779 179.693 96.1091 179.179 95.8586C178.917 95.4652 178.797 94.3085 178.917 94.1774Z" fill="#EE7066"/>
<path d="M179.562 82.8847C179.562 82.8847 178.917 81.9904 179.693 80.0587C180.469 78.1389 181.878 79.4148 182.009 79.7964C182.14 80.0587 182.14 80.953 182.009 81.4658C181.878 82.2408 181.233 82.8728 181.364 83.1351C180.982 83.1351 179.562 82.8847 179.562 82.8847Z" fill="#EE7066"/>
<path d="M179.692 83.517L181.364 83.6481C181.364 83.6481 181.627 84.5425 181.364 84.936C181.113 85.3175 180.468 85.4487 179.955 85.0671C179.561 84.8048 179.43 83.6481 179.692 83.517Z" fill="#EE7066"/>
<path d="M185.22 98.9229C185.22 98.9229 185.996 98.1478 185.733 96.228C185.483 94.177 183.68 95.2025 183.549 95.4529C183.286 95.5841 183.167 96.4784 183.167 97.1223C183.167 97.8974 183.549 98.6605 183.417 98.9229C183.811 98.9229 185.22 98.9229 185.22 98.9229Z" fill="#EE7066"/>
<path d="M185.088 99.436L183.417 99.3048C183.417 99.3048 182.904 100.08 183.166 100.593C183.417 100.974 183.942 101.236 184.456 100.974C184.957 100.724 185.22 99.6983 185.088 99.436Z" fill="#EE7066"/>
<path d="M185.733 88.5251C185.733 88.5251 186.629 88.0124 186.891 85.9614C187.142 84.0416 185.22 84.5543 184.969 84.8048C184.707 84.9359 184.325 85.6991 184.193 86.343C183.931 87.118 184.193 87.8812 184.062 88.1435C184.325 88.2747 185.733 88.5251 185.733 88.5251Z" fill="#EE7066"/>
<path d="M185.471 89.0378L183.931 88.525C183.931 88.525 183.286 89.1689 183.286 89.6817C183.418 90.1944 183.931 90.4568 184.444 90.3256C184.958 90.1944 185.602 89.3001 185.471 89.0378Z" fill="#EE7066"/>
<path d="M180.074 70.9368C180.074 70.9368 180.074 70.5552 180.456 69.7802C180.588 69.649 180.719 69.3986 180.839 69.1363L180.97 69.0051C180.97 68.8739 181.101 68.8739 181.101 68.8739C181.232 68.7428 181.352 68.6116 181.483 68.6116C181.746 68.3493 181.996 68.23 182.379 67.9677C182.761 67.8365 183.155 67.5861 183.405 67.455C184.695 67.0734 185.077 67.5861 185.208 67.9677C185.339 68.4804 185.077 68.9932 184.945 69.1243C184.945 69.2555 184.695 69.3867 184.301 69.6371C183.919 69.8994 183.525 70.1498 183.274 70.4121C182.379 70.9249 181.734 71.5688 181.603 71.9504C181.471 71.9504 181.089 71.688 180.707 71.4376C180.468 71.1991 180.074 70.9368 180.074 70.9368Z" fill="#EE7066"/>
<path d="M179.824 71.9626C180.337 72.225 180.851 72.4754 181.364 72.7377C181.364 72.7377 181.495 73.7632 181.101 74.1448C180.719 74.5264 180.075 74.5264 179.693 74.1448C179.311 73.632 179.561 72.4873 179.824 71.9626Z" fill="#EE7066"/>
<path d="M192.669 65.6783C192.669 65.6783 193.565 65.0344 195.63 65.5471C197.684 66.191 196.406 67.7292 196.144 67.8604C196.012 67.9916 194.986 68.1227 194.472 67.9916C193.696 67.8604 193.063 67.3477 192.669 67.4788C192.55 67.0853 192.669 65.6783 192.669 65.6783Z" fill="#EE7066"/>
<path d="M192.037 65.8097V67.4791C192.037 67.4791 191.142 67.8607 190.748 67.6102C190.366 67.3479 190.103 66.7159 190.366 66.2032C190.616 65.8097 191.906 65.5474 192.037 65.8097Z" fill="#EE7066"/>
<path d="M185.22 78.1274C185.22 78.1274 185.996 77.4835 186.116 75.5637C186.116 73.7632 184.313 74.2759 184.182 74.5383C183.931 74.6694 183.537 75.4326 183.537 76.0765C183.406 76.8515 183.668 77.6147 183.668 77.877C183.811 77.877 185.22 78.1274 185.22 78.1274Z" fill="#EE7066"/>
<path d="M184.957 78.5211L183.286 78.2588C183.286 78.2588 182.641 79.0339 182.904 79.4154C183.035 79.9282 183.68 80.0593 184.193 79.9282C184.707 79.797 185.089 78.7715 184.957 78.5211Z" fill="#EE7066"/>
<path d="M188.432 72.6063C188.432 72.6063 188.563 72.7374 188.945 72.9878C189.327 73.119 189.84 73.3694 190.616 73.2502C192.288 73.2502 191.643 71.4496 191.392 71.1992C191.261 70.9369 190.497 70.6865 189.852 70.5553C189.076 70.4242 188.432 70.8177 188.312 70.8177C188.181 71.1992 188.432 72.6063 188.432 72.6063Z" fill="#EE7066"/>
<path d="M187.918 72.475C187.786 71.9623 187.786 71.3184 187.786 70.8057C187.786 70.8057 187.01 70.4241 186.628 70.6745C186.246 70.9368 186.246 71.5688 186.628 71.9623C186.891 72.475 187.786 72.6062 187.918 72.475Z" fill="#EE7066"/>
<path d="M203.21 65.4161C203.21 65.4161 203.986 64.5218 205.909 64.6411C207.962 64.7722 207.066 66.5609 206.804 66.692C206.673 66.9544 205.777 67.2048 205.133 67.2048C204.357 67.3359 203.593 66.9424 203.33 67.0736C203.342 66.8351 203.21 65.4161 203.21 65.4161Z" fill="#EE7066"/>
<path d="M202.698 65.6785L202.948 67.3479C202.948 67.3479 202.172 67.8606 201.79 67.7294C201.277 67.5983 201.146 66.9544 201.277 66.4416C201.42 65.9289 202.447 65.5473 202.698 65.6785Z" fill="#EE7066"/>
<path d="M213.752 64.772C213.752 64.772 214.528 63.9969 216.45 64.1281C218.503 64.2593 217.608 66.0479 217.345 66.1791C217.214 66.4414 216.319 66.6918 215.674 66.6918C214.898 66.6918 214.134 66.4295 213.871 66.5607C213.883 66.191 213.752 64.772 213.752 64.772Z" fill="#EE7066"/>
<path d="M213.238 64.9032L213.489 66.5726C213.489 66.5726 212.713 67.0853 212.331 66.9541C211.949 66.823 211.687 66.1791 211.818 65.6663C211.961 65.1655 213.107 64.772 213.238 64.9032Z" fill="#EE7066"/>
<path d="M224.425 64.9034C224.425 64.9034 225.201 64.1283 227.254 64.5218C229.176 64.9034 228.149 66.5728 227.899 66.704C227.767 66.9663 226.872 67.0855 226.227 67.0855C225.451 67.0855 224.819 66.704 224.425 66.704C224.425 66.3224 224.425 64.9034 224.425 64.9034Z" fill="#EE7066"/>
<path d="M223.912 65.0343V66.7037C223.912 66.7037 223.136 67.2165 222.622 66.9661C222.24 66.7037 221.978 66.0717 222.24 65.6782C222.622 65.0343 223.649 64.772 223.912 65.0343Z" fill="#EE7066"/>
<path d="M235.086 65.1656C235.086 65.1656 235.981 64.5217 237.915 65.2968C239.837 65.9407 238.56 67.4789 238.297 67.6101C238.166 67.7412 237.139 67.7412 236.626 67.6101C235.85 67.4789 235.217 66.9662 234.954 66.9662C234.966 66.5727 235.086 65.1656 235.086 65.1656Z" fill="#EE7066"/>
<path d="M234.572 65.297L234.441 66.9664C234.441 66.9664 233.546 67.348 233.152 66.9664C232.77 66.7041 232.638 66.0721 233.02 65.5593C233.295 65.1658 234.453 65.0347 234.572 65.297Z" fill="#EE7066"/>
<path d="M245.627 64.7722C245.627 64.7722 246.522 64.1283 248.456 64.9034C250.378 65.5473 249.101 67.0855 248.838 67.2167C248.707 67.3478 247.68 67.3478 247.167 67.2167C246.391 67.0855 245.746 66.5727 245.496 66.5727C245.508 66.1912 245.627 64.7722 245.627 64.7722Z" fill="#EE7066"/>
<path d="M245.114 64.7838L244.982 66.4531C244.982 66.4531 244.087 66.8347 243.693 66.4531C243.311 66.1908 243.18 65.5588 243.562 65.0461C243.836 64.6526 244.994 64.6526 245.114 64.7838Z" fill="#EE7066"/>
<path d="M256.168 65.5472C256.168 65.5472 257.064 64.9033 258.998 65.6784C260.92 66.3223 259.642 67.8605 259.38 67.9917C259.248 68.1228 258.222 68.1228 257.708 67.9917C256.933 67.8605 256.3 67.3478 256.037 67.3478C256.037 66.9543 256.168 65.5472 256.168 65.5472Z" fill="#EE7066"/>
<path d="M255.655 65.5473L255.524 67.2167C255.524 67.2167 254.628 67.5983 254.234 67.2167C253.852 66.9544 253.721 66.3224 254.103 65.8096C254.378 65.4162 255.524 65.4162 255.655 65.5473Z" fill="#EE7066"/>
<path d="M198.077 71.5808C198.077 71.5808 198.853 72.3559 200.775 71.9624C202.697 71.5808 201.802 69.9114 201.551 69.7803C201.42 69.5179 200.524 69.3987 199.88 69.3987C199.104 69.3987 198.471 69.7803 198.208 69.7803C198.077 70.1738 198.077 71.5808 198.077 71.5808Z" fill="#EE7066"/>
<path d="M197.564 71.45V69.7806C197.564 69.7806 196.788 69.2678 196.274 69.5182C195.892 69.7806 195.761 70.4126 196.012 70.9253C196.274 71.3307 197.301 71.5811 197.564 71.45Z" fill="#EE7066"/>
<path d="M208.607 71.3307C208.607 71.3307 209.502 71.9746 211.436 71.1995C213.358 70.4244 212.081 69.0174 211.818 68.8862C211.687 68.7551 210.66 68.7551 210.147 68.8862C209.371 69.0174 208.738 69.5301 208.476 69.5301C208.487 69.9117 208.607 71.3307 208.607 71.3307Z" fill="#EE7066"/>
<path d="M208.093 71.3303L207.962 69.6609C207.962 69.6609 207.067 69.3986 206.673 69.6609C206.291 69.9232 206.159 70.5552 206.541 71.068C206.816 71.4495 207.974 71.4495 208.093 71.3303Z" fill="#EE7066"/>
<path d="M219.029 70.6868C219.029 70.6868 219.805 71.4618 221.727 71.3307C223.78 71.1995 222.885 69.4109 222.622 69.2797C222.491 69.0174 221.595 68.767 220.951 68.767C220.175 68.767 219.411 69.0293 219.148 69.0293C219.148 69.2678 219.029 70.6868 219.029 70.6868Z" fill="#EE7066"/>
<path d="M218.515 70.4245L218.778 68.7551C218.778 68.7551 218.002 68.2424 217.62 68.3735C217.238 68.5047 216.975 69.1486 217.107 69.6613C217.226 70.2933 218.253 70.5556 218.515 70.4245Z" fill="#EE7066"/>
<path d="M229.57 70.5557C229.57 70.5557 230.346 71.3307 232.268 71.1996C234.322 71.0684 233.426 69.2798 233.164 69.1486C233.032 68.8863 232.137 68.6359 231.492 68.6359C230.716 68.6359 229.952 68.8982 229.69 68.8982C229.69 69.1367 229.57 70.5557 229.57 70.5557Z" fill="#EE7066"/>
<path d="M229.045 70.4245L229.295 68.7551C229.295 68.7551 228.519 68.2424 228.137 68.3735C227.755 68.6359 227.493 69.1486 227.624 69.6613C227.767 70.1741 228.925 70.5556 229.045 70.4245Z" fill="#EE7066"/>
<path d="M240.231 70.8058C240.231 70.8058 241.007 71.5809 242.929 71.4497C244.982 71.3185 244.087 69.5299 243.824 69.3987C243.693 69.1364 242.798 68.886 242.153 68.886C241.377 68.886 240.613 69.1483 240.35 69.1483C240.231 69.3987 240.231 70.8058 240.231 70.8058Z" fill="#EE7066"/>
<path d="M239.586 70.6866L239.717 69.0172C239.717 69.0172 238.941 68.5044 238.428 68.6356C238.046 68.8979 237.783 69.4107 237.915 69.9234C238.309 70.5554 239.467 70.8058 239.586 70.6866Z" fill="#EE7066"/>
<path d="M250.641 71.5811C250.641 71.5811 251.154 72.4754 253.208 72.7378C255.261 73.0001 254.616 71.0684 254.366 70.818C254.234 70.5557 253.47 70.1741 252.826 70.0429C252.05 69.7806 251.286 70.0429 251.023 69.9117C250.904 70.2933 250.641 71.5811 250.641 71.5811Z" fill="#EE7066"/>
<path d="M250.128 71.3303L250.641 69.7921C250.641 69.7921 249.996 69.1482 249.483 69.1482C248.97 69.2794 248.707 69.7921 248.838 70.3048C248.838 70.9368 249.877 71.4496 250.128 71.3303Z" fill="#EE7066"/>
<path d="M261.051 162.61C261.051 165.305 258.866 167.487 256.168 167.487H44.3502C41.6522 167.487 39.4675 165.305 39.4675 162.61C39.4675 159.915 41.6522 157.733 44.3502 157.733H256.18C258.866 157.721 261.051 159.903 261.051 162.61Z" fill="url(#paint3_linear)"/>
<path d="M215.555 90.7072L217.357 77.3522C217.357 76.9706 216.975 76.5771 216.581 76.7083L203.987 81.3348C203.724 81.466 203.724 81.8476 203.987 82.1099L205.789 83.517C206.052 83.6481 206.052 84.0297 205.921 84.1609L198.209 93.7837C198.077 93.9149 198.077 94.2964 198.34 94.4276L203.999 98.923C204.249 99.0542 204.512 99.0542 204.643 98.923L212.355 89.3002C212.487 89.169 212.737 89.169 213 89.3002L214.803 90.7072C215.173 91.1007 215.555 91.1007 215.555 90.7072Z" fill="white"/>
<path d="M204.369 99.8294C204.118 99.8294 203.855 99.6982 203.724 99.5789L198.065 95.0835C197.803 94.9524 197.683 94.702 197.683 94.4396C197.552 94.1773 197.683 93.9269 197.815 93.6645L205.527 84.0417L203.724 82.6347C203.473 82.3723 203.211 81.9908 203.342 81.6092C203.342 81.3469 203.605 81.0964 203.855 80.9653L216.45 76.3387C216.832 76.2075 217.226 76.3387 217.477 76.601C217.739 76.8634 217.99 77.2449 217.859 77.4953L216.056 90.8504C216.056 91.1128 215.805 91.3632 215.543 91.4943C215.161 91.6255 214.767 91.4943 214.516 91.3632L212.714 89.9561L205.001 99.5909C205.013 99.6982 204.763 99.8294 204.369 99.8294ZM198.722 94.1773L204.381 98.6727L212.093 89.0499C212.475 88.6683 212.988 88.6683 213.513 88.9187L215.185 90.2065L216.987 77.1138C216.987 77.1138 216.987 77.1138 216.856 77.1138L204.5 81.7284L206.171 83.0162C206.685 83.3978 206.685 84.0417 206.434 84.4233L198.722 94.1773Z" fill="url(#paint4_linear)"/>
<path d="M268.381 166.2C269.789 166.331 272.368 166.581 274.421 166.581C275.579 166.581 276.355 166.45 276.737 166.331V166.462C276.737 166.724 276.606 166.844 276.355 166.844C272.499 167.094 269.539 166.975 268.393 166.844C268.13 166.844 268.011 166.581 268.13 166.462C268.249 166.331 268.381 166.331 268.381 166.2Z" fill="url(#paint5_linear)"/>
<path d="M274.553 166.581C272.5 166.45 269.921 166.331 268.512 166.199C269.921 164.399 274.553 163.242 274.553 163.242H275.842C276.738 164.53 276.869 165.806 276.869 166.45C276.356 166.581 275.711 166.712 274.553 166.581Z" fill="url(#paint6_linear)"/>
<path d="M275.962 161.06L275.831 163.504C275.831 163.767 275.58 164.017 275.317 164.017C275.066 164.017 274.673 164.017 274.291 163.886C274.04 163.755 273.908 163.624 273.908 163.373L273.526 161.06H275.962Z" fill="url(#paint7_linear)"/>
<path d="M292.937 166.581C293.582 166.45 293.833 166.199 293.964 165.806C294.095 166.187 293.833 166.581 293.451 166.7C292.937 166.963 292.293 166.963 291.911 166.963C291.397 166.963 291.015 166.7 290.753 166.45C291.135 166.712 291.899 166.712 292.937 166.581Z" fill="url(#paint8_linear)"/>
<path d="M289.846 161.06H290.872C292.544 161.06 293.57 164.53 293.833 165.806C293.702 166.187 293.451 166.45 292.806 166.581C291.78 166.712 291.004 166.712 290.622 166.45C289.726 165.293 289.332 163.624 289.082 162.598C288.95 161.453 289.846 161.06 289.846 161.06Z" fill="url(#paint9_linear)"/>
<path d="M290.873 158.878L291.517 161.191C291.649 161.442 291.386 161.835 291.135 161.966C290.753 162.097 290.359 162.348 289.846 162.229C289.595 162.229 289.464 162.097 289.464 161.847L288.569 159.403L290.873 158.878Z" fill="url(#paint10_linear)"/>
<path d="M291.517 159.522C290.741 160.166 288.306 160.297 288.306 160.297C279.567 139.501 276.093 136.544 276.093 136.544C277.383 144.378 276.344 161.835 276.344 161.835C274.935 162.479 273.001 161.835 273.001 161.835C272.87 148.993 270.948 137.701 268.501 128.841C274.41 128.71 277.502 126.659 278.529 125.884C283.555 133.718 291.517 159.522 291.517 159.522Z" fill="url(#paint11_linear)"/>
<path d="M277.119 101.88C278.277 107.401 277.895 117.286 277.633 121.913C277.501 123.201 278.409 124.989 279.173 126.146C279.304 126.277 279.173 126.527 279.041 126.659C277.883 127.302 273.777 129.222 269.013 129.485C268.751 129.485 268.369 129.234 268.369 128.972C264.895 115.879 260.788 107.532 260.788 107.532C265.301 100.342 277.119 101.88 277.119 101.88Z" fill="url(#paint12_linear)"/>
<path d="M275.58 136.031H275.711C275.843 135.9 275.843 135.781 275.843 135.65C275.843 135.518 274.685 133.73 272.369 132.692C272.237 132.561 272.118 132.692 271.987 132.824C271.855 132.955 271.987 133.086 272.118 133.205C274.171 134.231 275.329 135.9 275.329 136.031C275.329 135.9 275.449 136.031 275.58 136.031Z" fill="url(#paint13_linear)"/>
<path d="M284.068 117.799C283.686 120.363 282.647 123.189 280.594 126.146L279.818 125.502C279.818 125.502 280.713 121.782 280.2 117.549C281.489 117.286 283.041 117.549 284.068 117.799Z" fill="url(#paint14_linear)"/>
<path d="M275.962 108.689L277.251 101.88C277.251 101.88 285.608 108.176 284.187 117.799C283.161 117.537 281.621 117.286 280.2 117.537C279.818 114.46 278.672 111.122 275.962 108.689Z" fill="url(#paint15_linear)"/>
<path d="M260.8 107.533L264.011 114.461C263.498 118.574 261.313 120.363 258.866 121.138C258.735 119.218 258.222 117.668 257.84 116.643C260.8 113.435 260.8 107.533 260.8 107.533Z" fill="url(#paint16_linear)"/>
<path d="M257.708 116.511C258.09 117.537 258.604 119.075 258.735 121.007C252.312 123.451 250.641 118.694 250.641 118.694L251.799 118.431C254.497 118.825 256.431 117.93 257.708 116.511Z" fill="url(#paint17_linear)"/>
<path d="M263.749 99.0541L265.289 104.706C265.42 105.35 266.184 105.732 266.698 105.481C267.342 105.231 268.238 104.837 268.882 104.456C269.658 104.074 269.909 103.049 269.396 102.274L266.184 97.5278L263.749 99.0541Z" fill="url(#paint18_linear)"/>
<path d="M247.692 114.842L287.279 129.223C288.951 129.867 289.727 131.667 288.951 133.336L288.819 133.587C288.175 134.994 286.503 135.638 285.095 134.994L246.666 117.275L247.692 114.842Z" fill="url(#paint19_linear)"/>
<path opacity="0.5" d="M229.057 125.371C239.849 125.371 248.599 116.81 248.599 106.245C248.599 95.6799 239.849 87.1183 229.057 87.1183C218.265 87.1183 209.514 95.6799 209.514 106.245C209.514 116.81 218.265 125.371 229.057 125.371Z" fill="white"/>
<path d="M207.711 106.245C207.711 118.05 217.477 127.553 229.439 127.553C241.389 127.553 251.166 118.05 251.166 106.245C251.166 94.4277 241.401 84.936 229.439 84.936C217.489 84.936 207.711 94.4396 207.711 106.245ZM210.923 106.245C210.923 96.2283 219.279 88.0125 229.427 88.0125C239.705 88.0125 247.931 96.0971 247.931 106.245C247.931 116.261 239.574 124.477 229.427 124.477C219.279 124.477 210.923 116.261 210.923 106.245Z" fill="url(#paint20_linear)"/>
<path d="M249.614 108.939C249.483 108.939 249.483 108.808 249.483 108.808C249.483 108.295 249.614 107.783 249.614 107.27C249.614 107.139 249.745 107.139 249.745 107.139C249.877 107.139 249.877 107.27 249.877 107.27C249.877 107.783 249.745 108.295 249.745 108.808L249.614 108.939ZM249.363 102.774C249.113 101.367 248.719 100.08 248.205 98.7918C245.125 91.3511 237.795 86.4622 229.57 86.4622C225.714 86.4622 221.989 87.4877 218.778 89.5386H218.647V89.4313C221.858 87.3803 225.714 86.3549 229.57 86.3549C237.927 86.3549 245.376 91.2318 248.468 98.8037C248.981 100.092 249.363 101.499 249.626 102.786C249.626 102.918 249.626 102.918 249.495 102.918C249.363 102.918 249.363 102.906 249.363 102.774Z" fill="#95B0DD"/>
<path d="M280.081 125.371L276.356 125.121L274.685 126.659C274.685 126.659 275.067 127.172 276.225 126.909C277.383 126.659 279.054 126.528 279.054 126.528C279.054 126.528 280.725 127.303 280.725 125.884L280.081 125.371Z" fill="url(#paint21_linear)"/>
<path d="M251.154 119.599C250.772 119.862 249.746 119.349 249.101 118.956C248.719 118.824 248.588 118.443 248.719 118.061C248.85 117.549 249.101 116.905 249.495 116.773C249.996 116.642 252.444 118.574 251.154 119.599Z" fill="url(#paint22_linear)"/>
<path d="M286.503 134.493C288.043 133.98 288.425 133.086 288.425 132.442C288.425 131.416 287.912 130.522 286.885 130.129L282.134 128.328C282.002 128.328 282.002 128.328 282.002 128.459C282.002 128.59 282.002 128.59 282.134 128.59L286.885 130.391C287.781 130.773 288.294 131.548 288.294 132.442C288.294 133.336 287.649 133.98 286.491 134.362C286.384 134.231 286.384 134.362 286.503 134.493C286.384 134.493 286.503 134.493 286.503 134.493Z" fill="#95B0DD"/>
<path d="M280.725 127.947C280.725 127.947 280.856 127.947 280.725 127.947C280.856 127.815 280.856 127.696 280.725 127.696L280.08 127.446C279.949 127.446 279.949 127.446 279.949 127.577C279.949 127.708 279.949 127.708 280.08 127.708L280.725 127.947Z" fill="#95B0DD"/>
<path d="M263.367 93.4022C263.367 93.4022 262.078 96.3594 261.958 97.8976C261.827 99.4358 261.576 100.461 263.367 100.724C265.17 100.974 266.71 100.211 267.474 98.6727C267.474 98.6727 268.763 96.3594 268.5 95.3339C268.13 94.3085 263.367 93.4022 263.367 93.4022Z" fill="url(#paint23_linear)"/>
<path d="M261.564 90.9699C261.695 90.326 261.946 89.1694 262.722 89.0501C263.235 88.919 263.749 89.3125 264.131 89.5629C264.262 89.694 264.513 89.8252 264.644 90.0756C265.026 90.4572 265.42 90.7195 265.802 90.8507C266.184 90.9818 266.698 91.2323 267.092 91.3634C267.987 91.745 268.894 92.2577 269.407 93.164C269.67 93.5455 269.67 94.0583 269.539 94.571H269.67C269.801 94.4398 270.052 94.4398 270.446 94.7022C271.091 95.2149 270.828 96.5027 269.419 97.6594C269.419 97.6594 269.419 97.7905 269.419 97.9217C269.682 98.0529 270.064 98.4344 269.037 98.9472C268.142 99.4599 267.497 99.4599 267.366 99.3287L267.235 99.1976L267.366 97.9098C267.366 97.7786 267.366 97.7786 267.235 97.7786H266.721H266.459C266.459 97.7786 267.235 96.3716 266.841 95.7277C266.59 95.5965 266.327 95.5965 266.065 95.4653C265.933 95.4653 265.934 95.3342 265.802 95.3342C265.671 95.3342 265.42 95.3342 265.289 95.203C265.158 95.203 264.907 95.0718 264.775 95.0718C264.393 95.0718 264 94.9407 263.617 94.8095C262.722 94.5472 261.946 93.9152 261.564 93.1401C261.445 92.2577 261.445 91.6138 261.564 90.9699Z" fill="url(#paint24_linear)"/>
<path d="M266.841 97.8977C266.841 97.8977 267.355 95.9779 268.131 96.4906C269.026 97.0034 267.749 98.5416 266.973 98.6727L266.841 97.8977Z" fill="url(#paint25_linear)"/>
<path d="M60.1564 55.7933C60.1564 55.7933 72.2377 34.7352 73.9091 32.6843C74.1717 32.3027 74.5537 32.1715 75.0671 32.1715L78.4097 32.5531L82.2658 41.1504L75.7117 37.2989C76.3564 41.7943 67.8684 48.4719 65.039 50.9044C64.7764 51.1667 64.7764 51.5483 65.039 51.9299L66.197 53.0865C64.2631 55.0063 62.0784 56.2942 59.643 56.8069L60.1564 55.7933Z" fill="url(#paint26_linear)"/>
<path d="M65.421 52.5858C65.421 52.5858 66.1969 52.8481 66.4476 53.4801C66.579 53.7425 66.4476 54.124 66.185 54.3744C65.027 55.2688 60.9203 58.0948 59.1177 58.6076C58.9864 58.6076 58.855 58.4764 58.855 58.3452C58.9864 57.9636 59.2371 57.0574 60.2637 55.7815L60.1324 55.9127C60.0011 56.175 60.2637 56.4254 60.5144 56.2943C61.6963 55.5311 64.263 53.9929 65.421 52.5858Z" fill="url(#paint27_linear)"/>
<path d="M64.9075 60.9326L66.7101 56.5684C68.3814 46.4209 72.3688 37.8235 73.6462 35.5102C73.9088 35.1287 74.2908 34.8663 74.6728 34.8663L78.0155 34.604L83.6742 42.1759L76.4755 39.7314C78.0155 43.9645 71.0795 52.3114 68.7635 55.2686C68.5008 55.531 68.6321 56.0437 68.8948 56.1629L70.3035 57.0573C68.8948 59.3706 66.9608 61.0399 64.6448 62.0654L64.9075 60.9326Z" fill="url(#paint28_linear)"/>
<path d="M69.4082 56.6874C69.4082 56.6874 70.1842 56.8185 70.5662 57.3313C70.6975 57.5936 70.6975 57.9752 70.4349 58.2256C69.4082 59.3822 66.0656 62.8522 64.3942 63.7465C64.2629 63.8777 64.1316 63.7465 64.1316 63.6153C64.1316 63.2338 64.2629 62.3275 65.027 60.7893V61.0516C65.027 61.314 65.2896 61.4332 65.409 61.314C66.3282 60.4077 68.5129 58.4879 69.4082 56.6874Z" fill="url(#paint29_linear)"/>
<path d="M93.8336 33.066C93.8336 33.066 96.9136 37.5614 97.1762 39.7435C97.4389 41.7945 96.2809 42.5696 93.1889 42.82C83.6742 43.595 78.9229 40.769 78.9229 40.769C78.2782 36.6552 77.7649 35.5104 72.3689 33.3283C72.3689 33.3283 79.3049 33.8411 80.5942 33.3283C82.0029 32.6844 93.8336 33.066 93.8336 33.066Z" fill="url(#paint30_linear)"/>
<path d="M80.5946 12.9139C78.9233 12.9139 77.0012 13.2954 76.3566 12.27C75.3299 10.7317 76.8699 6.61789 79.6992 5.59241C82.6599 4.43576 84.5819 7.51221 87.6739 6.36749C90.1212 5.47317 89.8586 3.29104 92.1746 1.62165C95.8993 -1.20438 103.361 -0.178899 106.19 3.54145C110.691 9.57509 102.979 23.0494 96.9379 23.3118C91.6493 23.4429 88.6886 13.045 80.5946 12.9139Z" fill="url(#paint31_linear)"/>
<path d="M85.6082 32.4221C85.6082 32.4221 82.0148 29.0834 80.3435 26.7701C79.4481 25.6134 79.0542 23.944 79.5675 22.537C80.3435 19.8421 81.7522 17.0161 81.8835 16.6345C82.1462 15.9906 86.1216 15.9906 86.1216 15.9906C86.1216 15.9906 93.9649 21.1299 97.0449 29.7273L93.5709 30.7528C93.5709 30.7528 91.5176 27.2828 89.4523 25.1007C89.4523 25.1007 92.9263 29.7273 93.0457 31.6471L85.6082 32.4221Z" fill="url(#paint32_linear)"/>
<path d="M78.7917 33.8406L81.4897 30.8834L84.5697 31.6584C84.5697 31.6584 88.1631 32.1712 90.2284 31.6584C92.2817 31.1457 92.2817 31.1457 92.2817 31.1457L96.9137 29.7386L97.6897 31.7896C97.821 32.3024 97.6897 32.9463 97.1763 33.1967C96.7943 33.459 96.281 33.8406 96.0183 33.9717C95.3737 34.2341 81.8836 34.1029 81.8836 34.1029L78.7917 33.8406Z" fill="url(#paint33_linear)"/>
<path d="M83.1613 11.2442L85.8593 16.2524C85.728 17.2778 82.8987 17.409 82.5166 16.7651C82.5166 16.6339 82.3853 16.6339 82.3853 16.5028L80.8453 13.164C80.714 12.7824 81.6213 11.7569 82.0033 11.6258L83.03 11.113C83.4239 10.7315 81.7526 10.7315 83.1613 11.2442Z" fill="url(#paint34_linear)"/>
<path d="M77.7649 9.95676C77.7649 9.95676 77.5023 11.6261 78.7916 13.8083C80.0809 15.9904 81.4896 15.8592 82.1343 15.0961C82.7789 14.321 83.543 13.0451 83.2923 10.9822C82.9102 8.80011 78.2783 7.9058 77.7649 9.95676Z" fill="url(#paint35_linear)"/>
<path d="M81.6212 11.2445C81.6212 11.2445 79.4365 8.41847 77.7652 10.8629V11.7572C77.7652 11.7572 76.4759 12.4011 76.7385 10.4694C77.0011 8.54963 77.7652 6.35558 80.2125 6.99949C82.6598 7.6434 84.0685 8.40654 84.3312 10.0759C84.5938 11.7453 83.1732 11.483 83.1732 11.483C83.1732 11.483 82.9105 10.3263 82.2778 10.1952C81.6331 10.064 81.8958 11.0895 81.8958 11.0895L81.6212 11.2445Z" fill="url(#paint36_linear)"/>
<path d="M82.1341 11.1133C82.1341 11.1133 80.9761 9.70626 82.0028 9.31276C83.0295 9.05043 83.0295 10.7198 82.8981 11.3637L82.1341 11.1133Z" fill="url(#paint37_linear)"/>
<path d="M87.6619 34.8664H75.3178C75.0552 34.8664 74.8045 34.6041 74.8045 34.3537C74.8045 34.0914 75.0671 33.8409 75.3178 33.8409H87.6619C87.9245 33.8409 88.1752 34.1033 88.1752 34.3537C88.1752 34.6041 87.9126 34.8664 87.6619 34.8664Z" fill="url(#paint38_linear)"/>
<path d="M64.263 23.8246H74.5417C75.3176 23.8246 75.9504 24.2062 76.3443 24.9812L81.0957 34.9976H68.3816C67.8683 34.9976 67.4862 34.7352 67.2236 34.2225L63.4989 24.9812C63.2363 24.3373 63.6302 23.8246 64.263 23.8246Z" fill="url(#paint39_linear)"/>
<path d="M91.0047 11.4949C89.596 11.4949 88.3067 10.851 86.886 9.57514C84.7014 7.65534 83.806 7.39301 82.1347 7.39301H82.0034V7.26184H82.1347C83.9373 7.26184 84.8327 7.64342 87.0174 9.57514C88.3067 10.7318 89.7154 11.3757 91.0047 11.4949C92.294 11.4949 93.7027 10.6006 94.8607 9.18164C95.374 8.53773 95.7561 7.77458 96.15 7.13068C96.532 6.48677 96.926 5.84286 97.308 5.21088C97.69 4.69814 98.084 4.05424 98.848 3.80383C99.4927 3.42225 100.388 3.5415 100.901 3.93499C100.388 3.55342 99.6121 3.55342 98.9794 3.80383C98.3347 4.1854 97.8214 4.82931 97.4393 5.21088C97.0573 5.85479 96.6634 6.49869 96.2813 7.13068C95.8993 7.77458 95.5054 8.53773 94.992 9.18164C93.834 10.6006 92.4134 11.4949 91.0047 11.4949Z" fill="#95B0DD"/>
<path d="M91.3866 13.2953C91.2553 13.2953 91.124 13.2953 91.0046 13.2953C90.2286 13.1641 89.2019 12.6513 88.9512 11.757H89.0826C89.3452 12.6513 90.3719 13.1641 91.1359 13.1641C92.1626 13.2953 93.3206 12.9018 94.4786 12.1386C95.1232 11.4947 95.7679 10.8508 96.4126 10.2188C96.6752 9.95648 96.7946 9.83723 97.0572 9.5749C97.9526 8.68059 98.9793 7.77435 100.018 7.0112C100.794 6.49846 101.427 5.98572 102.334 5.98572C102.334 5.98572 102.334 5.98572 102.465 5.98572C102.979 5.98572 103.492 6.24805 103.755 6.62962C104.005 7.14236 104.137 7.4047 104.005 7.78627H103.874C104.005 7.4047 103.874 7.14236 103.623 6.89196C103.361 6.51038 102.847 6.24805 102.334 6.24805C101.439 6.24805 100.663 6.62962 100.018 7.14236C98.9912 7.91744 97.9645 8.81175 97.0572 9.70607C96.7946 9.83723 96.6752 10.0876 96.4126 10.35C95.7679 10.9939 95.1232 11.6378 94.4786 12.1505C93.44 12.9137 92.4133 13.2953 91.3866 13.2953Z" fill="#95B0DD"/>
<path d="M92.2936 14.3211C91.9115 14.3211 91.6489 14.3211 91.2669 14.0587C92.4249 14.5715 93.7142 13.9276 94.3469 13.546C94.9916 13.1644 95.5049 12.6517 96.0183 12.2582C96.9136 11.4831 97.8209 10.72 98.9789 10.3384C99.4923 10.076 100.006 10.076 100.519 10.076C101.032 10.2072 101.546 10.4576 101.808 10.9704C101.546 10.5888 101.164 10.1953 100.519 10.1953C100.137 10.0641 99.6236 10.1953 98.9789 10.4576C97.8209 10.8392 96.9256 11.6143 96.0183 12.3774C95.5049 12.8902 94.8603 13.2717 94.3469 13.6652C93.953 13.9395 93.0576 14.3211 92.2936 14.3211Z" fill="#95B0DD"/>
<path d="M13.1083 167.225V167.094C13.7529 164.53 16.451 163.242 16.451 163.242L17.7403 163.373C18.5163 165.687 18.8983 166.712 18.7669 167.356C17.7403 167.487 15.5556 167.487 13.1083 167.225Z" fill="url(#paint40_linear)"/>
<path d="M18.7672 167.356C18.7672 167.619 18.5046 167.738 18.3852 167.738C16.8452 167.988 14.5292 167.738 13.5025 167.607C13.2399 167.607 13.1205 167.344 13.1205 167.094C15.5559 167.487 17.7406 167.487 18.7672 167.356Z" fill="url(#paint41_linear)"/>
<path d="M15.4242 161.322L15.9376 164.017C15.9376 164.268 16.0689 164.399 16.3196 164.399C16.5822 164.399 16.8329 164.399 17.215 164.399C17.4776 164.399 17.7283 164.017 17.597 163.755L17.215 161.442H15.4123V161.322H15.4242Z" fill="url(#paint42_linear)"/>
<path d="M29.5589 167.356C28.1502 167.356 27.5055 167.106 27.1116 166.975C27.1116 167.106 27.1116 167.237 27.1116 167.356C27.1116 167.488 27.2429 167.619 27.3742 167.619H34.8236C35.0862 167.619 35.2056 167.356 35.0862 167.106C34.0595 167.225 31.6242 167.488 29.5589 167.356Z" fill="url(#paint43_linear)"/>
<path d="M35.0862 167.225C35.0862 167.094 35.0862 167.094 35.0862 167.225C34.4416 166.199 32.7702 164.399 29.4276 163.636H27.8875C27.8875 163.636 27.2429 164.924 27.1116 167.106C27.4936 167.237 28.1382 167.356 29.5589 167.487C31.6242 167.487 34.0595 167.225 35.0862 167.225Z" fill="url(#paint44_linear)"/>
<path d="M27.5059 161.06C27.5059 161.191 27.7685 162.98 27.7685 163.624C27.7685 163.755 27.8999 163.874 28.0312 163.874C28.2938 163.874 28.8072 163.874 29.0579 163.874C29.3205 163.874 29.4399 163.624 29.4399 163.361V160.535L27.5059 161.06Z" fill="url(#paint45_linear)"/>
<path d="M16.4506 126.277C16.4506 126.277 13.8839 148.742 15.2926 162.861C15.2926 162.861 16.964 162.861 17.8593 162.598C17.8593 162.598 20.5573 140.515 21.3333 134.231C21.3333 133.98 21.7153 133.98 21.7153 134.231C22.742 139.489 26.8607 160.297 27.374 162.348C27.374 162.348 28.7827 162.861 29.9407 162.348C29.9407 162.348 27.6247 132.18 25.9534 126.909L16.4506 126.277Z" fill="url(#paint46_linear)"/>
<path d="M11.3055 100.08C11.3055 100.08 21.9782 98.4104 30.4542 100.593L29.9409 109.321C29.9409 109.321 27.6249 121.388 25.9536 126.778C25.9536 126.778 19.5309 127.935 16.3076 126.265C16.3076 126.265 13.7409 111.122 12.3202 108.808C12.4635 108.808 11.0548 102.906 11.3055 100.08Z" fill="url(#paint47_linear)"/>
<path d="M18.7669 92.3766L17.7402 99.5669C17.7402 99.5669 20.7009 100.974 22.7542 99.5669L22.3722 94.4275L18.7669 92.3766Z" fill="url(#paint48_linear)"/>
<path d="M11.3055 100.08C11.3055 100.08 -5.27654 118.05 14.2661 124.989V123.582C14.2661 123.582 6.93615 117.418 12.5948 108.951C12.5948 108.94 11.9502 100.855 11.3055 100.08Z" fill="url(#paint49_linear)"/>
<path d="M14.5287 123.702C14.5287 123.702 17.0954 122.032 18.2534 122.545C19.4114 123.058 19.4114 123.952 19.4114 123.952C19.4114 123.952 18.8981 125.109 18.0027 124.846C17.1074 124.596 15.1734 125.109 14.278 124.846C14.1348 124.858 13.8841 123.702 14.5287 123.702Z" fill="url(#paint50_linear)"/>
<path d="M30.5977 100.593C30.5977 100.593 47.9557 118.05 28.2817 124.99V123.583C28.2817 123.583 35.6117 117.418 29.953 108.952C29.953 108.94 29.4397 102.012 30.5977 100.593Z" fill="url(#paint51_linear)"/>
<path d="M28.1506 123.702C28.1506 123.702 25.5839 122.032 24.4259 122.545C23.2679 123.058 23.2679 123.952 23.2679 123.952C23.2679 123.952 23.7812 125.109 24.6766 124.846C25.5719 124.596 27.5059 125.109 28.4013 124.846C28.4013 124.858 28.6639 123.702 28.1506 123.702Z" fill="url(#paint52_linear)"/>
<path d="M21.9785 87.1184C22.1098 87.2496 25.0585 93.0209 25.0585 93.0209L21.7159 94.6903L18.1225 89.5509C17.9912 89.4317 20.6892 85.9617 21.9785 87.1184Z" fill="url(#paint53_linear)"/>
<path d="M19.4114 89.5508C19.4114 89.6819 19.4114 89.9324 19.4114 90.0635L21.0827 92.8895C21.0827 92.8895 21.0827 93.0207 21.2141 93.0207C21.4767 93.1519 22.1094 93.7958 22.6228 93.0207C23.1361 92.3768 23.5181 91.8641 23.9121 91.6137C24.1747 91.4825 24.5567 91.6137 24.6881 91.876C24.9507 92.3887 25.464 93.5454 25.8461 94.5708C25.9774 94.8332 25.8461 95.0836 25.5834 95.2148C24.9388 95.4771 23.5301 95.9898 22.3721 96.1091C22.1094 96.1091 21.99 96.1091 21.8587 95.8467C21.3454 95.2028 19.9247 93.1519 19.4114 92.6391C18.8981 92.1264 18.1221 92.3768 17.7401 92.508C17.6088 92.508 17.4774 92.508 17.3581 92.508C16.976 92.2456 16.3314 91.7329 16.976 90.7074C17.1074 90.4451 17.1074 90.1947 16.8447 89.9324C16.4627 89.67 15.9494 89.1573 16.3314 88.263C16.8447 87.3687 17.6207 87.3687 18.134 87.3687C18.3967 87.3687 18.6474 87.2375 18.7787 86.9871C18.7787 86.8559 18.91 86.8559 19.0413 86.7248C19.304 86.7248 19.5547 86.3432 19.4233 86.0809C19.292 85.5681 19.4233 84.9242 20.1993 84.5426C21.608 83.7676 22.8973 85.0554 23.2794 86.0809C23.6614 87.2375 21.99 88.0006 20.9634 88.1318C20.0561 88.4061 19.6621 89.1692 19.4114 89.5508Z" fill="url(#paint54_linear)"/>
<path d="M20.0561 93.7959C20.0561 93.7959 19.4114 91.8761 18.6474 91.9953C17.8714 92.1265 17.2387 92.8896 18.134 93.7959C19.4114 94.9525 20.0561 93.7959 20.0561 93.7959Z" fill="url(#paint55_linear)"/>
<path d="M4.75159 105.35L21.465 111.646L21.7276 134.243L7.58092 129.735L4.75159 105.35Z" fill="url(#paint56_linear)"/>
<path d="M38.429 105.35L21.4649 111.646V134.243L35.5996 129.747L38.429 105.35Z" fill="url(#paint57_linear)"/>
<path d="M22.3599 112.791L37.5214 107.139L36.8767 111.766L22.348 115.999V112.791H22.3599Z" fill="#95B0DD"/>
<path d="M22.7542 117.668L27.6369 115.999L26.8609 130.761L23.0049 132.168L22.7542 117.668Z" fill="#95B0DD"/>
<path d="M28.6637 115.998L36.2444 113.304L34.8357 124.858L28.2817 126.265L28.6637 115.998Z" fill="#95B0DD"/>
<path d="M28.2817 127.553L34.3223 126.265V128.447L28.2817 130.248V127.553Z" fill="#95B0DD"/>
<path d="M19.7935 112.791L6.29149 107.533L6.55413 110.227L19.7935 114.341V112.791Z" fill="#8093CA"/>
<path d="M19.7938 116.511L6.81705 112.791L8.48838 128.71L20.3191 132.18L19.7938 116.511Z" fill="#8093CA"/>
<path d="M6.55401 122.032C6.42269 121.901 5.14531 119.468 6.17199 118.562C7.19867 117.668 7.58069 118.693 7.58069 119.719C7.32999 120.875 7.06735 123.32 6.55401 122.032Z" fill="url(#paint58_linear)"/>
<path d="M36.8892 122.032C37.0205 121.901 38.2979 119.468 37.2712 118.562C36.2445 117.668 35.8625 118.693 35.8625 119.719C35.9938 120.875 36.3758 123.32 36.8892 122.032Z" fill="url(#paint59_linear)"/>
</g>
<defs>
<linearGradient id="paint0_linear" x1="148.464" y1="42.7622" x2="151.215" y2="184.882" gradientUnits="userSpaceOnUse">
<stop stop-color="#09005D"/>
<stop offset="1" stop-color="#1A0F91"/>
</linearGradient>
<linearGradient id="paint1_linear" x1="150.866" y1="78.3329" x2="136.329" y2="257.457" gradientUnits="userSpaceOnUse">
<stop stop-color="#6CC9F0"/>
<stop offset="1" stop-color="#3C519F"/>
</linearGradient>
<linearGradient id="paint2_linear" x1="52.3139" y1="99.0576" x2="246.659" y2="99.0576" gradientUnits="userSpaceOnUse">
<stop stop-color="#4042E2"/>
<stop offset="1" stop-color="#4F52FF"/>
</linearGradient>
<linearGradient id="paint3_linear" x1="143.823" y1="101.545" x2="151.526" y2="174.81" gradientUnits="userSpaceOnUse">
<stop stop-color="#232451"/>
<stop offset="1" stop-color="#2A307B"/>
</linearGradient>
<linearGradient id="paint4_linear" x1="218.732" y1="76.5102" x2="190.752" y2="106.674" gradientUnits="userSpaceOnUse">
<stop stop-color="#EE7065"/>
<stop offset="1" stop-color="#F2908F"/>
</linearGradient>
<linearGradient id="paint5_linear" x1="276.807" y1="166.594" x2="268.187" y2="166.594" gradientUnits="userSpaceOnUse">
<stop stop-color="#4042E2"/>
<stop offset="1" stop-color="#4F52FF"/>
</linearGradient>
<linearGradient id="paint6_linear" x1="276.807" y1="164.941" x2="268.432" y2="164.941" gradientUnits="userSpaceOnUse">
<stop stop-color="#232451"/>
<stop offset="1" stop-color="#2A307B"/>
</linearGradient>
<linearGradient id="paint7_linear" x1="276.011" y1="162.539" x2="273.583" y2="162.539" gradientUnits="userSpaceOnUse">
<stop stop-color="#F2908F"/>
<stop offset="1" stop-color="#F6B2B2"/>
</linearGradient>
<linearGradient id="paint8_linear" x1="293.987" y1="166.392" x2="290.685" y2="166.392" gradientUnits="userSpaceOnUse">
<stop stop-color="#4042E2"/>
<stop offset="1" stop-color="#4F52FF"/>
</linearGradient>
<linearGradient id="paint9_linear" x1="293.965" y1="163.865" x2="289.117" y2="163.865" gradientUnits="userSpaceOnUse">
<stop stop-color="#232451"/>
<stop offset="1" stop-color="#2A307B"/>
</linearGradient>
<linearGradient id="paint10_linear" x1="291.444" y1="160.567" x2="288.543" y2="160.567" gradientUnits="userSpaceOnUse">
<stop stop-color="#F2908F"/>
<stop offset="1" stop-color="#F6B2B2"/>
</linearGradient>
<linearGradient id="paint11_linear" x1="289.755" y1="163.168" x2="247.762" y2="105.041" gradientUnits="userSpaceOnUse">
<stop stop-color="#EE7065"/>
<stop offset="1" stop-color="#F2908F"/>
</linearGradient>
<linearGradient id="paint12_linear" x1="259.248" y1="99.3157" x2="305.809" y2="155.182" gradientUnits="userSpaceOnUse">
<stop stop-color="#4042E2"/>
<stop offset="1" stop-color="#4F52FF"/>
</linearGradient>
<linearGradient id="paint13_linear" x1="281.65" y1="149.813" x2="280.262" y2="147.034" gradientUnits="userSpaceOnUse">
<stop stop-color="#E2473D"/>
<stop offset="1" stop-color="#E9615A"/>
</linearGradient>
<linearGradient id="paint14_linear" x1="278.152" y1="118.298" x2="288.47" y2="127.445" gradientUnits="userSpaceOnUse">
<stop stop-color="#F2908F"/>
<stop offset="1" stop-color="#F6B2B2"/>
</linearGradient>
<linearGradient id="paint15_linear" x1="265.758" y1="93.8914" x2="312.318" y2="149.758" gradientUnits="userSpaceOnUse">
<stop stop-color="#4042E2"/>
<stop offset="1" stop-color="#4F52FF"/>
</linearGradient>
<linearGradient id="paint16_linear" x1="252.199" y1="105.192" x2="298.759" y2="161.058" gradientUnits="userSpaceOnUse">
<stop stop-color="#4042E2"/>
<stop offset="1" stop-color="#4F52FF"/>
</linearGradient>
<linearGradient id="paint17_linear" x1="258.791" y1="119.111" x2="250.658" y2="119.111" gradientUnits="userSpaceOnUse">
<stop stop-color="#F2908F"/>
<stop offset="1" stop-color="#F6B2B2"/>
</linearGradient>
<linearGradient id="paint18_linear" x1="265.558" y1="95.5558" x2="268.493" y2="109.421" gradientUnits="userSpaceOnUse">
<stop stop-color="#F2908F"/>
<stop offset="1" stop-color="#F6B2B2"/>
</linearGradient>
<linearGradient id="paint19_linear" x1="289.304" y1="125.05" x2="246.716" y2="125.05" gradientUnits="userSpaceOnUse">
<stop stop-color="#181834"/>
<stop offset="1" stop-color="#21234B"/>
</linearGradient>
<linearGradient id="paint20_linear" x1="251.259" y1="106.246" x2="207.757" y2="106.246" gradientUnits="userSpaceOnUse">
<stop stop-color="#181834"/>
<stop offset="1" stop-color="#21234B"/>
</linearGradient>
<linearGradient id="paint21_linear" x1="273.989" y1="122.994" x2="284.305" y2="132.14" gradientUnits="userSpaceOnUse">
<stop stop-color="#F2908F"/>
<stop offset="1" stop-color="#F6B2B2"/>
</linearGradient>
<linearGradient id="paint22_linear" x1="251.522" y1="118.215" x2="248.609" y2="118.215" gradientUnits="userSpaceOnUse">
<stop stop-color="#F2908F"/>
<stop offset="1" stop-color="#F6B2B2"/>
</linearGradient>
<linearGradient id="paint23_linear" x1="98.3959" y1="-226.809" x2="103.533" y2="-216.797" gradientUnits="userSpaceOnUse">
<stop stop-color="#F2908F"/>
<stop offset="1" stop-color="#F6B2B2"/>
</linearGradient>
<linearGradient id="paint24_linear" x1="268.145" y1="91.0433" x2="261.126" y2="100.091" gradientUnits="userSpaceOnUse">
<stop stop-color="#09005D"/>
<stop offset="1" stop-color="#1A0F91"/>
</linearGradient>
<linearGradient id="paint25_linear" x1="100.257" y1="-227.761" x2="105.395" y2="-217.749" gradientUnits="userSpaceOnUse">
<stop stop-color="#F2908F"/>
<stop offset="1" stop-color="#F6B2B2"/>
</linearGradient>
<linearGradient id="paint26_linear" x1="68.2995" y1="41.9251" x2="75.454" y2="61.0269" gradientUnits="userSpaceOnUse">
<stop stop-color="#F2908F"/>
<stop offset="1" stop-color="#F6B2B2"/>
</linearGradient>
<linearGradient id="paint27_linear" x1="59.7737" y1="48.9599" x2="68.3242" y2="69.6798" gradientUnits="userSpaceOnUse">
<stop stop-color="#CC246E"/>
<stop offset="1" stop-color="#4C266C"/>
</linearGradient>
<linearGradient id="paint28_linear" x1="87.2898" y1="19.4094" x2="72.6361" y2="52.2653" gradientUnits="userSpaceOnUse">
<stop stop-color="#F2908F"/>
<stop offset="1" stop-color="#F6B2B2"/>
</linearGradient>
<linearGradient id="paint29_linear" x1="63.1516" y1="54.3179" x2="75.7181" y2="72.8817" gradientUnits="userSpaceOnUse">
<stop stop-color="#CC246E"/>
<stop offset="1" stop-color="#4C266C"/>
</linearGradient>
<linearGradient id="paint30_linear" x1="75.0559" y1="24.5301" x2="90.6805" y2="41.6733" gradientUnits="userSpaceOnUse">
<stop stop-color="#4042E2"/>
<stop offset="1" stop-color="#4F52FF"/>
</linearGradient>
<linearGradient id="paint31_linear" x1="110.316" y1="3.96076" x2="84.9098" y2="16.3477" gradientUnits="userSpaceOnUse">
<stop stop-color="#09005D"/>
<stop offset="1" stop-color="#1A0F91"/>
</linearGradient>
<linearGradient id="paint32_linear" x1="88.426" y1="24.9146" x2="84.5061" y2="53.8341" gradientUnits="userSpaceOnUse">
<stop stop-color="#EE7065"/>
<stop offset="1" stop-color="#F2908F"/>
</linearGradient>
<linearGradient id="paint33_linear" x1="88.2615" y1="15.3798" x2="88.2615" y2="37.4139" gradientUnits="userSpaceOnUse">
<stop stop-color="#F2908F"/>
<stop offset="1" stop-color="#F6B2B2"/>
</linearGradient>
<linearGradient id="paint34_linear" x1="83.1453" y1="10.1398" x2="83.7873" y2="24.4621" gradientUnits="userSpaceOnUse">
<stop stop-color="#F2908F"/>
<stop offset="1" stop-color="#F6B2B2"/>
</linearGradient>
<linearGradient id="paint35_linear" x1="310.39" y1="208.199" x2="301.24" y2="200.366" gradientUnits="userSpaceOnUse">
<stop stop-color="#F2908F"/>
<stop offset="1" stop-color="#F6B2B2"/>
</linearGradient>
<linearGradient id="paint36_linear" x1="-61.0515" y1="-1200.28" x2="-57.842" y2="-1172.77" gradientUnits="userSpaceOnUse">
<stop stop-color="#09005D"/>
<stop offset="1" stop-color="#1A0F91"/>
</linearGradient>
<linearGradient id="paint37_linear" x1="311.954" y1="206.37" x2="302.804" y2="198.537" gradientUnits="userSpaceOnUse">
<stop stop-color="#F2908F"/>
<stop offset="1" stop-color="#F6B2B2"/>
</linearGradient>
<linearGradient id="paint38_linear" x1="89.7041" y1="31.6628" x2="79.9394" y2="34.8692" gradientUnits="userSpaceOnUse">
<stop stop-color="#09005D"/>
<stop offset="1" stop-color="#1A0F91"/>
</linearGradient>
<linearGradient id="paint39_linear" x1="63.9819" y1="30.1401" x2="153.135" y2="22.6301" gradientUnits="userSpaceOnUse">
<stop stop-color="#09005D"/>
<stop offset="1" stop-color="#1A0F91"/>
</linearGradient>
<linearGradient id="paint40_linear" x1="16.524" y1="184.328" x2="16.1877" y2="174.23" gradientUnits="userSpaceOnUse">
<stop stop-color="#5D4495"/>
<stop offset="1" stop-color="#374F9E"/>
</linearGradient>
<linearGradient id="paint41_linear" x1="4.55132" y1="158.447" x2="25.3619" y2="174.808" gradientUnits="userSpaceOnUse">
<stop stop-color="#6CC9F0"/>
<stop offset="1" stop-color="#3C519F"/>
</linearGradient>
<linearGradient id="paint42_linear" x1="16.9799" y1="158.739" x2="15.852" y2="168.595" gradientUnits="userSpaceOnUse">
<stop stop-color="#F2908F"/>
<stop offset="1" stop-color="#F6B2B2"/>
</linearGradient>
<linearGradient id="paint43_linear" x1="36.1098" y1="163.308" x2="15.9849" y2="179.129" gradientUnits="userSpaceOnUse">
<stop stop-color="#6CC9F0"/>
<stop offset="1" stop-color="#3C519F"/>
</linearGradient>
<linearGradient id="paint44_linear" x1="30.3237" y1="190.572" x2="30.6598" y2="180.474" gradientUnits="userSpaceOnUse">
<stop stop-color="#5D4495"/>
<stop offset="1" stop-color="#374F9E"/>
</linearGradient>
<linearGradient id="paint45_linear" x1="28.7296" y1="159.982" x2="27.6745" y2="169.201" gradientUnits="userSpaceOnUse">
<stop stop-color="#F2908F"/>
<stop offset="1" stop-color="#F6B2B2"/>
</linearGradient>
<linearGradient id="paint46_linear" x1="22.2987" y1="159.699" x2="23.5645" y2="119.993" gradientUnits="userSpaceOnUse">
<stop stop-color="#2A3780"/>
<stop offset="1" stop-color="#201D3F"/>
</linearGradient>
<linearGradient id="paint47_linear" x1="20.9812" y1="98.1999" x2="19.4386" y2="131.92" gradientUnits="userSpaceOnUse">
<stop stop-color="#EE7065"/>
<stop offset="1" stop-color="#F2908F"/>
</linearGradient>
<linearGradient id="paint48_linear" x1="17.7381" y1="96.2881" x2="22.8083" y2="96.2881" gradientUnits="userSpaceOnUse">
<stop stop-color="#F2908F"/>
<stop offset="1" stop-color="#F6B2B2"/>
</linearGradient>
<linearGradient id="paint49_linear" x1="10.503" y1="97.7214" x2="8.9605" y2="131.442" gradientUnits="userSpaceOnUse">
<stop stop-color="#EE7065"/>
<stop offset="1" stop-color="#F2908F"/>
</linearGradient>
<linearGradient id="paint50_linear" x1="19.0132" y1="122.144" x2="9.99961" y2="129.853" gradientUnits="userSpaceOnUse">
<stop stop-color="#F9B877"/>
<stop offset="1" stop-color="#EF7A62"/>
</linearGradient>
<linearGradient id="paint51_linear" x1="33.9072" y1="98.7916" x2="32.3646" y2="132.513" gradientUnits="userSpaceOnUse">
<stop stop-color="#EE7065"/>
<stop offset="1" stop-color="#F2908F"/>
</linearGradient>
<linearGradient id="paint52_linear" x1="24.3773" y1="122.538" x2="29.4465" y2="127.614" gradientUnits="userSpaceOnUse">
<stop stop-color="#F9B877"/>
<stop offset="1" stop-color="#EF7A62"/>
</linearGradient>
<linearGradient id="paint53_linear" x1="21.0576" y1="88.1411" x2="23.1398" y2="100.41" gradientUnits="userSpaceOnUse">
<stop stop-color="#F2908F"/>
<stop offset="1" stop-color="#F6B2B2"/>
</linearGradient>
<linearGradient id="paint54_linear" x1="18.7978" y1="94.0098" x2="24.941" y2="87.4762" gradientUnits="userSpaceOnUse">
<stop stop-color="#2A3780"/>
<stop offset="1" stop-color="#201D3F"/>
</linearGradient>
<linearGradient id="paint55_linear" x1="19.221" y1="101.546" x2="18.8505" y2="92.9317" gradientUnits="userSpaceOnUse">
<stop stop-color="#F2908F"/>
<stop offset="1" stop-color="#F6B2B2"/>
</linearGradient>
<linearGradient id="paint56_linear" x1="4.77541" y1="119.789" x2="21.7421" y2="119.789" gradientUnits="userSpaceOnUse">
<stop stop-color="#4042E2"/>
<stop offset="1" stop-color="#4F52FF"/>
</linearGradient>
<linearGradient id="paint57_linear" x1="38.4591" y1="119.789" x2="21.4659" y2="119.789" gradientUnits="userSpaceOnUse">
<stop stop-color="#4042E2"/>
<stop offset="1" stop-color="#4F52FF"/>
</linearGradient>
<linearGradient id="paint58_linear" x1="5.69664" y1="120.312" x2="7.43881" y2="120.312" gradientUnits="userSpaceOnUse">
<stop stop-color="#F2908F"/>
<stop offset="1" stop-color="#F6B2B2"/>
</linearGradient>
<linearGradient id="paint59_linear" x1="37.6745" y1="120.312" x2="35.9323" y2="120.312" gradientUnits="userSpaceOnUse">
<stop stop-color="#F2908F"/>
<stop offset="1" stop-color="#F6B2B2"/>
</linearGradient>
<clipPath id="clip0">
<rect width="294" height="168" fill="white"/>
</clipPath>
</defs>
</svg>
