<svg width="54" height="60" viewBox="0 0 54 60" fill="none" xmlns="http://www.w3.org/2000/svg">
<g clip-path="url(#clip0)">
<path d="M37.0492 31.1476C36.9399 31.1476 36.8306 31.1476 36.7213 31.0383C36.3934 30.929 36.1749 30.6012 36.1749 30.164V23.388H24.5902C24.0437 23.388 23.7158 22.9509 23.7158 22.5137C23.7158 22.0766 24.153 21.6394 24.5902 21.6394H37.0492C37.5956 21.6394 37.9235 22.0766 37.9235 22.5137V27.9782L50.929 15.1913L38.0328 3.06017V7.86891C38.0328 8.41536 37.5956 8.74323 37.1585 8.74323H0.874317C0.437158 8.74323 0 8.30607 0 7.86891C0 7.43175 0.437158 6.99459 0.874317 6.99459H36.0656V0.874373C36.0656 0.546504 36.2842 0.218635 36.612 5.59092e-05C36.9399 -0.109234 37.3771 -0.109234 37.5956 0.218635L52.8962 14.5356C53.1148 14.7542 53.224 14.9727 53.224 15.1913C53.224 15.4099 53.1148 15.7378 52.8962 15.8471L37.5956 30.929C37.5956 31.0383 37.2678 31.1476 37.0492 31.1476Z" fill="#713ADA"/>
<path d="M20.3279 23.4973H0.874317C0.327869 23.4973 0 23.0601 0 22.623C0 22.1858 0.437158 21.7487 0.874317 21.7487H20.2186C20.765 21.7487 21.0929 22.1858 21.0929 22.623C21.0929 23.0601 20.765 23.4973 20.3279 23.4973Z" fill="#713ADA"/>
<path d="M52.3497 53.0055H28.5246C27.9781 53.0055 27.6503 52.5683 27.6503 52.1312C27.6503 51.5847 28.0874 51.2568 28.5246 51.2568H52.3497C52.8962 51.2568 53.224 51.694 53.224 52.1312C53.3333 52.6776 52.8962 53.0055 52.3497 53.0055Z" fill="#713ADA"/>
<path d="M16.2842 60C16.0656 60 15.847 59.8907 15.6284 59.7814L0.327869 45.4645C0.10929 45.2459 0 45.0273 0 44.6995C0 44.4809 0.10929 44.153 0.327869 44.0437L15.6284 28.9618C15.847 28.7432 16.2842 28.6339 16.612 28.7432C16.9399 28.8525 17.1585 29.1804 17.1585 29.6175V36.3935H52.3497C52.8962 36.3935 53.224 36.8306 53.224 37.2678C53.224 37.8142 52.7869 38.1421 52.3497 38.1421H16.2842C15.7377 38.1421 15.4098 37.7049 15.4098 37.2678V31.8033L2.29508 44.6995L15.3005 56.9399V52.1312C15.3005 51.5847 15.7377 51.2569 16.1749 51.2569H23.6066C24.153 51.2569 24.4809 51.694 24.4809 52.1312C24.4809 52.6776 24.0437 53.0055 23.6066 53.0055H17.1585V59.0164C17.1585 59.3443 16.9399 59.6722 16.612 59.8907C16.5027 59.8907 16.3934 60 16.2842 60Z" fill="#713ADA"/>
</g>
<defs>
<clipPath id="clip0">
<rect width="53.3333" height="60" fill="white"/>
</clipPath>
</defs>
</svg>
