<svg width="41" height="60" viewBox="0 0 41 60" fill="none" xmlns="http://www.w3.org/2000/svg">
<g clip-path="url(#clip0)">
<path d="M6.07737 20.442C3.97792 20.442 2.32047 18.7845 2.32047 16.6851V5.96686C2.32047 5.41438 2.76245 5.08289 3.20444 5.08289H8.8398C9.39229 5.08289 9.72378 5.52487 9.72378 5.96686V16.7956C9.83428 18.7845 8.17682 20.442 6.07737 20.442ZM4.19892 6.85084V16.6851C4.19892 17.6796 5.0829 18.5635 6.07737 18.5635C7.07185 18.5635 7.95582 17.6796 7.95582 16.6851V6.85084H4.19892Z" fill="#713ADA"/>
<path d="M11.7127 20.442C9.61327 20.442 7.95581 18.7845 7.95581 16.6851V5.96686C7.95581 5.41438 8.3978 5.08289 8.83979 5.08289H14.4751C15.0276 5.08289 15.3591 5.52487 15.3591 5.96686V16.7956C15.4696 18.7845 13.8122 20.442 11.7127 20.442ZM9.83426 6.85084V16.6851C9.83426 17.6796 10.7182 18.5635 11.7127 18.5635C12.7072 18.5635 13.5912 17.6796 13.5912 16.6851V6.85084H9.83426Z" fill="#713ADA"/>
<path d="M17.348 20.442C15.2486 20.442 13.5911 18.7845 13.5911 16.6851V5.96686C13.5911 5.41438 14.0331 5.08289 14.4751 5.08289H20.1105C20.663 5.08289 20.9944 5.52487 20.9944 5.96686V16.7956C21.1049 18.7845 19.337 20.442 17.348 20.442ZM15.4696 6.85084V16.6851C15.4696 17.6796 16.3536 18.5635 17.348 18.5635C18.3425 18.5635 19.2265 17.6796 19.2265 16.6851V6.85084H15.4696Z" fill="#713ADA"/>
<path d="M22.9834 20.442C20.884 20.442 19.2265 18.7845 19.2265 16.6851V5.96686C19.2265 5.41438 19.6685 5.08289 20.1105 5.08289H25.7458C26.2983 5.08289 26.6298 5.52487 26.6298 5.96686V16.7956C26.6298 18.7845 24.9724 20.442 22.9834 20.442ZM21.105 6.85084V16.6851C21.105 17.6796 21.9889 18.5635 22.9834 18.5635C23.9779 18.5635 24.8619 17.6796 24.8619 16.6851V6.85084H21.105Z" fill="#713ADA"/>
<path d="M28.5083 20.442C26.4088 20.442 24.7514 18.7845 24.7514 16.6851V5.96686C24.7514 5.41438 25.1934 5.08289 25.6354 5.08289H31.2707C31.8232 5.08289 32.1547 5.52487 32.1547 5.96686V16.7956C32.2652 18.7845 30.6077 20.442 28.5083 20.442ZM26.6298 6.85084V16.6851C26.6298 17.6796 27.5138 18.5635 28.5083 18.5635C29.5028 18.5635 30.3867 17.6796 30.3867 16.6851V6.85084H26.6298Z" fill="#713ADA"/>
<path d="M34.1437 20.442C32.0442 20.442 30.3867 18.7845 30.3867 16.6851V5.96686C30.3867 5.41438 30.8287 5.08289 31.2707 5.08289H36.9061C37.4586 5.08289 37.7901 5.52487 37.7901 5.96686V16.7956C37.9006 18.7845 36.2431 20.442 34.1437 20.442ZM32.2652 6.85084V16.6851C32.2652 17.6796 33.1492 18.5635 34.1437 18.5635C35.1381 18.5635 36.0221 17.6796 36.0221 16.6851V6.85084H32.2652Z" fill="#713ADA"/>
<path d="M36.7956 6.85083H3.42541C1.54696 6.85083 0 5.30387 0 3.42541C0 1.54696 1.54696 0 3.42541 0H36.7956C38.674 0 40.221 1.54696 40.221 3.42541C40.221 5.30387 38.7845 6.85083 36.7956 6.85083ZM3.42541 1.87845C2.54144 1.87845 1.87845 2.54144 1.87845 3.42541C1.87845 4.30939 2.54144 4.97238 3.42541 4.97238H36.7956C37.6796 4.97238 38.3425 4.30939 38.3425 3.42541C38.3425 2.54144 37.6796 1.87845 36.7956 1.87845H3.42541Z" fill="#713ADA"/>
<path d="M32.7072 60H7.5138C5.63535 60 4.19888 58.4531 4.19888 56.6851V19.3371C4.19888 19.0056 4.30938 18.7846 4.64087 18.5636C4.86187 18.3426 5.19336 18.3426 5.52485 18.4531C6.62982 18.8951 7.73479 18.1216 7.95579 17.0166C7.95579 16.6851 8.28728 16.3536 8.61877 16.2431C8.95026 16.1326 9.28176 16.2431 9.61325 16.4641C9.61325 16.4641 9.61325 16.4641 9.72374 16.4641C9.83424 16.5746 9.94474 16.7956 10.0552 17.0166C10.1657 17.9006 10.9392 18.5636 11.9337 18.5636C12.9282 18.5636 13.8121 17.6796 13.8121 16.6851C13.8121 16.1326 14.2541 15.8011 14.6961 15.8011C15.2486 15.8011 15.5801 16.2431 15.5801 16.6851C15.5801 17.6796 16.4641 18.5636 17.4586 18.5636C18.453 18.5636 19.337 17.6796 19.337 16.6851C19.337 16.1326 19.779 15.8011 20.221 15.8011C20.663 15.8011 21.105 16.2431 21.105 16.6851C21.105 17.6796 21.9889 18.5636 22.9834 18.5636C23.9779 18.5636 24.8619 17.6796 24.8619 16.6851C24.8619 16.1326 25.3039 15.8011 25.7458 15.8011C26.2983 15.8011 26.6298 16.2431 26.6298 16.6851C26.6298 17.6796 27.5138 18.5636 28.5083 18.5636C29.3923 18.5636 30.1657 17.9006 30.3867 17.0166C30.3867 16.7956 30.4972 16.5746 30.7182 16.4641L30.8287 16.3536C31.0497 16.1326 31.3812 16.0221 31.7127 16.1326C32.0442 16.2431 32.2652 16.5746 32.3757 16.9061C32.5967 18.0111 33.7016 18.7846 34.9171 18.3426C35.2486 18.2321 35.5801 18.2321 35.8011 18.4531C36.0221 18.6741 36.2431 18.8951 36.2431 19.2266V56.5746C36.1326 58.5636 34.5856 60 32.7072 60ZM6.07734 20.442V56.5746C6.07734 57.3481 6.74032 58.1216 7.6243 58.1216H32.8177C33.5912 58.1216 34.3646 57.4586 34.3646 56.5746V20.442C33.2597 20.442 32.1547 20 31.4917 19.2266C30.8287 20 29.8342 20.442 28.7293 20.442C27.6243 20.442 26.6298 20 25.9668 19.2266C25.3039 20 24.3094 20.442 23.2044 20.442C22.0994 20.442 21.105 20 20.442 19.2266C19.779 20 18.7845 20.442 17.6795 20.442C16.5746 20.442 15.5801 20 14.9171 19.2266C14.2541 20 13.2597 20.442 12.1547 20.442C11.0497 20.442 10.0552 20 9.39225 19.2266C8.17678 20 7.18231 20.442 6.07734 20.442Z" fill="#713ADA"/>
<path d="M35.1381 53.5912H5.08286C4.53037 53.5912 4.19888 53.1492 4.19888 52.7072C4.19888 52.1547 4.64087 51.8232 5.08286 51.8232H35.1381C35.6906 51.8232 36.0221 52.2652 36.0221 52.7072C36.1326 53.1492 35.6906 53.5912 35.1381 53.5912Z" fill="#713ADA"/>
<path d="M9.50275 24.3093C9.99096 24.3093 10.3867 23.9136 10.3867 23.4254C10.3867 22.9372 9.99096 22.5414 9.50275 22.5414C9.01455 22.5414 8.61877 22.9372 8.61877 23.4254C8.61877 23.9136 9.01455 24.3093 9.50275 24.3093Z" fill="#713ADA"/>
<path d="M12.8177 24.3093C13.3059 24.3093 13.7016 23.9136 13.7016 23.4254C13.7016 22.9372 13.3059 22.5414 12.8177 22.5414C12.3295 22.5414 11.9337 22.9372 11.9337 23.4254C11.9337 23.9136 12.3295 24.3093 12.8177 24.3093Z" fill="#713ADA"/>
<path d="M16.1326 24.3093C16.6208 24.3093 17.0166 23.9136 17.0166 23.4254C17.0166 22.9372 16.6208 22.5414 16.1326 22.5414C15.6444 22.5414 15.2486 22.9372 15.2486 23.4254C15.2486 23.9136 15.6444 24.3093 16.1326 24.3093Z" fill="#713ADA"/>
<path d="M15.8011 27.9557H9.61325C9.06076 27.9557 8.61877 27.5138 8.61877 26.9613C8.61877 26.4088 9.06076 25.9668 9.61325 25.9668H15.8011C16.3536 25.9668 16.7956 26.4088 16.7956 26.9613C16.7956 27.5138 16.3536 27.9557 15.8011 27.9557Z" fill="#713ADA"/>
<path d="M30.3867 40.884V47.8453H10.1657V40.884H30.3867ZM30.9392 39.337H9.61325C9.06076 39.337 8.61877 39.779 8.61877 40.3315V48.2873C8.61877 48.8398 9.06076 49.2818 9.61325 49.2818H30.9392C31.4917 49.2818 31.9337 48.8398 31.9337 48.2873V40.3315C31.9337 39.779 31.4917 39.337 30.9392 39.337Z" fill="#713ADA"/>
</g>
<defs>
<clipPath id="clip0">
<rect width="40.221" height="60" fill="white"/>
</clipPath>
</defs>
</svg>
