<svg width="41" height="60" viewBox="0 0 41 60" fill="none" xmlns="http://www.w3.org/2000/svg">
<g clip-path="url(#clip0)">
<path d="M20.2682 60C19.9227 60 19.5772 59.7697 19.462 59.5393L2.87853 30.9789C-0.806694 24.6449 -0.921857 17.0441 2.6482 10.4798C5.98793 4.26104 12.2067 0.345489 19.1165 0C19.462 0 19.9227 0 20.2682 0C20.6136 0 21.0743 0 21.4198 0C28.4447 0.345489 34.6636 4.3762 38.0033 10.595C41.4582 17.0441 41.343 24.7601 37.6578 31.094L21.0743 59.5393C20.9591 59.7697 20.6136 60 20.2682 60ZM20.2682 1.95777C19.9227 1.95777 19.5772 1.95777 19.2317 1.95777C12.8977 2.30326 7.36989 5.87332 4.26048 11.5163C1.03592 17.3896 1.15108 24.2994 4.49081 30.0576L20.2682 57.1209L36.0455 30.1727C39.3852 24.4146 39.5004 17.5048 36.391 11.6315C33.2816 5.98848 27.7538 2.41843 21.4198 2.07294C20.9591 1.95777 20.6136 1.95777 20.2682 1.95777Z" fill="#713ADA"/>
<path d="M20.2688 36.7371C11.286 36.7371 3.9156 29.3667 3.9156 20.3839C3.9156 11.4012 11.286 4.03076 20.2688 4.03076C29.2515 4.03076 36.6219 11.4012 36.6219 20.3839C36.6219 29.3667 29.3667 36.7371 20.2688 36.7371ZM20.2688 5.98854C12.3225 5.98854 5.87338 12.4377 5.87338 20.3839C5.87338 28.3302 12.3225 34.7793 20.2688 34.7793C28.215 34.7793 34.6642 28.3302 34.6642 20.3839C34.6642 12.4377 28.215 5.98854 20.2688 5.98854Z" fill="#713ADA"/>
<path d="M29.5969 29.9424H10.9405C10.3647 29.9424 10.0192 29.4818 10.0192 29.0211V13.3589C10.0192 12.7831 10.4798 12.4376 10.9405 12.4376H29.5969C30.1727 12.4376 30.5182 12.8983 30.5182 13.3589V28.9059C30.5182 29.4818 30.1727 29.9424 29.5969 29.9424ZM11.9769 27.9846H28.6756V14.2802H11.9769V27.9846Z" fill="#713ADA"/>
<path d="M27.9846 18.3109C27.4088 18.3109 26.833 18.1958 26.4875 17.8503C25.5662 18.4261 24.2994 18.4261 23.3781 17.8503C22.4568 18.4261 21.19 18.4261 20.2687 17.8503C19.3474 18.4261 18.0806 18.4261 17.1593 17.8503C16.238 18.4261 14.9712 18.4261 14.0499 17.8503C13.5892 18.0806 13.0134 18.3109 12.5528 18.3109C11.1708 18.3109 10.0192 17.3896 10.0192 16.1228C10.0192 15.547 10.4798 15.2015 10.9405 15.2015C11.5163 15.2015 11.8618 15.6622 11.8618 16.1228C11.8618 16.238 12.0921 16.3532 12.4376 16.3532C12.6679 16.3532 12.8982 16.238 13.0134 16.1228C13.4741 15.547 14.5105 15.547 14.9712 16.1228C15.0863 16.238 15.3167 16.3532 15.547 16.3532C15.7773 16.3532 16.0076 16.238 16.1228 16.1228C16.5835 15.547 17.6199 15.547 18.0806 16.1228C18.1957 16.238 18.4261 16.3532 18.6564 16.3532C18.8867 16.3532 19.1171 16.238 19.2322 16.1228C19.6929 15.547 20.7293 15.547 21.19 16.1228C21.3051 16.238 21.5355 16.3532 21.7658 16.3532C21.9961 16.3532 22.2265 16.238 22.3416 16.1228C22.8023 15.547 23.8387 15.547 24.2994 16.1228C24.4146 16.238 24.6449 16.3532 24.8752 16.3532C25.1055 16.3532 25.3359 16.238 25.451 16.1228C25.9117 15.547 26.9481 15.547 27.4088 16.1228C27.524 16.238 27.7543 16.3532 27.9846 16.3532C28.3301 16.3532 28.5604 16.238 28.5604 16.1228C28.5604 15.547 29.0211 15.2015 29.4817 15.2015C29.9424 15.2015 30.403 15.6622 30.403 16.238C30.5182 17.3896 29.4817 18.3109 27.9846 18.3109Z" fill="#713ADA"/>
<path d="M19.5777 29.9424H14.6257C14.0499 29.9424 13.7044 29.4818 13.7044 29.0211V20.4991C13.7044 19.9232 14.165 19.5778 14.6257 19.5778H19.5777C20.1535 19.5778 20.499 20.0384 20.499 20.4991V29.0211C20.499 29.4818 20.0383 29.9424 19.5777 29.9424ZM15.547 27.9847H18.5412V21.4204H15.547V27.9847Z" fill="#713ADA"/>
<path d="M30.7486 14.2802H9.90406C9.32825 14.2802 8.98276 13.8196 8.98276 13.3589C8.98276 12.8983 9.44341 12.4376 9.90406 12.4376H30.7486C31.3244 12.4376 31.6699 12.8983 31.6699 13.3589C31.6699 13.8196 31.2092 14.2802 30.7486 14.2802Z" fill="#713ADA"/>
<path d="M29.5969 25.4511H23.1478C22.5719 25.4511 22.2265 24.9904 22.2265 24.5298V20.4991C22.2265 19.9232 22.6871 19.5778 23.1478 19.5778H29.5969C30.1727 19.5778 30.5182 20.0384 30.5182 20.4991V24.5298C30.5182 24.9904 30.1727 25.4511 29.5969 25.4511ZM24.0691 23.4933H28.5604V21.4204H24.0691V23.4933Z" fill="#713ADA"/>
<path d="M34.3186 60H6.21882C5.64301 60 5.29752 59.5393 5.29752 59.0787C5.29752 58.5028 5.75817 58.1573 6.21882 58.1573H34.3186C34.8944 58.1573 35.2399 58.618 35.2399 59.0787C35.3551 59.5393 34.8944 60 34.3186 60Z" fill="#713ADA"/>
</g>
<defs>
<clipPath id="clip0">
<rect width="40.5374" height="60" fill="white"/>
</clipPath>
</defs>
</svg>
